G04*
G04 #@! TF.GenerationSoftware,Altium Limited,Altium Designer,20.0.13 (296)*
G04*
G04 Layer_Color=65535*
%FSLAX25Y25*%
%MOIN*%
G70*
G01*
G75*
%ADD10C,0.00394*%
%ADD11C,0.01181*%
%ADD12C,0.00984*%
%ADD13C,0.01000*%
%ADD14C,0.00787*%
%ADD15C,0.00600*%
G36*
X58091Y31752D02*
X34468D01*
Y55374D01*
X58091D01*
Y31752D01*
D02*
G37*
G36*
X75765Y18351D02*
X73948D01*
X73753Y16729D01*
X73761Y16736D01*
X73768Y16758D01*
X73790Y16794D01*
X73818Y16830D01*
X73862Y16880D01*
X73912Y16924D01*
X73977Y16974D01*
X74056Y17017D01*
X74071Y17025D01*
X74099Y17032D01*
X74150Y17053D01*
X74215Y17075D01*
X74294Y17089D01*
X74388Y17111D01*
X74489Y17118D01*
X74597Y17125D01*
X74655D01*
X74705Y17118D01*
X74756Y17111D01*
X74821Y17104D01*
X74958Y17068D01*
X75123Y17010D01*
X75203Y16974D01*
X75289Y16924D01*
X75368Y16873D01*
X75448Y16808D01*
X75527Y16736D01*
X75599Y16649D01*
X75606Y16642D01*
X75614Y16628D01*
X75635Y16599D01*
X75657Y16563D01*
X75686Y16513D01*
X75714Y16455D01*
X75751Y16390D01*
X75787Y16311D01*
X75823Y16224D01*
X75859Y16130D01*
X75888Y16022D01*
X75916Y15907D01*
X75938Y15784D01*
X75960Y15647D01*
X75967Y15510D01*
X75974Y15359D01*
Y15352D01*
Y15316D01*
Y15272D01*
X75967Y15208D01*
X75960Y15128D01*
X75953Y15042D01*
X75938Y14941D01*
X75924Y14840D01*
X75880Y14609D01*
X75808Y14371D01*
X75765Y14256D01*
X75707Y14141D01*
X75650Y14032D01*
X75578Y13931D01*
X75570Y13924D01*
X75563Y13910D01*
X75534Y13888D01*
X75506Y13852D01*
X75462Y13816D01*
X75419Y13773D01*
X75361Y13729D01*
X75296Y13679D01*
X75217Y13636D01*
X75138Y13585D01*
X75044Y13542D01*
X74950Y13506D01*
X74842Y13470D01*
X74727Y13448D01*
X74604Y13434D01*
X74474Y13427D01*
X74410D01*
X74366Y13434D01*
X74309Y13441D01*
X74244Y13448D01*
X74092Y13477D01*
X73927Y13520D01*
X73753Y13592D01*
X73667Y13636D01*
X73588Y13686D01*
X73508Y13751D01*
X73436Y13816D01*
X73429Y13823D01*
X73422Y13838D01*
X73400Y13859D01*
X73378Y13888D01*
X73350Y13931D01*
X73321Y13982D01*
X73292Y14040D01*
X73256Y14112D01*
X73220Y14184D01*
X73191Y14270D01*
X73162Y14364D01*
X73133Y14465D01*
X73112Y14580D01*
X73090Y14696D01*
X73083Y14825D01*
X73076Y14962D01*
X73667D01*
Y14919D01*
Y14912D01*
Y14897D01*
Y14876D01*
Y14840D01*
X73681Y14761D01*
X73696Y14660D01*
X73717Y14544D01*
X73753Y14422D01*
X73804Y14306D01*
X73876Y14205D01*
X73883Y14198D01*
X73912Y14169D01*
X73962Y14126D01*
X74027Y14083D01*
X74114Y14040D01*
X74215Y13996D01*
X74330Y13967D01*
X74467Y13960D01*
X74511D01*
X74539Y13967D01*
X74611Y13982D01*
X74705Y14004D01*
X74813Y14047D01*
X74922Y14104D01*
X75022Y14191D01*
X75073Y14241D01*
X75116Y14299D01*
Y14306D01*
X75123Y14313D01*
X75138Y14335D01*
X75152Y14364D01*
X75167Y14400D01*
X75188Y14443D01*
X75210Y14494D01*
X75231Y14551D01*
X75253Y14616D01*
X75275Y14688D01*
X75296Y14768D01*
X75311Y14854D01*
X75325Y14948D01*
X75340Y15056D01*
X75347Y15280D01*
Y15287D01*
Y15308D01*
Y15345D01*
Y15388D01*
X75340Y15438D01*
X75332Y15503D01*
X75318Y15647D01*
X75289Y15806D01*
X75253Y15965D01*
X75195Y16116D01*
X75159Y16188D01*
X75123Y16253D01*
Y16260D01*
X75116Y16267D01*
X75080Y16304D01*
X75030Y16354D01*
X74958Y16419D01*
X74864Y16477D01*
X74748Y16527D01*
X74611Y16563D01*
X74532Y16577D01*
X74402D01*
X74352Y16570D01*
X74287Y16563D01*
X74208Y16541D01*
X74121Y16520D01*
X74042Y16484D01*
X73962Y16441D01*
X73955Y16433D01*
X73934Y16419D01*
X73898Y16390D01*
X73854Y16347D01*
X73811Y16296D01*
X73768Y16231D01*
X73725Y16159D01*
X73689Y16073D01*
X73184Y16109D01*
X73479Y18899D01*
X75765D01*
Y18351D01*
D02*
G37*
G36*
X43983Y18986D02*
X44034Y18978D01*
X44099Y18971D01*
X44236Y18949D01*
X44401Y18906D01*
X44567Y18841D01*
X44647Y18798D01*
X44726Y18748D01*
X44805Y18690D01*
X44877Y18625D01*
X44885Y18618D01*
X44892Y18611D01*
X44913Y18589D01*
X44935Y18560D01*
X44964Y18524D01*
X44993Y18474D01*
X45029Y18423D01*
X45065Y18365D01*
X45094Y18293D01*
X45130Y18221D01*
X45187Y18048D01*
X45231Y17854D01*
X45238Y17745D01*
X45245Y17630D01*
Y17623D01*
Y17608D01*
Y17580D01*
Y17551D01*
X45238Y17507D01*
Y17457D01*
X45216Y17342D01*
X45195Y17212D01*
X45159Y17068D01*
X45108Y16931D01*
X45036Y16801D01*
X45029Y16786D01*
X45000Y16750D01*
X44949Y16693D01*
X44885Y16628D01*
X44805Y16563D01*
X44712Y16498D01*
X44596Y16448D01*
X44474Y16412D01*
X44481D01*
X44495Y16404D01*
X44517D01*
X44553Y16390D01*
X44639Y16368D01*
X44740Y16325D01*
X44856Y16275D01*
X44971Y16203D01*
X45087Y16109D01*
X45180Y15993D01*
X45187Y15979D01*
X45202Y15957D01*
X45216Y15936D01*
X45238Y15900D01*
X45252Y15864D01*
X45303Y15755D01*
X45346Y15626D01*
X45382Y15474D01*
X45411Y15294D01*
X45418Y15085D01*
Y15078D01*
Y15049D01*
Y15006D01*
X45411Y14955D01*
X45404Y14890D01*
X45397Y14811D01*
X45382Y14725D01*
X45368Y14638D01*
X45317Y14436D01*
X45245Y14234D01*
X45202Y14133D01*
X45151Y14040D01*
X45087Y13946D01*
X45014Y13859D01*
X45007Y13852D01*
X44993Y13838D01*
X44971Y13816D01*
X44942Y13794D01*
X44899Y13758D01*
X44848Y13722D01*
X44791Y13686D01*
X44726Y13643D01*
X44647Y13600D01*
X44560Y13564D01*
X44474Y13528D01*
X44373Y13492D01*
X44265Y13470D01*
X44142Y13448D01*
X44019Y13434D01*
X43890Y13427D01*
X43825D01*
X43774Y13434D01*
X43717Y13441D01*
X43652Y13448D01*
X43572Y13463D01*
X43493Y13477D01*
X43320Y13528D01*
X43233Y13564D01*
X43147Y13607D01*
X43060Y13657D01*
X42974Y13715D01*
X42895Y13780D01*
X42823Y13852D01*
X42815Y13859D01*
X42808Y13874D01*
X42786Y13895D01*
X42765Y13931D01*
X42736Y13975D01*
X42707Y14032D01*
X42678Y14097D01*
X42642Y14169D01*
X42606Y14256D01*
X42577Y14349D01*
X42549Y14450D01*
X42520Y14559D01*
X42498Y14681D01*
X42476Y14811D01*
X42469Y14948D01*
X42462Y15099D01*
Y15157D01*
X43060D01*
Y15063D01*
Y15056D01*
Y15042D01*
Y15013D01*
Y14970D01*
X43068Y14926D01*
X43075Y14869D01*
X43089Y14746D01*
X43111Y14609D01*
X43147Y14472D01*
X43197Y14342D01*
X43262Y14227D01*
X43270Y14213D01*
X43298Y14184D01*
X43349Y14141D01*
X43414Y14090D01*
X43500Y14040D01*
X43608Y13996D01*
X43738Y13967D01*
X43882Y13953D01*
X43926D01*
X43955Y13960D01*
X44034Y13967D01*
X44135Y13989D01*
X44243Y14018D01*
X44358Y14068D01*
X44466Y14133D01*
X44560Y14227D01*
X44567Y14241D01*
X44596Y14277D01*
X44632Y14342D01*
X44675Y14436D01*
X44719Y14551D01*
X44755Y14696D01*
X44784Y14862D01*
X44791Y15049D01*
Y15056D01*
Y15071D01*
Y15099D01*
X44784Y15135D01*
Y15186D01*
X44776Y15236D01*
X44755Y15359D01*
X44726Y15489D01*
X44675Y15619D01*
X44611Y15748D01*
X44524Y15856D01*
X44510Y15871D01*
X44474Y15900D01*
X44416Y15936D01*
X44329Y15986D01*
X44214Y16037D01*
X44077Y16073D01*
X43911Y16102D01*
X43717Y16116D01*
X43630D01*
X43594Y16109D01*
X43529D01*
Y16606D01*
X43702D01*
X43738Y16613D01*
X43782D01*
X43832Y16621D01*
X43940Y16635D01*
X44063Y16664D01*
X44192Y16707D01*
X44308Y16758D01*
X44409Y16837D01*
X44416Y16851D01*
X44445Y16880D01*
X44481Y16938D01*
X44531Y17017D01*
X44575Y17118D01*
X44611Y17241D01*
X44639Y17392D01*
X44647Y17565D01*
Y17572D01*
Y17587D01*
Y17608D01*
Y17637D01*
X44639Y17709D01*
X44618Y17810D01*
X44596Y17911D01*
X44560Y18027D01*
X44510Y18135D01*
X44438Y18228D01*
X44430Y18236D01*
X44401Y18265D01*
X44351Y18308D01*
X44293Y18351D01*
X44207Y18394D01*
X44106Y18438D01*
X43991Y18466D01*
X43861Y18474D01*
X43846D01*
X43803Y18466D01*
X43738Y18459D01*
X43659Y18445D01*
X43572Y18409D01*
X43479Y18365D01*
X43392Y18308D01*
X43313Y18221D01*
X43306Y18207D01*
X43284Y18171D01*
X43255Y18113D01*
X43226Y18034D01*
X43190Y17926D01*
X43161Y17796D01*
X43140Y17645D01*
X43133Y17464D01*
Y17385D01*
X42556D01*
Y17457D01*
Y17464D01*
Y17486D01*
Y17529D01*
X42563Y17580D01*
X42570Y17637D01*
X42577Y17709D01*
X42585Y17782D01*
X42599Y17868D01*
X42642Y18048D01*
X42707Y18236D01*
X42743Y18329D01*
X42794Y18416D01*
X42844Y18503D01*
X42909Y18582D01*
X42916Y18589D01*
X42924Y18596D01*
X42945Y18618D01*
X42974Y18647D01*
X43010Y18676D01*
X43053Y18712D01*
X43104Y18748D01*
X43161Y18791D01*
X43298Y18863D01*
X43464Y18928D01*
X43558Y18957D01*
X43659Y18978D01*
X43767Y18986D01*
X43875Y18993D01*
X43933D01*
X43983Y18986D01*
D02*
G37*
G36*
X91483Y18993D02*
X91540Y18986D01*
X91605Y18978D01*
X91750Y18949D01*
X91915Y18906D01*
X92089Y18834D01*
X92175Y18791D01*
X92254Y18741D01*
X92334Y18683D01*
X92406Y18611D01*
X92413Y18604D01*
X92420Y18596D01*
X92442Y18567D01*
X92463Y18539D01*
X92492Y18503D01*
X92521Y18452D01*
X92557Y18394D01*
X92593Y18329D01*
X92629Y18257D01*
X92665Y18171D01*
X92694Y18084D01*
X92723Y17991D01*
X92745Y17883D01*
X92766Y17767D01*
X92773Y17652D01*
X92781Y17522D01*
Y17515D01*
Y17507D01*
Y17464D01*
X92773Y17392D01*
Y17306D01*
X92759Y17212D01*
X92745Y17104D01*
X92730Y16996D01*
X92701Y16895D01*
Y16880D01*
X92687Y16851D01*
X92672Y16801D01*
X92644Y16729D01*
X92615Y16657D01*
X92572Y16570D01*
X92528Y16484D01*
X92471Y16390D01*
X92463Y16376D01*
X92435Y16347D01*
X92391Y16289D01*
X92326Y16210D01*
X92225Y16116D01*
X92168Y16058D01*
X92103Y16001D01*
X92031Y15929D01*
X91952Y15864D01*
X91865Y15784D01*
X91764Y15705D01*
X91757Y15698D01*
X91742Y15691D01*
X91714Y15669D01*
X91685Y15640D01*
X91620Y15590D01*
X91555Y15532D01*
X91548Y15525D01*
X91533Y15510D01*
X91504Y15489D01*
X91468Y15453D01*
X91418Y15417D01*
X91368Y15373D01*
X91252Y15265D01*
X91122Y15143D01*
X90992Y15006D01*
X90870Y14876D01*
X90820Y14811D01*
X90769Y14746D01*
X90762Y14732D01*
X90733Y14688D01*
X90697Y14624D01*
X90654Y14537D01*
X90610Y14443D01*
X90574Y14328D01*
X90545Y14213D01*
X90531Y14090D01*
X92824D01*
Y13535D01*
X89925D01*
Y13542D01*
Y13556D01*
Y13578D01*
Y13607D01*
Y13614D01*
Y13643D01*
Y13679D01*
Y13737D01*
Y13744D01*
Y13758D01*
Y13787D01*
X89933Y13830D01*
Y13874D01*
X89940Y13931D01*
X89947Y13996D01*
X89954Y14061D01*
X89983Y14213D01*
X90026Y14386D01*
X90077Y14559D01*
X90156Y14739D01*
Y14746D01*
X90171Y14761D01*
X90178Y14782D01*
X90199Y14818D01*
X90221Y14862D01*
X90257Y14912D01*
X90329Y15027D01*
X90430Y15164D01*
X90553Y15316D01*
X90704Y15474D01*
X90870Y15633D01*
X90877Y15640D01*
X90884Y15647D01*
X90906Y15669D01*
X90942Y15698D01*
X90978Y15727D01*
X91021Y15770D01*
X91079Y15820D01*
X91137Y15871D01*
X91144Y15878D01*
X91158Y15892D01*
X91187Y15914D01*
X91223Y15950D01*
X91267Y15993D01*
X91317Y16037D01*
X91432Y16145D01*
X91555Y16253D01*
X91677Y16368D01*
X91786Y16477D01*
X91829Y16520D01*
X91865Y16563D01*
X91872Y16570D01*
X91887Y16592D01*
X91915Y16628D01*
X91952Y16678D01*
X91988Y16736D01*
X92024Y16801D01*
X92052Y16880D01*
X92081Y16960D01*
Y16967D01*
X92096Y17003D01*
X92103Y17046D01*
X92117Y17111D01*
X92132Y17183D01*
X92139Y17277D01*
X92153Y17378D01*
Y17486D01*
Y17493D01*
Y17507D01*
Y17529D01*
Y17565D01*
X92146Y17645D01*
X92124Y17753D01*
X92103Y17868D01*
X92067Y17991D01*
X92016Y18106D01*
X91944Y18207D01*
X91937Y18221D01*
X91908Y18250D01*
X91858Y18286D01*
X91793Y18337D01*
X91706Y18380D01*
X91605Y18423D01*
X91483Y18452D01*
X91346Y18459D01*
X91310D01*
X91281Y18452D01*
X91209Y18445D01*
X91122Y18423D01*
X91029Y18394D01*
X90928Y18344D01*
X90834Y18272D01*
X90755Y18178D01*
X90747Y18164D01*
X90726Y18128D01*
X90690Y18063D01*
X90661Y17969D01*
X90625Y17846D01*
X90589Y17702D01*
X90567Y17529D01*
X90560Y17334D01*
Y17327D01*
Y17313D01*
Y17277D01*
Y17270D01*
X90567Y17241D01*
Y17205D01*
Y17162D01*
X89983D01*
Y17169D01*
Y17183D01*
Y17212D01*
X89976Y17255D01*
Y17270D01*
Y17291D01*
Y17320D01*
Y17349D01*
Y17356D01*
Y17385D01*
Y17428D01*
X89983Y17479D01*
X89990Y17544D01*
X89998Y17623D01*
X90005Y17709D01*
X90019Y17796D01*
X90062Y17998D01*
X90127Y18200D01*
X90171Y18301D01*
X90221Y18394D01*
X90272Y18481D01*
X90336Y18567D01*
X90344Y18575D01*
X90351Y18589D01*
X90373Y18611D01*
X90401Y18632D01*
X90445Y18668D01*
X90488Y18704D01*
X90545Y18741D01*
X90603Y18784D01*
X90675Y18827D01*
X90755Y18863D01*
X90834Y18899D01*
X90928Y18935D01*
X91029Y18957D01*
X91137Y18978D01*
X91252Y18993D01*
X91375Y19000D01*
X91440D01*
X91483Y18993D01*
D02*
G37*
G36*
X87496Y18957D02*
X87568D01*
X87647Y18949D01*
X87734Y18935D01*
X87835Y18921D01*
X88036Y18877D01*
X88245Y18820D01*
X88440Y18733D01*
X88534Y18676D01*
X88613Y18618D01*
X88621Y18611D01*
X88628Y18604D01*
X88649Y18582D01*
X88678Y18553D01*
X88707Y18517D01*
X88743Y18474D01*
X88779Y18416D01*
X88822Y18358D01*
X88858Y18286D01*
X88894Y18214D01*
X88930Y18128D01*
X88959Y18034D01*
X88988Y17926D01*
X89010Y17818D01*
X89017Y17702D01*
X89024Y17572D01*
Y17565D01*
Y17551D01*
Y17522D01*
X89017Y17479D01*
Y17435D01*
X89010Y17385D01*
X88995Y17255D01*
X88959Y17118D01*
X88916Y16974D01*
X88858Y16823D01*
X88772Y16693D01*
X88757Y16678D01*
X88729Y16642D01*
X88671Y16585D01*
X88584Y16513D01*
X88476Y16441D01*
X88346Y16361D01*
X88195Y16296D01*
X88015Y16239D01*
X88036D01*
X88058Y16231D01*
X88087D01*
X88166Y16217D01*
X88267Y16188D01*
X88375Y16152D01*
X88484Y16102D01*
X88592Y16037D01*
X88685Y15950D01*
X88693Y15936D01*
X88721Y15900D01*
X88765Y15842D01*
X88808Y15755D01*
X88858Y15647D01*
X88902Y15510D01*
X88938Y15352D01*
X88967Y15164D01*
Y15157D01*
Y15128D01*
X88974Y15085D01*
Y15020D01*
X88981Y14941D01*
X88988Y14847D01*
X88995Y14739D01*
X89003Y14616D01*
Y14609D01*
Y14580D01*
X89010Y14530D01*
X89017Y14472D01*
X89024Y14400D01*
X89031Y14321D01*
X89060Y14148D01*
X89096Y13960D01*
X89147Y13780D01*
X89176Y13708D01*
X89212Y13636D01*
X89248Y13578D01*
X89291Y13535D01*
X88541D01*
X88534Y13542D01*
X88520Y13571D01*
X88505Y13629D01*
X88491Y13665D01*
X88484Y13715D01*
X88469Y13766D01*
X88455Y13830D01*
X88440Y13903D01*
X88433Y13982D01*
X88419Y14076D01*
X88411Y14176D01*
X88404Y14292D01*
X88397Y14414D01*
Y14422D01*
Y14429D01*
Y14472D01*
X88390Y14537D01*
X88383Y14616D01*
X88375Y14703D01*
Y14797D01*
X88368Y14890D01*
X88361Y14970D01*
Y14977D01*
Y14991D01*
X88354Y15020D01*
X88346Y15063D01*
X88339Y15107D01*
X88332Y15157D01*
X88303Y15280D01*
X88267Y15402D01*
X88217Y15532D01*
X88152Y15647D01*
X88108Y15698D01*
X88065Y15741D01*
X88051Y15748D01*
X88022Y15777D01*
X87957Y15806D01*
X87914Y15828D01*
X87871Y15849D01*
X87813Y15864D01*
X87748Y15885D01*
X87676Y15900D01*
X87597Y15921D01*
X87510Y15929D01*
X87416Y15943D01*
X87315Y15950D01*
X86436D01*
Y13535D01*
X85845D01*
Y18964D01*
X87438D01*
X87496Y18957D01*
D02*
G37*
G36*
X84777Y13535D02*
X84136D01*
Y14277D01*
X84777D01*
Y13535D01*
D02*
G37*
G36*
X82240D02*
X81656D01*
Y17529D01*
X80502D01*
Y17991D01*
X80625D01*
X80661Y17998D01*
X80711D01*
X80769Y18005D01*
X80898Y18020D01*
X81036Y18048D01*
X81180Y18092D01*
X81317Y18156D01*
X81439Y18236D01*
X81454Y18250D01*
X81490Y18279D01*
X81533Y18344D01*
X81591Y18423D01*
X81648Y18531D01*
X81699Y18661D01*
X81742Y18820D01*
X81764Y19000D01*
X82240D01*
Y13535D01*
D02*
G37*
G36*
X78267Y18993D02*
X78325Y18986D01*
X78390Y18978D01*
X78534Y18949D01*
X78699Y18906D01*
X78873Y18834D01*
X78959Y18791D01*
X79038Y18741D01*
X79118Y18683D01*
X79190Y18611D01*
X79197Y18604D01*
X79204Y18596D01*
X79226Y18567D01*
X79247Y18539D01*
X79276Y18503D01*
X79305Y18452D01*
X79341Y18394D01*
X79377Y18329D01*
X79413Y18257D01*
X79449Y18171D01*
X79478Y18084D01*
X79507Y17991D01*
X79529Y17883D01*
X79550Y17767D01*
X79558Y17652D01*
X79565Y17522D01*
Y17515D01*
Y17507D01*
Y17464D01*
X79558Y17392D01*
Y17306D01*
X79543Y17212D01*
X79529Y17104D01*
X79514Y16996D01*
X79485Y16895D01*
Y16880D01*
X79471Y16851D01*
X79457Y16801D01*
X79428Y16729D01*
X79399Y16657D01*
X79356Y16570D01*
X79312Y16484D01*
X79255Y16390D01*
X79247Y16376D01*
X79219Y16347D01*
X79175Y16289D01*
X79110Y16210D01*
X79009Y16116D01*
X78952Y16058D01*
X78887Y16001D01*
X78815Y15929D01*
X78736Y15864D01*
X78649Y15784D01*
X78548Y15705D01*
X78541Y15698D01*
X78526Y15691D01*
X78498Y15669D01*
X78469Y15640D01*
X78404Y15590D01*
X78339Y15532D01*
X78332Y15525D01*
X78317Y15510D01*
X78289Y15489D01*
X78253Y15453D01*
X78202Y15417D01*
X78152Y15373D01*
X78036Y15265D01*
X77906Y15143D01*
X77777Y15006D01*
X77654Y14876D01*
X77604Y14811D01*
X77553Y14746D01*
X77546Y14732D01*
X77517Y14688D01*
X77481Y14624D01*
X77438Y14537D01*
X77394Y14443D01*
X77358Y14328D01*
X77330Y14213D01*
X77315Y14090D01*
X79608D01*
Y13535D01*
X76710D01*
Y13542D01*
Y13556D01*
Y13578D01*
Y13607D01*
Y13614D01*
Y13643D01*
Y13679D01*
Y13737D01*
Y13744D01*
Y13758D01*
Y13787D01*
X76717Y13830D01*
Y13874D01*
X76724Y13931D01*
X76731Y13996D01*
X76738Y14061D01*
X76767Y14213D01*
X76810Y14386D01*
X76861Y14559D01*
X76940Y14739D01*
Y14746D01*
X76955Y14761D01*
X76962Y14782D01*
X76983Y14818D01*
X77005Y14862D01*
X77041Y14912D01*
X77113Y15027D01*
X77214Y15164D01*
X77337Y15316D01*
X77488Y15474D01*
X77654Y15633D01*
X77661Y15640D01*
X77668Y15647D01*
X77690Y15669D01*
X77726Y15698D01*
X77762Y15727D01*
X77805Y15770D01*
X77863Y15820D01*
X77921Y15871D01*
X77928Y15878D01*
X77942Y15892D01*
X77971Y15914D01*
X78007Y15950D01*
X78051Y15993D01*
X78101Y16037D01*
X78216Y16145D01*
X78339Y16253D01*
X78462Y16368D01*
X78570Y16477D01*
X78613Y16520D01*
X78649Y16563D01*
X78656Y16570D01*
X78671Y16592D01*
X78699Y16628D01*
X78736Y16678D01*
X78772Y16736D01*
X78808Y16801D01*
X78837Y16880D01*
X78865Y16960D01*
Y16967D01*
X78880Y17003D01*
X78887Y17046D01*
X78901Y17111D01*
X78916Y17183D01*
X78923Y17277D01*
X78937Y17378D01*
Y17486D01*
Y17493D01*
Y17507D01*
Y17529D01*
Y17565D01*
X78930Y17645D01*
X78909Y17753D01*
X78887Y17868D01*
X78851Y17991D01*
X78800Y18106D01*
X78728Y18207D01*
X78721Y18221D01*
X78692Y18250D01*
X78642Y18286D01*
X78577Y18337D01*
X78490Y18380D01*
X78390Y18423D01*
X78267Y18452D01*
X78130Y18459D01*
X78094D01*
X78065Y18452D01*
X77993Y18445D01*
X77906Y18423D01*
X77813Y18394D01*
X77712Y18344D01*
X77618Y18272D01*
X77539Y18178D01*
X77531Y18164D01*
X77510Y18128D01*
X77474Y18063D01*
X77445Y17969D01*
X77409Y17846D01*
X77373Y17702D01*
X77351Y17529D01*
X77344Y17334D01*
Y17327D01*
Y17313D01*
Y17277D01*
Y17270D01*
X77351Y17241D01*
Y17205D01*
Y17162D01*
X76767D01*
Y17169D01*
Y17183D01*
Y17212D01*
X76760Y17255D01*
Y17270D01*
Y17291D01*
Y17320D01*
Y17349D01*
Y17356D01*
Y17385D01*
Y17428D01*
X76767Y17479D01*
X76774Y17544D01*
X76782Y17623D01*
X76789Y17709D01*
X76803Y17796D01*
X76846Y17998D01*
X76911Y18200D01*
X76955Y18301D01*
X77005Y18394D01*
X77056Y18481D01*
X77121Y18567D01*
X77128Y18575D01*
X77135Y18589D01*
X77157Y18611D01*
X77185Y18632D01*
X77229Y18668D01*
X77272Y18704D01*
X77330Y18741D01*
X77387Y18784D01*
X77459Y18827D01*
X77539Y18863D01*
X77618Y18899D01*
X77712Y18935D01*
X77813Y18957D01*
X77921Y18978D01*
X78036Y18993D01*
X78159Y19000D01*
X78224D01*
X78267Y18993D01*
D02*
G37*
G36*
X68584Y13535D02*
X67942D01*
Y14277D01*
X68584D01*
Y13535D01*
D02*
G37*
G36*
X66046D02*
X65462D01*
Y17529D01*
X64308D01*
Y17991D01*
X64431D01*
X64467Y17998D01*
X64517D01*
X64575Y18005D01*
X64705Y18020D01*
X64842Y18048D01*
X64986Y18092D01*
X65123Y18156D01*
X65246Y18236D01*
X65260Y18250D01*
X65296Y18279D01*
X65339Y18344D01*
X65397Y18423D01*
X65455Y18531D01*
X65505Y18661D01*
X65548Y18820D01*
X65570Y19000D01*
X66046D01*
Y13535D01*
D02*
G37*
G36*
X55988Y13535D02*
X55346D01*
Y14277D01*
X55988D01*
Y13535D01*
D02*
G37*
G36*
X54445Y18373D02*
X54438Y18358D01*
X54409Y18329D01*
X54373Y18272D01*
X54315Y18192D01*
X54250Y18091D01*
X54171Y17976D01*
X54092Y17846D01*
X53998Y17702D01*
X53897Y17536D01*
X53796Y17363D01*
X53695Y17176D01*
X53594Y16974D01*
X53493Y16772D01*
X53392Y16556D01*
X53299Y16332D01*
X53212Y16102D01*
X53205Y16087D01*
X53190Y16044D01*
X53169Y15979D01*
X53140Y15892D01*
X53111Y15777D01*
X53068Y15640D01*
X53025Y15489D01*
X52981Y15323D01*
X52938Y15135D01*
X52895Y14934D01*
X52852Y14725D01*
X52808Y14501D01*
X52772Y14270D01*
X52736Y14032D01*
X52715Y13787D01*
X52693Y13535D01*
X52015D01*
Y13542D01*
Y13549D01*
X52022Y13571D01*
Y13600D01*
X52037Y13672D01*
X52051Y13766D01*
X52066Y13888D01*
X52095Y14032D01*
X52123Y14191D01*
X52160Y14371D01*
X52196Y14559D01*
X52246Y14761D01*
X52297Y14977D01*
X52354Y15193D01*
X52491Y15640D01*
X52570Y15871D01*
X52657Y16094D01*
X52664Y16109D01*
X52679Y16145D01*
X52707Y16210D01*
X52744Y16296D01*
X52794Y16404D01*
X52852Y16527D01*
X52917Y16664D01*
X52996Y16815D01*
X53082Y16981D01*
X53176Y17154D01*
X53277Y17342D01*
X53392Y17529D01*
X53508Y17724D01*
X53637Y17919D01*
X53774Y18113D01*
X53919Y18308D01*
X51496D01*
Y18899D01*
X54445D01*
Y18373D01*
D02*
G37*
G36*
X49477Y18993D02*
X49535Y18986D01*
X49600Y18978D01*
X49744Y18949D01*
X49910Y18906D01*
X50083Y18834D01*
X50169Y18791D01*
X50249Y18740D01*
X50328Y18683D01*
X50400Y18611D01*
X50407Y18604D01*
X50415Y18596D01*
X50436Y18567D01*
X50458Y18539D01*
X50487Y18503D01*
X50516Y18452D01*
X50552Y18394D01*
X50588Y18329D01*
X50624Y18257D01*
X50660Y18171D01*
X50689Y18084D01*
X50718Y17991D01*
X50739Y17883D01*
X50761Y17767D01*
X50768Y17652D01*
X50775Y17522D01*
Y17515D01*
Y17507D01*
Y17464D01*
X50768Y17392D01*
Y17306D01*
X50753Y17212D01*
X50739Y17104D01*
X50725Y16996D01*
X50696Y16895D01*
Y16880D01*
X50681Y16851D01*
X50667Y16801D01*
X50638Y16729D01*
X50609Y16657D01*
X50566Y16570D01*
X50523Y16484D01*
X50465Y16390D01*
X50458Y16376D01*
X50429Y16347D01*
X50386Y16289D01*
X50321Y16210D01*
X50220Y16116D01*
X50162Y16058D01*
X50097Y16001D01*
X50025Y15928D01*
X49946Y15864D01*
X49859Y15784D01*
X49759Y15705D01*
X49751Y15698D01*
X49737Y15691D01*
X49708Y15669D01*
X49679Y15640D01*
X49614Y15590D01*
X49549Y15532D01*
X49542Y15525D01*
X49528Y15510D01*
X49499Y15489D01*
X49463Y15453D01*
X49413Y15417D01*
X49362Y15373D01*
X49247Y15265D01*
X49117Y15143D01*
X48987Y15006D01*
X48864Y14876D01*
X48814Y14811D01*
X48764Y14746D01*
X48756Y14732D01*
X48728Y14688D01*
X48691Y14624D01*
X48648Y14537D01*
X48605Y14443D01*
X48569Y14328D01*
X48540Y14213D01*
X48526Y14090D01*
X50818D01*
Y13535D01*
X47920D01*
Y13542D01*
Y13556D01*
Y13578D01*
Y13607D01*
Y13614D01*
Y13643D01*
Y13679D01*
Y13737D01*
Y13744D01*
Y13758D01*
Y13787D01*
X47927Y13830D01*
Y13874D01*
X47934Y13931D01*
X47942Y13996D01*
X47949Y14061D01*
X47978Y14213D01*
X48021Y14386D01*
X48071Y14559D01*
X48151Y14739D01*
Y14746D01*
X48165Y14761D01*
X48172Y14782D01*
X48194Y14818D01*
X48216Y14862D01*
X48252Y14912D01*
X48324Y15027D01*
X48425Y15164D01*
X48547Y15316D01*
X48699Y15474D01*
X48864Y15633D01*
X48872Y15640D01*
X48879Y15647D01*
X48901Y15669D01*
X48937Y15698D01*
X48973Y15727D01*
X49016Y15770D01*
X49074Y15820D01*
X49131Y15871D01*
X49139Y15878D01*
X49153Y15892D01*
X49182Y15914D01*
X49218Y15950D01*
X49261Y15993D01*
X49312Y16037D01*
X49427Y16145D01*
X49549Y16253D01*
X49672Y16368D01*
X49780Y16477D01*
X49823Y16520D01*
X49859Y16563D01*
X49867Y16570D01*
X49881Y16592D01*
X49910Y16628D01*
X49946Y16678D01*
X49982Y16736D01*
X50018Y16801D01*
X50047Y16880D01*
X50076Y16960D01*
Y16967D01*
X50090Y17003D01*
X50097Y17046D01*
X50112Y17111D01*
X50126Y17183D01*
X50134Y17277D01*
X50148Y17378D01*
Y17486D01*
Y17493D01*
Y17507D01*
Y17529D01*
Y17565D01*
X50141Y17645D01*
X50119Y17753D01*
X50097Y17868D01*
X50061Y17991D01*
X50011Y18106D01*
X49939Y18207D01*
X49932Y18221D01*
X49903Y18250D01*
X49852Y18286D01*
X49787Y18337D01*
X49701Y18380D01*
X49600Y18423D01*
X49477Y18452D01*
X49340Y18459D01*
X49304D01*
X49275Y18452D01*
X49203Y18445D01*
X49117Y18423D01*
X49023Y18394D01*
X48922Y18344D01*
X48829Y18272D01*
X48749Y18178D01*
X48742Y18164D01*
X48720Y18128D01*
X48684Y18063D01*
X48655Y17969D01*
X48619Y17846D01*
X48583Y17702D01*
X48562Y17529D01*
X48555Y17334D01*
Y17327D01*
Y17313D01*
Y17277D01*
Y17270D01*
X48562Y17241D01*
Y17205D01*
Y17161D01*
X47978D01*
Y17169D01*
Y17183D01*
Y17212D01*
X47971Y17255D01*
Y17270D01*
Y17291D01*
Y17320D01*
Y17349D01*
Y17356D01*
Y17385D01*
Y17428D01*
X47978Y17479D01*
X47985Y17544D01*
X47992Y17623D01*
X47999Y17709D01*
X48014Y17796D01*
X48057Y17998D01*
X48122Y18200D01*
X48165Y18301D01*
X48216Y18394D01*
X48266Y18481D01*
X48331Y18567D01*
X48338Y18575D01*
X48345Y18589D01*
X48367Y18611D01*
X48396Y18632D01*
X48439Y18668D01*
X48482Y18704D01*
X48540Y18740D01*
X48598Y18784D01*
X48670Y18827D01*
X48749Y18863D01*
X48829Y18899D01*
X48922Y18935D01*
X49023Y18957D01*
X49131Y18978D01*
X49247Y18993D01*
X49369Y19000D01*
X49434D01*
X49477Y18993D01*
D02*
G37*
G36*
X46990Y13535D02*
X46348D01*
Y14277D01*
X46990D01*
Y13535D01*
D02*
G37*
G36*
X40854D02*
X40270D01*
Y17529D01*
X39117D01*
Y17991D01*
X39239D01*
X39275Y17998D01*
X39326D01*
X39383Y18005D01*
X39513Y18019D01*
X39650Y18048D01*
X39794Y18091D01*
X39931Y18156D01*
X40054Y18236D01*
X40068Y18250D01*
X40104Y18279D01*
X40148Y18344D01*
X40205Y18423D01*
X40263Y18531D01*
X40314Y18661D01*
X40357Y18820D01*
X40378Y19000D01*
X40854D01*
Y13535D01*
D02*
G37*
G36*
X37992D02*
X37350D01*
Y14277D01*
X37992D01*
Y13535D01*
D02*
G37*
G36*
X36449Y18373D02*
X36442Y18358D01*
X36413Y18329D01*
X36377Y18272D01*
X36319Y18192D01*
X36254Y18091D01*
X36175Y17976D01*
X36096Y17846D01*
X36002Y17702D01*
X35901Y17536D01*
X35800Y17363D01*
X35699Y17176D01*
X35598Y16974D01*
X35497Y16772D01*
X35396Y16556D01*
X35302Y16332D01*
X35216Y16102D01*
X35209Y16087D01*
X35194Y16044D01*
X35173Y15979D01*
X35144Y15892D01*
X35115Y15777D01*
X35072Y15640D01*
X35028Y15489D01*
X34985Y15323D01*
X34942Y15135D01*
X34899Y14934D01*
X34855Y14725D01*
X34812Y14501D01*
X34776Y14270D01*
X34740Y14032D01*
X34718Y13787D01*
X34697Y13535D01*
X34019D01*
Y13542D01*
Y13549D01*
X34026Y13571D01*
Y13600D01*
X34041Y13672D01*
X34055Y13766D01*
X34070Y13888D01*
X34098Y14032D01*
X34127Y14191D01*
X34163Y14371D01*
X34199Y14559D01*
X34250Y14761D01*
X34300Y14977D01*
X34358Y15193D01*
X34495Y15640D01*
X34574Y15871D01*
X34661Y16094D01*
X34668Y16109D01*
X34682Y16145D01*
X34711Y16210D01*
X34747Y16296D01*
X34798Y16404D01*
X34855Y16527D01*
X34920Y16664D01*
X35000Y16815D01*
X35086Y16981D01*
X35180Y17154D01*
X35281Y17342D01*
X35396Y17529D01*
X35512Y17724D01*
X35641Y17919D01*
X35778Y18113D01*
X35923Y18308D01*
X33500D01*
Y18899D01*
X36449D01*
Y18373D01*
D02*
G37*
G36*
X71100Y18986D02*
X71194Y18971D01*
X71302Y18949D01*
X71417Y18914D01*
X71533Y18870D01*
X71641Y18812D01*
X71655Y18805D01*
X71691Y18784D01*
X71742Y18741D01*
X71814Y18683D01*
X71886Y18604D01*
X71973Y18517D01*
X72052Y18409D01*
X72131Y18279D01*
X72138Y18265D01*
X72160Y18228D01*
X72189Y18164D01*
X72218Y18077D01*
X72261Y17969D01*
X72297Y17839D01*
X72333Y17688D01*
X72362Y17522D01*
Y17515D01*
Y17500D01*
X72369Y17471D01*
X72376Y17435D01*
Y17385D01*
X72383Y17327D01*
X72391Y17262D01*
X72398Y17183D01*
X72405Y17097D01*
X72412Y16996D01*
X72420Y16887D01*
Y16772D01*
X72427Y16642D01*
X72434Y16505D01*
Y16361D01*
Y16210D01*
Y16203D01*
Y16195D01*
Y16174D01*
Y16145D01*
Y16066D01*
X72427Y15965D01*
Y15842D01*
X72420Y15698D01*
X72405Y15539D01*
X72391Y15373D01*
X72376Y15200D01*
X72355Y15020D01*
X72290Y14667D01*
X72254Y14494D01*
X72211Y14335D01*
X72153Y14191D01*
X72095Y14061D01*
X72088Y14054D01*
X72081Y14032D01*
X72059Y14004D01*
X72030Y13960D01*
X71994Y13917D01*
X71951Y13859D01*
X71893Y13802D01*
X71836Y13744D01*
X71763Y13686D01*
X71677Y13629D01*
X71590Y13571D01*
X71490Y13528D01*
X71374Y13484D01*
X71259Y13455D01*
X71129Y13434D01*
X70985Y13427D01*
X70949D01*
X70906Y13434D01*
X70855D01*
X70790Y13448D01*
X70711Y13463D01*
X70631Y13477D01*
X70538Y13506D01*
X70444Y13535D01*
X70350Y13578D01*
X70257Y13629D01*
X70163Y13686D01*
X70069Y13758D01*
X69983Y13845D01*
X69911Y13939D01*
X69838Y14047D01*
Y14054D01*
X69824Y14076D01*
X69810Y14112D01*
X69788Y14169D01*
X69759Y14241D01*
X69730Y14328D01*
X69701Y14429D01*
X69673Y14551D01*
X69636Y14696D01*
X69608Y14854D01*
X69579Y15027D01*
X69550Y15229D01*
X69528Y15446D01*
X69514Y15683D01*
X69507Y15936D01*
X69499Y16217D01*
Y16224D01*
Y16231D01*
Y16253D01*
Y16282D01*
Y16361D01*
X69507Y16469D01*
Y16592D01*
X69514Y16736D01*
X69528Y16887D01*
X69543Y17061D01*
X69557Y17234D01*
X69579Y17414D01*
X69636Y17767D01*
X69680Y17940D01*
X69723Y18099D01*
X69774Y18243D01*
X69831Y18365D01*
X69838Y18373D01*
X69846Y18394D01*
X69867Y18423D01*
X69896Y18466D01*
X69932Y18510D01*
X69983Y18567D01*
X70033Y18618D01*
X70098Y18683D01*
X70170Y18741D01*
X70257Y18798D01*
X70350Y18849D01*
X70451Y18892D01*
X70567Y18935D01*
X70689Y18964D01*
X70819Y18986D01*
X70963Y18993D01*
X71028D01*
X71100Y18986D01*
D02*
G37*
G36*
X62102D02*
X62196Y18971D01*
X62304Y18949D01*
X62419Y18914D01*
X62535Y18870D01*
X62643Y18812D01*
X62657Y18805D01*
X62693Y18784D01*
X62744Y18741D01*
X62816Y18683D01*
X62888Y18604D01*
X62975Y18517D01*
X63054Y18409D01*
X63133Y18279D01*
X63140Y18265D01*
X63162Y18228D01*
X63191Y18164D01*
X63220Y18077D01*
X63263Y17969D01*
X63299Y17839D01*
X63335Y17688D01*
X63364Y17522D01*
Y17515D01*
Y17500D01*
X63371Y17471D01*
X63378Y17435D01*
Y17385D01*
X63385Y17327D01*
X63393Y17262D01*
X63400Y17183D01*
X63407Y17097D01*
X63414Y16996D01*
X63421Y16887D01*
Y16772D01*
X63429Y16642D01*
X63436Y16505D01*
Y16361D01*
Y16210D01*
Y16203D01*
Y16195D01*
Y16174D01*
Y16145D01*
Y16066D01*
X63429Y15965D01*
Y15842D01*
X63421Y15698D01*
X63407Y15539D01*
X63393Y15373D01*
X63378Y15200D01*
X63357Y15020D01*
X63292Y14667D01*
X63256Y14494D01*
X63212Y14335D01*
X63155Y14191D01*
X63097Y14061D01*
X63090Y14054D01*
X63083Y14032D01*
X63061Y14004D01*
X63032Y13960D01*
X62996Y13917D01*
X62953Y13859D01*
X62895Y13802D01*
X62837Y13744D01*
X62765Y13686D01*
X62679Y13629D01*
X62592Y13571D01*
X62491Y13528D01*
X62376Y13484D01*
X62261Y13455D01*
X62131Y13434D01*
X61987Y13427D01*
X61951D01*
X61907Y13434D01*
X61857D01*
X61792Y13448D01*
X61713Y13463D01*
X61633Y13477D01*
X61540Y13506D01*
X61446Y13535D01*
X61352Y13578D01*
X61259Y13629D01*
X61165Y13686D01*
X61071Y13758D01*
X60984Y13845D01*
X60912Y13939D01*
X60840Y14047D01*
Y14054D01*
X60826Y14076D01*
X60812Y14112D01*
X60790Y14169D01*
X60761Y14241D01*
X60732Y14328D01*
X60703Y14429D01*
X60675Y14551D01*
X60638Y14696D01*
X60610Y14854D01*
X60581Y15027D01*
X60552Y15229D01*
X60530Y15446D01*
X60516Y15683D01*
X60509Y15936D01*
X60501Y16217D01*
Y16224D01*
Y16231D01*
Y16253D01*
Y16282D01*
Y16361D01*
X60509Y16469D01*
Y16592D01*
X60516Y16736D01*
X60530Y16887D01*
X60545Y17061D01*
X60559Y17233D01*
X60581Y17414D01*
X60638Y17767D01*
X60682Y17940D01*
X60725Y18099D01*
X60775Y18243D01*
X60833Y18365D01*
X60840Y18373D01*
X60848Y18394D01*
X60869Y18423D01*
X60898Y18466D01*
X60934Y18510D01*
X60984Y18567D01*
X61035Y18618D01*
X61100Y18683D01*
X61172Y18741D01*
X61259Y18798D01*
X61352Y18849D01*
X61453Y18892D01*
X61568Y18935D01*
X61691Y18964D01*
X61821Y18986D01*
X61965Y18993D01*
X62030D01*
X62102Y18986D01*
D02*
G37*
G36*
X58504Y18986D02*
X58598Y18971D01*
X58706Y18949D01*
X58821Y18914D01*
X58937Y18870D01*
X59045Y18812D01*
X59060Y18805D01*
X59096Y18784D01*
X59146Y18740D01*
X59218Y18683D01*
X59290Y18604D01*
X59377Y18517D01*
X59456Y18409D01*
X59535Y18279D01*
X59543Y18265D01*
X59564Y18228D01*
X59593Y18164D01*
X59622Y18077D01*
X59665Y17969D01*
X59701Y17839D01*
X59737Y17688D01*
X59766Y17522D01*
Y17515D01*
Y17500D01*
X59773Y17471D01*
X59780Y17435D01*
Y17385D01*
X59788Y17327D01*
X59795Y17262D01*
X59802Y17183D01*
X59809Y17097D01*
X59816Y16996D01*
X59824Y16887D01*
Y16772D01*
X59831Y16642D01*
X59838Y16505D01*
Y16361D01*
Y16210D01*
Y16203D01*
Y16195D01*
Y16174D01*
Y16145D01*
Y16066D01*
X59831Y15965D01*
Y15842D01*
X59824Y15698D01*
X59809Y15539D01*
X59795Y15373D01*
X59780Y15200D01*
X59759Y15020D01*
X59694Y14667D01*
X59658Y14494D01*
X59615Y14335D01*
X59557Y14191D01*
X59499Y14061D01*
X59492Y14054D01*
X59485Y14032D01*
X59463Y14004D01*
X59434Y13960D01*
X59398Y13917D01*
X59355Y13859D01*
X59297Y13802D01*
X59240Y13744D01*
X59168Y13686D01*
X59081Y13629D01*
X58995Y13571D01*
X58894Y13528D01*
X58778Y13484D01*
X58663Y13455D01*
X58533Y13434D01*
X58389Y13427D01*
X58353D01*
X58310Y13434D01*
X58259D01*
X58194Y13448D01*
X58115Y13463D01*
X58036Y13477D01*
X57942Y13506D01*
X57848Y13535D01*
X57754Y13578D01*
X57661Y13629D01*
X57567Y13686D01*
X57473Y13758D01*
X57387Y13845D01*
X57315Y13939D01*
X57243Y14047D01*
Y14054D01*
X57228Y14076D01*
X57214Y14112D01*
X57192Y14169D01*
X57163Y14241D01*
X57134Y14328D01*
X57105Y14429D01*
X57077Y14551D01*
X57041Y14696D01*
X57012Y14854D01*
X56983Y15027D01*
X56954Y15229D01*
X56932Y15446D01*
X56918Y15683D01*
X56911Y15936D01*
X56904Y16217D01*
Y16224D01*
Y16231D01*
Y16253D01*
Y16282D01*
Y16361D01*
X56911Y16469D01*
Y16592D01*
X56918Y16736D01*
X56932Y16887D01*
X56947Y17061D01*
X56961Y17233D01*
X56983Y17414D01*
X57041Y17767D01*
X57084Y17940D01*
X57127Y18099D01*
X57178Y18243D01*
X57235Y18365D01*
X57243Y18373D01*
X57250Y18394D01*
X57271Y18423D01*
X57300Y18466D01*
X57336Y18510D01*
X57387Y18567D01*
X57437Y18618D01*
X57502Y18683D01*
X57574Y18740D01*
X57661Y18798D01*
X57754Y18849D01*
X57855Y18892D01*
X57971Y18935D01*
X58093Y18964D01*
X58223Y18986D01*
X58367Y18993D01*
X58432D01*
X58504Y18986D01*
D02*
G37*
G36*
X66392Y11476D02*
X65808D01*
Y12211D01*
X66392D01*
Y11476D01*
D02*
G37*
G36*
X51085Y11476D02*
X50501D01*
Y12211D01*
X51085D01*
Y11476D01*
D02*
G37*
G36*
X58735Y12334D02*
X58793Y12326D01*
X58858Y12319D01*
X59002Y12298D01*
X59168Y12247D01*
X59341Y12182D01*
X59427Y12139D01*
X59506Y12088D01*
X59586Y12031D01*
X59658Y11966D01*
X59665Y11959D01*
X59672Y11952D01*
X59694Y11930D01*
X59716Y11901D01*
X59744Y11858D01*
X59780Y11814D01*
X59816Y11764D01*
X59852Y11699D01*
X59881Y11634D01*
X59917Y11555D01*
X59953Y11476D01*
X59982Y11382D01*
X60026Y11180D01*
X60033Y11065D01*
X60040Y10949D01*
Y10942D01*
Y10935D01*
Y10913D01*
X60033Y10877D01*
Y10870D01*
Y10848D01*
Y10827D01*
Y10812D01*
X59478D01*
Y10863D01*
Y10870D01*
Y10884D01*
Y10906D01*
Y10942D01*
X59463Y11021D01*
X59449Y11122D01*
X59420Y11238D01*
X59384Y11353D01*
X59326Y11468D01*
X59247Y11569D01*
X59240Y11584D01*
X59204Y11613D01*
X59153Y11649D01*
X59088Y11699D01*
X58995Y11742D01*
X58886Y11786D01*
X58764Y11814D01*
X58620Y11822D01*
X58548D01*
X58475Y11807D01*
X58375Y11793D01*
X58266Y11764D01*
X58158Y11721D01*
X58050Y11663D01*
X57949Y11584D01*
X57942Y11577D01*
X57913Y11541D01*
X57877Y11490D01*
X57834Y11411D01*
X57783Y11324D01*
X57747Y11209D01*
X57718Y11079D01*
X57711Y10935D01*
Y10928D01*
Y10921D01*
Y10899D01*
Y10870D01*
X57718Y10805D01*
X57733Y10719D01*
X57747Y10625D01*
X57776Y10524D01*
X57819Y10430D01*
X57870Y10344D01*
X57877Y10336D01*
X57906Y10308D01*
X57949Y10264D01*
X58021Y10214D01*
X58072Y10185D01*
X58122Y10149D01*
X58180Y10113D01*
X58245Y10077D01*
X58324Y10041D01*
X58403Y10005D01*
X58497Y9962D01*
X58598Y9926D01*
X58612Y9918D01*
X58649Y9911D01*
X58706Y9889D01*
X58793Y9853D01*
X58800D01*
X58829Y9839D01*
X58872Y9825D01*
X58930Y9803D01*
X58995Y9774D01*
X59074Y9745D01*
X59240Y9673D01*
X59413Y9601D01*
X59579Y9522D01*
X59651Y9486D01*
X59716Y9450D01*
X59773Y9414D01*
X59809Y9385D01*
X59816Y9377D01*
X59845Y9349D01*
X59881Y9313D01*
X59925Y9255D01*
X59968Y9190D01*
X60018Y9111D01*
X60069Y9024D01*
X60105Y8930D01*
X60112Y8916D01*
X60119Y8880D01*
X60134Y8830D01*
X60155Y8750D01*
X60177Y8657D01*
X60191Y8548D01*
X60199Y8426D01*
X60206Y8289D01*
Y8282D01*
Y8253D01*
Y8217D01*
X60199Y8159D01*
X60191Y8094D01*
X60184Y8022D01*
X60170Y7936D01*
X60155Y7849D01*
X60098Y7654D01*
X60069Y7553D01*
X60026Y7452D01*
X59975Y7359D01*
X59917Y7258D01*
X59852Y7171D01*
X59773Y7085D01*
X59766Y7078D01*
X59752Y7063D01*
X59730Y7049D01*
X59694Y7020D01*
X59651Y6984D01*
X59600Y6948D01*
X59535Y6912D01*
X59463Y6876D01*
X59384Y6832D01*
X59297Y6796D01*
X59204Y6760D01*
X59096Y6724D01*
X58980Y6695D01*
X58858Y6681D01*
X58728Y6667D01*
X58591Y6659D01*
X58519D01*
X58468Y6667D01*
X58403Y6674D01*
X58331Y6681D01*
X58252Y6695D01*
X58165Y6710D01*
X57978Y6760D01*
X57884Y6796D01*
X57790Y6840D01*
X57697Y6883D01*
X57603Y6941D01*
X57524Y7005D01*
X57444Y7078D01*
X57437Y7085D01*
X57430Y7099D01*
X57408Y7121D01*
X57387Y7157D01*
X57358Y7200D01*
X57322Y7258D01*
X57286Y7323D01*
X57257Y7395D01*
X57221Y7474D01*
X57185Y7568D01*
X57149Y7669D01*
X57120Y7784D01*
X57098Y7907D01*
X57077Y8037D01*
X57069Y8174D01*
X57062Y8325D01*
Y8332D01*
Y8347D01*
Y8375D01*
Y8411D01*
Y8426D01*
Y8447D01*
Y8476D01*
Y8505D01*
X57646D01*
Y8310D01*
Y8303D01*
Y8289D01*
Y8260D01*
X57653Y8217D01*
Y8174D01*
X57661Y8123D01*
X57675Y8000D01*
X57711Y7863D01*
X57754Y7726D01*
X57812Y7589D01*
X57899Y7474D01*
X57913Y7460D01*
X57949Y7431D01*
X58007Y7388D01*
X58086Y7337D01*
X58194Y7279D01*
X58324Y7236D01*
X58475Y7207D01*
X58656Y7193D01*
X58699D01*
X58728Y7200D01*
X58814Y7207D01*
X58915Y7229D01*
X59023Y7258D01*
X59146Y7308D01*
X59254Y7373D01*
X59362Y7460D01*
X59377Y7474D01*
X59405Y7510D01*
X59442Y7575D01*
X59492Y7654D01*
X59543Y7762D01*
X59579Y7892D01*
X59607Y8044D01*
X59622Y8209D01*
Y8217D01*
Y8224D01*
Y8246D01*
Y8274D01*
X59615Y8339D01*
X59600Y8426D01*
X59586Y8519D01*
X59557Y8620D01*
X59514Y8714D01*
X59463Y8794D01*
X59456Y8801D01*
X59427Y8830D01*
X59384Y8873D01*
X59319Y8923D01*
X59218Y8988D01*
X59160Y9024D01*
X59096Y9060D01*
X59023Y9096D01*
X58944Y9132D01*
X58858Y9176D01*
X58757Y9212D01*
X58749D01*
X58735Y9219D01*
X58706Y9233D01*
X58663Y9248D01*
X58612Y9269D01*
X58548Y9291D01*
X58475Y9320D01*
X58389Y9349D01*
X58382D01*
X58360Y9356D01*
X58331Y9370D01*
X58288Y9385D01*
X58230Y9406D01*
X58173Y9428D01*
X58043Y9486D01*
X57906Y9543D01*
X57776Y9601D01*
X57718Y9630D01*
X57668Y9659D01*
X57625Y9688D01*
X57596Y9709D01*
X57589Y9716D01*
X57560Y9745D01*
X57516Y9788D01*
X57466Y9846D01*
X57408Y9911D01*
X57358Y9998D01*
X57300Y10084D01*
X57257Y10185D01*
X57250Y10199D01*
X57243Y10236D01*
X57221Y10293D01*
X57206Y10365D01*
X57185Y10459D01*
X57163Y10574D01*
X57156Y10697D01*
X57149Y10827D01*
Y10834D01*
Y10856D01*
Y10899D01*
X57156Y10942D01*
X57163Y11007D01*
X57170Y11072D01*
X57185Y11151D01*
X57199Y11231D01*
X57243Y11411D01*
X57315Y11598D01*
X57358Y11685D01*
X57408Y11778D01*
X57473Y11858D01*
X57538Y11937D01*
X57545Y11944D01*
X57560Y11952D01*
X57581Y11973D01*
X57610Y12002D01*
X57653Y12031D01*
X57697Y12067D01*
X57754Y12103D01*
X57819Y12139D01*
X57891Y12175D01*
X57978Y12211D01*
X58065Y12247D01*
X58165Y12276D01*
X58266Y12305D01*
X58382Y12326D01*
X58497Y12334D01*
X58627Y12341D01*
X58692D01*
X58735Y12334D01*
D02*
G37*
G36*
X87698Y6782D02*
X87164D01*
Y7287D01*
X87157Y7272D01*
X87150Y7243D01*
X87128Y7193D01*
X87092Y7135D01*
X87049Y7063D01*
X86998Y6998D01*
X86926Y6926D01*
X86847Y6861D01*
X86840Y6854D01*
X86804Y6840D01*
X86753Y6811D01*
X86688Y6782D01*
X86602Y6753D01*
X86508Y6724D01*
X86400Y6710D01*
X86284Y6703D01*
X86256D01*
X86227Y6710D01*
X86184D01*
X86126Y6717D01*
X86068Y6731D01*
X85931Y6775D01*
X85852Y6804D01*
X85773Y6840D01*
X85693Y6890D01*
X85614Y6941D01*
X85535Y7006D01*
X85462Y7085D01*
X85390Y7171D01*
X85325Y7272D01*
Y7279D01*
X85311Y7301D01*
X85297Y7330D01*
X85275Y7380D01*
X85253Y7438D01*
X85224Y7510D01*
X85196Y7597D01*
X85167Y7698D01*
X85131Y7806D01*
X85102Y7928D01*
X85073Y8065D01*
X85052Y8217D01*
X85030Y8375D01*
X85015Y8548D01*
X85008Y8736D01*
X85001Y8938D01*
Y8952D01*
Y8981D01*
Y9031D01*
X85008Y9096D01*
Y9176D01*
X85015Y9262D01*
X85030Y9363D01*
X85044Y9478D01*
X85080Y9709D01*
X85138Y9954D01*
X85217Y10192D01*
X85268Y10308D01*
X85325Y10409D01*
X85333Y10416D01*
X85340Y10430D01*
X85361Y10459D01*
X85390Y10488D01*
X85419Y10531D01*
X85462Y10574D01*
X85563Y10675D01*
X85693Y10769D01*
X85852Y10856D01*
X85945Y10884D01*
X86039Y10913D01*
X86140Y10928D01*
X86248Y10935D01*
X86306D01*
X86364Y10928D01*
X86443Y10921D01*
X86529Y10899D01*
X86623Y10877D01*
X86724Y10841D01*
X86818Y10791D01*
X86832Y10784D01*
X86854Y10762D01*
X86897Y10733D01*
X86948Y10690D01*
X86998Y10639D01*
X87056Y10574D01*
X87099Y10502D01*
X87128Y10423D01*
Y12211D01*
X87698D01*
Y6782D01*
D02*
G37*
G36*
X44683Y6782D02*
X44149D01*
Y7287D01*
X44142Y7272D01*
X44135Y7243D01*
X44113Y7193D01*
X44077Y7135D01*
X44034Y7063D01*
X43983Y6998D01*
X43911Y6926D01*
X43832Y6861D01*
X43825Y6854D01*
X43789Y6840D01*
X43738Y6811D01*
X43673Y6782D01*
X43587Y6753D01*
X43493Y6724D01*
X43385Y6710D01*
X43270Y6703D01*
X43241D01*
X43212Y6710D01*
X43169D01*
X43111Y6717D01*
X43053Y6731D01*
X42916Y6775D01*
X42837Y6804D01*
X42758Y6840D01*
X42678Y6890D01*
X42599Y6941D01*
X42520Y7005D01*
X42448Y7085D01*
X42375Y7171D01*
X42311Y7272D01*
Y7279D01*
X42296Y7301D01*
X42282Y7330D01*
X42260Y7380D01*
X42239Y7438D01*
X42210Y7510D01*
X42181Y7597D01*
X42152Y7698D01*
X42116Y7806D01*
X42087Y7928D01*
X42058Y8065D01*
X42037Y8217D01*
X42015Y8375D01*
X42001Y8548D01*
X41993Y8736D01*
X41986Y8938D01*
Y8952D01*
Y8981D01*
Y9031D01*
X41993Y9096D01*
Y9176D01*
X42001Y9262D01*
X42015Y9363D01*
X42029Y9478D01*
X42066Y9709D01*
X42123Y9954D01*
X42202Y10192D01*
X42253Y10308D01*
X42311Y10409D01*
X42318Y10416D01*
X42325Y10430D01*
X42347Y10459D01*
X42375Y10488D01*
X42404Y10531D01*
X42448Y10574D01*
X42549Y10675D01*
X42678Y10769D01*
X42837Y10856D01*
X42931Y10884D01*
X43024Y10913D01*
X43125Y10928D01*
X43233Y10935D01*
X43291D01*
X43349Y10928D01*
X43428Y10921D01*
X43515Y10899D01*
X43608Y10877D01*
X43709Y10841D01*
X43803Y10791D01*
X43817Y10784D01*
X43839Y10762D01*
X43882Y10733D01*
X43933Y10690D01*
X43983Y10639D01*
X44041Y10574D01*
X44084Y10502D01*
X44113Y10423D01*
Y12211D01*
X44683D01*
Y6782D01*
D02*
G37*
G36*
X37091Y10928D02*
X37134D01*
X37184Y10921D01*
X37293Y10906D01*
X37415Y10870D01*
X37538Y10827D01*
X37660Y10762D01*
X37768Y10675D01*
X37783Y10661D01*
X37812Y10625D01*
X37855Y10567D01*
X37905Y10488D01*
X37949Y10380D01*
X37992Y10250D01*
X38021Y10106D01*
X38035Y9933D01*
Y6782D01*
X37451D01*
Y9587D01*
Y9594D01*
Y9608D01*
Y9630D01*
Y9666D01*
X37444Y9753D01*
X37437Y9853D01*
X37422Y9962D01*
X37393Y10077D01*
X37365Y10171D01*
X37343Y10214D01*
X37321Y10250D01*
X37314Y10257D01*
X37300Y10279D01*
X37264Y10308D01*
X37220Y10344D01*
X37156Y10373D01*
X37076Y10401D01*
X36982Y10423D01*
X36874Y10430D01*
X36817D01*
X36752Y10416D01*
X36665Y10401D01*
X36571Y10373D01*
X36470Y10336D01*
X36377Y10279D01*
X36283Y10199D01*
X36276Y10192D01*
X36247Y10156D01*
X36211Y10106D01*
X36175Y10041D01*
X36132Y9954D01*
X36096Y9853D01*
X36067Y9731D01*
X36060Y9601D01*
Y6782D01*
X35476D01*
Y9601D01*
Y9608D01*
Y9623D01*
Y9644D01*
Y9673D01*
X35468Y9753D01*
X35461Y9853D01*
X35440Y9954D01*
X35418Y10063D01*
X35382Y10163D01*
X35339Y10243D01*
X35331Y10250D01*
X35310Y10272D01*
X35281Y10300D01*
X35230Y10336D01*
X35166Y10373D01*
X35086Y10401D01*
X34993Y10423D01*
X34884Y10430D01*
X34827D01*
X34754Y10416D01*
X34675Y10401D01*
X34574Y10373D01*
X34481Y10336D01*
X34380Y10279D01*
X34286Y10207D01*
X34279Y10199D01*
X34250Y10163D01*
X34214Y10120D01*
X34170Y10048D01*
X34127Y9969D01*
X34091Y9868D01*
X34062Y9760D01*
X34055Y9630D01*
Y6782D01*
X33500D01*
Y10841D01*
X34019D01*
Y10351D01*
X34026Y10365D01*
X34048Y10401D01*
X34084Y10452D01*
X34135Y10517D01*
X34199Y10582D01*
X34271Y10654D01*
X34358Y10726D01*
X34452Y10784D01*
X34466Y10791D01*
X34502Y10805D01*
X34560Y10834D01*
X34632Y10863D01*
X34726Y10884D01*
X34834Y10913D01*
X34956Y10928D01*
X35086Y10935D01*
X35144D01*
X35209Y10928D01*
X35288Y10913D01*
X35375Y10899D01*
X35476Y10870D01*
X35569Y10834D01*
X35656Y10784D01*
X35663Y10776D01*
X35692Y10755D01*
X35728Y10719D01*
X35778Y10675D01*
X35829Y10610D01*
X35879Y10531D01*
X35923Y10445D01*
X35959Y10344D01*
X35966Y10358D01*
X35995Y10394D01*
X36031Y10445D01*
X36081Y10509D01*
X36146Y10582D01*
X36218Y10654D01*
X36305Y10726D01*
X36398Y10784D01*
X36413Y10791D01*
X36449Y10805D01*
X36499Y10834D01*
X36579Y10863D01*
X36665Y10884D01*
X36773Y10913D01*
X36889Y10928D01*
X37011Y10935D01*
X37062D01*
X37091Y10928D01*
D02*
G37*
G36*
X83350Y10921D02*
X83393D01*
X83444Y10913D01*
X83559Y10892D01*
X83689Y10863D01*
X83811Y10812D01*
X83934Y10747D01*
X83984Y10704D01*
X84028Y10654D01*
X84035Y10639D01*
X84064Y10603D01*
X84078Y10567D01*
X84100Y10531D01*
X84121Y10488D01*
X84143Y10437D01*
X84165Y10373D01*
X84186Y10308D01*
X84208Y10228D01*
X84222Y10149D01*
X84237Y10055D01*
X84251Y9954D01*
X84258Y9839D01*
Y9724D01*
Y6782D01*
X83689D01*
Y9760D01*
Y9767D01*
Y9774D01*
Y9817D01*
X83682Y9875D01*
X83674Y9947D01*
X83653Y10026D01*
X83631Y10113D01*
X83595Y10185D01*
X83545Y10257D01*
X83537Y10264D01*
X83516Y10286D01*
X83487Y10308D01*
X83437Y10344D01*
X83379Y10373D01*
X83299Y10394D01*
X83213Y10416D01*
X83112Y10423D01*
X83047D01*
X82982Y10409D01*
X82896Y10394D01*
X82802Y10365D01*
X82701Y10322D01*
X82600Y10257D01*
X82514Y10178D01*
X82506Y10171D01*
X82477Y10135D01*
X82442Y10084D01*
X82405Y10005D01*
X82362Y9918D01*
X82326Y9803D01*
X82297Y9673D01*
X82290Y9529D01*
Y6782D01*
X81721D01*
Y10841D01*
X82247D01*
Y10336D01*
X82254Y10351D01*
X82276Y10387D01*
X82312Y10437D01*
X82355Y10502D01*
X82413Y10574D01*
X82485Y10646D01*
X82564Y10719D01*
X82651Y10776D01*
X82665Y10784D01*
X82694Y10798D01*
X82752Y10827D01*
X82824Y10856D01*
X82910Y10877D01*
X83018Y10906D01*
X83134Y10921D01*
X83263Y10928D01*
X83314D01*
X83350Y10921D01*
D02*
G37*
G36*
X53573Y10921D02*
X53616D01*
X53666Y10913D01*
X53782Y10892D01*
X53912Y10863D01*
X54034Y10812D01*
X54157Y10747D01*
X54207Y10704D01*
X54250Y10654D01*
X54258Y10639D01*
X54286Y10603D01*
X54301Y10567D01*
X54322Y10531D01*
X54344Y10488D01*
X54366Y10437D01*
X54387Y10373D01*
X54409Y10308D01*
X54431Y10228D01*
X54445Y10149D01*
X54460Y10055D01*
X54474Y9954D01*
X54481Y9839D01*
Y9724D01*
Y6782D01*
X53912D01*
Y9760D01*
Y9767D01*
Y9774D01*
Y9817D01*
X53904Y9875D01*
X53897Y9947D01*
X53875Y10026D01*
X53854Y10113D01*
X53818Y10185D01*
X53767Y10257D01*
X53760Y10264D01*
X53738Y10286D01*
X53710Y10308D01*
X53659Y10344D01*
X53601Y10373D01*
X53522Y10394D01*
X53436Y10416D01*
X53335Y10423D01*
X53270D01*
X53205Y10409D01*
X53118Y10394D01*
X53025Y10365D01*
X52924Y10322D01*
X52823Y10257D01*
X52736Y10178D01*
X52729Y10171D01*
X52700Y10135D01*
X52664Y10084D01*
X52628Y10005D01*
X52585Y9918D01*
X52549Y9803D01*
X52520Y9673D01*
X52513Y9529D01*
Y6782D01*
X51943D01*
Y10841D01*
X52469D01*
Y10336D01*
X52477Y10351D01*
X52498Y10387D01*
X52534Y10437D01*
X52578Y10502D01*
X52635Y10574D01*
X52707Y10646D01*
X52787Y10719D01*
X52873Y10776D01*
X52888Y10784D01*
X52917Y10798D01*
X52974Y10827D01*
X53046Y10856D01*
X53133Y10877D01*
X53241Y10906D01*
X53356Y10921D01*
X53486Y10928D01*
X53537D01*
X53573Y10921D01*
D02*
G37*
G36*
X76601Y10928D02*
X76666D01*
X76702Y10921D01*
Y10315D01*
X76695Y10322D01*
X76674Y10329D01*
X76637Y10336D01*
X76594Y10351D01*
X76587D01*
X76558Y10358D01*
X76522Y10365D01*
X76436D01*
X76407Y10358D01*
X76327Y10351D01*
X76227Y10329D01*
X76118Y10293D01*
X76003Y10243D01*
X75895Y10171D01*
X75794Y10070D01*
X75787Y10055D01*
X75758Y10019D01*
X75722Y9954D01*
X75678Y9861D01*
X75628Y9745D01*
X75592Y9608D01*
X75563Y9450D01*
X75556Y9262D01*
Y6782D01*
X74994D01*
Y10841D01*
X75513D01*
Y10185D01*
X75520Y10192D01*
X75534Y10236D01*
X75563Y10300D01*
X75606Y10380D01*
X75657Y10466D01*
X75722Y10560D01*
X75794Y10654D01*
X75880Y10733D01*
X75895Y10740D01*
X75924Y10762D01*
X75974Y10798D01*
X76046Y10834D01*
X76133Y10870D01*
X76234Y10906D01*
X76342Y10928D01*
X76457Y10935D01*
X76558D01*
X76601Y10928D01*
D02*
G37*
G36*
X64243Y6782D02*
X63681D01*
X62975Y9926D01*
X62354Y6782D01*
X61763D01*
X60725Y10841D01*
X61309Y10841D01*
X62059Y7589D01*
X62686Y10841D01*
X63263D01*
X63962Y7589D01*
X64662Y10841D01*
X65224D01*
X64243Y6782D01*
D02*
G37*
G36*
X77647D02*
X77084D01*
Y12211D01*
X77647D01*
Y6782D01*
D02*
G37*
G36*
X71172Y10380D02*
X69391Y7323D01*
X71208D01*
Y6782D01*
X68757D01*
Y7294D01*
X70495Y10329D01*
X68829D01*
Y10841D01*
X71172D01*
Y10380D01*
D02*
G37*
G36*
X66392Y6782D02*
X65808D01*
Y10841D01*
X66392D01*
Y6782D01*
D02*
G37*
G36*
X51085Y6782D02*
X50501D01*
Y10841D01*
X51085D01*
Y6782D01*
D02*
G37*
G36*
X79788Y10949D02*
X79839D01*
X79889Y10942D01*
X80019Y10921D01*
X80156Y10892D01*
X80293Y10841D01*
X80423Y10776D01*
X80488Y10740D01*
X80538Y10690D01*
X80553Y10675D01*
X80581Y10639D01*
X80625Y10574D01*
X80675Y10488D01*
X80718Y10373D01*
X80761Y10228D01*
X80790Y10063D01*
X80805Y9962D01*
Y9861D01*
Y7489D01*
Y7481D01*
Y7460D01*
Y7438D01*
X80812Y7402D01*
X80826Y7323D01*
X80841Y7287D01*
X80855Y7258D01*
X80870Y7251D01*
X80898Y7229D01*
X80956Y7200D01*
X81036Y7193D01*
X81079D01*
X81115Y7200D01*
X81129D01*
X81137Y6775D01*
X81115D01*
X81093Y6768D01*
X81072D01*
X81007Y6760D01*
X80942Y6753D01*
X80927D01*
X80898Y6746D01*
X80848Y6739D01*
X80761D01*
X80718Y6746D01*
X80661Y6760D01*
X80603Y6775D01*
X80538Y6804D01*
X80480Y6840D01*
X80423Y6890D01*
X80415Y6897D01*
X80401Y6919D01*
X80379Y6955D01*
X80351Y6998D01*
X80329Y7063D01*
X80307Y7135D01*
X80286Y7222D01*
X80278Y7316D01*
X80271Y7301D01*
X80257Y7265D01*
X80221Y7207D01*
X80185Y7142D01*
X80127Y7063D01*
X80062Y6984D01*
X79983Y6904D01*
X79896Y6840D01*
X79882Y6832D01*
X79853Y6818D01*
X79803Y6789D01*
X79730Y6760D01*
X79644Y6731D01*
X79550Y6703D01*
X79435Y6688D01*
X79312Y6681D01*
X79269D01*
X79240Y6688D01*
X79161Y6695D01*
X79060Y6717D01*
X78952Y6753D01*
X78837Y6804D01*
X78728Y6876D01*
X78627Y6977D01*
X78620Y6991D01*
X78591Y7034D01*
X78555Y7099D01*
X78512Y7193D01*
X78462Y7308D01*
X78426Y7452D01*
X78397Y7618D01*
X78390Y7806D01*
Y7813D01*
Y7827D01*
Y7856D01*
X78397Y7892D01*
Y7936D01*
X78404Y7986D01*
X78418Y8101D01*
X78447Y8231D01*
X78483Y8368D01*
X78541Y8491D01*
X78613Y8606D01*
X78627Y8620D01*
X78663Y8657D01*
X78692Y8678D01*
X78728Y8707D01*
X78772Y8743D01*
X78822Y8779D01*
X78887Y8815D01*
X78952Y8858D01*
X79031Y8902D01*
X79125Y8945D01*
X79226Y8995D01*
X79334Y9046D01*
X79457Y9089D01*
X79593Y9140D01*
X79615D01*
X79637Y9147D01*
X79666Y9161D01*
X79702Y9176D01*
X79752Y9197D01*
X79803Y9219D01*
X79918Y9277D01*
X80033Y9349D01*
X80084Y9392D01*
X80134Y9435D01*
X80170Y9478D01*
X80199Y9522D01*
X80221Y9572D01*
X80228Y9623D01*
Y9998D01*
Y10012D01*
Y10041D01*
X80221Y10084D01*
X80214Y10142D01*
X80192Y10199D01*
X80170Y10257D01*
X80134Y10315D01*
X80084Y10365D01*
X80077Y10373D01*
X80055Y10387D01*
X80019Y10401D01*
X79976Y10423D01*
X79911Y10445D01*
X79831Y10466D01*
X79738Y10474D01*
X79630Y10481D01*
X79579D01*
X79529Y10474D01*
X79457Y10459D01*
X79384Y10445D01*
X79312Y10416D01*
X79240Y10373D01*
X79175Y10322D01*
X79168Y10315D01*
X79154Y10293D01*
X79132Y10257D01*
X79103Y10199D01*
X79074Y10135D01*
X79053Y10048D01*
X79038Y9947D01*
X79031Y9832D01*
Y9767D01*
X78498D01*
Y9774D01*
Y9796D01*
Y9825D01*
X78505Y9868D01*
Y9918D01*
X78512Y9976D01*
X78534Y10113D01*
X78570Y10257D01*
X78620Y10409D01*
X78692Y10546D01*
X78736Y10610D01*
X78786Y10668D01*
X78800Y10683D01*
X78844Y10711D01*
X78909Y10762D01*
X78959Y10784D01*
X79009Y10812D01*
X79067Y10841D01*
X79132Y10863D01*
X79211Y10892D01*
X79291Y10913D01*
X79377Y10928D01*
X79478Y10942D01*
X79579Y10956D01*
X79752D01*
X79788Y10949D01*
D02*
G37*
G36*
X40169Y10949D02*
X40220D01*
X40270Y10942D01*
X40400Y10921D01*
X40537Y10892D01*
X40674Y10841D01*
X40804Y10776D01*
X40869Y10740D01*
X40919Y10690D01*
X40933Y10675D01*
X40962Y10639D01*
X41006Y10574D01*
X41056Y10488D01*
X41099Y10373D01*
X41143Y10228D01*
X41171Y10063D01*
X41186Y9962D01*
Y9861D01*
Y7489D01*
Y7481D01*
Y7460D01*
Y7438D01*
X41193Y7402D01*
X41208Y7323D01*
X41222Y7287D01*
X41236Y7258D01*
X41251Y7251D01*
X41280Y7229D01*
X41337Y7200D01*
X41417Y7193D01*
X41460D01*
X41496Y7200D01*
X41510D01*
X41517Y6775D01*
X41496D01*
X41474Y6768D01*
X41453D01*
X41388Y6760D01*
X41323Y6753D01*
X41308D01*
X41280Y6746D01*
X41229Y6739D01*
X41143D01*
X41099Y6746D01*
X41042Y6760D01*
X40984Y6775D01*
X40919Y6804D01*
X40861Y6840D01*
X40804Y6890D01*
X40797Y6897D01*
X40782Y6919D01*
X40760Y6955D01*
X40732Y6998D01*
X40710Y7063D01*
X40688Y7135D01*
X40667Y7222D01*
X40659Y7316D01*
X40652Y7301D01*
X40638Y7265D01*
X40602Y7207D01*
X40566Y7142D01*
X40508Y7063D01*
X40443Y6984D01*
X40364Y6904D01*
X40277Y6840D01*
X40263Y6832D01*
X40234Y6818D01*
X40184Y6789D01*
X40112Y6760D01*
X40025Y6731D01*
X39931Y6703D01*
X39816Y6688D01*
X39693Y6681D01*
X39650D01*
X39621Y6688D01*
X39542Y6695D01*
X39441Y6717D01*
X39333Y6753D01*
X39217Y6804D01*
X39109Y6876D01*
X39008Y6977D01*
X39001Y6991D01*
X38972Y7034D01*
X38936Y7099D01*
X38893Y7193D01*
X38843Y7308D01*
X38807Y7452D01*
X38778Y7618D01*
X38770Y7806D01*
Y7813D01*
Y7827D01*
Y7856D01*
X38778Y7892D01*
Y7936D01*
X38785Y7986D01*
X38799Y8101D01*
X38828Y8231D01*
X38864Y8368D01*
X38922Y8491D01*
X38994Y8606D01*
X39008Y8620D01*
X39044Y8657D01*
X39073Y8678D01*
X39109Y8707D01*
X39153Y8743D01*
X39203Y8779D01*
X39268Y8815D01*
X39333Y8858D01*
X39412Y8902D01*
X39506Y8945D01*
X39607Y8995D01*
X39715Y9046D01*
X39838Y9089D01*
X39975Y9140D01*
X39996D01*
X40018Y9147D01*
X40047Y9161D01*
X40083Y9176D01*
X40133Y9197D01*
X40184Y9219D01*
X40299Y9277D01*
X40414Y9349D01*
X40465Y9392D01*
X40515Y9435D01*
X40551Y9478D01*
X40580Y9522D01*
X40602Y9572D01*
X40609Y9623D01*
Y9998D01*
Y10012D01*
Y10041D01*
X40602Y10084D01*
X40595Y10142D01*
X40573Y10199D01*
X40551Y10257D01*
X40515Y10315D01*
X40465Y10365D01*
X40458Y10373D01*
X40436Y10387D01*
X40400Y10401D01*
X40357Y10423D01*
X40292Y10445D01*
X40213Y10466D01*
X40119Y10473D01*
X40011Y10481D01*
X39960D01*
X39910Y10473D01*
X39838Y10459D01*
X39766Y10445D01*
X39693Y10416D01*
X39621Y10373D01*
X39556Y10322D01*
X39549Y10315D01*
X39535Y10293D01*
X39513Y10257D01*
X39484Y10199D01*
X39456Y10135D01*
X39434Y10048D01*
X39419Y9947D01*
X39412Y9832D01*
Y9767D01*
X38879D01*
Y9774D01*
Y9796D01*
Y9825D01*
X38886Y9868D01*
Y9918D01*
X38893Y9976D01*
X38915Y10113D01*
X38951Y10257D01*
X39001Y10409D01*
X39073Y10546D01*
X39117Y10610D01*
X39167Y10668D01*
X39182Y10683D01*
X39225Y10711D01*
X39290Y10762D01*
X39340Y10784D01*
X39391Y10812D01*
X39448Y10841D01*
X39513Y10863D01*
X39592Y10892D01*
X39672Y10913D01*
X39758Y10928D01*
X39859Y10942D01*
X39960Y10956D01*
X40133D01*
X40169Y10949D01*
D02*
G37*
G36*
X67899Y10841D02*
X68555D01*
Y10373D01*
X67899D01*
Y7618D01*
Y7611D01*
Y7575D01*
X67906Y7532D01*
X67913Y7481D01*
X67935Y7373D01*
X67957Y7323D01*
X67985Y7287D01*
X67993D01*
X68007Y7272D01*
X68036Y7265D01*
X68079Y7251D01*
X68137Y7236D01*
X68209Y7222D01*
X68310Y7215D01*
X68425Y7207D01*
X68555D01*
Y6724D01*
X68519D01*
X68476Y6717D01*
X68375D01*
X68339Y6710D01*
X68296D01*
X68209Y6703D01*
X68072D01*
X68000Y6710D01*
X67913Y6724D01*
X67812Y6739D01*
X67712Y6768D01*
X67618Y6811D01*
X67538Y6861D01*
X67531Y6869D01*
X67510Y6890D01*
X67474Y6926D01*
X67445Y6984D01*
X67409Y7049D01*
X67373Y7135D01*
X67351Y7229D01*
X67344Y7344D01*
Y10373D01*
X66781D01*
Y10841D01*
X67344D01*
Y11923D01*
X67899D01*
Y10841D01*
D02*
G37*
G36*
X73097Y10949D02*
X73155Y10942D01*
X73213Y10935D01*
X73350Y10899D01*
X73501Y10848D01*
X73580Y10812D01*
X73660Y10762D01*
X73732Y10711D01*
X73804Y10654D01*
X73869Y10582D01*
X73934Y10502D01*
X73941Y10495D01*
X73948Y10481D01*
X73962Y10452D01*
X73984Y10416D01*
X74006Y10373D01*
X74035Y10315D01*
X74063Y10243D01*
X74092Y10163D01*
X74121Y10077D01*
X74143Y9976D01*
X74172Y9861D01*
X74193Y9738D01*
X74215Y9608D01*
X74229Y9464D01*
X74244Y9305D01*
Y9140D01*
Y9132D01*
Y9118D01*
Y9089D01*
Y9060D01*
Y8988D01*
X74237Y8923D01*
Y8909D01*
Y8880D01*
Y8837D01*
Y8794D01*
X72290Y8786D01*
Y8606D01*
Y8599D01*
Y8570D01*
Y8534D01*
Y8484D01*
X72297Y8419D01*
Y8347D01*
X72304Y8267D01*
X72311Y8181D01*
X72333Y8000D01*
X72362Y7813D01*
X72405Y7640D01*
X72434Y7568D01*
X72463Y7496D01*
Y7489D01*
X72470Y7481D01*
X72499Y7445D01*
X72535Y7388D01*
X72600Y7323D01*
X72679Y7258D01*
X72773Y7207D01*
X72888Y7164D01*
X72953Y7157D01*
X73025Y7150D01*
X73040D01*
X73076Y7157D01*
X73126Y7164D01*
X73198Y7186D01*
X73270Y7215D01*
X73350Y7258D01*
X73422Y7323D01*
X73494Y7409D01*
X73501Y7424D01*
X73523Y7460D01*
X73551Y7517D01*
X73580Y7597D01*
X73609Y7705D01*
X73638Y7827D01*
X73660Y7972D01*
X73667Y8130D01*
Y8159D01*
X74229D01*
Y8152D01*
Y8130D01*
Y8087D01*
X74222Y8037D01*
X74215Y7979D01*
X74208Y7907D01*
X74200Y7835D01*
X74186Y7748D01*
X74143Y7568D01*
X74085Y7380D01*
X74006Y7207D01*
X73955Y7121D01*
X73898Y7049D01*
Y7041D01*
X73883Y7034D01*
X73862Y7013D01*
X73840Y6991D01*
X73804Y6962D01*
X73761Y6933D01*
X73660Y6861D01*
X73530Y6789D01*
X73371Y6731D01*
X73191Y6688D01*
X73090Y6681D01*
X72982Y6674D01*
X72917D01*
X72874Y6681D01*
X72823Y6688D01*
X72759Y6703D01*
X72614Y6739D01*
X72535Y6760D01*
X72456Y6796D01*
X72376Y6840D01*
X72297Y6890D01*
X72218Y6948D01*
X72146Y7013D01*
X72081Y7092D01*
X72016Y7179D01*
Y7186D01*
X72001Y7200D01*
X71987Y7236D01*
X71965Y7272D01*
X71944Y7330D01*
X71915Y7395D01*
X71893Y7474D01*
X71864Y7568D01*
X71836Y7676D01*
X71807Y7791D01*
X71778Y7921D01*
X71756Y8065D01*
X71735Y8217D01*
X71720Y8390D01*
X71713Y8570D01*
X71706Y8765D01*
Y8779D01*
Y8815D01*
Y8873D01*
X71713Y8952D01*
Y9046D01*
X71720Y9154D01*
X71735Y9269D01*
X71742Y9399D01*
X71785Y9666D01*
X71836Y9940D01*
X71872Y10077D01*
X71915Y10199D01*
X71958Y10315D01*
X72016Y10423D01*
X72023Y10430D01*
X72030Y10445D01*
X72052Y10474D01*
X72074Y10509D01*
X72110Y10546D01*
X72153Y10589D01*
X72196Y10639D01*
X72254Y10690D01*
X72319Y10740D01*
X72391Y10791D01*
X72470Y10834D01*
X72564Y10870D01*
X72658Y10906D01*
X72759Y10935D01*
X72874Y10949D01*
X72996Y10956D01*
X73054D01*
X73097Y10949D01*
D02*
G37*
G36*
X46817Y10949D02*
X46874Y10942D01*
X46932Y10935D01*
X47069Y10899D01*
X47221Y10848D01*
X47300Y10812D01*
X47379Y10762D01*
X47451Y10711D01*
X47523Y10654D01*
X47588Y10582D01*
X47653Y10502D01*
X47660Y10495D01*
X47668Y10481D01*
X47682Y10452D01*
X47704Y10416D01*
X47725Y10373D01*
X47754Y10315D01*
X47783Y10243D01*
X47812Y10163D01*
X47841Y10077D01*
X47862Y9976D01*
X47891Y9861D01*
X47913Y9738D01*
X47934Y9608D01*
X47949Y9464D01*
X47963Y9305D01*
Y9140D01*
Y9132D01*
Y9118D01*
Y9089D01*
Y9060D01*
Y8988D01*
X47956Y8923D01*
Y8909D01*
Y8880D01*
Y8837D01*
Y8794D01*
X46009Y8786D01*
Y8606D01*
Y8599D01*
Y8570D01*
Y8534D01*
Y8484D01*
X46017Y8419D01*
Y8347D01*
X46024Y8267D01*
X46031Y8181D01*
X46053Y8000D01*
X46082Y7813D01*
X46125Y7640D01*
X46154Y7568D01*
X46182Y7496D01*
Y7489D01*
X46190Y7481D01*
X46218Y7445D01*
X46255Y7388D01*
X46319Y7323D01*
X46399Y7258D01*
X46492Y7207D01*
X46608Y7164D01*
X46673Y7157D01*
X46745Y7150D01*
X46759D01*
X46795Y7157D01*
X46846Y7164D01*
X46918Y7186D01*
X46990Y7215D01*
X47069Y7258D01*
X47141Y7323D01*
X47213Y7409D01*
X47221Y7424D01*
X47242Y7460D01*
X47271Y7517D01*
X47300Y7597D01*
X47329Y7705D01*
X47358Y7827D01*
X47379Y7972D01*
X47387Y8130D01*
Y8159D01*
X47949D01*
Y8152D01*
Y8130D01*
Y8087D01*
X47942Y8037D01*
X47934Y7979D01*
X47927Y7907D01*
X47920Y7835D01*
X47906Y7748D01*
X47862Y7568D01*
X47805Y7380D01*
X47725Y7207D01*
X47675Y7121D01*
X47617Y7049D01*
Y7041D01*
X47603Y7034D01*
X47581Y7013D01*
X47559Y6991D01*
X47523Y6962D01*
X47480Y6933D01*
X47379Y6861D01*
X47249Y6789D01*
X47091Y6731D01*
X46911Y6688D01*
X46810Y6681D01*
X46701Y6674D01*
X46637D01*
X46593Y6681D01*
X46543Y6688D01*
X46478Y6703D01*
X46334Y6739D01*
X46255Y6760D01*
X46175Y6796D01*
X46096Y6840D01*
X46017Y6890D01*
X45937Y6948D01*
X45865Y7013D01*
X45800Y7092D01*
X45735Y7179D01*
Y7186D01*
X45721Y7200D01*
X45706Y7236D01*
X45685Y7272D01*
X45663Y7330D01*
X45634Y7395D01*
X45613Y7474D01*
X45584Y7568D01*
X45555Y7676D01*
X45526Y7791D01*
X45497Y7921D01*
X45476Y8065D01*
X45454Y8217D01*
X45440Y8390D01*
X45432Y8570D01*
X45425Y8765D01*
Y8779D01*
Y8815D01*
Y8873D01*
X45432Y8952D01*
Y9046D01*
X45440Y9154D01*
X45454Y9269D01*
X45461Y9399D01*
X45505Y9666D01*
X45555Y9940D01*
X45591Y10077D01*
X45634Y10199D01*
X45678Y10315D01*
X45735Y10423D01*
X45743Y10430D01*
X45750Y10445D01*
X45771Y10473D01*
X45793Y10509D01*
X45829Y10546D01*
X45872Y10589D01*
X45916Y10639D01*
X45973Y10690D01*
X46038Y10740D01*
X46110Y10791D01*
X46190Y10834D01*
X46283Y10870D01*
X46377Y10906D01*
X46478Y10935D01*
X46593Y10949D01*
X46716Y10956D01*
X46774D01*
X46817Y10949D01*
D02*
G37*
G36*
X106120Y20380D02*
X33465D01*
Y28287D01*
X106120D01*
Y20380D01*
D02*
G37*
%LPC*%
G36*
X52185Y53405D02*
X48248D01*
Y49468D01*
X44311D01*
Y53405D01*
X40374D01*
Y49468D01*
X36437D01*
X36437Y45531D01*
X36437Y41594D01*
X44311D01*
Y45531D01*
X48248D01*
Y41594D01*
X56122D01*
Y49468D01*
X52185D01*
Y53405D01*
D02*
G37*
G36*
X56122Y37657D02*
X36437D01*
Y33720D01*
X56122D01*
Y37657D01*
D02*
G37*
G36*
X87395Y18430D02*
X86436D01*
Y16477D01*
X87229D01*
X87272Y16484D01*
X87330D01*
X87388Y16491D01*
X87524Y16505D01*
X87676Y16534D01*
X87835Y16577D01*
X87979Y16635D01*
X88044Y16671D01*
X88101Y16714D01*
X88116Y16729D01*
X88152Y16758D01*
X88195Y16823D01*
X88253Y16902D01*
X88310Y17010D01*
X88354Y17140D01*
X88390Y17298D01*
X88404Y17479D01*
Y17486D01*
Y17500D01*
Y17529D01*
X88397Y17558D01*
X88390Y17645D01*
X88368Y17753D01*
X88339Y17875D01*
X88289Y17991D01*
X88224Y18106D01*
X88137Y18200D01*
X88123Y18207D01*
X88087Y18236D01*
X88022Y18272D01*
X87928Y18315D01*
X87813Y18358D01*
X87669Y18394D01*
X87582Y18409D01*
X87489Y18423D01*
X87395Y18430D01*
D02*
G37*
G36*
X70963Y18466D02*
X70920D01*
X70884Y18459D01*
X70805Y18445D01*
X70704Y18409D01*
X70596Y18358D01*
X70538Y18322D01*
X70487Y18279D01*
X70437Y18228D01*
X70386Y18164D01*
X70343Y18099D01*
X70307Y18020D01*
Y18012D01*
X70300Y17998D01*
X70293Y17969D01*
X70278Y17926D01*
X70264Y17875D01*
X70249Y17810D01*
X70235Y17724D01*
X70221Y17630D01*
X70199Y17515D01*
X70184Y17385D01*
X70170Y17241D01*
X70156Y17075D01*
X70141Y16895D01*
X70134Y16693D01*
X70127Y16469D01*
Y16231D01*
Y16217D01*
Y16174D01*
Y16109D01*
Y16015D01*
X70134Y15914D01*
Y15792D01*
X70141Y15655D01*
X70148Y15510D01*
X70170Y15215D01*
X70206Y14912D01*
X70228Y14775D01*
X70249Y14645D01*
X70278Y14530D01*
X70314Y14429D01*
Y14422D01*
X70322Y14407D01*
X70336Y14386D01*
X70350Y14357D01*
X70401Y14277D01*
X70466Y14191D01*
X70559Y14104D01*
X70668Y14025D01*
X70732Y13996D01*
X70805Y13975D01*
X70884Y13960D01*
X70970Y13953D01*
X71014D01*
X71050Y13960D01*
X71129Y13975D01*
X71230Y14011D01*
X71338Y14061D01*
X71389Y14097D01*
X71439Y14133D01*
X71490Y14184D01*
X71540Y14241D01*
X71583Y14306D01*
X71619Y14386D01*
Y14393D01*
X71627Y14407D01*
X71634Y14436D01*
X71648Y14472D01*
X71662Y14530D01*
X71677Y14595D01*
X71699Y14681D01*
X71713Y14775D01*
X71727Y14890D01*
X71749Y15027D01*
X71763Y15171D01*
X71778Y15345D01*
X71792Y15532D01*
X71799Y15741D01*
X71807Y15972D01*
Y16224D01*
Y16231D01*
Y16239D01*
Y16282D01*
Y16347D01*
Y16433D01*
X71799Y16541D01*
Y16664D01*
X71792Y16794D01*
X71785Y16938D01*
X71763Y17234D01*
X71727Y17522D01*
X71706Y17659D01*
X71684Y17789D01*
X71655Y17904D01*
X71619Y17998D01*
Y18005D01*
X71612Y18020D01*
X71598Y18041D01*
X71583Y18070D01*
X71533Y18149D01*
X71468Y18236D01*
X71374Y18315D01*
X71266Y18394D01*
X71201Y18423D01*
X71129Y18445D01*
X71050Y18459D01*
X70963Y18466D01*
D02*
G37*
G36*
X61965D02*
X61922D01*
X61886Y18459D01*
X61806Y18445D01*
X61705Y18409D01*
X61597Y18358D01*
X61540Y18322D01*
X61489Y18279D01*
X61439Y18228D01*
X61388Y18164D01*
X61345Y18099D01*
X61309Y18020D01*
Y18012D01*
X61302Y17998D01*
X61295Y17969D01*
X61280Y17926D01*
X61266Y17875D01*
X61251Y17810D01*
X61237Y17724D01*
X61222Y17630D01*
X61201Y17515D01*
X61186Y17385D01*
X61172Y17241D01*
X61158Y17075D01*
X61143Y16895D01*
X61136Y16693D01*
X61129Y16469D01*
Y16231D01*
Y16217D01*
Y16174D01*
Y16109D01*
Y16015D01*
X61136Y15914D01*
Y15792D01*
X61143Y15655D01*
X61150Y15510D01*
X61172Y15215D01*
X61208Y14912D01*
X61230Y14775D01*
X61251Y14645D01*
X61280Y14530D01*
X61316Y14429D01*
Y14422D01*
X61323Y14407D01*
X61338Y14386D01*
X61352Y14357D01*
X61403Y14277D01*
X61468Y14191D01*
X61561Y14104D01*
X61669Y14025D01*
X61734Y13996D01*
X61806Y13975D01*
X61886Y13960D01*
X61972Y13953D01*
X62015D01*
X62052Y13960D01*
X62131Y13975D01*
X62232Y14011D01*
X62340Y14061D01*
X62391Y14097D01*
X62441Y14133D01*
X62491Y14184D01*
X62542Y14241D01*
X62585Y14306D01*
X62621Y14386D01*
Y14393D01*
X62628Y14407D01*
X62636Y14436D01*
X62650Y14472D01*
X62664Y14530D01*
X62679Y14595D01*
X62700Y14681D01*
X62715Y14775D01*
X62729Y14890D01*
X62751Y15027D01*
X62765Y15171D01*
X62780Y15345D01*
X62794Y15532D01*
X62801Y15741D01*
X62809Y15972D01*
Y16224D01*
Y16231D01*
Y16239D01*
Y16282D01*
Y16347D01*
Y16433D01*
X62801Y16541D01*
Y16664D01*
X62794Y16794D01*
X62787Y16938D01*
X62765Y17234D01*
X62729Y17522D01*
X62708Y17659D01*
X62686Y17789D01*
X62657Y17904D01*
X62621Y17998D01*
Y18005D01*
X62614Y18020D01*
X62600Y18041D01*
X62585Y18070D01*
X62535Y18149D01*
X62470Y18236D01*
X62376Y18315D01*
X62268Y18394D01*
X62203Y18423D01*
X62131Y18445D01*
X62052Y18459D01*
X61965Y18466D01*
D02*
G37*
G36*
X58367Y18466D02*
X58324D01*
X58288Y18459D01*
X58209Y18445D01*
X58108Y18409D01*
X58000Y18358D01*
X57942Y18322D01*
X57891Y18279D01*
X57841Y18228D01*
X57790Y18164D01*
X57747Y18099D01*
X57711Y18019D01*
Y18012D01*
X57704Y17998D01*
X57697Y17969D01*
X57682Y17926D01*
X57668Y17875D01*
X57653Y17810D01*
X57639Y17724D01*
X57625Y17630D01*
X57603Y17515D01*
X57589Y17385D01*
X57574Y17241D01*
X57560Y17075D01*
X57545Y16895D01*
X57538Y16693D01*
X57531Y16469D01*
Y16231D01*
Y16217D01*
Y16174D01*
Y16109D01*
Y16015D01*
X57538Y15914D01*
Y15792D01*
X57545Y15655D01*
X57553Y15510D01*
X57574Y15215D01*
X57610Y14912D01*
X57632Y14775D01*
X57653Y14645D01*
X57682Y14530D01*
X57718Y14429D01*
Y14422D01*
X57726Y14407D01*
X57740Y14386D01*
X57754Y14357D01*
X57805Y14277D01*
X57870Y14191D01*
X57964Y14104D01*
X58072Y14025D01*
X58137Y13996D01*
X58209Y13975D01*
X58288Y13960D01*
X58375Y13953D01*
X58418D01*
X58454Y13960D01*
X58533Y13975D01*
X58634Y14011D01*
X58742Y14061D01*
X58793Y14097D01*
X58843Y14133D01*
X58894Y14184D01*
X58944Y14241D01*
X58987Y14306D01*
X59023Y14386D01*
Y14393D01*
X59031Y14407D01*
X59038Y14436D01*
X59052Y14472D01*
X59067Y14530D01*
X59081Y14595D01*
X59103Y14681D01*
X59117Y14775D01*
X59132Y14890D01*
X59153Y15027D01*
X59168Y15171D01*
X59182Y15345D01*
X59196Y15532D01*
X59204Y15741D01*
X59211Y15972D01*
Y16224D01*
Y16231D01*
Y16239D01*
Y16282D01*
Y16347D01*
Y16433D01*
X59204Y16541D01*
Y16664D01*
X59196Y16794D01*
X59189Y16938D01*
X59168Y17233D01*
X59132Y17522D01*
X59110Y17659D01*
X59088Y17789D01*
X59060Y17904D01*
X59023Y17998D01*
Y18005D01*
X59016Y18019D01*
X59002Y18041D01*
X58987Y18070D01*
X58937Y18149D01*
X58872Y18236D01*
X58778Y18315D01*
X58670Y18394D01*
X58605Y18423D01*
X58533Y18445D01*
X58454Y18459D01*
X58367Y18466D01*
D02*
G37*
G36*
X86393Y10430D02*
X86357D01*
X86328Y10423D01*
X86256Y10409D01*
X86169Y10380D01*
X86075Y10336D01*
X85982Y10272D01*
X85931Y10228D01*
X85888Y10178D01*
X85845Y10113D01*
X85809Y10048D01*
Y10041D01*
X85801Y10034D01*
X85794Y10012D01*
X85780Y9976D01*
X85765Y9940D01*
X85751Y9889D01*
X85729Y9832D01*
X85715Y9760D01*
X85700Y9688D01*
X85679Y9601D01*
X85664Y9500D01*
X85650Y9399D01*
X85636Y9284D01*
X85628Y9161D01*
X85621Y9024D01*
Y8880D01*
Y8873D01*
Y8844D01*
Y8794D01*
Y8736D01*
X85628Y8664D01*
Y8584D01*
X85636Y8491D01*
X85643Y8390D01*
X85664Y8181D01*
X85700Y7972D01*
X85715Y7871D01*
X85744Y7770D01*
X85773Y7683D01*
X85801Y7604D01*
Y7597D01*
X85809Y7589D01*
X85837Y7539D01*
X85881Y7481D01*
X85938Y7409D01*
X86018Y7330D01*
X86119Y7272D01*
X86234Y7222D01*
X86299Y7215D01*
X86371Y7207D01*
X86414D01*
X86443Y7215D01*
X86515Y7229D01*
X86609Y7251D01*
X86703Y7294D01*
X86804Y7366D01*
X86854Y7402D01*
X86897Y7452D01*
X86940Y7510D01*
X86977Y7575D01*
Y7582D01*
X86984Y7597D01*
X86991Y7618D01*
X87005Y7647D01*
X87020Y7690D01*
X87034Y7741D01*
X87056Y7799D01*
X87070Y7871D01*
X87085Y7957D01*
X87106Y8051D01*
X87121Y8152D01*
X87135Y8267D01*
X87150Y8390D01*
X87157Y8527D01*
X87164Y8678D01*
Y8837D01*
Y8844D01*
Y8873D01*
Y8923D01*
Y8981D01*
X87157Y9053D01*
Y9140D01*
X87150Y9226D01*
X87142Y9327D01*
X87121Y9536D01*
X87092Y9738D01*
X87070Y9832D01*
X87049Y9926D01*
X87020Y10005D01*
X86991Y10077D01*
Y10084D01*
X86984Y10091D01*
X86955Y10135D01*
X86912Y10192D01*
X86854Y10257D01*
X86768Y10322D01*
X86667Y10373D01*
X86544Y10416D01*
X86472Y10423D01*
X86393Y10430D01*
D02*
G37*
G36*
X43378Y10430D02*
X43342D01*
X43313Y10423D01*
X43241Y10409D01*
X43154Y10380D01*
X43060Y10336D01*
X42967Y10272D01*
X42916Y10228D01*
X42873Y10178D01*
X42830Y10113D01*
X42794Y10048D01*
Y10041D01*
X42786Y10034D01*
X42779Y10012D01*
X42765Y9976D01*
X42750Y9940D01*
X42736Y9889D01*
X42714Y9832D01*
X42700Y9760D01*
X42685Y9688D01*
X42664Y9601D01*
X42649Y9500D01*
X42635Y9399D01*
X42621Y9284D01*
X42613Y9161D01*
X42606Y9024D01*
Y8880D01*
Y8873D01*
Y8844D01*
Y8794D01*
Y8736D01*
X42613Y8664D01*
Y8584D01*
X42621Y8491D01*
X42628Y8390D01*
X42649Y8181D01*
X42685Y7972D01*
X42700Y7871D01*
X42729Y7770D01*
X42758Y7683D01*
X42786Y7604D01*
Y7597D01*
X42794Y7589D01*
X42823Y7539D01*
X42866Y7481D01*
X42924Y7409D01*
X43003Y7330D01*
X43104Y7272D01*
X43219Y7222D01*
X43284Y7215D01*
X43356Y7207D01*
X43399D01*
X43428Y7215D01*
X43500Y7229D01*
X43594Y7251D01*
X43688Y7294D01*
X43789Y7366D01*
X43839Y7402D01*
X43882Y7452D01*
X43926Y7510D01*
X43962Y7575D01*
Y7582D01*
X43969Y7597D01*
X43976Y7618D01*
X43991Y7647D01*
X44005Y7690D01*
X44019Y7741D01*
X44041Y7799D01*
X44055Y7871D01*
X44070Y7957D01*
X44091Y8051D01*
X44106Y8152D01*
X44120Y8267D01*
X44135Y8390D01*
X44142Y8527D01*
X44149Y8678D01*
Y8837D01*
Y8844D01*
Y8873D01*
Y8923D01*
Y8981D01*
X44142Y9053D01*
Y9140D01*
X44135Y9226D01*
X44128Y9327D01*
X44106Y9536D01*
X44077Y9738D01*
X44055Y9832D01*
X44034Y9926D01*
X44005Y10005D01*
X43976Y10077D01*
Y10084D01*
X43969Y10091D01*
X43940Y10135D01*
X43897Y10192D01*
X43839Y10257D01*
X43753Y10322D01*
X43652Y10373D01*
X43529Y10416D01*
X43457Y10423D01*
X43378Y10430D01*
D02*
G37*
G36*
X80242Y8974D02*
X80235Y8967D01*
X80214Y8945D01*
X80177Y8916D01*
X80120Y8880D01*
X80033Y8830D01*
X79932Y8779D01*
X79803Y8721D01*
X79730Y8685D01*
X79644Y8657D01*
X79637D01*
X79622Y8649D01*
X79608Y8642D01*
X79586D01*
X79579Y8635D01*
X79558Y8628D01*
X79529Y8620D01*
X79464Y8584D01*
X79377Y8548D01*
X79291Y8505D01*
X79204Y8448D01*
X79132Y8390D01*
X79074Y8325D01*
X79067Y8318D01*
X79060Y8296D01*
X79038Y8253D01*
X79017Y8195D01*
X78995Y8123D01*
X78981Y8037D01*
X78966Y7936D01*
X78959Y7813D01*
Y7799D01*
Y7762D01*
X78966Y7712D01*
X78974Y7640D01*
X78988Y7568D01*
X79017Y7489D01*
X79046Y7409D01*
X79089Y7344D01*
X79096Y7337D01*
X79118Y7316D01*
X79146Y7294D01*
X79190Y7265D01*
X79240Y7229D01*
X79305Y7207D01*
X79377Y7186D01*
X79464Y7179D01*
X79478D01*
X79521Y7186D01*
X79586Y7193D01*
X79666Y7215D01*
X79759Y7243D01*
X79853Y7294D01*
X79940Y7359D01*
X80026Y7445D01*
X80033Y7460D01*
X80062Y7496D01*
X80098Y7553D01*
X80134Y7633D01*
X80177Y7741D01*
X80206Y7863D01*
X80235Y8008D01*
X80242Y8166D01*
Y8974D01*
D02*
G37*
G36*
X40624Y8974D02*
X40616Y8967D01*
X40595Y8945D01*
X40559Y8916D01*
X40501Y8880D01*
X40414Y8830D01*
X40314Y8779D01*
X40184Y8721D01*
X40112Y8685D01*
X40025Y8657D01*
X40018D01*
X40003Y8649D01*
X39989Y8642D01*
X39967D01*
X39960Y8635D01*
X39939Y8628D01*
X39910Y8620D01*
X39845Y8584D01*
X39758Y8548D01*
X39672Y8505D01*
X39585Y8447D01*
X39513Y8390D01*
X39456Y8325D01*
X39448Y8318D01*
X39441Y8296D01*
X39419Y8253D01*
X39398Y8195D01*
X39376Y8123D01*
X39362Y8037D01*
X39347Y7936D01*
X39340Y7813D01*
Y7799D01*
Y7762D01*
X39347Y7712D01*
X39355Y7640D01*
X39369Y7568D01*
X39398Y7489D01*
X39427Y7409D01*
X39470Y7344D01*
X39477Y7337D01*
X39499Y7316D01*
X39528Y7294D01*
X39571Y7265D01*
X39621Y7229D01*
X39686Y7207D01*
X39758Y7186D01*
X39845Y7179D01*
X39859D01*
X39902Y7186D01*
X39967Y7193D01*
X40047Y7215D01*
X40140Y7243D01*
X40234Y7294D01*
X40321Y7359D01*
X40407Y7445D01*
X40414Y7460D01*
X40443Y7496D01*
X40479Y7553D01*
X40515Y7633D01*
X40559Y7741D01*
X40587Y7863D01*
X40616Y8008D01*
X40624Y8166D01*
Y8974D01*
D02*
G37*
G36*
X73011Y10488D02*
X72996D01*
X72953Y10481D01*
X72888Y10474D01*
X72802Y10452D01*
X72715Y10416D01*
X72622Y10358D01*
X72535Y10279D01*
X72499Y10236D01*
X72463Y10178D01*
X72456Y10163D01*
X72434Y10120D01*
X72420Y10091D01*
X72405Y10048D01*
X72391Y10005D01*
X72376Y9947D01*
X72362Y9889D01*
X72347Y9817D01*
X72333Y9745D01*
X72319Y9659D01*
X72304Y9572D01*
X72297Y9471D01*
X72290Y9370D01*
Y9255D01*
X73667D01*
Y9363D01*
Y9370D01*
Y9385D01*
Y9414D01*
Y9457D01*
X73660Y9500D01*
Y9551D01*
X73645Y9673D01*
X73624Y9810D01*
X73595Y9947D01*
X73559Y10084D01*
X73501Y10199D01*
X73494Y10214D01*
X73472Y10243D01*
X73429Y10293D01*
X73378Y10344D01*
X73306Y10394D01*
X73227Y10445D01*
X73126Y10474D01*
X73011Y10488D01*
D02*
G37*
G36*
X46730Y10488D02*
X46716D01*
X46673Y10481D01*
X46608Y10473D01*
X46521Y10452D01*
X46435Y10416D01*
X46341Y10358D01*
X46255Y10279D01*
X46218Y10236D01*
X46182Y10178D01*
X46175Y10163D01*
X46154Y10120D01*
X46139Y10091D01*
X46125Y10048D01*
X46110Y10005D01*
X46096Y9947D01*
X46082Y9889D01*
X46067Y9817D01*
X46053Y9745D01*
X46038Y9659D01*
X46024Y9572D01*
X46017Y9471D01*
X46009Y9370D01*
Y9255D01*
X47387D01*
Y9363D01*
Y9370D01*
Y9385D01*
Y9414D01*
Y9457D01*
X47379Y9500D01*
Y9551D01*
X47365Y9673D01*
X47343Y9810D01*
X47314Y9947D01*
X47278Y10084D01*
X47221Y10199D01*
X47213Y10214D01*
X47192Y10243D01*
X47148Y10293D01*
X47098Y10344D01*
X47026Y10394D01*
X46947Y10445D01*
X46846Y10473D01*
X46730Y10488D01*
D02*
G37*
G36*
X100529Y27630D02*
D01*
Y26198D01*
X100522Y26312D01*
X100509Y26418D01*
X100489Y26518D01*
X100462Y26618D01*
X100389Y26791D01*
X100355Y26864D01*
X100315Y26938D01*
X100269Y27004D01*
X100235Y27057D01*
X100196Y27104D01*
X100162Y27144D01*
X100136Y27177D01*
X100116Y27197D01*
X100102Y27211D01*
X100096Y27217D01*
X100009Y27291D01*
X99923Y27351D01*
X99823Y27411D01*
X99729Y27457D01*
X99629Y27497D01*
X99530Y27530D01*
X99336Y27577D01*
X99250Y27597D01*
X99170Y27610D01*
X99090Y27617D01*
X99030Y27624D01*
X98977Y27630D01*
X100529D01*
X97092D01*
X98904D01*
X98777Y27624D01*
X98657Y27617D01*
X98537Y27597D01*
X98431Y27577D01*
X98331Y27550D01*
X98238Y27517D01*
X98144Y27484D01*
X98071Y27457D01*
X97998Y27424D01*
X97931Y27391D01*
X97878Y27357D01*
X97831Y27331D01*
X97798Y27311D01*
X97771Y27291D01*
X97758Y27284D01*
X97751Y27277D01*
X97671Y27204D01*
X97598Y27124D01*
X97532Y27038D01*
X97472Y26944D01*
X97418Y26851D01*
X97378Y26751D01*
X97305Y26565D01*
X97278Y26471D01*
X97259Y26385D01*
X97238Y26312D01*
X97225Y26245D01*
X97219Y26192D01*
X97212Y26145D01*
X97205Y26118D01*
Y26112D01*
X98184Y26019D01*
X98204Y26165D01*
X98231Y26292D01*
X98264Y26398D01*
X98298Y26485D01*
X98331Y26551D01*
X98364Y26598D01*
X98384Y26625D01*
X98391Y26631D01*
X98464Y26691D01*
X98544Y26738D01*
X98624Y26771D01*
X98704Y26798D01*
X98770Y26811D01*
X98824Y26818D01*
X98877D01*
X98990Y26811D01*
X99083Y26791D01*
X99170Y26758D01*
X99237Y26731D01*
X99290Y26698D01*
X99330Y26665D01*
X99356Y26645D01*
X99363Y26638D01*
X99423Y26565D01*
X99470Y26485D01*
X99496Y26398D01*
X99523Y26318D01*
X99536Y26245D01*
X99543Y26185D01*
Y26145D01*
Y26138D01*
Y26132D01*
X99536Y26019D01*
X99510Y25912D01*
X99476Y25812D01*
X99443Y25719D01*
X99403Y25646D01*
X99370Y25586D01*
X99343Y25546D01*
X99336Y25539D01*
Y25532D01*
X99303Y25486D01*
X99256Y25433D01*
X99210Y25372D01*
X99150Y25306D01*
X99017Y25173D01*
X98877Y25033D01*
X98744Y24900D01*
X98684Y24846D01*
X98630Y24793D01*
X98584Y24753D01*
X98551Y24720D01*
X98531Y24700D01*
X98524Y24693D01*
X98377Y24553D01*
X98244Y24420D01*
X98118Y24294D01*
X98004Y24180D01*
X97904Y24067D01*
X97818Y23967D01*
X97738Y23874D01*
X97665Y23787D01*
X97605Y23714D01*
X97558Y23648D01*
X97518Y23594D01*
X97485Y23548D01*
X97458Y23508D01*
X97438Y23481D01*
X97432Y23468D01*
X97425Y23461D01*
X97332Y23288D01*
X97259Y23115D01*
X97199Y22948D01*
X97152Y22795D01*
X97139Y22728D01*
X97125Y22669D01*
X97112Y22615D01*
X97105Y22569D01*
X97099Y22535D01*
X97092Y22502D01*
Y22482D01*
X100529D01*
Y27630D01*
D02*
G37*
G36*
X92576D02*
D01*
Y26198D01*
X92570Y26312D01*
X92557Y26418D01*
X92537Y26518D01*
X92510Y26618D01*
X92437Y26791D01*
X92403Y26864D01*
X92363Y26938D01*
X92317Y27004D01*
X92283Y27057D01*
X92243Y27104D01*
X92210Y27144D01*
X92184Y27177D01*
X92164Y27197D01*
X92150Y27211D01*
X92144Y27217D01*
X92057Y27291D01*
X91970Y27351D01*
X91871Y27411D01*
X91777Y27457D01*
X91677Y27497D01*
X91578Y27530D01*
X91384Y27577D01*
X91298Y27597D01*
X91218Y27610D01*
X91138Y27617D01*
X91078Y27624D01*
X91025Y27630D01*
X92576D01*
X89140D01*
X90952D01*
X90825Y27624D01*
X90705Y27617D01*
X90585Y27597D01*
X90479Y27577D01*
X90379Y27550D01*
X90285Y27517D01*
X90192Y27484D01*
X90119Y27457D01*
X90046Y27424D01*
X89979Y27391D01*
X89926Y27357D01*
X89879Y27331D01*
X89846Y27311D01*
X89819Y27291D01*
X89806Y27284D01*
X89799Y27277D01*
X89719Y27204D01*
X89646Y27124D01*
X89579Y27038D01*
X89520Y26944D01*
X89466Y26851D01*
X89426Y26751D01*
X89353Y26565D01*
X89327Y26471D01*
X89306Y26385D01*
X89287Y26312D01*
X89273Y26245D01*
X89267Y26192D01*
X89260Y26145D01*
X89253Y26118D01*
Y26112D01*
X90232Y26019D01*
X90252Y26165D01*
X90279Y26292D01*
X90312Y26398D01*
X90345Y26485D01*
X90379Y26551D01*
X90412Y26598D01*
X90432Y26625D01*
X90439Y26631D01*
X90512Y26691D01*
X90592Y26738D01*
X90672Y26771D01*
X90752Y26798D01*
X90818Y26811D01*
X90872Y26818D01*
X90925D01*
X91038Y26811D01*
X91131Y26791D01*
X91218Y26758D01*
X91285Y26731D01*
X91338Y26698D01*
X91378Y26665D01*
X91404Y26645D01*
X91411Y26638D01*
X91471Y26565D01*
X91518Y26485D01*
X91544Y26398D01*
X91571Y26318D01*
X91584Y26245D01*
X91591Y26185D01*
Y26145D01*
Y26138D01*
Y26132D01*
X91584Y26019D01*
X91558Y25912D01*
X91524Y25812D01*
X91491Y25719D01*
X91451Y25646D01*
X91418Y25586D01*
X91391Y25546D01*
X91384Y25539D01*
Y25532D01*
X91351Y25486D01*
X91304Y25433D01*
X91258Y25372D01*
X91198Y25306D01*
X91065Y25173D01*
X90925Y25033D01*
X90792Y24900D01*
X90732Y24846D01*
X90678Y24793D01*
X90632Y24753D01*
X90598Y24720D01*
X90579Y24700D01*
X90572Y24693D01*
X90425Y24553D01*
X90292Y24420D01*
X90166Y24294D01*
X90052Y24180D01*
X89952Y24067D01*
X89866Y23967D01*
X89786Y23874D01*
X89713Y23787D01*
X89653Y23714D01*
X89606Y23648D01*
X89566Y23594D01*
X89533Y23548D01*
X89506Y23508D01*
X89486Y23481D01*
X89480Y23468D01*
X89473Y23461D01*
X89380Y23288D01*
X89306Y23115D01*
X89246Y22948D01*
X89200Y22795D01*
X89187Y22728D01*
X89173Y22669D01*
X89160Y22615D01*
X89153Y22569D01*
X89147Y22535D01*
X89140Y22502D01*
Y22482D01*
X92576D01*
Y27630D01*
D02*
G37*
G36*
X38844Y27697D02*
Y25226D01*
X36613D01*
Y24360D01*
X37798D01*
Y23708D01*
X37705Y23641D01*
X37612Y23581D01*
X37512Y23534D01*
X37425Y23488D01*
X37345Y23448D01*
X37285Y23421D01*
X37245Y23408D01*
X37239Y23401D01*
X37232D01*
X37112Y23361D01*
X36992Y23328D01*
X36886Y23308D01*
X36786Y23288D01*
X36706Y23281D01*
X36639Y23275D01*
X36586D01*
X36466Y23281D01*
X36353Y23295D01*
X36246Y23315D01*
X36140Y23348D01*
X36046Y23381D01*
X35960Y23421D01*
X35880Y23461D01*
X35807Y23501D01*
X35740Y23541D01*
X35687Y23588D01*
X35634Y23621D01*
X35594Y23654D01*
X35560Y23687D01*
X35540Y23708D01*
X35527Y23721D01*
X35520Y23728D01*
X35447Y23821D01*
X35387Y23921D01*
X35334Y24027D01*
X35287Y24134D01*
X35254Y24247D01*
X35221Y24367D01*
X35174Y24587D01*
X35154Y24693D01*
X35141Y24786D01*
X35134Y24873D01*
X35127Y24953D01*
X35121Y25013D01*
Y25060D01*
Y25086D01*
Y25099D01*
X35127Y25253D01*
X35141Y25399D01*
X35161Y25532D01*
X35181Y25659D01*
X35214Y25772D01*
X35247Y25879D01*
X35281Y25972D01*
X35320Y26059D01*
X35361Y26132D01*
X35394Y26198D01*
X35427Y26252D01*
X35460Y26298D01*
X35480Y26331D01*
X35500Y26358D01*
X35514Y26371D01*
X35520Y26378D01*
X35600Y26451D01*
X35680Y26518D01*
X35767Y26578D01*
X35860Y26631D01*
X35947Y26671D01*
X36033Y26704D01*
X36206Y26758D01*
X36286Y26778D01*
X36360Y26791D01*
X36426Y26798D01*
X36479Y26804D01*
X36526Y26811D01*
X36593D01*
X36752Y26804D01*
X36899Y26778D01*
X37025Y26744D01*
X37139Y26704D01*
X37225Y26658D01*
X37285Y26625D01*
X37325Y26598D01*
X37339Y26591D01*
X37445Y26505D01*
X37532Y26405D01*
X37598Y26305D01*
X37658Y26212D01*
X37698Y26125D01*
X37731Y26059D01*
X37738Y26032D01*
X37745Y26019D01*
X37751Y26005D01*
Y25999D01*
X38777Y26192D01*
X38744Y26318D01*
X38704Y26438D01*
X38651Y26551D01*
X38604Y26658D01*
X38544Y26758D01*
X38484Y26844D01*
X38424Y26931D01*
X38371Y27004D01*
X38311Y27071D01*
X38258Y27131D01*
X38211Y27177D01*
X38164Y27217D01*
X38131Y27251D01*
X38104Y27271D01*
X38084Y27284D01*
X38078Y27291D01*
X37971Y27364D01*
X37858Y27424D01*
X37745Y27477D01*
X37618Y27524D01*
X37498Y27564D01*
X37372Y27597D01*
X37139Y27644D01*
X37025Y27663D01*
X36919Y27677D01*
X36832Y27683D01*
X36752Y27690D01*
X36686Y27697D01*
X36593D01*
X36333Y27683D01*
X36206Y27670D01*
X36093Y27657D01*
X35987Y27637D01*
X35880Y27617D01*
X35793Y27590D01*
X35707Y27570D01*
X35627Y27544D01*
X35560Y27517D01*
X35507Y27497D01*
X35454Y27477D01*
X35420Y27464D01*
X35387Y27450D01*
X35374Y27437D01*
X35367D01*
X35247Y27371D01*
X35141Y27297D01*
X35034Y27224D01*
X34941Y27144D01*
X34854Y27064D01*
X34774Y26984D01*
X34701Y26911D01*
X34635Y26831D01*
X34575Y26758D01*
X34528Y26691D01*
X34488Y26631D01*
X34448Y26585D01*
X34421Y26538D01*
X34401Y26505D01*
X34395Y26485D01*
X34388Y26478D01*
X34328Y26358D01*
X34282Y26238D01*
X34235Y26118D01*
X34195Y25999D01*
X34135Y25759D01*
X34115Y25646D01*
X34095Y25539D01*
X34082Y25439D01*
X34075Y25346D01*
X34068Y25266D01*
X34062Y25193D01*
X34055Y25139D01*
Y27697D01*
Y25060D01*
X34062Y24920D01*
X34068Y24786D01*
X34102Y24533D01*
X34122Y24414D01*
X34148Y24300D01*
X34175Y24194D01*
X34208Y24094D01*
X34235Y24007D01*
X34262Y23927D01*
X34288Y23854D01*
X34308Y23801D01*
X34328Y23754D01*
X34341Y23714D01*
X34355Y23694D01*
Y23687D01*
X34415Y23574D01*
X34481Y23468D01*
X34548Y23368D01*
X34621Y23275D01*
X34694Y23188D01*
X34768Y23108D01*
X34841Y23035D01*
X34914Y22968D01*
X34981Y22915D01*
X35041Y22862D01*
X35101Y22822D01*
X35147Y22782D01*
X35194Y22755D01*
X35221Y22735D01*
X35241Y22728D01*
X35247Y22722D01*
X35361Y22662D01*
X35480Y22615D01*
X35600Y22569D01*
X35720Y22529D01*
X35953Y22469D01*
X36066Y22449D01*
X36173Y22429D01*
X36273Y22415D01*
X36366Y22409D01*
X36446Y22402D01*
X36519Y22396D01*
X36573Y22389D01*
X34055D01*
X38844D01*
Y27697D01*
D02*
G37*
G36*
X64684Y26278D02*
X64618D01*
X64498Y26272D01*
X64391Y26252D01*
X64285Y26232D01*
X64198Y26205D01*
X64118Y26172D01*
X64065Y26152D01*
X64025Y26132D01*
X64018Y26125D01*
X64012D01*
X63912Y26065D01*
X63812Y25992D01*
X63725Y25919D01*
X63645Y25852D01*
X63579Y25785D01*
X63526Y25732D01*
X63499Y25699D01*
X63486Y25692D01*
Y25686D01*
X63419Y25792D01*
X63346Y25879D01*
X63279Y25952D01*
X63213Y26019D01*
X63153Y26065D01*
X63106Y26098D01*
X63073Y26118D01*
X63059Y26125D01*
X62959Y26178D01*
X62853Y26212D01*
X62746Y26238D01*
X62653Y26258D01*
X62567Y26272D01*
X62500Y26278D01*
X62440D01*
X62320Y26272D01*
X62200Y26252D01*
X62087Y26225D01*
X61980Y26185D01*
X61881Y26138D01*
X61787Y26092D01*
X61701Y26032D01*
X61621Y25979D01*
X61548Y25925D01*
X61481Y25872D01*
X61428Y25819D01*
X61381Y25772D01*
X61341Y25732D01*
X61314Y25706D01*
X61301Y25686D01*
X61295Y25679D01*
Y26192D01*
X60389D01*
Y26278D01*
Y22482D01*
X65837Y22482D01*
Y24953D01*
X65830Y25039D01*
Y25119D01*
X65823Y25199D01*
X65803Y25333D01*
X65783Y25439D01*
X65763Y25519D01*
X65750Y25572D01*
X65737Y25606D01*
X65730Y25619D01*
X65670Y25732D01*
X65604Y25832D01*
X65537Y25919D01*
X65464Y25985D01*
X65404Y26045D01*
X65351Y26079D01*
X65317Y26105D01*
X65311Y26112D01*
X65304D01*
X65197Y26165D01*
X65077Y26205D01*
X64964Y26238D01*
X64858Y26258D01*
X64764Y26272D01*
X64684Y26278D01*
D02*
G37*
G36*
X41561Y26278D02*
X41501D01*
X41414Y26272D01*
X41335Y26258D01*
X41268Y26238D01*
X41201Y26218D01*
X41155Y26192D01*
X41115Y26172D01*
X41088Y26158D01*
X41081Y26152D01*
X41008Y26098D01*
X40935Y26025D01*
X40868Y25945D01*
X40802Y25859D01*
X40748Y25785D01*
X40702Y25719D01*
X40682Y25692D01*
X40675Y25672D01*
X40662Y25666D01*
Y26192D01*
X39749D01*
D01*
D01*
Y22482D01*
X42154D01*
X40728D01*
Y23628D01*
Y23801D01*
X40735Y23954D01*
Y24094D01*
X40742Y24220D01*
X40748Y24333D01*
X40755Y24433D01*
X40762Y24527D01*
X40768Y24600D01*
X40775Y24667D01*
X40782Y24726D01*
X40788Y24767D01*
X40795Y24806D01*
X40802Y24833D01*
X40808Y24853D01*
Y24866D01*
X40842Y24973D01*
X40875Y25060D01*
X40915Y25126D01*
X40948Y25186D01*
X40982Y25226D01*
X41008Y25259D01*
X41021Y25273D01*
X41028Y25279D01*
X41088Y25319D01*
X41148Y25346D01*
X41208Y25372D01*
X41261Y25386D01*
X41315Y25392D01*
X41355Y25399D01*
X41388D01*
X41468Y25392D01*
X41548Y25372D01*
X41627Y25346D01*
X41701Y25319D01*
X41761Y25286D01*
X41807Y25259D01*
X41834Y25239D01*
X41847Y25233D01*
X42154Y26092D01*
X42034Y26152D01*
X41921Y26198D01*
X41807Y26232D01*
X41708Y26258D01*
X41627Y26272D01*
X41561Y26278D01*
D02*
G37*
G36*
X51944D02*
X51871D01*
X51724Y26272D01*
X51591Y26265D01*
X51464Y26245D01*
X51351Y26225D01*
X51245Y26198D01*
X51145Y26172D01*
X51058Y26145D01*
X50985Y26112D01*
X50912Y26079D01*
X50852Y26052D01*
X50805Y26025D01*
X50765Y25999D01*
X50732Y25979D01*
X50712Y25959D01*
X50699Y25952D01*
X50692Y25945D01*
X50625Y25885D01*
X50565Y25819D01*
X50519Y25752D01*
X50472Y25679D01*
X50439Y25612D01*
X50405Y25546D01*
X50359Y25419D01*
X50332Y25306D01*
X50326Y25253D01*
X50319Y25213D01*
X50312Y25179D01*
Y25153D01*
Y25139D01*
Y25133D01*
X50319Y25033D01*
X50332Y24946D01*
X50352Y24860D01*
X50379Y24780D01*
X50452Y24633D01*
X50532Y24513D01*
X50612Y24420D01*
X50652Y24380D01*
X50685Y24347D01*
X50712Y24327D01*
X50732Y24307D01*
X50745Y24300D01*
X50752Y24294D01*
X50818Y24254D01*
X50905Y24214D01*
X51005Y24174D01*
X51118Y24127D01*
X51238Y24087D01*
X51364Y24047D01*
X51624Y23974D01*
X51744Y23941D01*
X51864Y23907D01*
X51970Y23881D01*
X52064Y23861D01*
X52144Y23841D01*
X52204Y23827D01*
X52244Y23814D01*
X52257D01*
X52343Y23794D01*
X52417Y23767D01*
X52470Y23747D01*
X52517Y23728D01*
X52550Y23714D01*
X52570Y23701D01*
X52577Y23687D01*
X52583D01*
X52610Y23661D01*
X52623Y23628D01*
X52650Y23568D01*
Y23541D01*
X52657Y23521D01*
Y23508D01*
Y23501D01*
X52650Y23441D01*
X52636Y23388D01*
X52617Y23348D01*
X52590Y23308D01*
X52563Y23281D01*
X52543Y23261D01*
X52530Y23248D01*
X52523Y23241D01*
X52443Y23195D01*
X52350Y23161D01*
X52257Y23135D01*
X52164Y23121D01*
X52084Y23108D01*
X52011Y23101D01*
X51951D01*
X51831Y23108D01*
X51717Y23121D01*
X51631Y23148D01*
X51551Y23175D01*
X51491Y23201D01*
X51444Y23228D01*
X51418Y23241D01*
X51411Y23248D01*
X51345Y23308D01*
X51291Y23374D01*
X51251Y23448D01*
X51218Y23521D01*
X51191Y23581D01*
X51178Y23634D01*
X51165Y23667D01*
Y23681D01*
X50179Y23528D01*
X50206Y23435D01*
X50239Y23341D01*
X50326Y23175D01*
X50419Y23035D01*
X50519Y22915D01*
X50605Y22822D01*
X50645Y22782D01*
X50678Y22749D01*
X50712Y22728D01*
X50732Y22708D01*
X50745Y22702D01*
X50752Y22695D01*
X50838Y22642D01*
X50932Y22595D01*
X51125Y22522D01*
X51324Y22469D01*
X51518Y22435D01*
X51604Y22422D01*
X51691Y22409D01*
X51764Y22402D01*
X51824D01*
X51877Y22396D01*
X50179D01*
X53642D01*
X51951D01*
X52104Y22402D01*
X52244Y22409D01*
X52377Y22429D01*
X52503Y22455D01*
X52617Y22482D01*
X52723Y22509D01*
X52816Y22542D01*
X52896Y22582D01*
X52969Y22615D01*
X53036Y22649D01*
X53089Y22675D01*
X53136Y22702D01*
X53169Y22728D01*
X53196Y22749D01*
X53209Y22755D01*
X53216Y22762D01*
X53289Y22835D01*
X53356Y22902D01*
X53416Y22982D01*
X53462Y23055D01*
X53502Y23128D01*
X53536Y23201D01*
X53589Y23335D01*
X53622Y23454D01*
X53629Y23508D01*
X53636Y23548D01*
X53642Y23588D01*
Y23721D01*
X53629Y23801D01*
X53596Y23947D01*
X53542Y24074D01*
X53489Y24180D01*
X53429Y24260D01*
X53376Y24320D01*
X53342Y24353D01*
X53336Y24367D01*
X53329D01*
X53269Y24414D01*
X53196Y24460D01*
X53116Y24507D01*
X53030Y24547D01*
X52850Y24620D01*
X52670Y24687D01*
X52583Y24713D01*
X52503Y24733D01*
X52430Y24760D01*
X52364Y24773D01*
X52310Y24786D01*
X52270Y24800D01*
X52244Y24806D01*
X52237D01*
X52097Y24840D01*
X51970Y24873D01*
X51857Y24900D01*
X51764Y24926D01*
X51678Y24953D01*
X51604Y24973D01*
X51538Y24993D01*
X51484Y25013D01*
X51438Y25026D01*
X51404Y25039D01*
X51371Y25053D01*
X51351Y25060D01*
X51324Y25073D01*
X51318Y25080D01*
X51284Y25106D01*
X51265Y25139D01*
X51238Y25199D01*
X51231Y25219D01*
X51225Y25239D01*
Y25253D01*
Y25259D01*
X51231Y25306D01*
X51245Y25346D01*
X51278Y25406D01*
X51318Y25446D01*
X51324Y25459D01*
X51331D01*
X51404Y25499D01*
X51491Y25526D01*
X51584Y25546D01*
X51671Y25559D01*
X51757Y25566D01*
X51824Y25572D01*
X51891D01*
X51997Y25566D01*
X52097Y25552D01*
X52177Y25532D01*
X52244Y25512D01*
X52297Y25492D01*
X52330Y25472D01*
X52357Y25459D01*
X52364Y25452D01*
X52423Y25406D01*
X52470Y25352D01*
X52510Y25299D01*
X52537Y25246D01*
X52563Y25199D01*
X52577Y25159D01*
X52590Y25133D01*
Y25126D01*
X53516Y25299D01*
X53456Y25466D01*
X53376Y25612D01*
X53289Y25739D01*
X53209Y25845D01*
X53129Y25925D01*
X53063Y25979D01*
X53036Y25999D01*
X53016Y26012D01*
X53009Y26025D01*
X53003D01*
X52930Y26072D01*
X52850Y26112D01*
X52670Y26172D01*
X52483Y26218D01*
X52297Y26245D01*
X52210Y26258D01*
X52130Y26265D01*
X52057Y26272D01*
X51997D01*
X51944Y26278D01*
D02*
G37*
G36*
X96559Y27630D02*
D01*
Y25006D01*
X96553Y25273D01*
X96539Y25512D01*
X96513Y25739D01*
X96479Y25945D01*
X96446Y26138D01*
X96399Y26312D01*
X96359Y26465D01*
X96313Y26598D01*
X96266Y26718D01*
X96220Y26818D01*
X96173Y26904D01*
X96140Y26978D01*
X96106Y27031D01*
X96080Y27071D01*
X96066Y27091D01*
X96060Y27097D01*
X95980Y27191D01*
X95887Y27271D01*
X95793Y27344D01*
X95700Y27404D01*
X95607Y27457D01*
X95507Y27504D01*
X95414Y27537D01*
X95320Y27564D01*
X95234Y27584D01*
X95154Y27604D01*
X95081Y27617D01*
X95021Y27624D01*
X94968Y27630D01*
X94894D01*
X94761Y27624D01*
X94628Y27610D01*
X94508Y27584D01*
X94401Y27550D01*
X94295Y27510D01*
X94202Y27464D01*
X94115Y27417D01*
X94035Y27371D01*
X93968Y27317D01*
X93909Y27271D01*
X93855Y27224D01*
X93809Y27184D01*
X93775Y27151D01*
X93755Y27124D01*
X93742Y27111D01*
X93735Y27104D01*
X93649Y26978D01*
X93569Y26831D01*
X93502Y26671D01*
X93449Y26505D01*
X93396Y26338D01*
X93356Y26158D01*
X93322Y25985D01*
X93296Y25819D01*
X93276Y25659D01*
X93262Y25506D01*
X93249Y25372D01*
X93243Y25253D01*
Y25153D01*
X93236Y25113D01*
Y25013D01*
X93243Y24746D01*
X93256Y24500D01*
X93276Y24274D01*
X93309Y24067D01*
X93342Y23881D01*
X93382Y23714D01*
X93422Y23568D01*
X93462Y23435D01*
X93502Y23321D01*
X93549Y23221D01*
X93582Y23141D01*
X93616Y23075D01*
X93649Y23021D01*
X93669Y22988D01*
X93682Y22968D01*
X93689Y22962D01*
X93775Y22862D01*
X93875Y22775D01*
X93968Y22695D01*
X94068Y22629D01*
X94175Y22575D01*
X94275Y22529D01*
X94368Y22489D01*
X94461Y22462D01*
X94555Y22435D01*
X94634Y22422D01*
X94708Y22409D01*
X94768Y22396D01*
X94821D01*
X94861Y22389D01*
X93236D01*
D01*
X96559D01*
Y27630D01*
D02*
G37*
G36*
X74568Y26278D02*
Y24940D01*
X74561Y25073D01*
X74548Y25179D01*
X74541Y25279D01*
X74528Y25352D01*
X74515Y25406D01*
X74508Y25433D01*
Y25446D01*
X74481Y25532D01*
X74455Y25606D01*
X74421Y25679D01*
X74395Y25739D01*
X74361Y25792D01*
X74335Y25825D01*
X74322Y25852D01*
X74315Y25859D01*
X74261Y25925D01*
X74195Y25979D01*
X74128Y26032D01*
X74062Y26079D01*
X74002Y26112D01*
X73955Y26138D01*
X73922Y26152D01*
X73909Y26158D01*
X73809Y26198D01*
X73702Y26225D01*
X73602Y26252D01*
X73516Y26265D01*
X73436Y26272D01*
X73369Y26278D01*
X73316D01*
X73183Y26272D01*
X73049Y26252D01*
X72930Y26218D01*
X72810Y26178D01*
X72703Y26132D01*
X72603Y26079D01*
X72510Y26019D01*
X72423Y25965D01*
X72350Y25905D01*
X72284Y25845D01*
X72224Y25792D01*
X72177Y25745D01*
X72137Y25706D01*
X72110Y25672D01*
X72097Y25652D01*
X72090Y25646D01*
Y26192D01*
X71178D01*
D01*
Y22482D01*
X74568D01*
Y26278D01*
D02*
G37*
G36*
X68541D02*
X68501D01*
X68301Y26265D01*
X68121Y26238D01*
X67954Y26198D01*
X67808Y26158D01*
X67741Y26132D01*
X67688Y26112D01*
X67635Y26092D01*
X67595Y26072D01*
X67562Y26052D01*
X67535Y26045D01*
X67522Y26032D01*
X67515D01*
X67362Y25932D01*
X67222Y25819D01*
X67109Y25706D01*
X67009Y25592D01*
X66935Y25492D01*
X66902Y25446D01*
X66882Y25406D01*
X66862Y25379D01*
X66849Y25352D01*
X66836Y25339D01*
Y25333D01*
X66756Y25159D01*
X66696Y24993D01*
X66656Y24833D01*
X66629Y24687D01*
X66616Y24627D01*
X66609Y24567D01*
X66602Y24513D01*
Y24473D01*
X66596Y24433D01*
Y24447D01*
Y24433D01*
Y24387D01*
X66609Y24154D01*
X66636Y23947D01*
X66649Y23854D01*
X66669Y23761D01*
X66696Y23681D01*
X66716Y23608D01*
X66736Y23534D01*
X66762Y23474D01*
X66782Y23428D01*
X66796Y23381D01*
X66816Y23348D01*
X66822Y23321D01*
X66836Y23308D01*
Y23301D01*
X66935Y23141D01*
X67049Y23008D01*
X67162Y22888D01*
X67275Y22795D01*
X67375Y22722D01*
X67422Y22689D01*
X67462Y22669D01*
X67488Y22649D01*
X67515Y22635D01*
X67528Y22622D01*
X67535D01*
X67708Y22549D01*
X67888Y22489D01*
X68048Y22449D01*
X68201Y22422D01*
X68268Y22415D01*
X68327Y22409D01*
X68381Y22402D01*
X68427D01*
X68461Y22396D01*
X66596D01*
X70425D01*
Y24347D01*
X70419Y24500D01*
X70405Y24647D01*
X70379Y24786D01*
X70339Y24913D01*
X70299Y25033D01*
X70252Y25146D01*
X70206Y25253D01*
X70159Y25346D01*
X70106Y25433D01*
X70059Y25506D01*
X70012Y25572D01*
X69972Y25626D01*
X69939Y25672D01*
X69913Y25699D01*
X69893Y25719D01*
X69886Y25725D01*
X69779Y25825D01*
X69673Y25905D01*
X69560Y25985D01*
X69440Y26045D01*
X69327Y26098D01*
X69213Y26145D01*
X69100Y26178D01*
X68994Y26212D01*
X68887Y26232D01*
X68794Y26252D01*
X68714Y26258D01*
X68641Y26272D01*
X68581D01*
X68541Y26278D01*
D02*
G37*
G36*
X80988D02*
X80948D01*
X80815Y26272D01*
X80682Y26258D01*
X80562Y26232D01*
X80449Y26198D01*
X80335Y26158D01*
X80236Y26112D01*
X80149Y26065D01*
X80062Y26019D01*
X79989Y25965D01*
X79922Y25919D01*
X79863Y25872D01*
X79816Y25832D01*
X79776Y25799D01*
X79749Y25772D01*
X79736Y25759D01*
X79729Y25752D01*
X79643Y25652D01*
X79570Y25539D01*
X79510Y25426D01*
X79450Y25306D01*
X79403Y25186D01*
X79370Y25066D01*
X79337Y24946D01*
X79310Y24833D01*
X79290Y24726D01*
X79277Y24627D01*
X79263Y24533D01*
X79256Y24460D01*
Y24394D01*
X79250Y24347D01*
Y24374D01*
Y24307D01*
X79256Y24167D01*
X79263Y24027D01*
X79283Y23901D01*
X79310Y23781D01*
X79337Y23668D01*
X79363Y23561D01*
X79396Y23468D01*
X79436Y23381D01*
X79470Y23301D01*
X79503Y23228D01*
X79530Y23168D01*
X79556Y23121D01*
X79583Y23081D01*
X79603Y23055D01*
X79610Y23035D01*
X79616Y23028D01*
X79709Y22915D01*
X79809Y22822D01*
X79916Y22735D01*
X80036Y22662D01*
X80149Y22602D01*
X80269Y22549D01*
X80389Y22509D01*
X80502Y22475D01*
X80608Y22449D01*
X80715Y22429D01*
X80802Y22415D01*
X80882Y22409D01*
X80948Y22402D01*
X81002Y22396D01*
X79250D01*
D01*
X82713D01*
Y24260D01*
X82700Y24447D01*
X82680Y24627D01*
X82653Y24793D01*
X82613Y24940D01*
X82580Y25080D01*
X82533Y25199D01*
X82493Y25313D01*
X82447Y25412D01*
X82407Y25492D01*
X82367Y25566D01*
X82327Y25626D01*
X82300Y25666D01*
X82274Y25699D01*
X82260Y25719D01*
X82253Y25725D01*
X82160Y25825D01*
X82060Y25905D01*
X81954Y25985D01*
X81847Y26045D01*
X81741Y26098D01*
X81628Y26145D01*
X81521Y26178D01*
X81421Y26212D01*
X81321Y26232D01*
X81235Y26252D01*
X81155Y26258D01*
X81088Y26272D01*
X81028D01*
X80988Y26278D01*
D02*
G37*
G36*
X55953Y26278D02*
X55913D01*
X55780Y26272D01*
X55647Y26258D01*
X55527Y26232D01*
X55414Y26198D01*
X55300Y26158D01*
X55201Y26112D01*
X55114Y26065D01*
X55028Y26019D01*
X54954Y25965D01*
X54888Y25919D01*
X54828Y25872D01*
X54781Y25832D01*
X54741Y25799D01*
X54714Y25772D01*
X54701Y25759D01*
X54694Y25752D01*
X54608Y25652D01*
X54535Y25539D01*
X54475Y25426D01*
X54415Y25306D01*
X54368Y25186D01*
X54335Y25066D01*
X54302Y24946D01*
X54275Y24833D01*
X54255Y24726D01*
X54242Y24627D01*
X54228Y24533D01*
X54222Y24460D01*
Y24394D01*
X54215Y24347D01*
Y24347D01*
Y24347D01*
Y22396D01*
X57678D01*
X56006D01*
X56226Y22409D01*
X56426Y22442D01*
X56599Y22482D01*
X56673Y22509D01*
X56746Y22535D01*
X56812Y22562D01*
X56866Y22589D01*
X56912Y22609D01*
X56952Y22629D01*
X56985Y22649D01*
X57006Y22662D01*
X57019Y22675D01*
X57025D01*
X57165Y22788D01*
X57292Y22922D01*
X57392Y23055D01*
X57478Y23188D01*
X57545Y23308D01*
X57565Y23361D01*
X57592Y23408D01*
X57605Y23441D01*
X57618Y23468D01*
X57625Y23488D01*
Y23494D01*
X56646Y23661D01*
X56612Y23561D01*
X56573Y23474D01*
X56533Y23408D01*
X56493Y23348D01*
X56453Y23301D01*
X56426Y23275D01*
X56406Y23255D01*
X56399Y23248D01*
X56340Y23208D01*
X56273Y23181D01*
X56213Y23155D01*
X56153Y23141D01*
X56100Y23135D01*
X56060Y23128D01*
X56020D01*
X55900Y23141D01*
X55787Y23168D01*
X55694Y23201D01*
X55607Y23248D01*
X55540Y23295D01*
X55494Y23328D01*
X55467Y23355D01*
X55454Y23368D01*
X55380Y23468D01*
X55321Y23581D01*
X55281Y23694D01*
X55254Y23801D01*
X55234Y23901D01*
X55227Y23981D01*
X55221Y24014D01*
Y24034D01*
Y24047D01*
Y24054D01*
X57678D01*
Y24260D01*
X57665Y24447D01*
X57645Y24627D01*
X57618Y24793D01*
X57578Y24940D01*
X57545Y25080D01*
X57498Y25199D01*
X57458Y25313D01*
X57412Y25412D01*
X57372Y25492D01*
X57332Y25566D01*
X57292Y25626D01*
X57265Y25666D01*
X57239Y25699D01*
X57225Y25719D01*
X57219Y25725D01*
X57125Y25825D01*
X57025Y25905D01*
X56919Y25985D01*
X56812Y26045D01*
X56706Y26098D01*
X56593Y26145D01*
X56486Y26178D01*
X56386Y26212D01*
X56286Y26232D01*
X56200Y26252D01*
X56120Y26258D01*
X56053Y26272D01*
X55993D01*
X55953Y26278D01*
D02*
G37*
G36*
X86862Y26192D02*
X85843D01*
X84971Y23554D01*
X84085Y26192D01*
X83039D01*
D01*
X84451Y22469D01*
X84418Y22355D01*
X84378Y22256D01*
X84332Y22169D01*
X84291Y22096D01*
X84258Y22036D01*
X84225Y21989D01*
X84205Y21963D01*
X84198Y21956D01*
X84132Y21889D01*
X84052Y21836D01*
X83965Y21803D01*
X83885Y21776D01*
X83805Y21763D01*
X83745Y21756D01*
X83705Y21749D01*
X83692D01*
X83552Y21756D01*
X83479Y21763D01*
X83419Y21776D01*
X83359Y21783D01*
X83319Y21789D01*
X83293Y21796D01*
X83279D01*
X83366Y21030D01*
X83566Y20997D01*
X83659Y20984D01*
X83745Y20977D01*
X83812D01*
X83872Y20970D01*
X83039D01*
X84018D01*
X84112Y20977D01*
X84198Y20990D01*
X84272Y21004D01*
X84332Y21010D01*
X84378Y21023D01*
X84411Y21030D01*
X84418D01*
X84498Y21057D01*
X84571Y21083D01*
X84638Y21110D01*
X84691Y21137D01*
X84731Y21157D01*
X84764Y21177D01*
X84784Y21190D01*
X84791Y21197D01*
X84898Y21283D01*
X84944Y21330D01*
X84984Y21376D01*
X85017Y21417D01*
X85044Y21450D01*
X85057Y21470D01*
X85064Y21476D01*
X85111Y21550D01*
X85151Y21630D01*
X85197Y21710D01*
X85231Y21789D01*
X85264Y21856D01*
X85290Y21916D01*
X85304Y21956D01*
X85311Y21963D01*
Y21969D01*
X85550Y22615D01*
X86862Y26192D01*
D02*
G37*
G36*
X48101Y26278D02*
X47861D01*
X47741Y26265D01*
X47622Y26252D01*
X47515Y26238D01*
X47422Y26218D01*
X47328Y26192D01*
X47249Y26172D01*
X47175Y26145D01*
X47115Y26118D01*
X47055Y26098D01*
X47009Y26072D01*
X46969Y26052D01*
X46942Y26039D01*
X46922Y26025D01*
X46909Y26012D01*
X46902D01*
X46776Y25905D01*
X46669Y25779D01*
X46576Y25646D01*
X46509Y25512D01*
X46456Y25399D01*
X46436Y25346D01*
X46416Y25299D01*
X46403Y25266D01*
X46396Y25239D01*
X46389Y25219D01*
Y25213D01*
X47275Y25053D01*
X47308Y25146D01*
X47348Y25219D01*
X47388Y25286D01*
X47422Y25333D01*
X47455Y25372D01*
X47482Y25399D01*
X47502Y25412D01*
X47508Y25419D01*
X47568Y25452D01*
X47635Y25479D01*
X47701Y25499D01*
X47768Y25512D01*
X47828Y25519D01*
X47875Y25526D01*
X47921D01*
X48054Y25519D01*
X48168Y25506D01*
X48261Y25486D01*
X48327Y25466D01*
X48381Y25439D01*
X48421Y25419D01*
X48441Y25406D01*
X48447Y25399D01*
X48494Y25346D01*
X48534Y25286D01*
X48561Y25219D01*
X48574Y25146D01*
X48587Y25086D01*
X48594Y25033D01*
Y24999D01*
Y24993D01*
Y24986D01*
Y24893D01*
X48541Y24873D01*
X48474Y24853D01*
X48407Y24826D01*
X48334Y24806D01*
X48174Y24767D01*
X48015Y24726D01*
X47868Y24693D01*
X47801Y24680D01*
X47748Y24667D01*
X47701Y24660D01*
X47668Y24653D01*
X47642Y24647D01*
X47635D01*
X47455Y24613D01*
X47302Y24573D01*
X47169Y24533D01*
X47055Y24500D01*
X46969Y24467D01*
X46909Y24440D01*
X46869Y24427D01*
X46856Y24420D01*
X46762Y24367D01*
X46676Y24307D01*
X46609Y24247D01*
X46549Y24187D01*
X46496Y24134D01*
X46463Y24087D01*
X46443Y24060D01*
X46436Y24047D01*
X46389Y23954D01*
X46349Y23854D01*
X46323Y23761D01*
X46310Y23674D01*
X46296Y23601D01*
X46290Y23541D01*
D01*
Y23488D01*
X46296Y23401D01*
X46303Y23321D01*
X46343Y23168D01*
X46396Y23028D01*
X46456Y22915D01*
X46516Y22828D01*
X46563Y22755D01*
X46589Y22735D01*
X46603Y22715D01*
X46609Y22708D01*
X46616Y22702D01*
X46683Y22649D01*
X46749Y22602D01*
X46896Y22522D01*
X47049Y22469D01*
X47195Y22435D01*
X47322Y22409D01*
X47382Y22402D01*
X47428D01*
X47468Y22396D01*
X46290D01*
Y23488D01*
Y22396D01*
D01*
X49773D01*
D01*
X47522D01*
X47642Y22402D01*
X47755Y22415D01*
X47855Y22435D01*
X47948Y22455D01*
X48021Y22475D01*
X48081Y22495D01*
X48114Y22509D01*
X48128Y22515D01*
X48234Y22569D01*
X48334Y22622D01*
X48427Y22682D01*
X48507Y22742D01*
X48574Y22795D01*
X48621Y22842D01*
X48654Y22868D01*
X48667Y22882D01*
X48680Y22855D01*
X48687Y22815D01*
X48700Y22782D01*
Y22775D01*
Y22769D01*
X48720Y22702D01*
X48740Y22642D01*
X48760Y22595D01*
X48774Y22555D01*
X48787Y22522D01*
X48794Y22502D01*
X48800Y22489D01*
Y22482D01*
X49773D01*
X49726Y22575D01*
X49686Y22669D01*
X49659Y22755D01*
X49633Y22828D01*
X49613Y22888D01*
X49600Y22935D01*
X49593Y22962D01*
Y22975D01*
X49580Y23075D01*
X49566Y23188D01*
X49560Y23308D01*
X49553Y23428D01*
X49546Y23534D01*
Y23581D01*
Y23621D01*
Y23654D01*
Y23681D01*
Y23694D01*
Y23701D01*
X49560Y24846D01*
Y24960D01*
X49553Y25066D01*
X49546Y25166D01*
X49540Y25253D01*
X49526Y25333D01*
X49520Y25406D01*
X49506Y25472D01*
X49493Y25526D01*
X49480Y25572D01*
X49466Y25619D01*
X49460Y25652D01*
X49446Y25679D01*
X49433Y25712D01*
X49426Y25725D01*
X49367Y25812D01*
X49300Y25885D01*
X49227Y25959D01*
X49153Y26012D01*
X49080Y26059D01*
X49027Y26092D01*
X48987Y26112D01*
X48980Y26118D01*
X48974D01*
X48907Y26145D01*
X48840Y26172D01*
X48687Y26212D01*
X48521Y26238D01*
X48368Y26258D01*
X48287Y26265D01*
X48221Y26272D01*
X48154D01*
X48101Y26278D01*
D02*
G37*
G36*
X103699Y27630D02*
X102900D01*
X102866Y27544D01*
X102826Y27457D01*
X102733Y27304D01*
X102633Y27164D01*
X102527Y27038D01*
X102433Y26944D01*
X102393Y26898D01*
X102353Y26864D01*
X102320Y26838D01*
X102300Y26818D01*
X102287Y26811D01*
X102280Y26804D01*
X102114Y26684D01*
X101961Y26585D01*
X101821Y26498D01*
X101701Y26438D01*
X101601Y26392D01*
X101554Y26371D01*
X101521Y26358D01*
X101494Y26345D01*
X101474Y26338D01*
X101461Y26332D01*
X101454D01*
Y25439D01*
X101714Y25539D01*
X101961Y25659D01*
X102067Y25719D01*
X102174Y25779D01*
X102273Y25839D01*
X102360Y25899D01*
X102440Y25959D01*
X102513Y26005D01*
X102573Y26059D01*
X102627Y26098D01*
X102666Y26132D01*
X102693Y26158D01*
X102713Y26172D01*
X102720Y26178D01*
Y22482D01*
X101454D01*
D01*
X103699D01*
Y27630D01*
D02*
G37*
G36*
X78950Y27604D02*
D01*
Y22482D01*
X77592Y24833D01*
X78857Y26192D01*
X77652D01*
X76506Y24880D01*
Y27604D01*
X75527D01*
Y22482D01*
X78950D01*
Y27604D01*
D02*
G37*
G36*
X44025Y26278D02*
X43985D01*
X43852Y26272D01*
X43719Y26258D01*
X43599Y26232D01*
X43486Y26198D01*
X43372Y26158D01*
X43273Y26112D01*
X43186Y26065D01*
X43099Y26019D01*
X43026Y25965D01*
X42959Y25919D01*
X42900Y25872D01*
X42853Y25832D01*
X42813Y25799D01*
X42786Y25772D01*
X42773Y25759D01*
X42766Y25752D01*
X42680Y25652D01*
X42607Y25539D01*
X42547Y25426D01*
X42487Y25306D01*
X42440Y25186D01*
X42407Y25066D01*
X42373Y24946D01*
X42347Y24833D01*
X42327Y24726D01*
X42314Y24627D01*
X42300Y24533D01*
X42294Y24460D01*
Y24394D01*
X42287Y24347D01*
Y22396D01*
X45750D01*
X44078D01*
X44298Y22409D01*
X44498Y22442D01*
X44671Y22482D01*
X44744Y22509D01*
X44818Y22535D01*
X44884Y22562D01*
X44938Y22589D01*
X44984Y22609D01*
X45024Y22629D01*
X45057Y22649D01*
X45077Y22662D01*
X45091Y22675D01*
X45097D01*
X45237Y22788D01*
X45364Y22922D01*
X45464Y23055D01*
X45550Y23188D01*
X45617Y23308D01*
X45637Y23361D01*
X45663Y23408D01*
X45677Y23441D01*
X45690Y23468D01*
X45697Y23488D01*
Y23494D01*
X44718Y23661D01*
X44684Y23561D01*
X44644Y23474D01*
X44605Y23408D01*
X44565Y23348D01*
X44525Y23301D01*
X44498Y23275D01*
X44478Y23255D01*
X44471Y23248D01*
X44411Y23208D01*
X44345Y23181D01*
X44285Y23155D01*
X44225Y23141D01*
X44172Y23135D01*
X44132Y23128D01*
X44092D01*
X43972Y23141D01*
X43859Y23168D01*
X43765Y23201D01*
X43679Y23248D01*
X43612Y23295D01*
X43566Y23328D01*
X43539Y23355D01*
X43526Y23368D01*
X43452Y23468D01*
X43392Y23581D01*
X43352Y23694D01*
X43326Y23801D01*
X43306Y23901D01*
X43299Y23981D01*
X43292Y24014D01*
Y24034D01*
Y24047D01*
Y24054D01*
X45750D01*
Y24260D01*
X45737Y24447D01*
X45717Y24627D01*
X45690Y24793D01*
X45650Y24940D01*
X45617Y25080D01*
X45570Y25199D01*
X45530Y25313D01*
X45484Y25412D01*
X45444Y25492D01*
X45404Y25566D01*
X45364Y25626D01*
X45337Y25666D01*
X45311Y25699D01*
X45297Y25719D01*
X45290Y25725D01*
X45197Y25825D01*
X45097Y25905D01*
X44991Y25985D01*
X44884Y26045D01*
X44778Y26098D01*
X44664Y26145D01*
X44558Y26178D01*
X44458Y26212D01*
X44358Y26232D01*
X44272Y26252D01*
X44192Y26258D01*
X44125Y26272D01*
X44065D01*
X44025Y26278D01*
D02*
G37*
G36*
X86862Y26192D02*
D01*
Y21756D01*
Y26192D01*
D02*
G37*
%LPD*%
G36*
X100529Y23394D02*
X98577D01*
X98637Y23488D01*
X98704Y23574D01*
X98730Y23608D01*
X98757Y23634D01*
X98770Y23654D01*
X98777Y23661D01*
X98804Y23687D01*
X98837Y23728D01*
X98923Y23807D01*
X99017Y23901D01*
X99117Y23994D01*
X99210Y24087D01*
X99290Y24160D01*
X99323Y24187D01*
X99343Y24207D01*
X99356Y24220D01*
X99363Y24227D01*
X99450Y24307D01*
X99523Y24380D01*
X99663Y24513D01*
X99769Y24627D01*
X99863Y24720D01*
X99929Y24793D01*
X99976Y24846D01*
X100002Y24873D01*
X100009Y24886D01*
X100102Y25013D01*
X100182Y25133D01*
X100249Y25239D01*
X100309Y25339D01*
X100349Y25419D01*
X100375Y25486D01*
X100395Y25526D01*
X100402Y25532D01*
Y25539D01*
X100442Y25659D01*
X100475Y25772D01*
X100495Y25885D01*
X100515Y25985D01*
X100522Y26072D01*
X100529Y26138D01*
Y23394D01*
D02*
G37*
G36*
X92576D02*
X90625D01*
X90685Y23488D01*
X90752Y23574D01*
X90778Y23608D01*
X90805Y23634D01*
X90818Y23654D01*
X90825Y23661D01*
X90852Y23687D01*
X90885Y23728D01*
X90971Y23807D01*
X91065Y23901D01*
X91165Y23994D01*
X91258Y24087D01*
X91338Y24160D01*
X91371Y24187D01*
X91391Y24207D01*
X91404Y24220D01*
X91411Y24227D01*
X91498Y24307D01*
X91571Y24380D01*
X91711Y24513D01*
X91817Y24627D01*
X91910Y24720D01*
X91977Y24793D01*
X92024Y24846D01*
X92050Y24873D01*
X92057Y24886D01*
X92150Y25013D01*
X92230Y25133D01*
X92297Y25239D01*
X92357Y25339D01*
X92397Y25419D01*
X92423Y25486D01*
X92443Y25526D01*
X92450Y25532D01*
Y25539D01*
X92490Y25659D01*
X92523Y25772D01*
X92543Y25885D01*
X92563Y25985D01*
X92570Y26072D01*
X92576Y26138D01*
Y23394D01*
D02*
G37*
G36*
X38844Y22389D02*
X36652D01*
X36886Y22402D01*
X37112Y22429D01*
X37325Y22462D01*
X37425Y22489D01*
X37512Y22509D01*
X37598Y22529D01*
X37672Y22555D01*
X37738Y22575D01*
X37791Y22589D01*
X37838Y22609D01*
X37871Y22615D01*
X37891Y22629D01*
X37898D01*
X38011Y22675D01*
X38118Y22722D01*
X38218Y22769D01*
X38304Y22815D01*
X38391Y22862D01*
X38471Y22908D01*
X38537Y22955D01*
X38604Y22995D01*
X38657Y23035D01*
X38710Y23068D01*
X38750Y23101D01*
X38784Y23128D01*
X38810Y23148D01*
X38830Y23168D01*
X38837Y23175D01*
X38844Y23181D01*
Y22389D01*
D02*
G37*
G36*
X64431Y25519D02*
X64518Y25492D01*
X64591Y25459D01*
X64651Y25419D01*
X64691Y25379D01*
X64724Y25346D01*
X64744Y25319D01*
X64751Y25313D01*
X64771Y25279D01*
X64784Y25239D01*
X64811Y25133D01*
X64831Y25019D01*
X64844Y24900D01*
X64851Y24786D01*
X64858Y24733D01*
Y24687D01*
Y24653D01*
Y24627D01*
Y24607D01*
Y24600D01*
Y22482D01*
X63605D01*
Y24260D01*
Y24353D01*
X63612Y24447D01*
X63619Y24600D01*
X63632Y24733D01*
X63645Y24840D01*
X63659Y24920D01*
X63672Y24980D01*
X63686Y25013D01*
Y25026D01*
X63719Y25113D01*
X63759Y25186D01*
X63805Y25253D01*
X63845Y25306D01*
X63885Y25346D01*
X63919Y25372D01*
X63938Y25392D01*
X63945Y25399D01*
X64012Y25439D01*
X64078Y25472D01*
X64145Y25492D01*
X64205Y25512D01*
X64258Y25519D01*
X64298Y25526D01*
X64332D01*
X64431Y25519D01*
D02*
G37*
G36*
X62240Y25512D02*
X62287Y25499D01*
X62334Y25486D01*
X62360Y25472D01*
X62387Y25459D01*
X62400Y25452D01*
X62407Y25446D01*
X62447Y25412D01*
X62480Y25372D01*
X62533Y25299D01*
X62553Y25259D01*
X62567Y25233D01*
X62573Y25213D01*
Y25206D01*
X62580Y25173D01*
X62593Y25133D01*
X62607Y25033D01*
X62613Y24920D01*
X62620Y24800D01*
X62626Y24693D01*
Y24647D01*
Y24600D01*
Y24567D01*
Y24540D01*
Y24520D01*
Y24513D01*
Y22482D01*
X61368Y22482D01*
Y24280D01*
Y24380D01*
X61374Y24467D01*
Y24553D01*
X61381Y24627D01*
X61388Y24700D01*
X61394Y24760D01*
X61408Y24866D01*
X61421Y24946D01*
X61428Y24999D01*
X61441Y25033D01*
Y25046D01*
X61474Y25126D01*
X61514Y25199D01*
X61561Y25259D01*
X61601Y25313D01*
X61641Y25346D01*
X61674Y25379D01*
X61694Y25392D01*
X61701Y25399D01*
X61774Y25439D01*
X61847Y25472D01*
X61914Y25492D01*
X61980Y25512D01*
X62034Y25519D01*
X62074Y25526D01*
X62180D01*
X62240Y25512D01*
D02*
G37*
G36*
X94961Y26811D02*
X95021Y26798D01*
X95074Y26778D01*
X95121Y26758D01*
X95154Y26738D01*
X95181Y26718D01*
X95201Y26704D01*
X95207Y26698D01*
X95261Y26645D01*
X95301Y26578D01*
X95340Y26505D01*
X95374Y26432D01*
X95400Y26358D01*
X95427Y26298D01*
X95434Y26258D01*
X95440Y26252D01*
Y26245D01*
X95454Y26178D01*
X95474Y26098D01*
X95487Y26005D01*
X95494Y25912D01*
X95514Y25706D01*
X95520Y25499D01*
X95527Y25406D01*
Y25313D01*
X95534Y25226D01*
Y25153D01*
Y25093D01*
Y25046D01*
Y25019D01*
Y25006D01*
Y24840D01*
X95527Y24693D01*
Y24553D01*
X95520Y24427D01*
X95507Y24307D01*
X95500Y24200D01*
X95494Y24107D01*
X95480Y24027D01*
X95474Y23954D01*
X95460Y23887D01*
X95454Y23834D01*
X95447Y23794D01*
X95440Y23761D01*
X95434Y23741D01*
X95427Y23728D01*
Y23721D01*
X95394Y23621D01*
X95360Y23534D01*
X95327Y23461D01*
X95294Y23408D01*
X95261Y23368D01*
X95234Y23335D01*
X95221Y23321D01*
X95214Y23315D01*
X95161Y23275D01*
X95107Y23248D01*
X95054Y23228D01*
X95001Y23215D01*
X94961Y23208D01*
X94928Y23201D01*
X94894D01*
X94828Y23208D01*
X94768Y23221D01*
X94714Y23235D01*
X94668Y23255D01*
X94628Y23275D01*
X94601Y23295D01*
X94581Y23301D01*
X94574Y23308D01*
X94528Y23361D01*
X94481Y23428D01*
X94441Y23501D01*
X94415Y23574D01*
X94388Y23648D01*
X94368Y23708D01*
X94355Y23747D01*
X94348Y23754D01*
Y23761D01*
X94335Y23834D01*
X94322Y23914D01*
X94308Y24001D01*
X94301Y24101D01*
X94282Y24307D01*
X94275Y24513D01*
X94268Y24607D01*
Y24700D01*
X94261Y24786D01*
Y24860D01*
Y24920D01*
Y24966D01*
Y24993D01*
Y25006D01*
Y25173D01*
X94268Y25319D01*
Y25459D01*
X94275Y25592D01*
X94288Y25706D01*
X94295Y25812D01*
X94301Y25905D01*
X94315Y25992D01*
X94322Y26059D01*
X94328Y26125D01*
X94341Y26178D01*
X94348Y26218D01*
X94355Y26252D01*
Y26272D01*
X94361Y26285D01*
Y26292D01*
X94395Y26392D01*
X94428Y26478D01*
X94461Y26551D01*
X94495Y26605D01*
X94528Y26645D01*
X94555Y26678D01*
X94568Y26691D01*
X94574Y26698D01*
X94628Y26738D01*
X94681Y26765D01*
X94734Y26791D01*
X94788Y26804D01*
X94828Y26811D01*
X94861Y26818D01*
X94894D01*
X94961Y26811D01*
D02*
G37*
G36*
X96559Y22389D02*
X94894D01*
X95027Y22396D01*
X95161Y22409D01*
X95280Y22435D01*
X95387Y22469D01*
X95494Y22509D01*
X95587Y22555D01*
X95673Y22602D01*
X95753Y22649D01*
X95820Y22695D01*
X95887Y22742D01*
X95933Y22788D01*
X95980Y22828D01*
X96013Y22862D01*
X96033Y22888D01*
X96046Y22902D01*
X96053Y22908D01*
X96140Y23035D01*
X96220Y23181D01*
X96286Y23341D01*
X96346Y23508D01*
X96393Y23681D01*
X96433Y23854D01*
X96473Y24027D01*
X96499Y24200D01*
X96519Y24360D01*
X96533Y24513D01*
X96546Y24647D01*
X96553Y24767D01*
X96559Y24866D01*
Y22389D01*
D02*
G37*
G36*
X73043Y25519D02*
X73109Y25512D01*
X73169Y25492D01*
X73223Y25479D01*
X73263Y25459D01*
X73289Y25439D01*
X73309Y25433D01*
X73316Y25426D01*
X73362Y25386D01*
X73409Y25339D01*
X73442Y25293D01*
X73469Y25246D01*
X73496Y25206D01*
X73509Y25173D01*
X73522Y25153D01*
Y25146D01*
X73536Y25106D01*
X73542Y25066D01*
X73556Y25013D01*
X73562Y24953D01*
X73576Y24826D01*
X73582Y24693D01*
X73589Y24573D01*
Y24520D01*
Y24473D01*
Y24433D01*
Y24400D01*
Y24380D01*
Y24374D01*
Y22482D01*
X72157D01*
Y24160D01*
Y24274D01*
X72164Y24374D01*
Y24467D01*
X72170Y24553D01*
X72177Y24633D01*
X72184Y24700D01*
X72190Y24767D01*
X72197Y24820D01*
X72204Y24866D01*
X72210Y24906D01*
Y24940D01*
X72217Y24966D01*
X72230Y25000D01*
Y25013D01*
X72263Y25093D01*
X72303Y25173D01*
X72350Y25233D01*
X72397Y25286D01*
X72443Y25333D01*
X72477Y25359D01*
X72503Y25379D01*
X72510Y25386D01*
X72590Y25433D01*
X72670Y25466D01*
X72743Y25492D01*
X72816Y25506D01*
X72876Y25519D01*
X72930Y25526D01*
X72970D01*
X73043Y25519D01*
D02*
G37*
G36*
X68647Y25466D02*
X68767Y25433D01*
X68874Y25386D01*
X68967Y25333D01*
X69047Y25273D01*
X69100Y25226D01*
X69133Y25193D01*
X69147Y25186D01*
Y25179D01*
X69233Y25060D01*
X69300Y24926D01*
X69346Y24786D01*
X69380Y24653D01*
X69400Y24527D01*
X69406Y24473D01*
Y24433D01*
X69413Y24394D01*
Y24367D01*
Y24347D01*
Y24340D01*
X69400Y24140D01*
X69373Y23974D01*
X69327Y23827D01*
X69280Y23708D01*
X69233Y23608D01*
X69207Y23574D01*
X69187Y23541D01*
X69173Y23521D01*
X69160Y23501D01*
X69147Y23494D01*
Y23488D01*
X69100Y23435D01*
X69047Y23394D01*
X68940Y23321D01*
X68834Y23268D01*
X68727Y23235D01*
X68641Y23208D01*
X68574Y23201D01*
X68547Y23195D01*
X68507D01*
X68434Y23201D01*
X68367Y23208D01*
X68241Y23241D01*
X68134Y23288D01*
X68041Y23341D01*
X67961Y23394D01*
X67908Y23441D01*
X67875Y23474D01*
X67861Y23488D01*
X67775Y23608D01*
X67708Y23741D01*
X67668Y23887D01*
X67635Y24021D01*
X67615Y24140D01*
X67608Y24194D01*
Y24240D01*
X67602Y24280D01*
Y24307D01*
Y24327D01*
Y24334D01*
X67615Y24527D01*
X67642Y24700D01*
X67681Y24846D01*
X67735Y24966D01*
X67781Y25060D01*
X67801Y25093D01*
X67821Y25126D01*
X67835Y25146D01*
X67848Y25166D01*
X67861Y25179D01*
X67915Y25233D01*
X67961Y25279D01*
X68074Y25352D01*
X68181Y25406D01*
X68281Y25439D01*
X68374Y25466D01*
X68441Y25472D01*
X68467Y25479D01*
X68581D01*
X68647Y25466D01*
D02*
G37*
G36*
X70425Y22396D02*
X68514D01*
X68667Y22402D01*
X68807Y22422D01*
X68947Y22449D01*
X69073Y22482D01*
X69193Y22522D01*
X69306Y22569D01*
X69406Y22622D01*
X69506Y22675D01*
X69586Y22722D01*
X69666Y22775D01*
X69726Y22822D01*
X69779Y22862D01*
X69826Y22895D01*
X69853Y22922D01*
X69873Y22942D01*
X69879Y22948D01*
X69972Y23055D01*
X70059Y23168D01*
X70132Y23281D01*
X70192Y23401D01*
X70246Y23521D01*
X70292Y23634D01*
X70325Y23747D01*
X70359Y23854D01*
X70379Y23954D01*
X70399Y24047D01*
X70412Y24134D01*
X70419Y24207D01*
Y24267D01*
X70425Y24307D01*
Y22396D01*
D02*
G37*
G36*
X81115Y25519D02*
X81215Y25492D01*
X81301Y25452D01*
X81374Y25412D01*
X81434Y25372D01*
X81474Y25333D01*
X81508Y25306D01*
X81514Y25299D01*
X81587Y25206D01*
X81641Y25106D01*
X81681Y25000D01*
X81707Y24893D01*
X81727Y24800D01*
X81734Y24726D01*
X81741Y24693D01*
Y24673D01*
Y24660D01*
Y24653D01*
X80269D01*
X80275Y24793D01*
X80302Y24920D01*
X80335Y25026D01*
X80375Y25119D01*
X80409Y25193D01*
X80442Y25246D01*
X80469Y25273D01*
X80475Y25286D01*
X80562Y25366D01*
X80648Y25426D01*
X80735Y25466D01*
X80822Y25499D01*
X80895Y25512D01*
X80955Y25519D01*
X80995Y25526D01*
X81008D01*
X81115Y25519D01*
D02*
G37*
G36*
X82713Y22396D02*
X81041D01*
X81261Y22409D01*
X81461Y22442D01*
X81634Y22482D01*
X81707Y22509D01*
X81781Y22535D01*
X81847Y22562D01*
X81901Y22589D01*
X81947Y22609D01*
X81987Y22629D01*
X82020Y22649D01*
X82040Y22662D01*
X82054Y22675D01*
X82060D01*
X82200Y22788D01*
X82327Y22922D01*
X82427Y23055D01*
X82513Y23188D01*
X82580Y23308D01*
X82600Y23361D01*
X82626Y23408D01*
X82640Y23441D01*
X82653Y23468D01*
X82660Y23488D01*
Y23494D01*
X81681Y23661D01*
X81647Y23561D01*
X81608Y23474D01*
X81568Y23408D01*
X81528Y23348D01*
X81488Y23301D01*
X81461Y23275D01*
X81441Y23255D01*
X81434Y23248D01*
X81374Y23208D01*
X81308Y23181D01*
X81248Y23155D01*
X81188Y23141D01*
X81135Y23135D01*
X81095Y23128D01*
X81055D01*
X80935Y23141D01*
X80822Y23168D01*
X80728Y23201D01*
X80642Y23248D01*
X80575Y23295D01*
X80529Y23328D01*
X80502Y23355D01*
X80489Y23368D01*
X80415Y23468D01*
X80355Y23581D01*
X80316Y23694D01*
X80289Y23801D01*
X80269Y23901D01*
X80262Y23981D01*
X80256Y24014D01*
Y24034D01*
Y24047D01*
Y24054D01*
X82713D01*
Y22396D01*
D02*
G37*
G36*
X56080Y25519D02*
X56180Y25492D01*
X56266Y25452D01*
X56340Y25412D01*
X56399Y25372D01*
X56439Y25333D01*
X56473Y25306D01*
X56479Y25299D01*
X56553Y25206D01*
X56606Y25106D01*
X56646Y24999D01*
X56673Y24893D01*
X56692Y24800D01*
X56699Y24726D01*
X56706Y24693D01*
Y24673D01*
Y24660D01*
Y24653D01*
X55234D01*
X55241Y24793D01*
X55267Y24920D01*
X55300Y25026D01*
X55340Y25119D01*
X55374Y25193D01*
X55407Y25246D01*
X55434Y25273D01*
X55440Y25286D01*
X55527Y25366D01*
X55613Y25426D01*
X55700Y25466D01*
X55787Y25499D01*
X55860Y25512D01*
X55920Y25519D01*
X55960Y25526D01*
X55973D01*
X56080Y25519D01*
D02*
G37*
G36*
X54222Y24167D02*
X54228Y24027D01*
X54248Y23901D01*
X54275Y23781D01*
X54302Y23667D01*
X54328Y23561D01*
X54361Y23468D01*
X54401Y23381D01*
X54435Y23301D01*
X54468Y23228D01*
X54495Y23168D01*
X54521Y23121D01*
X54548Y23081D01*
X54568Y23055D01*
X54575Y23035D01*
X54581Y23028D01*
X54675Y22915D01*
X54774Y22822D01*
X54881Y22735D01*
X55001Y22662D01*
X55114Y22602D01*
X55234Y22549D01*
X55354Y22509D01*
X55467Y22475D01*
X55574Y22449D01*
X55680Y22429D01*
X55767Y22415D01*
X55847Y22409D01*
X55913Y22402D01*
X55967Y22396D01*
X54215D01*
Y24307D01*
X54222Y24167D01*
D02*
G37*
G36*
X48594Y24054D02*
Y23934D01*
X48587Y23834D01*
X48581Y23754D01*
X48574Y23687D01*
X48567Y23641D01*
X48561Y23608D01*
X48554Y23588D01*
Y23581D01*
X48527Y23514D01*
X48494Y23448D01*
X48454Y23394D01*
X48414Y23348D01*
X48381Y23315D01*
X48347Y23281D01*
X48327Y23268D01*
X48321Y23261D01*
X48228Y23201D01*
X48134Y23161D01*
X48048Y23128D01*
X47975Y23108D01*
X47908Y23095D01*
X47855Y23088D01*
X47808D01*
X47721Y23095D01*
X47648Y23108D01*
X47582Y23135D01*
X47528Y23161D01*
X47482Y23188D01*
X47448Y23215D01*
X47428Y23228D01*
X47422Y23235D01*
X47368Y23295D01*
X47335Y23355D01*
X47308Y23408D01*
X47289Y23468D01*
X47275Y23514D01*
X47269Y23554D01*
Y23581D01*
Y23588D01*
X47275Y23661D01*
X47295Y23728D01*
X47328Y23787D01*
X47362Y23841D01*
X47395Y23881D01*
X47428Y23907D01*
X47448Y23927D01*
X47455Y23934D01*
X47515Y23967D01*
X47595Y23994D01*
X47681Y24021D01*
X47768Y24047D01*
X47855Y24067D01*
X47921Y24087D01*
X47948Y24094D01*
X47968D01*
X47981Y24101D01*
X47988D01*
X48134Y24134D01*
X48254Y24160D01*
X48361Y24187D01*
X48447Y24207D01*
X48514Y24227D01*
X48561Y24240D01*
X48587Y24254D01*
X48594D01*
Y24054D01*
D02*
G37*
G36*
X77891Y22482D02*
X76506D01*
Y23668D01*
X76959Y24147D01*
X77891Y22482D01*
D02*
G37*
G36*
X44152Y25519D02*
X44252Y25492D01*
X44338Y25452D01*
X44411Y25412D01*
X44471Y25372D01*
X44511Y25333D01*
X44545Y25306D01*
X44551Y25299D01*
X44625Y25206D01*
X44678Y25106D01*
X44718Y24999D01*
X44744Y24893D01*
X44764Y24800D01*
X44771Y24726D01*
X44778Y24693D01*
Y24673D01*
Y24660D01*
Y24653D01*
X43306D01*
X43312Y24793D01*
X43339Y24920D01*
X43372Y25026D01*
X43412Y25119D01*
X43446Y25193D01*
X43479Y25246D01*
X43506Y25273D01*
X43512Y25286D01*
X43599Y25366D01*
X43685Y25426D01*
X43772Y25466D01*
X43859Y25499D01*
X43932Y25512D01*
X43992Y25519D01*
X44032Y25526D01*
X44045D01*
X44152Y25519D01*
D02*
G37*
G36*
X42294Y24167D02*
X42300Y24027D01*
X42320Y23901D01*
X42347Y23781D01*
X42373Y23667D01*
X42400Y23561D01*
X42433Y23468D01*
X42473Y23381D01*
X42507Y23301D01*
X42540Y23228D01*
X42567Y23168D01*
X42593Y23121D01*
X42620Y23081D01*
X42640Y23055D01*
X42647Y23035D01*
X42653Y23028D01*
X42746Y22915D01*
X42846Y22822D01*
X42953Y22735D01*
X43073Y22662D01*
X43186Y22602D01*
X43306Y22549D01*
X43426Y22509D01*
X43539Y22475D01*
X43646Y22449D01*
X43752Y22429D01*
X43839Y22415D01*
X43919Y22409D01*
X43985Y22402D01*
X44039Y22396D01*
X42287D01*
Y24307D01*
X42294Y24167D01*
D02*
G37*
D10*
X47646Y146429D02*
D03*
X17646D02*
D03*
X83915Y154782D02*
D03*
X101415D02*
D03*
X118915D02*
D03*
X136415D02*
D03*
D11*
X112031Y92772D02*
X111441Y93362D01*
X110850Y92772D01*
X111441Y92181D01*
X112031Y92772D01*
D12*
X134823Y56161D02*
X134085Y56588D01*
Y55735D01*
X134823Y56161D01*
D13*
X22500Y182500D02*
X25000Y180000D01*
X20000Y182500D02*
X22500D01*
X15000D02*
X20000D01*
D14*
X47449Y148004D02*
X47941D01*
X63886D02*
X64378D01*
X47449Y160996D02*
X47941D01*
X63886D02*
X64378D01*
X47449Y148004D02*
Y149933D01*
Y159067D02*
Y160996D01*
X64378Y148004D02*
Y149933D01*
Y159067D02*
Y160996D01*
X17449Y148004D02*
X17941D01*
X33886D02*
X34378D01*
X17449Y160996D02*
X17941D01*
X33886D02*
X34378D01*
X17449Y148004D02*
Y149933D01*
Y159067D02*
Y160996D01*
X34378Y148004D02*
Y149933D01*
Y159067D02*
Y160996D01*
X113606Y97890D02*
Y134110D01*
X164394Y97890D02*
Y134110D01*
X113606D02*
X115378D01*
X162622D02*
X164394D01*
X162622Y97890D02*
X164394D01*
X113606D02*
X115378D01*
X121398Y43169D02*
Y51831D01*
X133602Y43169D02*
Y51831D01*
X117264Y39803D02*
Y40197D01*
X112736Y39803D02*
Y40197D01*
X53551Y171803D02*
Y172197D01*
X58276Y171803D02*
Y172197D01*
X43551Y136803D02*
Y137197D01*
X48276Y136803D02*
Y137197D01*
X63551Y136803D02*
Y137197D01*
X68276Y136803D02*
Y137197D01*
X53551Y136803D02*
Y137197D01*
X58276Y136803D02*
Y137197D01*
X38276Y171803D02*
Y172197D01*
X33551Y171803D02*
Y172197D01*
X13551Y136803D02*
Y137197D01*
X18276Y136803D02*
Y137197D01*
X23551Y136803D02*
Y137197D01*
X28276Y136803D02*
Y137197D01*
X33551Y136803D02*
Y137197D01*
X38276Y136803D02*
Y137197D01*
X23551Y171803D02*
Y172197D01*
X28276Y171803D02*
Y172197D01*
X18276Y171803D02*
Y172197D01*
X13551Y171803D02*
Y172197D01*
X48276Y171803D02*
Y172197D01*
X43551Y171803D02*
Y172197D01*
X87360Y155274D02*
X94447D01*
X87360Y149762D02*
X94447D01*
X87360Y154782D02*
Y155274D01*
X94447Y154782D02*
Y155274D01*
X87360Y149762D02*
Y150254D01*
X94447Y149762D02*
Y150254D01*
X104860Y155274D02*
X111947D01*
X104860Y149762D02*
X111947D01*
X104860Y154782D02*
Y155274D01*
X111947Y154782D02*
Y155274D01*
X104860Y149762D02*
Y150254D01*
X111947Y149762D02*
Y150254D01*
X122360Y155274D02*
X129447D01*
X122360Y149762D02*
X129447D01*
X122360Y154782D02*
Y155274D01*
X129447Y154782D02*
Y155274D01*
X122360Y149762D02*
Y150254D01*
X129447Y149762D02*
Y150254D01*
X139860Y155274D02*
X146947D01*
X139860Y149762D02*
X146947D01*
X139860Y154782D02*
Y155274D01*
X146947Y154782D02*
Y155274D01*
X139860Y149762D02*
Y150254D01*
X146947Y149762D02*
Y150254D01*
X68276Y171803D02*
Y172197D01*
X63551Y171803D02*
Y172197D01*
X143206Y180156D02*
X143600D01*
X143206Y184880D02*
X143600D01*
X125706Y180156D02*
X126100D01*
X125706Y184880D02*
X126100D01*
X108206Y184880D02*
X108600D01*
X108206Y180156D02*
X108600D01*
X90706Y184880D02*
X91100D01*
X90706Y180156D02*
X91100D01*
X141139Y172321D02*
Y172715D01*
X145667Y172321D02*
Y172715D01*
X123640Y172321D02*
Y172715D01*
X128167Y172321D02*
Y172715D01*
X88639Y172321D02*
Y172715D01*
X93167Y172321D02*
Y172715D01*
X106140Y172321D02*
Y172715D01*
X110667Y172321D02*
Y172715D01*
X90706Y160156D02*
X91100D01*
X90706Y164880D02*
X91100D01*
X108206Y160156D02*
X108600D01*
X108206Y164880D02*
X108600D01*
X125706Y160156D02*
X126100D01*
X125706Y164880D02*
X126100D01*
X143206Y160156D02*
X143600D01*
X143206Y164880D02*
X143600D01*
X137736Y54803D02*
Y55197D01*
X142264Y54803D02*
Y55197D01*
X137736Y39803D02*
Y40197D01*
X142264Y39803D02*
Y40197D01*
X117264Y54803D02*
Y55197D01*
X112736Y54803D02*
Y55197D01*
X175236Y47303D02*
Y47697D01*
X179764Y47303D02*
Y47697D01*
X134803Y69862D02*
X135197D01*
X134803Y65138D02*
X135197D01*
X134803Y25138D02*
X135197D01*
X134803Y29862D02*
X135197D01*
X119803Y25138D02*
X120197D01*
X119803Y29862D02*
X120197D01*
X119803Y69862D02*
X120197D01*
X119803Y65138D02*
X120197D01*
X174803Y60138D02*
X175197D01*
X174803Y64862D02*
X175197D01*
X174803Y34862D02*
X175197D01*
X174803Y30138D02*
X175197D01*
D15*
X219467Y179100D02*
X218401D01*
X218934D01*
Y176434D01*
X218401Y175900D01*
X217867D01*
X217334Y176434D01*
X220533Y178566D02*
X221066Y179100D01*
X222133D01*
X222666Y178566D01*
Y178033D01*
X222133Y177500D01*
X221600D01*
X222133D01*
X222666Y176967D01*
Y176434D01*
X222133Y175900D01*
X221066D01*
X220533Y176434D01*
X14467Y51600D02*
X13400D01*
X13934D01*
Y48934D01*
X13400Y48401D01*
X12867D01*
X12334Y48934D01*
X17666Y48401D02*
X15533D01*
X17666Y50533D01*
Y51066D01*
X17133Y51600D01*
X16066D01*
X15533Y51066D01*
X9834Y156599D02*
Y153934D01*
X10367Y153401D01*
X11434D01*
X11967Y153934D01*
Y156599D01*
X13033Y156066D02*
X13566Y156599D01*
X14633D01*
X15166Y156066D01*
Y155533D01*
X14633Y155000D01*
X14099D01*
X14633D01*
X15166Y154467D01*
Y153934D01*
X14633Y153401D01*
X13566D01*
X13033Y153934D01*
X39834Y156599D02*
Y153934D01*
X40367Y153401D01*
X41434D01*
X41967Y153934D01*
Y156599D01*
X45166Y153401D02*
X43033D01*
X45166Y155533D01*
Y156066D01*
X44633Y156599D01*
X43566D01*
X43033Y156066D01*
X105367Y49099D02*
Y46434D01*
X105901Y45900D01*
X106967D01*
X107500Y46434D01*
Y49099D01*
X108566Y45900D02*
X109633D01*
X109099D01*
Y49099D01*
X108566Y48566D01*
X170367Y131599D02*
X172500D01*
X171434D01*
Y128401D01*
X173566D02*
X174633D01*
X174100D01*
Y131599D01*
X173566Y131066D01*
X104834Y38401D02*
Y41600D01*
X106434D01*
X106967Y41066D01*
Y40000D01*
X106434Y39467D01*
X104834D01*
X105901D02*
X106967Y38401D01*
X109633D02*
Y41600D01*
X108033Y40000D01*
X110166D01*
X144834Y58400D02*
Y61599D01*
X146434D01*
X146967Y61066D01*
Y60000D01*
X146434Y59467D01*
X144834D01*
X145900D02*
X146967Y58400D01*
X148033Y61066D02*
X148566Y61599D01*
X149633D01*
X150166Y61066D01*
Y60533D01*
X149633Y60000D01*
X149100D01*
X149633D01*
X150166Y59467D01*
Y58934D01*
X149633Y58400D01*
X148566D01*
X148033Y58934D01*
X144834Y33400D02*
Y36599D01*
X146434D01*
X146967Y36066D01*
Y35000D01*
X146434Y34467D01*
X144834D01*
X145900D02*
X146967Y33400D01*
X150166D02*
X148033D01*
X150166Y35533D01*
Y36066D01*
X149633Y36599D01*
X148566D01*
X148033Y36066D01*
X105367Y53400D02*
Y56599D01*
X106967D01*
X107500Y56066D01*
Y55000D01*
X106967Y54467D01*
X105367D01*
X106434D02*
X107500Y53400D01*
X108566D02*
X109633D01*
X109099D01*
Y56599D01*
X108566Y56066D01*
X202334Y174100D02*
Y170900D01*
X204467D01*
X207666Y174100D02*
X205533D01*
Y172500D01*
X206599Y173033D01*
X207133D01*
X207666Y172500D01*
Y171434D01*
X207133Y170900D01*
X206066D01*
X205533Y171434D01*
X187334Y174100D02*
Y170900D01*
X189467D01*
X192133D02*
Y174100D01*
X190533Y172500D01*
X192666D01*
X172334Y174100D02*
Y170900D01*
X174467D01*
X175533Y173566D02*
X176066Y174100D01*
X177133D01*
X177666Y173566D01*
Y173033D01*
X177133Y172500D01*
X176600D01*
X177133D01*
X177666Y171967D01*
Y171434D01*
X177133Y170900D01*
X176066D01*
X175533Y171434D01*
X157334Y174100D02*
Y170900D01*
X159467D01*
X162666D02*
X160533D01*
X162666Y173033D01*
Y173566D01*
X162133Y174100D01*
X161066D01*
X160533Y173566D01*
X185600Y49099D02*
Y45900D01*
X187733D01*
X188799D02*
X189865D01*
X189332D01*
Y49099D01*
X188799Y48566D01*
X162500Y36599D02*
X161434D01*
X161967D01*
Y33934D01*
X161434Y33400D01*
X160900D01*
X160367Y33934D01*
X163566Y33400D02*
X164633D01*
X164100D01*
Y36599D01*
X163566Y36066D01*
X202334Y154100D02*
Y150900D01*
X203934D01*
X204467Y151434D01*
Y153566D01*
X203934Y154100D01*
X202334D01*
X207133Y150900D02*
Y154100D01*
X205533Y152500D01*
X207666D01*
X187334Y154100D02*
Y150900D01*
X188934D01*
X189467Y151434D01*
Y153566D01*
X188934Y154100D01*
X187334D01*
X190533Y153566D02*
X191066Y154100D01*
X192133D01*
X192666Y153566D01*
Y153033D01*
X192133Y152500D01*
X191600D01*
X192133D01*
X192666Y151967D01*
Y151434D01*
X192133Y150900D01*
X191066D01*
X190533Y151434D01*
X172334Y154100D02*
Y150900D01*
X173934D01*
X174467Y151434D01*
Y153566D01*
X173934Y154100D01*
X172334D01*
X177666Y150900D02*
X175533D01*
X177666Y153033D01*
Y153566D01*
X177133Y154100D01*
X176066D01*
X175533Y153566D01*
X157867Y154100D02*
Y150900D01*
X159467D01*
X160000Y151434D01*
Y153566D01*
X159467Y154100D01*
X157867D01*
X161066Y150900D02*
X162133D01*
X161600D01*
Y154100D01*
X161066Y153566D01*
X132867Y76066D02*
X132334Y76600D01*
X131268D01*
X130735Y76066D01*
Y73934D01*
X131268Y73400D01*
X132334D01*
X132867Y73934D01*
X136066Y73400D02*
X133934D01*
X136066Y75533D01*
Y76066D01*
X135533Y76600D01*
X134467D01*
X133934Y76066D01*
X139265Y76600D02*
X138199Y76066D01*
X137133Y75000D01*
Y73934D01*
X137666Y73400D01*
X138732D01*
X139265Y73934D01*
Y74467D01*
X138732Y75000D01*
X137133D01*
X132867Y21066D02*
X132334Y21599D01*
X131268D01*
X130735Y21066D01*
Y18934D01*
X131268Y18401D01*
X132334D01*
X132867Y18934D01*
X136066Y18401D02*
X133934D01*
X136066Y20533D01*
Y21066D01*
X135533Y21599D01*
X134467D01*
X133934Y21066D01*
X139265Y21599D02*
X137133D01*
Y20000D01*
X138199Y20533D01*
X138732D01*
X139265Y20000D01*
Y18934D01*
X138732Y18401D01*
X137666D01*
X137133Y18934D01*
X33934Y120502D02*
X33400Y119969D01*
Y118903D01*
X33934Y118369D01*
X36066D01*
X36599Y118903D01*
Y119969D01*
X36066Y120502D01*
X36599Y123701D02*
Y121568D01*
X34467Y123701D01*
X33934D01*
X33400Y123168D01*
Y122102D01*
X33934Y121568D01*
X36599Y126367D02*
X33400D01*
X35000Y124767D01*
Y126900D01*
X5367Y183566D02*
X4834Y184099D01*
X3768D01*
X3235Y183566D01*
Y181434D01*
X3768Y180901D01*
X4834D01*
X5367Y181434D01*
X8566Y180901D02*
X6434D01*
X8566Y183033D01*
Y183566D01*
X8033Y184099D01*
X6967D01*
X6434Y183566D01*
X9633D02*
X10166Y184099D01*
X11232D01*
X11765Y183566D01*
Y183033D01*
X11232Y182500D01*
X10699D01*
X11232D01*
X11765Y181967D01*
Y181434D01*
X11232Y180901D01*
X10166D01*
X9633Y181434D01*
X117867Y21066D02*
X117334Y21599D01*
X116268D01*
X115735Y21066D01*
Y18934D01*
X116268Y18401D01*
X117334D01*
X117867Y18934D01*
X121066Y18401D02*
X118934D01*
X121066Y20533D01*
Y21066D01*
X120533Y21599D01*
X119467D01*
X118934Y21066D01*
X124265Y18401D02*
X122133D01*
X124265Y20533D01*
Y21066D01*
X123732Y21599D01*
X122666D01*
X122133Y21066D01*
X203400Y183566D02*
X202867Y184099D01*
X201801D01*
X201268Y183566D01*
Y181434D01*
X201801Y180901D01*
X202867D01*
X203400Y181434D01*
X206599Y180901D02*
X204467D01*
X206599Y183033D01*
Y183566D01*
X206066Y184099D01*
X205000D01*
X204467Y183566D01*
X207666Y180901D02*
X208732D01*
X208199D01*
Y184099D01*
X207666Y183566D01*
X33934Y182733D02*
X33400Y182200D01*
Y181133D01*
X33934Y180600D01*
X36066D01*
X36599Y181133D01*
Y182200D01*
X36066Y182733D01*
X36599Y185932D02*
Y183799D01*
X34467Y185932D01*
X33934D01*
X33400Y185398D01*
Y184332D01*
X33934Y183799D01*
Y186998D02*
X33400Y187531D01*
Y188597D01*
X33934Y189131D01*
X36066D01*
X36599Y188597D01*
Y187531D01*
X36066Y186998D01*
X33934D01*
X203134Y163566D02*
X202601Y164100D01*
X201535D01*
X201001Y163566D01*
Y161434D01*
X201535Y160900D01*
X202601D01*
X203134Y161434D01*
X204200Y160900D02*
X205267D01*
X204733D01*
Y164100D01*
X204200Y163566D01*
X206866Y161434D02*
X207399Y160900D01*
X208466D01*
X208999Y161434D01*
Y163566D01*
X208466Y164100D01*
X207399D01*
X206866Y163566D01*
Y163033D01*
X207399Y162500D01*
X208999D01*
X118134Y76066D02*
X117601Y76600D01*
X116534D01*
X116001Y76066D01*
Y73934D01*
X116534Y73400D01*
X117601D01*
X118134Y73934D01*
X119200Y73400D02*
X120267D01*
X119733D01*
Y76600D01*
X119200Y76066D01*
X121866D02*
X122399Y76600D01*
X123466D01*
X123999Y76066D01*
Y75533D01*
X123466Y75000D01*
X123999Y74467D01*
Y73934D01*
X123466Y73400D01*
X122399D01*
X121866Y73934D01*
Y74467D01*
X122399Y75000D01*
X121866Y75533D01*
Y76066D01*
X122399Y75000D02*
X123466D01*
X188134Y183566D02*
X187601Y184099D01*
X186535D01*
X186001Y183566D01*
Y181434D01*
X186535Y180901D01*
X187601D01*
X188134Y181434D01*
X189200Y180901D02*
X190267D01*
X189733D01*
Y184099D01*
X189200Y183566D01*
X191866Y184099D02*
X193999D01*
Y183566D01*
X191866Y181434D01*
Y180901D01*
X188134Y163566D02*
X187601Y164100D01*
X186535D01*
X186001Y163566D01*
Y161434D01*
X186535Y160900D01*
X187601D01*
X188134Y161434D01*
X189200Y160900D02*
X190267D01*
X189733D01*
Y164100D01*
X189200Y163566D01*
X193999Y164100D02*
X192932Y163566D01*
X191866Y162500D01*
Y161434D01*
X192399Y160900D01*
X193466D01*
X193999Y161434D01*
Y161967D01*
X193466Y162500D01*
X191866D01*
X13934Y121035D02*
X13400Y120502D01*
Y119436D01*
X13934Y118903D01*
X16066D01*
X16600Y119436D01*
Y120502D01*
X16066Y121035D01*
X16600Y122102D02*
Y123168D01*
Y122635D01*
X13400D01*
X13934Y122102D01*
X13400Y126900D02*
Y124767D01*
X15000D01*
X14467Y125834D01*
Y126367D01*
X15000Y126900D01*
X16066D01*
X16600Y126367D01*
Y125301D01*
X16066Y124767D01*
X173134Y163566D02*
X172601Y164100D01*
X171535D01*
X171001Y163566D01*
Y161434D01*
X171535Y160900D01*
X172601D01*
X173134Y161434D01*
X174200Y160900D02*
X175267D01*
X174733D01*
Y164100D01*
X174200Y163566D01*
X178466Y160900D02*
Y164100D01*
X176866Y162500D01*
X178999D01*
X173134Y183566D02*
X172601Y184099D01*
X171535D01*
X171001Y183566D01*
Y181434D01*
X171535Y180901D01*
X172601D01*
X173134Y181434D01*
X174200Y180901D02*
X175267D01*
X174733D01*
Y184099D01*
X174200Y183566D01*
X176866D02*
X177399Y184099D01*
X178466D01*
X178999Y183566D01*
Y183033D01*
X178466Y182500D01*
X177932D01*
X178466D01*
X178999Y181967D01*
Y181434D01*
X178466Y180901D01*
X177399D01*
X176866Y181434D01*
X23934Y121035D02*
X23401Y120502D01*
Y119436D01*
X23934Y118903D01*
X26066D01*
X26599Y119436D01*
Y120502D01*
X26066Y121035D01*
X26599Y122102D02*
Y123168D01*
Y122635D01*
X23401D01*
X23934Y122102D01*
X26599Y126900D02*
Y124767D01*
X24467Y126900D01*
X23934D01*
X23401Y126367D01*
Y125301D01*
X23934Y124767D01*
X8934Y171167D02*
X8400Y170634D01*
Y169568D01*
X8934Y169035D01*
X11066D01*
X11599Y169568D01*
Y170634D01*
X11066Y171167D01*
X11599Y172233D02*
Y173300D01*
Y172767D01*
X8400D01*
X8934Y172233D01*
X11599Y174899D02*
Y175966D01*
Y175432D01*
X8400D01*
X8934Y174899D01*
X158134Y183566D02*
X157601Y184099D01*
X156535D01*
X156001Y183566D01*
Y181434D01*
X156535Y180901D01*
X157601D01*
X158134Y181434D01*
X159200Y180901D02*
X160267D01*
X159733D01*
Y184099D01*
X159200Y183566D01*
X161866D02*
X162399Y184099D01*
X163466D01*
X163999Y183566D01*
Y181434D01*
X163466Y180901D01*
X162399D01*
X161866Y181434D01*
Y183566D01*
X159467Y163566D02*
X158934Y164100D01*
X157867D01*
X157334Y163566D01*
Y161434D01*
X157867Y160900D01*
X158934D01*
X159467Y161434D01*
X160533D02*
X161066Y160900D01*
X162133D01*
X162666Y161434D01*
Y163566D01*
X162133Y164100D01*
X161066D01*
X160533Y163566D01*
Y163033D01*
X161066Y162500D01*
X162666D01*
X63934Y123701D02*
X63401Y123168D01*
Y122101D01*
X63934Y121568D01*
X66066D01*
X66600Y122101D01*
Y123168D01*
X66066Y123701D01*
X63934Y124767D02*
X63401Y125301D01*
Y126367D01*
X63934Y126900D01*
X64467D01*
X65000Y126367D01*
X65533Y126900D01*
X66066D01*
X66600Y126367D01*
Y125301D01*
X66066Y124767D01*
X65533D01*
X65000Y125301D01*
X64467Y124767D01*
X63934D01*
X65000Y125301D02*
Y126367D01*
X53934Y182733D02*
X53400Y182200D01*
Y181133D01*
X53934Y180600D01*
X56066D01*
X56599Y181133D01*
Y182200D01*
X56066Y182733D01*
X53400Y183799D02*
Y185932D01*
X53934D01*
X56066Y183799D01*
X56599D01*
X63934Y182733D02*
X63401Y182200D01*
Y181133D01*
X63934Y180600D01*
X66066D01*
X66600Y181133D01*
Y182200D01*
X66066Y182733D01*
X63401Y185932D02*
X63934Y184865D01*
X65000Y183799D01*
X66066D01*
X66600Y184332D01*
Y185398D01*
X66066Y185932D01*
X65533D01*
X65000Y185398D01*
Y183799D01*
X187733Y63566D02*
X187199Y64100D01*
X186133D01*
X185600Y63566D01*
Y61434D01*
X186133Y60900D01*
X187199D01*
X187733Y61434D01*
X190932Y64100D02*
X188799D01*
Y62500D01*
X189865Y63033D01*
X190399D01*
X190932Y62500D01*
Y61434D01*
X190399Y60900D01*
X189332D01*
X188799Y61434D01*
X187733Y33566D02*
X187199Y34100D01*
X186133D01*
X185600Y33566D01*
Y31434D01*
X186133Y30900D01*
X187199D01*
X187733Y31434D01*
X190399Y30900D02*
Y34100D01*
X188799Y32500D01*
X190932D01*
X43934Y123701D02*
X43400Y123168D01*
Y122101D01*
X43934Y121568D01*
X46066D01*
X46600Y122101D01*
Y123168D01*
X46066Y123701D01*
X43934Y124767D02*
X43400Y125301D01*
Y126367D01*
X43934Y126900D01*
X44467D01*
X45000Y126367D01*
Y125834D01*
Y126367D01*
X45533Y126900D01*
X46066D01*
X46600Y126367D01*
Y125301D01*
X46066Y124767D01*
X53934Y123701D02*
X53400Y123168D01*
Y122101D01*
X53934Y121568D01*
X56066D01*
X56599Y122101D01*
Y123168D01*
X56066Y123701D01*
X56599Y126900D02*
Y124767D01*
X54467Y126900D01*
X53934D01*
X53400Y126367D01*
Y125301D01*
X53934Y124767D01*
X43934Y182733D02*
X43400Y182200D01*
Y181133D01*
X43934Y180600D01*
X46066D01*
X46600Y181133D01*
Y182200D01*
X46066Y182733D01*
X46600Y183799D02*
Y184865D01*
Y184332D01*
X43400D01*
X43934Y183799D01*
M02*
