G04*
G04 #@! TF.GenerationSoftware,Altium Limited,Altium Designer,20.0.13 (296)*
G04*
G04 Layer_Color=8388736*
%FSLAX25Y25*%
%MOIN*%
G70*
G01*
G75*
G04:AMPARAMS|DCode=27|XSize=69.29mil|YSize=72.44mil|CornerRadius=4.53mil|HoleSize=0mil|Usage=FLASHONLY|Rotation=90.000|XOffset=0mil|YOffset=0mil|HoleType=Round|Shape=RoundedRectangle|*
%AMROUNDEDRECTD27*
21,1,0.06929,0.06339,0,0,90.0*
21,1,0.06024,0.07244,0,0,90.0*
1,1,0.00906,0.03169,0.03012*
1,1,0.00906,0.03169,-0.03012*
1,1,0.00906,-0.03169,-0.03012*
1,1,0.00906,-0.03169,0.03012*
%
%ADD27ROUNDEDRECTD27*%
G04:AMPARAMS|DCode=28|XSize=69.29mil|YSize=44.49mil|CornerRadius=3.29mil|HoleSize=0mil|Usage=FLASHONLY|Rotation=90.000|XOffset=0mil|YOffset=0mil|HoleType=Round|Shape=RoundedRectangle|*
%AMROUNDEDRECTD28*
21,1,0.06929,0.03791,0,0,90.0*
21,1,0.06272,0.04449,0,0,90.0*
1,1,0.00658,0.01896,0.03136*
1,1,0.00658,0.01896,-0.03136*
1,1,0.00658,-0.01896,-0.03136*
1,1,0.00658,-0.01896,0.03136*
%
%ADD28ROUNDEDRECTD28*%
%ADD29R,0.01221X0.03386*%
%ADD30R,0.06706X0.09658*%
%ADD31R,0.08189X0.07008*%
%ADD32R,0.02047X0.05906*%
%ADD33R,0.06115X0.04737*%
%ADD34R,0.06312X0.04934*%
%ADD35R,0.04934X0.02965*%
%ADD36R,0.04934X0.06312*%
%ADD37C,0.06391*%
%ADD38C,0.14383*%
%ADD39C,0.07296*%
G04:AMPARAMS|DCode=40|XSize=72.96mil|YSize=72.96mil|CornerRadius=20.24mil|HoleSize=0mil|Usage=FLASHONLY|Rotation=270.000|XOffset=0mil|YOffset=0mil|HoleType=Round|Shape=RoundedRectangle|*
%AMROUNDEDRECTD40*
21,1,0.07296,0.03248,0,0,270.0*
21,1,0.03248,0.07296,0,0,270.0*
1,1,0.04048,-0.01624,-0.01624*
1,1,0.04048,-0.01624,0.01624*
1,1,0.04048,0.01624,0.01624*
1,1,0.04048,0.01624,-0.01624*
%
%ADD40ROUNDEDRECTD40*%
%ADD41C,0.24422*%
G36*
X51181Y59055D02*
X52535D01*
X55230Y59320D01*
X57885Y59849D01*
X60477Y60635D01*
X62978Y61671D01*
X65366Y62947D01*
X67618Y64452D01*
X69711Y66170D01*
X71626Y68084D01*
X73343Y70177D01*
X74848Y72429D01*
X76124Y74817D01*
X77161Y77319D01*
X77947Y79910D01*
X78475Y82565D01*
X78740Y85260D01*
Y86614D01*
Y87968D01*
X78475Y90663D01*
X77947Y93319D01*
X77161Y95910D01*
X76124Y98411D01*
X74848Y100799D01*
X73343Y103051D01*
X71626Y105144D01*
X69711Y107059D01*
X67618Y108776D01*
X65366Y110281D01*
X62978Y111557D01*
X60477Y112593D01*
X57885Y113380D01*
X55230Y113908D01*
X52535Y114173D01*
X51181D01*
X49827D01*
X47133Y113908D01*
X44477Y113380D01*
X41886Y112593D01*
X39384Y111557D01*
X36996Y110281D01*
X34744Y108776D01*
X32651Y107059D01*
X30737Y105144D01*
X29019Y103051D01*
X27514Y100799D01*
X26238Y98411D01*
X25202Y95910D01*
X24416Y93319D01*
X23887Y90663D01*
X23622Y87968D01*
Y86614D01*
Y85260D01*
X23887Y82565D01*
X24416Y79910D01*
X25202Y77319D01*
X26238Y74817D01*
X27514Y72429D01*
X29019Y70177D01*
X30737Y68084D01*
X32651Y66170D01*
X34744Y64452D01*
X36996Y62947D01*
X39384Y61671D01*
X41886Y60635D01*
X44477Y59849D01*
X47133Y59320D01*
X49827Y59055D01*
X51181D01*
D01*
D02*
G37*
D27*
X53000Y154500D02*
D03*
X23000D02*
D03*
D28*
X60028D02*
D03*
X30028D02*
D03*
D29*
X50008Y148791D02*
D03*
X51976D02*
D03*
X53945D02*
D03*
X55913D02*
D03*
X57882D02*
D03*
X59850D02*
D03*
X61819D02*
D03*
X50008Y160209D02*
D03*
X51976D02*
D03*
X53945D02*
D03*
X55913D02*
D03*
X57882D02*
D03*
X59850D02*
D03*
X61819D02*
D03*
X20008Y148791D02*
D03*
X21976D02*
D03*
X23945D02*
D03*
X25913D02*
D03*
X27882D02*
D03*
X29850D02*
D03*
X31819D02*
D03*
X20008Y160209D02*
D03*
X21976D02*
D03*
X23945D02*
D03*
X25913D02*
D03*
X27882D02*
D03*
X29850D02*
D03*
X31819D02*
D03*
D30*
X119315Y139524D02*
D03*
X127189D02*
D03*
X135063D02*
D03*
X142937D02*
D03*
X150811D02*
D03*
X158685D02*
D03*
Y92476D02*
D03*
X150811D02*
D03*
X142937D02*
D03*
X135063D02*
D03*
X127189D02*
D03*
X119315D02*
D03*
D31*
X127500Y47500D02*
D03*
D32*
X123661Y38839D02*
D03*
X126221D02*
D03*
X128779D02*
D03*
X131339D02*
D03*
X123661Y56161D02*
D03*
X126221D02*
D03*
X128779D02*
D03*
X131339D02*
D03*
D33*
X115000Y43740D02*
D03*
Y36260D02*
D03*
X143403Y168778D02*
D03*
Y176258D02*
D03*
X125903Y168778D02*
D03*
Y176258D02*
D03*
X90903Y168778D02*
D03*
Y176258D02*
D03*
X108403Y168778D02*
D03*
Y176258D02*
D03*
X140000Y51260D02*
D03*
Y58740D02*
D03*
Y36260D02*
D03*
Y43740D02*
D03*
X115000Y58740D02*
D03*
Y51260D02*
D03*
X177500Y43760D02*
D03*
Y51240D02*
D03*
D34*
X55913Y168161D02*
D03*
Y175839D02*
D03*
X45913Y133161D02*
D03*
Y140839D02*
D03*
X65913Y133161D02*
D03*
Y140839D02*
D03*
X55913Y133161D02*
D03*
Y140839D02*
D03*
X35913Y175839D02*
D03*
Y168161D02*
D03*
X15913Y133161D02*
D03*
Y140839D02*
D03*
X25913Y133161D02*
D03*
Y140839D02*
D03*
X35913Y133161D02*
D03*
Y140839D02*
D03*
X25913Y168161D02*
D03*
Y175839D02*
D03*
X15913Y175839D02*
D03*
Y168161D02*
D03*
X45913Y175839D02*
D03*
Y168161D02*
D03*
X65913Y175839D02*
D03*
Y168161D02*
D03*
D35*
X85391Y152518D02*
D03*
X96415D02*
D03*
X102891D02*
D03*
X113915D02*
D03*
X120391D02*
D03*
X131415D02*
D03*
X137891D02*
D03*
X148915D02*
D03*
D36*
X147242Y182518D02*
D03*
X139565D02*
D03*
X129742D02*
D03*
X122065D02*
D03*
X104565D02*
D03*
X112242D02*
D03*
X87065D02*
D03*
X94742D02*
D03*
X94742Y162518D02*
D03*
X87065D02*
D03*
X112242D02*
D03*
X104565D02*
D03*
X129742D02*
D03*
X122065D02*
D03*
X147242D02*
D03*
X139565D02*
D03*
X131161Y67500D02*
D03*
X138839D02*
D03*
X138839Y27500D02*
D03*
X131161D02*
D03*
X123839D02*
D03*
X116161D02*
D03*
X116161Y67500D02*
D03*
X123839D02*
D03*
X178839Y62500D02*
D03*
X171161D02*
D03*
X171161Y32500D02*
D03*
X178839D02*
D03*
D37*
X161165Y52921D02*
D03*
Y43079D02*
D03*
X148567D02*
D03*
Y52921D02*
D03*
D38*
X150535Y24299D02*
D03*
X150535Y71701D02*
D03*
D39*
X220091Y48500D02*
D03*
Y63500D02*
D03*
Y78500D02*
D03*
Y93500D02*
D03*
Y153500D02*
D03*
Y138500D02*
D03*
Y123500D02*
D03*
Y108500D02*
D03*
D40*
Y168500D02*
D03*
D41*
X216535Y196850D02*
D03*
Y19685D02*
D03*
X19685D02*
D03*
Y196850D02*
D03*
M02*
