M48
;Layer_Color=9474304
;FILE_FORMAT=2:4
INCH,TZ
;TYPE=PLATED
T1F00S00C0.0118
T2F00S00C0.0157
T3F00S00C0.0362
T4F00S00C0.0433
T5F00S00C0.0906
T6F00S00C0.2047
%
T01
X2138Y5589
X3224Y4526
X4065Y4181
X5067Y4258
X12514Y4553
X12750
X12986
Y4947
X12750
X12514
X19594Y5219
X20201Y3862
X21100Y4888
X9593Y10784
X9700Y11650
X8350Y11500
X7859Y12498
X6783Y16192
X6500Y16000
X6100Y16750
X6354Y19293
X6800Y18863
X8800Y18850
X10850
X11600
X3926Y18711
X3138Y16700
X3575Y16025
X4104Y16074
X2250Y12100
X1700Y12100
X1700Y5900
X571Y6000
T02
X11050Y3650
X12050Y2700
X13900Y2300
X17116Y2784
X17124Y3692
X17900Y5800
Y6700
X13100Y6328
Y7200
X7011Y7393
X7296Y7990
X7395Y8661
X7212Y9556
X6851Y10138
X6356Y10573
X5759Y10847
X6100Y13300
X5906Y15253
X6103Y15450
X5906Y15647
X5473
Y15253
X6059Y17645
X8300Y18250
X10000
X13400
X15150
X15100Y13327
X11950Y13300
X12200Y15800
X11250
X6570Y6905
X5983Y6554
X5121Y6384
X4447Y6485
X3850Y6770
X3362Y7211
X3011Y7799
X2841Y8660
X2975Y9332
X3260Y9930
X3701Y10417
X4288Y10769
X5150Y10938
X5100Y13300
X3600Y12900
X1600Y12950
X2091Y15250
X2473Y15253
Y15647
X2091Y15650
X2906Y15647
Y15253
X3103Y15450
X5091Y15650
Y15250
X4605Y17941
X3106Y17778
X1606Y17988
T03
X14857Y4308
Y5292
X16117
Y4308
T04
X22009Y4850
Y6350
Y7850
Y9350
Y10850
Y12350
Y13850
Y15350
Y16850
T05
X15054Y2430
X15054Y7170
T06
X1969Y1969
X21654
Y19685
X1969
M30
