G04*
G04 #@! TF.GenerationSoftware,Altium Limited,Altium Designer,20.0.13 (296)*
G04*
G04 Layer_Color=16711935*
%FSLAX25Y25*%
%MOIN*%
G70*
G01*
G75*
%ADD37C,0.06391*%
%ADD38C,0.14383*%
%ADD39C,0.07296*%
G04:AMPARAMS|DCode=40|XSize=72.96mil|YSize=72.96mil|CornerRadius=20.24mil|HoleSize=0mil|Usage=FLASHONLY|Rotation=270.000|XOffset=0mil|YOffset=0mil|HoleType=Round|Shape=RoundedRectangle|*
%AMROUNDEDRECTD40*
21,1,0.07296,0.03248,0,0,270.0*
21,1,0.03248,0.07296,0,0,270.0*
1,1,0.04048,-0.01624,-0.01624*
1,1,0.04048,-0.01624,0.01624*
1,1,0.04048,0.01624,0.01624*
1,1,0.04048,0.01624,-0.01624*
%
%ADD40ROUNDEDRECTD40*%
%ADD41C,0.24422*%
%ADD54C,0.04737*%
G36*
X144226Y192733D02*
X141644D01*
Y196598D01*
X139545Y198748D01*
X136013Y192733D01*
X132664D01*
X137762Y200563D01*
X132914Y205545D01*
X136396D01*
X141644Y199847D01*
Y205545D01*
X144226D01*
Y192733D01*
D02*
G37*
G36*
X168000Y203379D02*
X164201D01*
Y192733D01*
X161619D01*
Y203379D01*
X157837D01*
Y205545D01*
X168000D01*
Y203379D01*
D02*
G37*
G36*
X156155Y192733D02*
X146425D01*
Y194899D01*
X153572D01*
Y198381D01*
X147158D01*
Y200547D01*
X153572D01*
Y203379D01*
X146675D01*
Y205545D01*
X156155D01*
Y192733D01*
D02*
G37*
G36*
X131298D02*
X128716D01*
Y197565D01*
X126716D01*
X126417Y197581D01*
X126133D01*
X125883Y197598D01*
X125634Y197615D01*
X125417Y197631D01*
X125217Y197648D01*
X125050Y197665D01*
X124884Y197681D01*
X124751Y197698D01*
X124634D01*
X124534Y197715D01*
X124467Y197731D01*
X124417Y197748D01*
X124367D01*
X124118Y197815D01*
X123868Y197898D01*
X123651Y197998D01*
X123451Y198098D01*
X123268Y198198D01*
X123151Y198281D01*
X123068Y198331D01*
X123035Y198348D01*
X122801Y198531D01*
X122585Y198748D01*
X122402Y198947D01*
X122235Y199164D01*
X122102Y199331D01*
X122018Y199480D01*
X121952Y199581D01*
X121935Y199597D01*
Y199614D01*
X121785Y199930D01*
X121685Y200264D01*
X121602Y200597D01*
X121552Y200913D01*
X121519Y201180D01*
Y201296D01*
X121502Y201396D01*
Y201480D01*
Y201546D01*
Y201580D01*
Y201596D01*
Y201880D01*
X121535Y202146D01*
X121619Y202629D01*
X121669Y202863D01*
X121735Y203062D01*
X121802Y203246D01*
X121869Y203429D01*
X121952Y203579D01*
X122018Y203712D01*
X122085Y203829D01*
X122135Y203929D01*
X122185Y203995D01*
X122218Y204045D01*
X122235Y204079D01*
X122252Y204095D01*
X122552Y204429D01*
X122851Y204695D01*
X123168Y204912D01*
X123451Y205078D01*
X123701Y205212D01*
X123818Y205245D01*
X123901Y205278D01*
X123984Y205311D01*
X124034Y205328D01*
X124068Y205345D01*
X124084D01*
X124234Y205378D01*
X124417Y205412D01*
X124634Y205445D01*
X124867Y205462D01*
X125367Y205495D01*
X125900Y205528D01*
X126383D01*
X126600Y205545D01*
X131298D01*
Y192733D01*
D02*
G37*
G36*
X119369D02*
X116787D01*
Y198081D01*
X115954D01*
X115688Y198064D01*
X115471Y198031D01*
X115288Y198014D01*
X115138Y197981D01*
X115055Y197948D01*
X114988Y197931D01*
X114971D01*
X114821Y197864D01*
X114671Y197781D01*
X114538Y197698D01*
X114421Y197615D01*
X114321Y197531D01*
X114255Y197465D01*
X114205Y197415D01*
X114188Y197398D01*
X114105Y197315D01*
X114022Y197215D01*
X113922Y197081D01*
X113822Y196948D01*
X113588Y196632D01*
X113372Y196315D01*
X113155Y196015D01*
X113072Y195882D01*
X112989Y195749D01*
X112922Y195649D01*
X112872Y195582D01*
X112839Y195532D01*
X112822Y195516D01*
X110956Y192733D01*
X107857D01*
X109423Y195232D01*
X109590Y195499D01*
X109757Y195749D01*
X109907Y195982D01*
X110040Y196182D01*
X110173Y196365D01*
X110306Y196532D01*
X110406Y196682D01*
X110506Y196815D01*
X110606Y196932D01*
X110690Y197031D01*
X110806Y197181D01*
X110873Y197265D01*
X110906Y197298D01*
X111123Y197515D01*
X111339Y197715D01*
X111573Y197898D01*
X111789Y198064D01*
X111989Y198198D01*
X112139Y198298D01*
X112256Y198364D01*
X112272Y198381D01*
X112289D01*
X111972Y198431D01*
X111689Y198498D01*
X111423Y198581D01*
X111173Y198664D01*
X110940Y198764D01*
X110740Y198864D01*
X110540Y198964D01*
X110373Y199064D01*
X110223Y199164D01*
X110090Y199264D01*
X109990Y199347D01*
X109907Y199414D01*
X109823Y199480D01*
X109773Y199530D01*
X109757Y199547D01*
X109740Y199564D01*
X109590Y199747D01*
X109457Y199930D01*
X109340Y200130D01*
X109240Y200330D01*
X109090Y200730D01*
X108990Y201113D01*
X108957Y201280D01*
X108940Y201446D01*
X108924Y201580D01*
X108907Y201713D01*
X108890Y201813D01*
Y201880D01*
Y201930D01*
Y201946D01*
X108907Y202363D01*
X108974Y202746D01*
X109074Y203079D01*
X109174Y203379D01*
X109274Y203629D01*
X109324Y203729D01*
X109373Y203812D01*
X109407Y203879D01*
X109440Y203929D01*
X109457Y203945D01*
Y203962D01*
X109690Y204262D01*
X109923Y204528D01*
X110173Y204745D01*
X110423Y204912D01*
X110623Y205045D01*
X110806Y205128D01*
X110873Y205162D01*
X110906Y205178D01*
X110940Y205195D01*
X110956D01*
X111139Y205262D01*
X111339Y205311D01*
X111573Y205362D01*
X111806Y205395D01*
X112306Y205462D01*
X112789Y205495D01*
X113022Y205511D01*
X113239Y205528D01*
X113438D01*
X113605Y205545D01*
X119369D01*
Y192733D01*
D02*
G37*
G36*
X92530D02*
X87732D01*
X87332Y192750D01*
X86649D01*
X86366Y192767D01*
X85883D01*
X85700Y192783D01*
X85533D01*
X85400Y192800D01*
X85200D01*
X85133Y192816D01*
X85066D01*
X84700Y192883D01*
X84367Y192966D01*
X84067Y193050D01*
X83817Y193166D01*
X83617Y193250D01*
X83451Y193333D01*
X83367Y193400D01*
X83334Y193416D01*
X83084Y193616D01*
X82851Y193833D01*
X82667Y194049D01*
X82501Y194266D01*
X82384Y194449D01*
X82284Y194599D01*
X82234Y194699D01*
X82218Y194716D01*
Y194732D01*
X82084Y195049D01*
X81984Y195349D01*
X81901Y195632D01*
X81851Y195899D01*
X81818Y196115D01*
X81801Y196282D01*
Y196349D01*
Y196398D01*
Y196415D01*
Y196432D01*
X81835Y196832D01*
X81901Y197198D01*
X82001Y197531D01*
X82118Y197815D01*
X82234Y198048D01*
X82334Y198214D01*
X82368Y198281D01*
X82401Y198331D01*
X82434Y198348D01*
Y198364D01*
X82701Y198647D01*
X82984Y198897D01*
X83284Y199097D01*
X83567Y199247D01*
X83834Y199381D01*
X83950Y199431D01*
X84034Y199464D01*
X84117Y199497D01*
X84184Y199514D01*
X84217Y199530D01*
X84233D01*
X83934Y199697D01*
X83684Y199864D01*
X83451Y200064D01*
X83267Y200247D01*
X83117Y200413D01*
X83001Y200547D01*
X82934Y200630D01*
X82917Y200663D01*
X82751Y200947D01*
X82634Y201230D01*
X82551Y201513D01*
X82501Y201763D01*
X82451Y201996D01*
X82434Y202163D01*
Y202229D01*
Y202279D01*
Y202296D01*
Y202313D01*
X82451Y202613D01*
X82501Y202896D01*
X82568Y203146D01*
X82634Y203379D01*
X82701Y203562D01*
X82767Y203696D01*
X82817Y203779D01*
X82834Y203812D01*
X82984Y204045D01*
X83151Y204262D01*
X83317Y204445D01*
X83467Y204595D01*
X83617Y204712D01*
X83717Y204812D01*
X83784Y204862D01*
X83817Y204878D01*
X84034Y205012D01*
X84267Y205128D01*
X84500Y205228D01*
X84700Y205295D01*
X84883Y205345D01*
X85017Y205378D01*
X85116Y205412D01*
X85150D01*
X85300Y205428D01*
X85466Y205462D01*
X85816Y205495D01*
X86199Y205511D01*
X86566Y205528D01*
X86899Y205545D01*
X92530D01*
Y192733D01*
D02*
G37*
G36*
X79602D02*
X69873D01*
Y194899D01*
X77020D01*
Y198381D01*
X70606D01*
Y200547D01*
X77020D01*
Y203379D01*
X70122D01*
Y205545D01*
X79602D01*
Y192733D01*
D02*
G37*
G36*
X101360Y205761D02*
X101893Y205695D01*
X102360Y205611D01*
X102576Y205561D01*
X102759Y205528D01*
X102943Y205478D01*
X103093Y205428D01*
X103226Y205378D01*
X103342Y205345D01*
X103443Y205311D01*
X103509Y205278D01*
X103542Y205262D01*
X103559D01*
X103892Y205095D01*
X104192Y204912D01*
X104475Y204728D01*
X104725Y204528D01*
X104925Y204362D01*
X105075Y204229D01*
X105175Y204129D01*
X105192Y204112D01*
X105209Y204095D01*
X105475Y203796D01*
X105708Y203496D01*
X105908Y203212D01*
X106075Y202929D01*
X106208Y202696D01*
X106308Y202513D01*
X106341Y202446D01*
X106375Y202396D01*
X106391Y202363D01*
Y202346D01*
X106591Y201830D01*
X106725Y201263D01*
X106825Y200713D01*
X106908Y200197D01*
X106924Y199964D01*
X106941Y199747D01*
X106958Y199547D01*
Y199381D01*
X106974Y199231D01*
Y199131D01*
Y199064D01*
Y199047D01*
X106958Y198481D01*
X106908Y197965D01*
X106825Y197465D01*
X106708Y196998D01*
X106591Y196565D01*
X106441Y196182D01*
X106291Y195815D01*
X106125Y195499D01*
X105975Y195199D01*
X105825Y194949D01*
X105675Y194732D01*
X105558Y194549D01*
X105442Y194416D01*
X105358Y194316D01*
X105308Y194249D01*
X105292Y194233D01*
X104959Y193933D01*
X104609Y193666D01*
X104242Y193433D01*
X103876Y193233D01*
X103492Y193066D01*
X103126Y192917D01*
X102743Y192816D01*
X102393Y192717D01*
X102060Y192650D01*
X101743Y192600D01*
X101477Y192550D01*
X101227Y192533D01*
X101027Y192517D01*
X100893Y192500D01*
X100760D01*
X100244Y192517D01*
X99761Y192583D01*
X99294Y192667D01*
X98861Y192767D01*
X98461Y192900D01*
X98095Y193050D01*
X97761Y193216D01*
X97462Y193383D01*
X97178Y193533D01*
X96945Y193700D01*
X96745Y193850D01*
X96562Y193983D01*
X96429Y194083D01*
X96345Y194183D01*
X96279Y194233D01*
X96262Y194249D01*
X95962Y194599D01*
X95696Y194966D01*
X95479Y195349D01*
X95279Y195749D01*
X95113Y196149D01*
X94979Y196565D01*
X94863Y196948D01*
X94779Y197331D01*
X94713Y197698D01*
X94646Y198031D01*
X94613Y198331D01*
X94596Y198598D01*
X94579Y198814D01*
X94563Y198981D01*
Y199081D01*
Y199097D01*
Y199114D01*
X94579Y199680D01*
X94629Y200230D01*
X94713Y200730D01*
X94829Y201197D01*
X94963Y201646D01*
X95096Y202046D01*
X95246Y202413D01*
X95412Y202746D01*
X95562Y203029D01*
X95729Y203296D01*
X95862Y203512D01*
X95995Y203696D01*
X96112Y203829D01*
X96195Y203929D01*
X96245Y203995D01*
X96262Y204012D01*
X96595Y204329D01*
X96945Y204595D01*
X97312Y204828D01*
X97678Y205028D01*
X98061Y205212D01*
X98444Y205345D01*
X98811Y205462D01*
X99161Y205561D01*
X99494Y205628D01*
X99811Y205678D01*
X100077Y205728D01*
X100327Y205745D01*
X100527Y205761D01*
X100660Y205778D01*
X100794D01*
X101360Y205761D01*
D02*
G37*
G36*
X53912Y126333D02*
X53930Y126331D01*
X53949Y126330D01*
X55748Y126122D01*
X55748Y126122D01*
X55751Y126121D01*
X55755Y126121D01*
X55777Y126117D01*
X55800Y126113D01*
X55803Y126112D01*
X55806Y126111D01*
X55828Y126103D01*
X55850Y126096D01*
X55853Y126095D01*
X55856Y126094D01*
X55876Y126084D01*
X55897Y126074D01*
X55900Y126072D01*
X55903Y126071D01*
X55922Y126058D01*
X55941Y126046D01*
X55944Y126044D01*
X55946Y126042D01*
X55964Y126027D01*
X55981Y126012D01*
X55983Y126009D01*
X55986Y126007D01*
X56001Y125990D01*
X56016Y125973D01*
X56018Y125970D01*
X56020Y125968D01*
X56033Y125949D01*
X56046Y125930D01*
X56048Y125927D01*
X56049Y125924D01*
X56060Y125903D01*
X56070Y125883D01*
X56071Y125880D01*
X56073Y125877D01*
X56080Y125855D01*
X56088Y125834D01*
X56089Y125830D01*
X56090Y125828D01*
X56094Y125805D01*
X56099Y125782D01*
X56099Y125779D01*
X56100Y125776D01*
X56101Y125753D01*
X56103Y125734D01*
X56103Y125730D01*
Y125730D01*
D01*
X56103Y125727D01*
X56103Y125724D01*
Y125724D01*
X56102Y125701D01*
X56100Y125678D01*
Y125678D01*
X54745Y113955D01*
X55230Y113908D01*
X55293Y113895D01*
X57230Y125519D01*
D01*
X57231Y125524D01*
X57231Y125524D01*
X57231Y125524D01*
X57236Y125545D01*
X57236Y125548D01*
X57238Y125557D01*
X57239Y125560D01*
X57243Y125575D01*
X57243Y125575D01*
X57243Y125575D01*
X57250Y125594D01*
X57261Y125624D01*
X57261Y125624D01*
X57261Y125624D01*
X57271Y125642D01*
X57286Y125670D01*
X57286Y125670D01*
X57286Y125671D01*
X57292Y125680D01*
X57292Y125680D01*
X57292Y125680D01*
X57310Y125705D01*
X57322Y125722D01*
X57322Y125722D01*
X57323Y125722D01*
X57341Y125742D01*
X57358Y125760D01*
X57358Y125760D01*
X57358Y125761D01*
X57377Y125776D01*
X57399Y125794D01*
X57399Y125794D01*
X57399Y125794D01*
X57407Y125800D01*
X57407Y125800D01*
X57407Y125800D01*
X57408Y125800D01*
X57432Y125815D01*
X57452Y125827D01*
X57452Y125827D01*
X57452Y125828D01*
X57476Y125838D01*
X57500Y125849D01*
X57500Y125849D01*
X57500Y125849D01*
X57525Y125856D01*
X57550Y125864D01*
X57550Y125864D01*
X57550Y125864D01*
X57550Y125864D01*
X57560Y125866D01*
X57560Y125866D01*
X57560Y125866D01*
X57560Y125866D01*
X57582Y125870D01*
X57612Y125875D01*
X57612Y125875D01*
X57612Y125875D01*
X57639Y125876D01*
X57664Y125876D01*
X57664Y125876D01*
X57664Y125876D01*
X57692Y125874D01*
X57716Y125871D01*
X57721Y125871D01*
X57722Y125871D01*
X57722Y125871D01*
X58888Y125676D01*
X58900Y125673D01*
X58912Y125672D01*
X61217Y125144D01*
X61228Y125140D01*
X61240Y125138D01*
X63509Y124472D01*
X63521Y124468D01*
X63532Y124465D01*
X65758Y123665D01*
X65768Y123660D01*
X65780Y123656D01*
X66866Y123190D01*
X66866Y123190D01*
X66871Y123188D01*
X66893Y123177D01*
X66916Y123165D01*
X66917Y123165D01*
X66918Y123164D01*
X66938Y123151D01*
X66960Y123136D01*
X66961Y123135D01*
X66961Y123135D01*
X66981Y123117D01*
X66999Y123101D01*
X67000Y123100D01*
X67000Y123100D01*
X67000Y123100D01*
X67006Y123094D01*
X67023Y123074D01*
X67039Y123056D01*
X67040Y123055D01*
X67040Y123054D01*
X67054Y123033D01*
X67068Y123012D01*
X67069Y123011D01*
X67069Y123010D01*
X67081Y122987D01*
X67091Y122965D01*
X67092Y122963D01*
D01*
D01*
X67095Y122956D01*
X67103Y122933D01*
X67111Y122908D01*
X67111Y122907D01*
X67112Y122906D01*
X67117Y122881D01*
X67122Y122857D01*
X67122Y122856D01*
X67122Y122854D01*
X67124Y122829D01*
X67125Y122805D01*
X67125Y122794D01*
X67124Y122768D01*
X67123Y122743D01*
X67122Y122743D01*
X67122Y122742D01*
X67117Y122717D01*
X67113Y122692D01*
X67112Y122691D01*
X67112Y122690D01*
X67106Y122673D01*
X67105Y122668D01*
X67102Y122660D01*
X67098Y122646D01*
X67097Y122644D01*
X67097Y122643D01*
X67097Y122643D01*
X67096Y122642D01*
X67094Y122637D01*
X67094Y122637D01*
X67094Y122636D01*
X67094Y122636D01*
X67094Y122636D01*
X67094Y122636D01*
X67093Y122635D01*
X67092Y122632D01*
X67091Y122628D01*
X62439Y111781D01*
X62973Y111560D01*
X68139Y122117D01*
X68139Y122117D01*
X68139Y122117D01*
X68146Y122129D01*
X68152Y122142D01*
X68159Y122152D01*
X68165Y122163D01*
X68166Y122163D01*
X68166Y122163D01*
X68174Y122174D01*
X68181Y122185D01*
X68190Y122195D01*
X68197Y122204D01*
X68197Y122205D01*
X68198Y122205D01*
X68207Y122214D01*
X68216Y122224D01*
X68225Y122233D01*
X68234Y122242D01*
X68234Y122242D01*
X68234Y122242D01*
X68242Y122247D01*
X68245Y122250D01*
X68255Y122259D01*
X68266Y122266D01*
X68276Y122274D01*
X68276Y122274D01*
X68276Y122274D01*
X68283Y122278D01*
X68288Y122281D01*
X68299Y122288D01*
X68310Y122294D01*
X68321Y122300D01*
X68321Y122300D01*
X68321Y122300D01*
X68329Y122303D01*
X68334Y122305D01*
X68346Y122311D01*
X68358Y122316D01*
X68370Y122320D01*
X68370Y122320D01*
X68370Y122320D01*
X68382Y122324D01*
X68383Y122324D01*
X68396Y122328D01*
X68408Y122331D01*
X68420Y122334D01*
X68420Y122334D01*
X68420Y122334D01*
X68426Y122335D01*
X68434Y122336D01*
X68447Y122338D01*
X68460Y122339D01*
X68472Y122341D01*
X68486Y122341D01*
X68499Y122342D01*
X68512Y122341D01*
X68524Y122341D01*
X68525Y122341D01*
X68525D01*
X68534Y122340D01*
X68538Y122339D01*
X68552Y122338D01*
X68564Y122336D01*
X68577Y122335D01*
X68577Y122334D01*
X68577Y122334D01*
X68588Y122332D01*
X68590Y122331D01*
X68603Y122328D01*
X68615Y122324D01*
X68627Y122321D01*
X68627Y122321D01*
X68627Y122321D01*
X68637Y122317D01*
X68640Y122316D01*
X68653Y122311D01*
X68664Y122306D01*
X68676Y122301D01*
X68676Y122301D01*
X68676Y122301D01*
X69726Y121786D01*
X69736Y121780D01*
X69747Y121775D01*
X71782Y120623D01*
X71792Y120616D01*
X71803Y120610D01*
X73766Y119339D01*
X73776Y119332D01*
X73786Y119325D01*
X75670Y117940D01*
X75679Y117932D01*
X75688Y117925D01*
X76588Y117177D01*
X76588Y117177D01*
X76588Y117177D01*
X76611Y117156D01*
X76626Y117141D01*
X76626Y117141D01*
X76626Y117141D01*
X76646Y117116D01*
X76659Y117101D01*
X76659Y117101D01*
X76659Y117100D01*
X76675Y117074D01*
X76686Y117056D01*
X76686Y117056D01*
X76687Y117056D01*
X76697Y117031D01*
X76708Y117008D01*
X76708Y117008D01*
X76708Y117008D01*
X76715Y116984D01*
X76723Y116958D01*
X76723Y116958D01*
X76723Y116957D01*
X76726Y116934D01*
X76731Y116906D01*
Y116906D01*
X76731Y116906D01*
X76731Y116883D01*
X76732Y116854D01*
X76732Y116853D01*
Y116853D01*
X76729Y116823D01*
X76727Y116801D01*
X76727Y116801D01*
X76727Y116801D01*
X76720Y116773D01*
X76714Y116751D01*
X76714Y116750D01*
X76714Y116750D01*
X76705Y116725D01*
X76696Y116701D01*
X76696Y116701D01*
X76696Y116701D01*
X76681Y116675D01*
X76671Y116655D01*
X76671Y116655D01*
X76670Y116655D01*
X76652Y116629D01*
X76640Y116613D01*
X76640Y116613D01*
X76640Y116613D01*
X69102Y107558D01*
X69569Y107175D01*
X77555Y115847D01*
X77593Y115884D01*
X77635Y115914D01*
X77681Y115940D01*
X77730Y115958D01*
X77781Y115971D01*
X77833Y115976D01*
X77886Y115975D01*
X77938Y115967D01*
X77988Y115952D01*
X78036Y115931D01*
X78081Y115904D01*
X78121Y115871D01*
X78997Y115064D01*
X79005Y115056D01*
X79014Y115047D01*
X80665Y113332D01*
X80673Y113323D01*
X80681Y113314D01*
X82225Y111502D01*
X82233Y111492D01*
X82240Y111483D01*
X83672Y109581D01*
X83679Y109571D01*
X83686Y109561D01*
X84343Y108569D01*
X84343Y108569D01*
X84349Y108558D01*
X84356Y108548D01*
X84362Y108535D01*
X84369Y108523D01*
X84374Y108512D01*
X84379Y108501D01*
X84384Y108487D01*
X84389Y108475D01*
X84392Y108463D01*
X84396Y108451D01*
X84399Y108437D01*
X84403Y108424D01*
X84404Y108412D01*
X84407Y108400D01*
X84407Y108386D01*
X84409Y108372D01*
Y108372D01*
D01*
X84409Y108360D01*
X84410Y108347D01*
Y108347D01*
X84409Y108333D01*
X84409Y108319D01*
X84407Y108307D01*
X84407Y108295D01*
X84404Y108281D01*
X84402Y108267D01*
X84399Y108256D01*
X84396Y108244D01*
X84392Y108230D01*
X84388Y108217D01*
X84383Y108206D01*
X84379Y108194D01*
X84373Y108181D01*
X84368Y108168D01*
X84362Y108158D01*
X84356Y108147D01*
X84348Y108135D01*
X84341Y108123D01*
X84334Y108113D01*
X84327Y108103D01*
X84318Y108093D01*
X84309Y108082D01*
X84301Y108073D01*
X84293Y108064D01*
X84282Y108055D01*
X84272Y108045D01*
X84262Y108037D01*
X84253Y108029D01*
X84241Y108021D01*
X84230Y108013D01*
X84230Y108013D01*
X74384Y101494D01*
X74704Y101014D01*
X84850Y107024D01*
X84852Y107025D01*
X84854Y107026D01*
X84875Y107037D01*
X84897Y107048D01*
X84899Y107049D01*
X84901Y107050D01*
X84923Y107057D01*
X84946Y107065D01*
X84948Y107066D01*
X84951Y107066D01*
X84974Y107071D01*
X84998Y107076D01*
X85000Y107076D01*
X85002Y107077D01*
X85026Y107078D01*
X85050Y107080D01*
X85052Y107080D01*
X85054Y107080D01*
X85079Y107079D01*
X85102Y107077D01*
X85104Y107077D01*
X85107Y107077D01*
X85130Y107072D01*
X85154Y107068D01*
X85156Y107067D01*
X85158Y107066D01*
X85181Y107059D01*
X85204Y107051D01*
X85206Y107050D01*
X85208Y107050D01*
X85229Y107039D01*
X85251Y107029D01*
X85253Y107027D01*
X85255Y107026D01*
X85275Y107013D01*
X85295Y107000D01*
X85296Y106999D01*
X85298Y106997D01*
X85316Y106981D01*
X85335Y106966D01*
X85336Y106964D01*
X85338Y106963D01*
X85353Y106945D01*
X85370Y106927D01*
X85371Y106925D01*
X85372Y106923D01*
X85386Y106904D01*
X85399Y106884D01*
X85399Y106883D01*
X86334Y105306D01*
X86342Y105289D01*
X86351Y105273D01*
X87919Y101958D01*
X87926Y101940D01*
X87933Y101923D01*
X89186Y98477D01*
X89191Y98458D01*
X89197Y98441D01*
X90124Y94893D01*
X90128Y94875D01*
X90132Y94856D01*
X90725Y91237D01*
X90727Y91219D01*
X90729Y91200D01*
X90983Y87542D01*
X90984Y87523D01*
X90984Y87505D01*
X90897Y83838D01*
X90896Y83820D01*
X90895Y83801D01*
X90468Y80159D01*
X90464Y80140D01*
X90461Y80122D01*
X89697Y76535D01*
X89692Y76517D01*
X89688Y76499D01*
X88594Y72999D01*
X88587Y72982D01*
X88581Y72964D01*
X87166Y69581D01*
X87158Y69564D01*
X87151Y69547D01*
X85427Y66309D01*
X85418Y66294D01*
X85408Y66277D01*
X83392Y63214D01*
X83381Y63199D01*
X83370Y63184D01*
X81078Y60322D01*
X81065Y60308D01*
X81053Y60294D01*
X78504Y57657D01*
X78491Y57644D01*
X78477Y57631D01*
X75695Y55243D01*
X75680Y55231D01*
X75665Y55220D01*
X72673Y53100D01*
X72657Y53090D01*
X72641Y53080D01*
X69464Y51247D01*
X69448Y51239D01*
X69431Y51230D01*
X66098Y49701D01*
X66081Y49694D01*
X66064Y49687D01*
X62603Y48474D01*
X62585Y48469D01*
X62567Y48464D01*
X59008Y47578D01*
X58990Y47575D01*
X58972Y47571D01*
X55346Y47019D01*
X55327Y47018D01*
X55309Y47016D01*
X51648Y46804D01*
X51629Y46804D01*
X51610Y46803D01*
X47946Y46933D01*
X47927Y46935D01*
X47908Y46936D01*
X46090Y47170D01*
X46038Y47181D01*
X45989Y47197D01*
X45942Y47220D01*
X45898Y47249D01*
X45858Y47284D01*
X45824Y47323D01*
X45794Y47367D01*
X45771Y47414D01*
X45754Y47463D01*
X45744Y47515D01*
X45740Y47567D01*
X45744Y47619D01*
X47252Y59309D01*
X47133Y59320D01*
X46684Y59410D01*
X44590Y47798D01*
X44586Y47781D01*
X44583Y47765D01*
X44580Y47756D01*
X44578Y47747D01*
X44572Y47731D01*
X44566Y47715D01*
X44562Y47707D01*
X44558Y47698D01*
X44550Y47683D01*
X44543Y47668D01*
X44538Y47660D01*
X44533Y47652D01*
X44523Y47638D01*
X44514Y47625D01*
X44508Y47618D01*
X44502Y47610D01*
X44490Y47598D01*
X44479Y47585D01*
X44479Y47585D01*
X44472Y47579D01*
X44466Y47572D01*
X44452Y47562D01*
X44440Y47551D01*
X44432Y47545D01*
X44424Y47539D01*
X44410Y47531D01*
X44396Y47522D01*
X44388Y47517D01*
X44379Y47513D01*
X44364Y47506D01*
X44349Y47498D01*
X44340Y47495D01*
X44331Y47491D01*
X44315Y47487D01*
X44300Y47482D01*
X44290Y47480D01*
X44281Y47477D01*
X44265Y47475D01*
X44248Y47471D01*
X44238Y47471D01*
X44229Y47469D01*
X44212Y47469D01*
X44196Y47468D01*
X44186Y47469D01*
X44177Y47468D01*
X44160Y47470D01*
X44144Y47471D01*
X44134Y47473D01*
X44125Y47474D01*
X42955Y47685D01*
X42944Y47688D01*
X42932Y47690D01*
X40622Y48252D01*
X40611Y48256D01*
X40599Y48258D01*
X38328Y48959D01*
X38317Y48963D01*
X38305Y48966D01*
X36081Y49802D01*
X36070Y49807D01*
X36058Y49812D01*
X34973Y50296D01*
X34927Y50320D01*
X34884Y50350D01*
X34846Y50386D01*
X34812Y50426D01*
X34784Y50471D01*
X34762Y50518D01*
X34747Y50568D01*
X34738Y50620D01*
X34736Y50673D01*
X34741Y50725D01*
X34752Y50776D01*
X34771Y50825D01*
X39575Y61592D01*
X39384Y61671D01*
X39057Y61846D01*
X33717Y51327D01*
X33717Y51327D01*
X33711Y51318D01*
X33707Y51308D01*
X33698Y51296D01*
X33690Y51282D01*
X33683Y51274D01*
X33678Y51265D01*
X33667Y51253D01*
X33658Y51241D01*
X33650Y51233D01*
X33643Y51225D01*
X33632Y51215D01*
X33620Y51204D01*
X33612Y51198D01*
X33604Y51191D01*
X33591Y51182D01*
X33578Y51173D01*
X33569Y51168D01*
X33560Y51161D01*
X33546Y51155D01*
X33533Y51147D01*
X33523Y51143D01*
X33513Y51138D01*
X33498Y51133D01*
X33484Y51128D01*
X33474Y51125D01*
X33463Y51121D01*
X33448Y51118D01*
X33433Y51115D01*
X33422Y51113D01*
X33412Y51111D01*
X33397Y51110D01*
X33381Y51108D01*
X33370Y51108D01*
X33360Y51108D01*
X33344Y51109D01*
X33329Y51109D01*
X33318Y51111D01*
X33307Y51111D01*
X33292Y51114D01*
X33277Y51116D01*
X33266Y51119D01*
X33256Y51121D01*
X33241Y51126D01*
X33226Y51131D01*
X33216Y51135D01*
X33206Y51138D01*
X33192Y51145D01*
X33178Y51151D01*
X32116Y51690D01*
X32106Y51697D01*
X32095Y51702D01*
X30040Y52907D01*
X30030Y52914D01*
X30019Y52920D01*
X28041Y54246D01*
X28031Y54254D01*
X28021Y54260D01*
X26127Y55704D01*
X26117Y55712D01*
X26108Y55720D01*
X25206Y56498D01*
X25206Y56498D01*
X25168Y56534D01*
X25136Y56576D01*
X25110Y56621D01*
X25089Y56669D01*
X25075Y56720D01*
X25068Y56772D01*
X25067Y56824D01*
X25074Y56876D01*
X25087Y56927D01*
X25107Y56975D01*
X25116Y56992D01*
X25133Y57021D01*
X25164Y57063D01*
X32866Y65993D01*
X32651Y66170D01*
X32439Y66382D01*
X24300Y57847D01*
X24300Y57847D01*
D01*
X24296Y57844D01*
X24296Y57844D01*
X24293Y57840D01*
X24293Y57840D01*
X24277Y57826D01*
X24261Y57811D01*
X24257Y57809D01*
X24254Y57806D01*
X24236Y57794D01*
X24218Y57781D01*
X24214Y57779D01*
X24210Y57776D01*
X24191Y57767D01*
X24172Y57757D01*
X24167Y57755D01*
X24163Y57753D01*
X24142Y57746D01*
X24123Y57739D01*
X24118Y57738D01*
X24113Y57736D01*
X24092Y57732D01*
X24071Y57727D01*
X24067Y57727D01*
X24062Y57726D01*
X24040Y57725D01*
X24019Y57723D01*
X24014Y57723D01*
X24010Y57723D01*
X23988Y57724D01*
X23967Y57725D01*
X23962Y57726D01*
X23957Y57726D01*
X23936Y57730D01*
X23915Y57734D01*
X23911Y57736D01*
X23906Y57736D01*
X23886Y57743D01*
X23865Y57750D01*
X23861Y57752D01*
X23856Y57753D01*
X23837Y57763D01*
X23817Y57772D01*
X23813Y57774D01*
X23809Y57776D01*
X23791Y57788D01*
X23773Y57800D01*
X23769Y57803D01*
X23765Y57806D01*
X23750Y57820D01*
X23733Y57833D01*
X22886Y58641D01*
X22878Y58650D01*
X22869Y58658D01*
X21274Y60371D01*
X21267Y60381D01*
X21259Y60389D01*
X19769Y62194D01*
X19761Y62204D01*
X19754Y62213D01*
X18373Y64103D01*
X18367Y64113D01*
X18360Y64123D01*
X17727Y65107D01*
X17702Y65153D01*
X17683Y65202D01*
X17670Y65253D01*
X17664Y65305D01*
X17665Y65357D01*
X17672Y65402D01*
X17673Y65409D01*
X17687Y65459D01*
X17708Y65507D01*
X17735Y65552D01*
X17768Y65593D01*
X17805Y65630D01*
X17848Y65661D01*
X27773Y72042D01*
X27514Y72429D01*
X27461Y72528D01*
X17241Y66658D01*
X17194Y66635D01*
X17144Y66618D01*
X17093Y66608D01*
X17041Y66605D01*
X16988Y66608D01*
X16937Y66619D01*
X16887Y66636D01*
X16840Y66659D01*
X16797Y66688D01*
X16757Y66723D01*
X16723Y66762D01*
X16694Y66806D01*
X15792Y68377D01*
X15783Y68394D01*
X15775Y68410D01*
X14266Y71704D01*
X14260Y71722D01*
X14253Y71738D01*
X13053Y75157D01*
X13048Y75175D01*
X13042Y75193D01*
X12162Y78708D01*
X12159Y78726D01*
X12155Y78744D01*
X11601Y82324D01*
X11599Y82343D01*
X11597Y82361D01*
X11374Y85978D01*
X11374Y85996D01*
X11373Y86014D01*
X11484Y89636D01*
X11485Y89654D01*
X11487Y89673D01*
X11929Y93269D01*
X11932Y93287D01*
X11935Y93305D01*
X12706Y96846D01*
X12711Y96864D01*
X12716Y96881D01*
X13808Y100336D01*
X13815Y100353D01*
X13821Y100371D01*
X15226Y103710D01*
X15235Y103727D01*
X15242Y103744D01*
X16949Y106940D01*
X16958Y106956D01*
X16967Y106972D01*
X18960Y109998D01*
X18971Y110013D01*
X18982Y110028D01*
X21244Y112858D01*
X21256Y112872D01*
X21268Y112886D01*
X23780Y115497D01*
X23794Y115509D01*
X23807Y115522D01*
X26549Y117891D01*
X26563Y117902D01*
X26578Y117914D01*
X29525Y120021D01*
X29541Y120031D01*
X29556Y120041D01*
X32685Y121869D01*
X32701Y121877D01*
X32718Y121886D01*
X36001Y123419D01*
X36018Y123425D01*
X36035Y123433D01*
X39445Y124657D01*
X39463Y124662D01*
X39480Y124668D01*
X42989Y125574D01*
X43007Y125578D01*
X43025Y125582D01*
X46601Y126162D01*
X46620Y126164D01*
X46638Y126166D01*
X50253Y126416D01*
X50271Y126416D01*
X50289Y126416D01*
X53912Y126333D01*
D02*
G37*
%LPC*%
G36*
X128716Y203379D02*
X127000D01*
X126783Y203362D01*
X126433D01*
X126283Y203346D01*
X126150D01*
X126017Y203329D01*
X125833Y203312D01*
X125717Y203296D01*
X125634Y203279D01*
X125617D01*
X125400Y203229D01*
X125200Y203146D01*
X125017Y203046D01*
X124867Y202946D01*
X124751Y202863D01*
X124651Y202779D01*
X124601Y202729D01*
X124584Y202713D01*
X124451Y202529D01*
X124351Y202346D01*
X124267Y202146D01*
X124217Y201963D01*
X124184Y201813D01*
X124168Y201680D01*
Y201596D01*
Y201563D01*
X124184Y201346D01*
X124217Y201163D01*
X124267Y200980D01*
X124318Y200830D01*
X124367Y200713D01*
X124417Y200630D01*
X124451Y200563D01*
X124467Y200547D01*
X124584Y200397D01*
X124717Y200280D01*
X124851Y200164D01*
X124984Y200080D01*
X125101Y200014D01*
X125200Y199964D01*
X125267Y199947D01*
X125284Y199930D01*
X125384Y199897D01*
X125517Y199864D01*
X125650Y199830D01*
X125817Y199814D01*
X126150Y199780D01*
X126483Y199764D01*
X126800Y199747D01*
X126950Y199730D01*
X128716D01*
Y203379D01*
D02*
G37*
G36*
X116787D02*
X113822D01*
X113638Y203362D01*
X113239D01*
X113155Y203346D01*
X112955D01*
X112905Y203329D01*
X112889D01*
X112672Y203279D01*
X112472Y203212D01*
X112306Y203129D01*
X112156Y203046D01*
X112056Y202962D01*
X111972Y202896D01*
X111922Y202846D01*
X111906Y202829D01*
X111789Y202663D01*
X111706Y202496D01*
X111639Y202329D01*
X111606Y202163D01*
X111573Y202013D01*
X111556Y201896D01*
Y201813D01*
Y201780D01*
X111573Y201580D01*
X111589Y201396D01*
X111639Y201230D01*
X111689Y201080D01*
X111739Y200963D01*
X111773Y200880D01*
X111806Y200830D01*
X111822Y200813D01*
X111922Y200680D01*
X112056Y200563D01*
X112172Y200480D01*
X112289Y200397D01*
X112389Y200347D01*
X112472Y200313D01*
X112539Y200280D01*
X112556D01*
X112655Y200247D01*
X112789Y200230D01*
X112939Y200214D01*
X113105Y200197D01*
X113488Y200164D01*
X113888Y200147D01*
X114255D01*
X114421Y200130D01*
X116787D01*
Y203379D01*
D02*
G37*
G36*
X89948Y203412D02*
X87349D01*
X87149Y203396D01*
X86682D01*
X86566Y203379D01*
X86349D01*
X86283Y203362D01*
X86266D01*
X86033Y203312D01*
X85833Y203262D01*
X85666Y203179D01*
X85533Y203112D01*
X85416Y203029D01*
X85350Y202979D01*
X85300Y202929D01*
X85283Y202912D01*
X85167Y202763D01*
X85083Y202613D01*
X85033Y202446D01*
X84983Y202296D01*
X84967Y202163D01*
X84950Y202046D01*
Y201979D01*
Y201946D01*
X84967Y201730D01*
X85017Y201530D01*
X85066Y201363D01*
X85133Y201213D01*
X85216Y201097D01*
X85266Y201013D01*
X85316Y200963D01*
X85333Y200947D01*
X85483Y200813D01*
X85666Y200713D01*
X85833Y200630D01*
X86000Y200563D01*
X86149Y200530D01*
X86266Y200497D01*
X86349Y200480D01*
X86466D01*
X86566Y200464D01*
X87132D01*
X87466Y200447D01*
X89948D01*
Y203412D01*
D02*
G37*
G36*
Y198314D02*
X87266D01*
X86999Y198298D01*
X86766Y198281D01*
X86549Y198264D01*
X86366D01*
X86199Y198248D01*
X86049Y198231D01*
X85933Y198214D01*
X85833Y198198D01*
X85750Y198181D01*
X85683Y198164D01*
X85600Y198148D01*
X85566Y198131D01*
X85383Y198048D01*
X85216Y197965D01*
X85066Y197864D01*
X84950Y197765D01*
X84867Y197681D01*
X84800Y197598D01*
X84767Y197548D01*
X84750Y197531D01*
X84650Y197381D01*
X84583Y197215D01*
X84533Y197048D01*
X84500Y196898D01*
X84483Y196765D01*
X84467Y196665D01*
Y196598D01*
Y196565D01*
X84483Y196315D01*
X84517Y196099D01*
X84583Y195915D01*
X84650Y195765D01*
X84717Y195632D01*
X84783Y195549D01*
X84817Y195482D01*
X84833Y195466D01*
X84983Y195332D01*
X85133Y195216D01*
X85300Y195132D01*
X85450Y195066D01*
X85583Y195016D01*
X85683Y194982D01*
X85750Y194966D01*
X85783D01*
X85866Y194949D01*
X85966D01*
X86083Y194932D01*
X86216D01*
X86499Y194916D01*
X86799D01*
X87082Y194899D01*
X89948D01*
Y198314D01*
D02*
G37*
G36*
X100910Y203562D02*
X100760D01*
X100460Y203546D01*
X100194Y203512D01*
X99927Y203462D01*
X99677Y203396D01*
X99461Y203312D01*
X99244Y203212D01*
X99044Y203112D01*
X98878Y203012D01*
X98728Y202912D01*
X98578Y202813D01*
X98461Y202713D01*
X98378Y202629D01*
X98295Y202563D01*
X98245Y202513D01*
X98211Y202479D01*
X98195Y202463D01*
X98028Y202246D01*
X97878Y202013D01*
X97745Y201763D01*
X97628Y201496D01*
X97545Y201230D01*
X97462Y200947D01*
X97345Y200413D01*
X97312Y200164D01*
X97278Y199930D01*
X97262Y199730D01*
X97245Y199547D01*
X97228Y199397D01*
Y199281D01*
Y199214D01*
Y199181D01*
X97245Y198781D01*
X97278Y198398D01*
X97328Y198048D01*
X97378Y197715D01*
X97462Y197415D01*
X97545Y197148D01*
X97628Y196898D01*
X97728Y196665D01*
X97828Y196482D01*
X97911Y196299D01*
X97995Y196165D01*
X98078Y196049D01*
X98128Y195949D01*
X98178Y195882D01*
X98211Y195849D01*
X98228Y195832D01*
X98411Y195632D01*
X98611Y195466D01*
X98828Y195316D01*
X99044Y195182D01*
X99244Y195082D01*
X99461Y194982D01*
X99861Y194849D01*
X100044Y194816D01*
X100210Y194782D01*
X100377Y194749D01*
X100510Y194732D01*
X100610Y194716D01*
X100760D01*
X101043Y194732D01*
X101310Y194766D01*
X101577Y194816D01*
X101810Y194899D01*
X102043Y194982D01*
X102243Y195066D01*
X102443Y195166D01*
X102610Y195282D01*
X102776Y195382D01*
X102909Y195482D01*
X103026Y195565D01*
X103126Y195665D01*
X103209Y195732D01*
X103259Y195782D01*
X103293Y195815D01*
X103309Y195832D01*
X103492Y196049D01*
X103642Y196299D01*
X103776Y196565D01*
X103892Y196832D01*
X103976Y197098D01*
X104059Y197381D01*
X104175Y197915D01*
X104226Y198164D01*
X104259Y198398D01*
X104276Y198614D01*
X104292Y198798D01*
X104309Y198931D01*
Y199047D01*
Y199131D01*
Y199147D01*
X104292Y199547D01*
X104259Y199930D01*
X104226Y200280D01*
X104159Y200597D01*
X104092Y200897D01*
X104009Y201163D01*
X103909Y201413D01*
X103826Y201630D01*
X103742Y201830D01*
X103642Y201996D01*
X103559Y202146D01*
X103492Y202263D01*
X103426Y202346D01*
X103376Y202413D01*
X103359Y202446D01*
X103342Y202463D01*
X103159Y202663D01*
X102943Y202829D01*
X102743Y202979D01*
X102526Y203096D01*
X102310Y203212D01*
X102093Y203296D01*
X101676Y203429D01*
X101493Y203479D01*
X101310Y203512D01*
X101160Y203529D01*
X101027Y203546D01*
X100910Y203562D01*
D02*
G37*
%LPD*%
D37*
X161165Y52921D02*
D03*
Y43079D02*
D03*
X148567D02*
D03*
Y52921D02*
D03*
D38*
X150535Y24299D02*
D03*
X150535Y71701D02*
D03*
D39*
X220091Y48500D02*
D03*
Y63500D02*
D03*
Y78500D02*
D03*
Y93500D02*
D03*
Y153500D02*
D03*
Y138500D02*
D03*
Y123500D02*
D03*
Y108500D02*
D03*
D40*
Y168500D02*
D03*
D41*
X216535Y196850D02*
D03*
Y19685D02*
D03*
X19685D02*
D03*
Y196850D02*
D03*
D54*
X60261Y117594D02*
D03*
X68729Y113712D02*
D03*
X75754Y107552D02*
D03*
X80867Y99301D02*
D03*
X41670Y55764D02*
D03*
X33200Y59802D02*
D03*
X26287Y66059D02*
D03*
X21305Y74382D02*
D03*
M02*
