G04*
G04 #@! TF.GenerationSoftware,Altium Limited,Altium Designer,20.0.13 (296)*
G04*
G04 Layer_Color=32896*
%FSLAX25Y25*%
%MOIN*%
G70*
G01*
G75*
%ADD13C,0.01000*%
%ADD14C,0.00787*%
%ADD55C,0.03150*%
%ADD56C,0.03937*%
%ADD57R,0.14961X0.08661*%
G36*
X198091Y181752D02*
X174469D01*
Y205374D01*
X198091D01*
Y181752D01*
D02*
G37*
G36*
X200520Y138407D02*
X199927Y138320D01*
X199874Y138400D01*
X199814Y138467D01*
X199747Y138533D01*
X199687Y138580D01*
X199634Y138627D01*
X199594Y138653D01*
X199567Y138673D01*
X199554Y138680D01*
X199461Y138726D01*
X199361Y138766D01*
X199268Y138793D01*
X199188Y138806D01*
X199108Y138820D01*
X199055Y138826D01*
X198908D01*
X198828Y138813D01*
X198668Y138780D01*
X198535Y138726D01*
X198422Y138673D01*
X198329Y138613D01*
X198262Y138560D01*
X198242Y138540D01*
X198222Y138527D01*
X198209Y138520D01*
Y138513D01*
X198155Y138453D01*
X198109Y138387D01*
X198036Y138247D01*
X197982Y138107D01*
X197949Y137967D01*
X197922Y137847D01*
X197916Y137794D01*
Y137747D01*
X197909Y137714D01*
Y137688D01*
Y137668D01*
Y137661D01*
Y137554D01*
X197922Y137461D01*
X197956Y137281D01*
X198009Y137128D01*
X198062Y136995D01*
X198096Y136942D01*
X198122Y136895D01*
X198149Y136848D01*
X198176Y136815D01*
X198196Y136788D01*
X198209Y136768D01*
X198215Y136762D01*
X198222Y136755D01*
X198282Y136695D01*
X198342Y136642D01*
X198409Y136595D01*
X198475Y136562D01*
X198602Y136495D01*
X198728Y136455D01*
X198835Y136435D01*
X198881Y136429D01*
X198915Y136422D01*
X198948Y136415D01*
X198995D01*
X199135Y136429D01*
X199254Y136455D01*
X199368Y136489D01*
X199461Y136535D01*
X199534Y136575D01*
X199594Y136615D01*
X199627Y136642D01*
X199641Y136648D01*
X199727Y136748D01*
X199801Y136862D01*
X199860Y136981D01*
X199907Y137101D01*
X199934Y137201D01*
X199947Y137248D01*
X199960Y137288D01*
X199967Y137321D01*
Y137348D01*
X199974Y137361D01*
Y137368D01*
X200633Y137321D01*
X200620Y137201D01*
X200593Y137088D01*
X200566Y136988D01*
X200526Y136888D01*
X200493Y136795D01*
X200447Y136708D01*
X200407Y136628D01*
X200360Y136562D01*
X200320Y136495D01*
X200273Y136442D01*
X200240Y136395D01*
X200200Y136355D01*
X200173Y136322D01*
X200153Y136302D01*
X200140Y136289D01*
X200133Y136282D01*
X200047Y136216D01*
X199960Y136156D01*
X199867Y136102D01*
X199767Y136062D01*
X199674Y136022D01*
X199581Y135989D01*
X199401Y135943D01*
X199314Y135929D01*
X199241Y135916D01*
X199168Y135909D01*
X199108Y135903D01*
X199061Y135896D01*
X198995D01*
X198842Y135903D01*
X198695Y135923D01*
X198555Y135956D01*
X198422Y135996D01*
X198302Y136042D01*
X198196Y136089D01*
X198096Y136149D01*
X198002Y136209D01*
X197922Y136262D01*
X197849Y136322D01*
X197789Y136369D01*
X197743Y136422D01*
X197703Y136455D01*
X197669Y136489D01*
X197656Y136509D01*
X197649Y136515D01*
X197576Y136615D01*
X197516Y136715D01*
X197463Y136815D01*
X197416Y136915D01*
X197376Y137015D01*
X197343Y137115D01*
X197296Y137308D01*
X197276Y137388D01*
X197263Y137468D01*
X197256Y137541D01*
X197250Y137601D01*
X197243Y137647D01*
Y137681D01*
Y137707D01*
Y137714D01*
X197250Y137847D01*
X197263Y137974D01*
X197283Y138094D01*
X197316Y138214D01*
X197350Y138320D01*
X197390Y138413D01*
X197430Y138507D01*
X197476Y138587D01*
X197516Y138660D01*
X197563Y138726D01*
X197603Y138780D01*
X197636Y138826D01*
X197669Y138866D01*
X197689Y138893D01*
X197703Y138906D01*
X197709Y138913D01*
X197796Y138993D01*
X197889Y139066D01*
X197982Y139126D01*
X198076Y139186D01*
X198176Y139226D01*
X198269Y139266D01*
X198355Y139299D01*
X198442Y139319D01*
X198528Y139339D01*
X198602Y139353D01*
X198668Y139366D01*
X198722Y139373D01*
X198768Y139379D01*
X198835D01*
X198928Y139373D01*
X199021Y139366D01*
X199201Y139326D01*
X199361Y139279D01*
X199507Y139219D01*
X199574Y139186D01*
X199627Y139159D01*
X199681Y139126D01*
X199721Y139106D01*
X199754Y139086D01*
X199780Y139066D01*
X199794Y139059D01*
X199801Y139053D01*
X199527Y140438D01*
X197483D01*
Y141037D01*
X200027D01*
X200520Y138407D01*
D02*
G37*
G36*
X203091Y137521D02*
X201159D01*
Y138154D01*
X203091D01*
Y137521D01*
D02*
G37*
G36*
X194945Y135983D02*
X194239D01*
X192241Y141104D01*
X192927D01*
X194313Y137381D01*
X194373Y137228D01*
X194426Y137075D01*
X194473Y136928D01*
X194512Y136802D01*
X194546Y136695D01*
X194559Y136655D01*
X194572Y136615D01*
X194579Y136582D01*
X194586Y136562D01*
X194592Y136549D01*
Y136542D01*
X194632Y136688D01*
X194679Y136842D01*
X194726Y136981D01*
X194766Y137108D01*
X194806Y137221D01*
X194819Y137268D01*
X194832Y137308D01*
X194845Y137335D01*
X194852Y137361D01*
X194859Y137374D01*
Y137381D01*
X196191Y141104D01*
X196930D01*
X194945Y135983D01*
D02*
G37*
G36*
X197363Y45939D02*
X196710D01*
Y49955D01*
X194026Y45939D01*
X193327D01*
Y51061D01*
X193980D01*
Y47038D01*
X196670Y51061D01*
X197363D01*
Y45939D01*
D02*
G37*
G36*
X200673Y51141D02*
X200806Y51134D01*
X201066Y51101D01*
X201186Y51074D01*
X201292Y51047D01*
X201399Y51021D01*
X201492Y50987D01*
X201579Y50961D01*
X201659Y50928D01*
X201725Y50901D01*
X201779Y50881D01*
X201825Y50854D01*
X201858Y50841D01*
X201878Y50834D01*
X201885Y50828D01*
X201992Y50768D01*
X202092Y50695D01*
X202271Y50548D01*
X202351Y50468D01*
X202425Y50388D01*
X202491Y50308D01*
X202551Y50228D01*
X202604Y50155D01*
X202651Y50088D01*
X202691Y50029D01*
X202724Y49975D01*
X202751Y49929D01*
X202771Y49895D01*
X202778Y49875D01*
X202784Y49869D01*
X202837Y49749D01*
X202884Y49622D01*
X202964Y49376D01*
X203017Y49143D01*
X203037Y49029D01*
X203051Y48930D01*
X203064Y48830D01*
X203077Y48743D01*
X203084Y48663D01*
Y48597D01*
X203091Y48543D01*
Y48503D01*
Y48477D01*
Y48470D01*
X203084Y48330D01*
X203077Y48197D01*
X203044Y47937D01*
X203017Y47817D01*
X202991Y47711D01*
X202964Y47604D01*
X202931Y47504D01*
X202904Y47418D01*
X202877Y47338D01*
X202851Y47271D01*
X202824Y47211D01*
X202804Y47165D01*
X202791Y47131D01*
X202778Y47111D01*
Y47105D01*
X202718Y46992D01*
X202651Y46892D01*
X202578Y46792D01*
X202498Y46705D01*
X202425Y46619D01*
X202345Y46545D01*
X202271Y46472D01*
X202198Y46412D01*
X202125Y46359D01*
X202065Y46306D01*
X202005Y46266D01*
X201952Y46232D01*
X201912Y46206D01*
X201878Y46186D01*
X201858Y46179D01*
X201852Y46172D01*
X201732Y46119D01*
X201612Y46066D01*
X201379Y45986D01*
X201146Y45933D01*
X201039Y45913D01*
X200933Y45893D01*
X200839Y45879D01*
X200753Y45873D01*
X200673Y45859D01*
X200606D01*
X200553Y45853D01*
X200480D01*
X200273Y45859D01*
X200074Y45886D01*
X199887Y45919D01*
X199721Y45953D01*
X199654Y45972D01*
X199587Y45992D01*
X199527Y46006D01*
X199481Y46019D01*
X199441Y46033D01*
X199414Y46046D01*
X199394Y46052D01*
X199388D01*
X199188Y46132D01*
X199001Y46232D01*
X198828Y46325D01*
X198668Y46425D01*
X198602Y46472D01*
X198542Y46512D01*
X198488Y46545D01*
X198442Y46579D01*
X198402Y46605D01*
X198375Y46625D01*
X198362Y46639D01*
X198355Y46645D01*
Y48550D01*
X200526D01*
Y47944D01*
X199021D01*
Y46985D01*
X199115Y46912D01*
X199214Y46845D01*
X199321Y46785D01*
X199421Y46732D01*
X199514Y46685D01*
X199594Y46652D01*
X199621Y46645D01*
X199641Y46632D01*
X199654Y46625D01*
X199661D01*
X199820Y46572D01*
X199974Y46532D01*
X200114Y46499D01*
X200247Y46479D01*
X200360Y46465D01*
X200407D01*
X200447Y46459D01*
X200520D01*
X200706Y46465D01*
X200886Y46492D01*
X201046Y46525D01*
X201186Y46572D01*
X201252Y46592D01*
X201306Y46612D01*
X201359Y46625D01*
X201399Y46645D01*
X201432Y46659D01*
X201459Y46672D01*
X201472Y46679D01*
X201479D01*
X201639Y46772D01*
X201772Y46878D01*
X201892Y46998D01*
X201985Y47105D01*
X202058Y47205D01*
X202092Y47251D01*
X202112Y47291D01*
X202132Y47318D01*
X202145Y47344D01*
X202158Y47358D01*
Y47365D01*
X202238Y47544D01*
X202291Y47737D01*
X202331Y47931D01*
X202365Y48110D01*
X202371Y48190D01*
X202378Y48270D01*
X202385Y48337D01*
Y48397D01*
X202391Y48443D01*
Y48477D01*
Y48503D01*
Y48510D01*
X202385Y48716D01*
X202358Y48910D01*
X202331Y49083D01*
X202291Y49236D01*
X202278Y49303D01*
X202258Y49362D01*
X202245Y49416D01*
X202225Y49462D01*
X202218Y49496D01*
X202205Y49522D01*
X202198Y49536D01*
Y49542D01*
X202151Y49642D01*
X202098Y49742D01*
X202045Y49829D01*
X201998Y49902D01*
X201952Y49962D01*
X201912Y50008D01*
X201885Y50035D01*
X201878Y50049D01*
X201799Y50128D01*
X201705Y50208D01*
X201612Y50268D01*
X201525Y50322D01*
X201452Y50368D01*
X201386Y50395D01*
X201346Y50415D01*
X201339Y50421D01*
X201332D01*
X201199Y50468D01*
X201066Y50508D01*
X200926Y50535D01*
X200799Y50548D01*
X200693Y50561D01*
X200646D01*
X200606Y50568D01*
X200526D01*
X200387Y50561D01*
X200253Y50548D01*
X200133Y50521D01*
X200034Y50501D01*
X199947Y50475D01*
X199880Y50448D01*
X199840Y50435D01*
X199834Y50428D01*
X199827D01*
X199714Y50375D01*
X199614Y50315D01*
X199527Y50255D01*
X199461Y50202D01*
X199408Y50148D01*
X199368Y50108D01*
X199341Y50082D01*
X199334Y50068D01*
X199274Y49982D01*
X199214Y49882D01*
X199168Y49775D01*
X199128Y49682D01*
X199095Y49589D01*
X199068Y49522D01*
X199061Y49496D01*
X199055Y49476D01*
X199048Y49462D01*
Y49456D01*
X198435Y49622D01*
X198488Y49809D01*
X198555Y49975D01*
X198615Y50115D01*
X198682Y50235D01*
X198742Y50335D01*
X198762Y50375D01*
X198788Y50401D01*
X198802Y50428D01*
X198815Y50448D01*
X198828Y50455D01*
Y50461D01*
X198928Y50575D01*
X199041Y50674D01*
X199161Y50761D01*
X199274Y50834D01*
X199374Y50888D01*
X199414Y50908D01*
X199454Y50928D01*
X199487Y50941D01*
X199507Y50954D01*
X199521Y50961D01*
X199527D01*
X199701Y51021D01*
X199874Y51067D01*
X200040Y51101D01*
X200200Y51127D01*
X200267Y51134D01*
X200333Y51141D01*
X200387D01*
X200440Y51147D01*
X200533D01*
X200673Y51141D01*
D02*
G37*
G36*
X192188Y45939D02*
X190343D01*
X190177Y45946D01*
X190017Y45953D01*
X189877Y45966D01*
X189757Y45986D01*
X189657Y45999D01*
X189617Y46006D01*
X189584Y46012D01*
X189557Y46019D01*
X189537D01*
X189531Y46026D01*
X189524D01*
X189398Y46059D01*
X189278Y46099D01*
X189171Y46146D01*
X189085Y46186D01*
X189011Y46219D01*
X188958Y46252D01*
X188925Y46272D01*
X188911Y46279D01*
X188818Y46352D01*
X188725Y46425D01*
X188645Y46505D01*
X188578Y46579D01*
X188519Y46645D01*
X188479Y46698D01*
X188445Y46732D01*
X188439Y46745D01*
X188365Y46858D01*
X188292Y46985D01*
X188232Y47111D01*
X188186Y47231D01*
X188145Y47331D01*
X188132Y47378D01*
X188119Y47418D01*
X188105Y47444D01*
X188099Y47471D01*
X188092Y47484D01*
Y47491D01*
X188046Y47664D01*
X188012Y47844D01*
X187986Y48017D01*
X187972Y48177D01*
X187966Y48250D01*
X187959Y48317D01*
Y48377D01*
X187952Y48423D01*
Y48470D01*
Y48497D01*
Y48517D01*
Y48523D01*
X187959Y48770D01*
X187986Y49003D01*
X187999Y49109D01*
X188019Y49209D01*
X188039Y49303D01*
X188052Y49389D01*
X188072Y49469D01*
X188092Y49536D01*
X188112Y49596D01*
X188126Y49649D01*
X188139Y49689D01*
X188152Y49715D01*
X188159Y49735D01*
Y49742D01*
X188239Y49935D01*
X188339Y50102D01*
X188439Y50255D01*
X188538Y50381D01*
X188585Y50435D01*
X188625Y50481D01*
X188665Y50521D01*
X188698Y50555D01*
X188725Y50581D01*
X188745Y50601D01*
X188758Y50608D01*
X188765Y50615D01*
X188885Y50708D01*
X189011Y50788D01*
X189138Y50848D01*
X189258Y50901D01*
X189358Y50934D01*
X189404Y50948D01*
X189444Y50961D01*
X189471Y50968D01*
X189497Y50974D01*
X189511Y50981D01*
X189517D01*
X189644Y51007D01*
X189790Y51028D01*
X189944Y51041D01*
X190090Y51054D01*
X190217D01*
X190277Y51061D01*
X192188D01*
Y45939D01*
D02*
G37*
G36*
X198748Y155988D02*
X198835Y155868D01*
X198928Y155748D01*
X199015Y155648D01*
X199101Y155555D01*
X199168Y155488D01*
X199195Y155461D01*
X199214Y155441D01*
X199228Y155435D01*
X199234Y155428D01*
X199388Y155301D01*
X199541Y155188D01*
X199701Y155082D01*
X199840Y154995D01*
X199967Y154929D01*
X200020Y154895D01*
X200067Y154875D01*
X200100Y154855D01*
X200127Y154842D01*
X200147Y154829D01*
X200153D01*
Y154216D01*
X200040Y154263D01*
X199927Y154316D01*
X199814Y154369D01*
X199714Y154422D01*
X199627Y154469D01*
X199554Y154509D01*
X199527Y154522D01*
X199507Y154536D01*
X199501Y154542D01*
X199494D01*
X199361Y154622D01*
X199248Y154702D01*
X199141Y154775D01*
X199055Y154842D01*
X198988Y154895D01*
X198935Y154942D01*
X198908Y154969D01*
X198895Y154975D01*
Y150972D01*
X198269D01*
Y156114D01*
X198675D01*
X198748Y155988D01*
D02*
G37*
G36*
X196544Y153397D02*
X195951Y153310D01*
X195898Y153390D01*
X195838Y153457D01*
X195771Y153523D01*
X195711Y153570D01*
X195658Y153617D01*
X195618Y153643D01*
X195591Y153663D01*
X195578Y153670D01*
X195485Y153717D01*
X195385Y153756D01*
X195292Y153783D01*
X195212Y153796D01*
X195132Y153810D01*
X195079Y153816D01*
X194932D01*
X194852Y153803D01*
X194692Y153770D01*
X194559Y153717D01*
X194446Y153663D01*
X194353Y153603D01*
X194286Y153550D01*
X194266Y153530D01*
X194246Y153517D01*
X194233Y153510D01*
Y153503D01*
X194179Y153443D01*
X194133Y153377D01*
X194060Y153237D01*
X194006Y153097D01*
X193973Y152957D01*
X193946Y152837D01*
X193940Y152784D01*
Y152737D01*
X193933Y152704D01*
Y152678D01*
Y152657D01*
Y152651D01*
Y152544D01*
X193946Y152451D01*
X193980Y152271D01*
X194033Y152118D01*
X194086Y151985D01*
X194120Y151932D01*
X194146Y151885D01*
X194173Y151838D01*
X194200Y151805D01*
X194219Y151778D01*
X194233Y151758D01*
X194239Y151752D01*
X194246Y151745D01*
X194306Y151685D01*
X194366Y151632D01*
X194432Y151585D01*
X194499Y151552D01*
X194626Y151485D01*
X194752Y151445D01*
X194859Y151425D01*
X194905Y151419D01*
X194939Y151412D01*
X194972Y151405D01*
X195019D01*
X195159Y151419D01*
X195278Y151445D01*
X195392Y151479D01*
X195485Y151525D01*
X195558Y151565D01*
X195618Y151605D01*
X195651Y151632D01*
X195665Y151638D01*
X195751Y151738D01*
X195825Y151852D01*
X195884Y151971D01*
X195931Y152091D01*
X195958Y152191D01*
X195971Y152238D01*
X195984Y152278D01*
X195991Y152311D01*
Y152338D01*
X195998Y152351D01*
Y152358D01*
X196657Y152311D01*
X196644Y152191D01*
X196617Y152078D01*
X196590Y151978D01*
X196550Y151878D01*
X196517Y151785D01*
X196470Y151699D01*
X196431Y151619D01*
X196384Y151552D01*
X196344Y151485D01*
X196297Y151432D01*
X196264Y151385D01*
X196224Y151346D01*
X196197Y151312D01*
X196177Y151292D01*
X196164Y151279D01*
X196158Y151272D01*
X196071Y151206D01*
X195984Y151146D01*
X195891Y151092D01*
X195791Y151052D01*
X195698Y151013D01*
X195605Y150979D01*
X195425Y150933D01*
X195338Y150919D01*
X195265Y150906D01*
X195192Y150899D01*
X195132Y150893D01*
X195085Y150886D01*
X195019D01*
X194866Y150893D01*
X194719Y150913D01*
X194579Y150946D01*
X194446Y150986D01*
X194326Y151032D01*
X194219Y151079D01*
X194120Y151139D01*
X194026Y151199D01*
X193946Y151252D01*
X193873Y151312D01*
X193813Y151359D01*
X193767Y151412D01*
X193727Y151445D01*
X193693Y151479D01*
X193680Y151499D01*
X193673Y151505D01*
X193600Y151605D01*
X193540Y151705D01*
X193487Y151805D01*
X193440Y151905D01*
X193400Y152005D01*
X193367Y152105D01*
X193320Y152298D01*
X193300Y152378D01*
X193287Y152458D01*
X193280Y152531D01*
X193274Y152591D01*
X193267Y152638D01*
Y152671D01*
Y152698D01*
Y152704D01*
X193274Y152837D01*
X193287Y152964D01*
X193307Y153084D01*
X193340Y153204D01*
X193374Y153310D01*
X193414Y153403D01*
X193454Y153497D01*
X193500Y153577D01*
X193540Y153650D01*
X193587Y153717D01*
X193627Y153770D01*
X193660Y153816D01*
X193693Y153856D01*
X193713Y153883D01*
X193727Y153896D01*
X193733Y153903D01*
X193820Y153983D01*
X193913Y154056D01*
X194006Y154116D01*
X194099Y154176D01*
X194200Y154216D01*
X194293Y154256D01*
X194379Y154289D01*
X194466Y154309D01*
X194552Y154329D01*
X194626Y154342D01*
X194692Y154356D01*
X194746Y154362D01*
X194792Y154369D01*
X194859D01*
X194952Y154362D01*
X195045Y154356D01*
X195225Y154316D01*
X195385Y154269D01*
X195531Y154209D01*
X195598Y154176D01*
X195651Y154149D01*
X195705Y154116D01*
X195745Y154096D01*
X195778Y154076D01*
X195805Y154056D01*
X195818Y154050D01*
X195825Y154043D01*
X195551Y155428D01*
X193507D01*
Y156027D01*
X196051D01*
X196544Y153397D01*
D02*
G37*
G36*
X203091Y152511D02*
X201159D01*
Y153144D01*
X203091D01*
Y152511D01*
D02*
G37*
G36*
X190969Y150972D02*
X190263D01*
X188265Y156094D01*
X188951D01*
X190337Y152371D01*
X190397Y152218D01*
X190450Y152065D01*
X190497Y151918D01*
X190536Y151792D01*
X190570Y151685D01*
X190583Y151645D01*
X190596Y151605D01*
X190603Y151572D01*
X190610Y151552D01*
X190616Y151539D01*
Y151532D01*
X190656Y151679D01*
X190703Y151832D01*
X190750Y151971D01*
X190789Y152098D01*
X190830Y152211D01*
X190843Y152258D01*
X190856Y152298D01*
X190869Y152324D01*
X190876Y152351D01*
X190883Y152365D01*
Y152371D01*
X192215Y156094D01*
X192954D01*
X190969Y150972D01*
D02*
G37*
G36*
X183044Y60939D02*
X182365D01*
Y62711D01*
X181532Y63517D01*
X179707Y60939D01*
X178808D01*
X181053Y63976D01*
X178901Y66061D01*
X179821D01*
X182365Y63523D01*
Y66061D01*
X183044D01*
Y60939D01*
D02*
G37*
G36*
X200919Y66134D02*
X201152Y66101D01*
X201366Y66048D01*
X201459Y66021D01*
X201552Y65994D01*
X201632Y65961D01*
X201705Y65934D01*
X201765Y65908D01*
X201818Y65881D01*
X201858Y65861D01*
X201892Y65848D01*
X201912Y65841D01*
X201918Y65834D01*
X202018Y65774D01*
X202118Y65708D01*
X202291Y65561D01*
X202445Y65415D01*
X202564Y65268D01*
X202618Y65195D01*
X202664Y65135D01*
X202704Y65075D01*
X202731Y65029D01*
X202758Y64988D01*
X202778Y64955D01*
X202784Y64935D01*
X202791Y64929D01*
X202844Y64815D01*
X202891Y64696D01*
X202964Y64462D01*
X203017Y64229D01*
X203037Y64116D01*
X203051Y64009D01*
X203064Y63910D01*
X203077Y63823D01*
X203084Y63743D01*
Y63670D01*
X203091Y63617D01*
Y63570D01*
Y63543D01*
Y63537D01*
X203077Y63270D01*
X203051Y63011D01*
X203031Y62897D01*
X203004Y62784D01*
X202984Y62678D01*
X202957Y62578D01*
X202931Y62484D01*
X202911Y62404D01*
X202884Y62338D01*
X202864Y62278D01*
X202851Y62231D01*
X202837Y62191D01*
X202824Y62171D01*
Y62165D01*
X202771Y62051D01*
X202711Y61938D01*
X202651Y61838D01*
X202584Y61745D01*
X202518Y61652D01*
X202451Y61572D01*
X202391Y61499D01*
X202325Y61439D01*
X202265Y61379D01*
X202211Y61326D01*
X202158Y61286D01*
X202118Y61252D01*
X202078Y61219D01*
X202052Y61199D01*
X202038Y61192D01*
X202032Y61186D01*
X201932Y61126D01*
X201825Y61079D01*
X201712Y61032D01*
X201599Y60992D01*
X201372Y60933D01*
X201159Y60893D01*
X201059Y60879D01*
X200973Y60873D01*
X200886Y60866D01*
X200819Y60859D01*
X200760Y60853D01*
X200680D01*
X200533Y60859D01*
X200393Y60873D01*
X200260Y60893D01*
X200133Y60919D01*
X200014Y60953D01*
X199900Y60992D01*
X199801Y61026D01*
X199701Y61072D01*
X199621Y61112D01*
X199547Y61146D01*
X199481Y61186D01*
X199427Y61219D01*
X199381Y61246D01*
X199354Y61266D01*
X199334Y61279D01*
X199328Y61286D01*
X199228Y61372D01*
X199135Y61465D01*
X199048Y61565D01*
X198975Y61672D01*
X198901Y61778D01*
X198842Y61878D01*
X198782Y61985D01*
X198735Y62085D01*
X198688Y62185D01*
X198655Y62271D01*
X198622Y62351D01*
X198595Y62418D01*
X198582Y62478D01*
X198568Y62524D01*
X198555Y62551D01*
Y62558D01*
X199234Y62731D01*
X199268Y62611D01*
X199301Y62504D01*
X199341Y62404D01*
X199381Y62305D01*
X199427Y62218D01*
X199468Y62138D01*
X199514Y62065D01*
X199561Y62005D01*
X199601Y61945D01*
X199641Y61898D01*
X199681Y61852D01*
X199707Y61818D01*
X199734Y61792D01*
X199754Y61772D01*
X199767Y61765D01*
X199774Y61758D01*
X199847Y61699D01*
X199927Y61652D01*
X200007Y61605D01*
X200094Y61572D01*
X200253Y61512D01*
X200407Y61472D01*
X200473Y61459D01*
X200540Y61452D01*
X200593Y61445D01*
X200646Y61439D01*
X200686Y61432D01*
X200740D01*
X200913Y61445D01*
X201073Y61472D01*
X201219Y61505D01*
X201352Y61552D01*
X201459Y61599D01*
X201505Y61619D01*
X201539Y61632D01*
X201572Y61652D01*
X201592Y61659D01*
X201605Y61672D01*
X201612D01*
X201752Y61772D01*
X201872Y61885D01*
X201972Y62005D01*
X202058Y62125D01*
X202125Y62231D01*
X202145Y62278D01*
X202165Y62318D01*
X202185Y62351D01*
X202198Y62378D01*
X202205Y62391D01*
Y62398D01*
X202265Y62584D01*
X202311Y62784D01*
X202345Y62971D01*
X202365Y63150D01*
X202378Y63230D01*
Y63304D01*
X202385Y63370D01*
X202391Y63430D01*
Y63477D01*
Y63510D01*
Y63530D01*
Y63537D01*
X202385Y63723D01*
X202365Y63903D01*
X202338Y64069D01*
X202311Y64223D01*
X202298Y64283D01*
X202285Y64342D01*
X202271Y64396D01*
X202258Y64442D01*
X202245Y64476D01*
X202238Y64502D01*
X202231Y64516D01*
Y64522D01*
X202165Y64696D01*
X202078Y64842D01*
X201985Y64975D01*
X201892Y65082D01*
X201812Y65168D01*
X201745Y65228D01*
X201719Y65255D01*
X201699Y65268D01*
X201685Y65282D01*
X201679D01*
X201599Y65335D01*
X201519Y65375D01*
X201352Y65448D01*
X201186Y65501D01*
X201033Y65535D01*
X200959Y65541D01*
X200893Y65555D01*
X200833Y65561D01*
X200786D01*
X200746Y65568D01*
X200686D01*
X200500Y65555D01*
X200333Y65528D01*
X200187Y65488D01*
X200060Y65441D01*
X199960Y65388D01*
X199920Y65368D01*
X199887Y65348D01*
X199860Y65335D01*
X199840Y65321D01*
X199834Y65308D01*
X199827D01*
X199767Y65255D01*
X199707Y65202D01*
X199601Y65075D01*
X199514Y64942D01*
X199441Y64809D01*
X199381Y64689D01*
X199361Y64635D01*
X199341Y64589D01*
X199328Y64549D01*
X199314Y64522D01*
X199308Y64502D01*
Y64496D01*
X198642Y64656D01*
X198682Y64782D01*
X198735Y64909D01*
X198788Y65022D01*
X198848Y65128D01*
X198908Y65222D01*
X198968Y65315D01*
X199028Y65395D01*
X199088Y65468D01*
X199148Y65535D01*
X199201Y65595D01*
X199254Y65641D01*
X199294Y65681D01*
X199328Y65714D01*
X199361Y65734D01*
X199374Y65748D01*
X199381Y65754D01*
X199481Y65821D01*
X199587Y65888D01*
X199694Y65934D01*
X199801Y65981D01*
X199914Y66021D01*
X200020Y66054D01*
X200220Y66101D01*
X200313Y66114D01*
X200400Y66127D01*
X200480Y66134D01*
X200546Y66141D01*
X200600Y66147D01*
X200799D01*
X200919Y66134D01*
D02*
G37*
G36*
X186214D02*
X186447Y66101D01*
X186660Y66048D01*
X186754Y66021D01*
X186847Y65994D01*
X186927Y65961D01*
X187000Y65934D01*
X187060Y65908D01*
X187113Y65881D01*
X187153Y65861D01*
X187187Y65848D01*
X187206Y65841D01*
X187213Y65834D01*
X187313Y65774D01*
X187413Y65708D01*
X187586Y65561D01*
X187739Y65415D01*
X187859Y65268D01*
X187912Y65195D01*
X187959Y65135D01*
X187999Y65075D01*
X188026Y65029D01*
X188052Y64988D01*
X188072Y64955D01*
X188079Y64935D01*
X188086Y64929D01*
X188139Y64815D01*
X188186Y64696D01*
X188259Y64462D01*
X188312Y64229D01*
X188332Y64116D01*
X188345Y64009D01*
X188359Y63910D01*
X188372Y63823D01*
X188379Y63743D01*
Y63670D01*
X188385Y63617D01*
Y63570D01*
Y63543D01*
Y63537D01*
X188372Y63270D01*
X188345Y63011D01*
X188325Y62897D01*
X188299Y62784D01*
X188279Y62678D01*
X188252Y62578D01*
X188225Y62484D01*
X188205Y62404D01*
X188179Y62338D01*
X188159Y62278D01*
X188145Y62231D01*
X188132Y62191D01*
X188119Y62171D01*
Y62165D01*
X188066Y62051D01*
X188006Y61938D01*
X187946Y61838D01*
X187879Y61745D01*
X187812Y61652D01*
X187746Y61572D01*
X187686Y61499D01*
X187619Y61439D01*
X187559Y61379D01*
X187506Y61326D01*
X187453Y61286D01*
X187413Y61252D01*
X187373Y61219D01*
X187346Y61199D01*
X187333Y61192D01*
X187326Y61186D01*
X187226Y61126D01*
X187120Y61079D01*
X187007Y61032D01*
X186893Y60992D01*
X186667Y60933D01*
X186454Y60893D01*
X186354Y60879D01*
X186267Y60873D01*
X186181Y60866D01*
X186114Y60859D01*
X186054Y60853D01*
X185974D01*
X185828Y60859D01*
X185688Y60873D01*
X185555Y60893D01*
X185428Y60919D01*
X185308Y60953D01*
X185195Y60992D01*
X185095Y61026D01*
X184995Y61072D01*
X184915Y61112D01*
X184842Y61146D01*
X184775Y61186D01*
X184722Y61219D01*
X184676Y61246D01*
X184649Y61266D01*
X184629Y61279D01*
X184622Y61286D01*
X184522Y61372D01*
X184429Y61465D01*
X184343Y61565D01*
X184269Y61672D01*
X184196Y61778D01*
X184136Y61878D01*
X184076Y61985D01*
X184030Y62085D01*
X183983Y62185D01*
X183950Y62271D01*
X183916Y62351D01*
X183890Y62418D01*
X183876Y62478D01*
X183863Y62524D01*
X183850Y62551D01*
Y62558D01*
X184529Y62731D01*
X184562Y62611D01*
X184596Y62504D01*
X184636Y62404D01*
X184676Y62305D01*
X184722Y62218D01*
X184762Y62138D01*
X184809Y62065D01*
X184855Y62005D01*
X184895Y61945D01*
X184935Y61898D01*
X184975Y61852D01*
X185002Y61818D01*
X185029Y61792D01*
X185049Y61772D01*
X185062Y61765D01*
X185069Y61758D01*
X185142Y61699D01*
X185222Y61652D01*
X185302Y61605D01*
X185388Y61572D01*
X185548Y61512D01*
X185701Y61472D01*
X185768Y61459D01*
X185835Y61452D01*
X185888Y61445D01*
X185941Y61439D01*
X185981Y61432D01*
X186034D01*
X186207Y61445D01*
X186367Y61472D01*
X186514Y61505D01*
X186647Y61552D01*
X186754Y61599D01*
X186800Y61619D01*
X186834Y61632D01*
X186867Y61652D01*
X186887Y61659D01*
X186900Y61672D01*
X186907D01*
X187047Y61772D01*
X187167Y61885D01*
X187266Y62005D01*
X187353Y62125D01*
X187420Y62231D01*
X187440Y62278D01*
X187460Y62318D01*
X187479Y62351D01*
X187493Y62378D01*
X187499Y62391D01*
Y62398D01*
X187559Y62584D01*
X187606Y62784D01*
X187639Y62971D01*
X187659Y63150D01*
X187673Y63230D01*
Y63304D01*
X187679Y63370D01*
X187686Y63430D01*
Y63477D01*
Y63510D01*
Y63530D01*
Y63537D01*
X187679Y63723D01*
X187659Y63903D01*
X187633Y64069D01*
X187606Y64223D01*
X187593Y64283D01*
X187579Y64342D01*
X187566Y64396D01*
X187553Y64442D01*
X187540Y64476D01*
X187533Y64502D01*
X187526Y64516D01*
Y64522D01*
X187460Y64696D01*
X187373Y64842D01*
X187280Y64975D01*
X187187Y65082D01*
X187107Y65168D01*
X187040Y65228D01*
X187013Y65255D01*
X186993Y65268D01*
X186980Y65282D01*
X186973D01*
X186893Y65335D01*
X186813Y65375D01*
X186647Y65448D01*
X186480Y65501D01*
X186327Y65535D01*
X186254Y65541D01*
X186188Y65555D01*
X186127Y65561D01*
X186081D01*
X186041Y65568D01*
X185981D01*
X185794Y65555D01*
X185628Y65528D01*
X185482Y65488D01*
X185355Y65441D01*
X185255Y65388D01*
X185215Y65368D01*
X185182Y65348D01*
X185155Y65335D01*
X185135Y65321D01*
X185128Y65308D01*
X185122D01*
X185062Y65255D01*
X185002Y65202D01*
X184895Y65075D01*
X184809Y64942D01*
X184736Y64809D01*
X184676Y64689D01*
X184656Y64635D01*
X184636Y64589D01*
X184622Y64549D01*
X184609Y64522D01*
X184602Y64502D01*
Y64496D01*
X183936Y64656D01*
X183976Y64782D01*
X184030Y64909D01*
X184083Y65022D01*
X184143Y65128D01*
X184203Y65222D01*
X184263Y65315D01*
X184323Y65395D01*
X184383Y65468D01*
X184443Y65535D01*
X184496Y65595D01*
X184549Y65641D01*
X184589Y65681D01*
X184622Y65714D01*
X184656Y65734D01*
X184669Y65748D01*
X184676Y65754D01*
X184775Y65821D01*
X184882Y65888D01*
X184989Y65934D01*
X185095Y65981D01*
X185208Y66021D01*
X185315Y66054D01*
X185515Y66101D01*
X185608Y66114D01*
X185695Y66127D01*
X185775Y66134D01*
X185841Y66141D01*
X185894Y66147D01*
X186094D01*
X186214Y66134D01*
D02*
G37*
G36*
X197749Y60939D02*
X194552D01*
Y61545D01*
X197070D01*
Y66061D01*
X197749D01*
Y60939D01*
D02*
G37*
G36*
X191702Y66141D02*
X191888Y66114D01*
X192068Y66081D01*
X192235Y66034D01*
X192395Y65981D01*
X192541Y65921D01*
X192674Y65854D01*
X192794Y65788D01*
X192901Y65714D01*
X193001Y65654D01*
X193081Y65588D01*
X193147Y65535D01*
X193201Y65488D01*
X193240Y65455D01*
X193267Y65428D01*
X193274Y65421D01*
X193394Y65282D01*
X193500Y65128D01*
X193587Y64969D01*
X193667Y64809D01*
X193733Y64642D01*
X193787Y64476D01*
X193833Y64316D01*
X193867Y64156D01*
X193893Y64009D01*
X193920Y63870D01*
X193933Y63750D01*
X193940Y63643D01*
X193946Y63550D01*
X193953Y63483D01*
Y63463D01*
Y63443D01*
Y63437D01*
Y63430D01*
X193946Y63304D01*
X193940Y63184D01*
X193906Y62944D01*
X193860Y62731D01*
X193833Y62631D01*
X193807Y62538D01*
X193780Y62458D01*
X193753Y62378D01*
X193727Y62311D01*
X193707Y62258D01*
X193687Y62211D01*
X193673Y62178D01*
X193660Y62158D01*
Y62151D01*
X193540Y61938D01*
X193400Y61745D01*
X193334Y61665D01*
X193260Y61585D01*
X193187Y61512D01*
X193121Y61445D01*
X193054Y61392D01*
X192994Y61339D01*
X192941Y61299D01*
X192894Y61266D01*
X192854Y61232D01*
X192827Y61212D01*
X192807Y61206D01*
X192801Y61199D01*
X192694Y61139D01*
X192581Y61086D01*
X192474Y61039D01*
X192361Y60999D01*
X192141Y60939D01*
X191942Y60899D01*
X191849Y60879D01*
X191769Y60873D01*
X191695Y60866D01*
X191629Y60859D01*
X191582Y60853D01*
X191509D01*
X191382Y60859D01*
X191262Y60866D01*
X191036Y60899D01*
X190823Y60953D01*
X190730Y60979D01*
X190636Y61013D01*
X190556Y61039D01*
X190483Y61066D01*
X190423Y61092D01*
X190370Y61119D01*
X190330Y61139D01*
X190297Y61152D01*
X190277Y61166D01*
X190270D01*
X190164Y61226D01*
X190064Y61292D01*
X189884Y61445D01*
X189731Y61599D01*
X189664Y61672D01*
X189604Y61745D01*
X189551Y61818D01*
X189504Y61878D01*
X189471Y61938D01*
X189438Y61992D01*
X189411Y62032D01*
X189391Y62065D01*
X189384Y62085D01*
X189378Y62091D01*
X189324Y62211D01*
X189271Y62331D01*
X189191Y62571D01*
X189138Y62804D01*
X189118Y62917D01*
X189098Y63024D01*
X189085Y63124D01*
X189071Y63210D01*
X189065Y63290D01*
Y63357D01*
X189058Y63417D01*
Y63457D01*
Y63483D01*
Y63490D01*
Y63630D01*
X189071Y63770D01*
X189104Y64030D01*
X189125Y64149D01*
X189151Y64263D01*
X189178Y64369D01*
X189204Y64462D01*
X189238Y64549D01*
X189264Y64629D01*
X189291Y64696D01*
X189311Y64755D01*
X189331Y64802D01*
X189344Y64835D01*
X189351Y64855D01*
X189358Y64862D01*
X189484Y65075D01*
X189551Y65175D01*
X189617Y65268D01*
X189691Y65348D01*
X189764Y65428D01*
X189837Y65501D01*
X189904Y65561D01*
X189970Y65621D01*
X190030Y65668D01*
X190090Y65708D01*
X190137Y65748D01*
X190177Y65774D01*
X190203Y65794D01*
X190223Y65801D01*
X190230Y65808D01*
X190337Y65868D01*
X190450Y65921D01*
X190556Y65968D01*
X190670Y66008D01*
X190883Y66067D01*
X191076Y66107D01*
X191169Y66121D01*
X191249Y66127D01*
X191322Y66134D01*
X191382Y66141D01*
X191436Y66147D01*
X191502D01*
X191702Y66141D01*
D02*
G37*
G36*
X197290Y120939D02*
X196610D01*
Y123264D01*
X194206D01*
Y123870D01*
X196610D01*
Y125455D01*
X193833D01*
Y126061D01*
X197290D01*
Y120939D01*
D02*
G37*
G36*
X192921D02*
X192241D01*
Y123264D01*
X189837D01*
Y123870D01*
X192241D01*
Y125455D01*
X189464D01*
Y126061D01*
X192921D01*
Y120939D01*
D02*
G37*
G36*
X183803D02*
X179987D01*
Y121545D01*
X183124D01*
Y123290D01*
X180300D01*
Y123896D01*
X183124D01*
Y125455D01*
X180107D01*
Y126061D01*
X183803D01*
Y120939D01*
D02*
G37*
G36*
X179434Y125455D02*
X177749D01*
Y120939D01*
X177070D01*
Y125455D01*
X175385D01*
Y126061D01*
X179434D01*
Y125455D01*
D02*
G37*
G36*
X200839Y126141D02*
X201026Y126114D01*
X201206Y126081D01*
X201372Y126034D01*
X201532Y125981D01*
X201679Y125921D01*
X201812Y125854D01*
X201932Y125788D01*
X202038Y125715D01*
X202138Y125654D01*
X202218Y125588D01*
X202285Y125535D01*
X202338Y125488D01*
X202378Y125455D01*
X202405Y125428D01*
X202411Y125421D01*
X202531Y125282D01*
X202638Y125128D01*
X202724Y124969D01*
X202804Y124809D01*
X202871Y124642D01*
X202924Y124476D01*
X202971Y124316D01*
X203004Y124156D01*
X203031Y124010D01*
X203057Y123870D01*
X203071Y123750D01*
X203077Y123643D01*
X203084Y123550D01*
X203091Y123483D01*
Y123463D01*
Y123443D01*
Y123437D01*
Y123430D01*
X203084Y123303D01*
X203077Y123184D01*
X203044Y122944D01*
X202997Y122731D01*
X202971Y122631D01*
X202944Y122538D01*
X202917Y122458D01*
X202891Y122378D01*
X202864Y122311D01*
X202844Y122258D01*
X202824Y122211D01*
X202811Y122178D01*
X202798Y122158D01*
Y122151D01*
X202678Y121938D01*
X202538Y121745D01*
X202471Y121665D01*
X202398Y121585D01*
X202325Y121512D01*
X202258Y121445D01*
X202191Y121392D01*
X202132Y121339D01*
X202078Y121299D01*
X202032Y121266D01*
X201992Y121232D01*
X201965Y121212D01*
X201945Y121206D01*
X201938Y121199D01*
X201832Y121139D01*
X201719Y121086D01*
X201612Y121039D01*
X201499Y120999D01*
X201279Y120939D01*
X201079Y120899D01*
X200986Y120879D01*
X200906Y120873D01*
X200833Y120866D01*
X200766Y120859D01*
X200720Y120853D01*
X200646D01*
X200520Y120859D01*
X200400Y120866D01*
X200173Y120899D01*
X199960Y120952D01*
X199867Y120979D01*
X199774Y121012D01*
X199694Y121039D01*
X199621Y121066D01*
X199561Y121092D01*
X199507Y121119D01*
X199468Y121139D01*
X199434Y121152D01*
X199414Y121166D01*
X199408D01*
X199301Y121226D01*
X199201Y121292D01*
X199021Y121445D01*
X198868Y121599D01*
X198802Y121672D01*
X198742Y121745D01*
X198688Y121818D01*
X198642Y121878D01*
X198608Y121938D01*
X198575Y121992D01*
X198548Y122031D01*
X198528Y122065D01*
X198522Y122085D01*
X198515Y122091D01*
X198462Y122211D01*
X198409Y122331D01*
X198329Y122571D01*
X198275Y122804D01*
X198255Y122917D01*
X198235Y123024D01*
X198222Y123124D01*
X198209Y123210D01*
X198202Y123290D01*
Y123357D01*
X198196Y123417D01*
Y123457D01*
Y123483D01*
Y123490D01*
Y123630D01*
X198209Y123770D01*
X198242Y124030D01*
X198262Y124149D01*
X198289Y124263D01*
X198315Y124369D01*
X198342Y124462D01*
X198375Y124549D01*
X198402Y124629D01*
X198428Y124696D01*
X198449Y124755D01*
X198468Y124802D01*
X198482Y124835D01*
X198488Y124855D01*
X198495Y124862D01*
X198622Y125075D01*
X198688Y125175D01*
X198755Y125268D01*
X198828Y125348D01*
X198901Y125428D01*
X198975Y125501D01*
X199041Y125561D01*
X199108Y125621D01*
X199168Y125668D01*
X199228Y125708D01*
X199274Y125748D01*
X199314Y125774D01*
X199341Y125794D01*
X199361Y125801D01*
X199368Y125808D01*
X199474Y125868D01*
X199587Y125921D01*
X199694Y125968D01*
X199807Y126007D01*
X200020Y126067D01*
X200213Y126107D01*
X200307Y126121D01*
X200387Y126127D01*
X200460Y126134D01*
X200520Y126141D01*
X200573Y126147D01*
X200640D01*
X200839Y126141D01*
D02*
G37*
G36*
X187007D02*
X187187Y126121D01*
X187346Y126087D01*
X187486Y126061D01*
X187546Y126041D01*
X187599Y126028D01*
X187646Y126007D01*
X187686Y125994D01*
X187719Y125988D01*
X187739Y125974D01*
X187753Y125968D01*
X187759D01*
X187906Y125894D01*
X188039Y125814D01*
X188145Y125728D01*
X188239Y125648D01*
X188305Y125575D01*
X188359Y125508D01*
X188385Y125468D01*
X188399Y125461D01*
Y125455D01*
X188472Y125328D01*
X188525Y125202D01*
X188565Y125082D01*
X188592Y124969D01*
X188605Y124869D01*
X188612Y124795D01*
X188618Y124769D01*
Y124749D01*
Y124735D01*
Y124729D01*
X188612Y124602D01*
X188592Y124482D01*
X188565Y124369D01*
X188532Y124276D01*
X188498Y124196D01*
X188472Y124143D01*
X188452Y124103D01*
X188445Y124096D01*
Y124089D01*
X188372Y123989D01*
X188285Y123896D01*
X188192Y123816D01*
X188105Y123750D01*
X188026Y123690D01*
X187959Y123650D01*
X187932Y123636D01*
X187912Y123623D01*
X187906Y123617D01*
X187899D01*
X187839Y123590D01*
X187773Y123557D01*
X187626Y123503D01*
X187460Y123443D01*
X187300Y123397D01*
X187146Y123350D01*
X187087Y123337D01*
X187027Y123317D01*
X186980Y123310D01*
X186947Y123297D01*
X186920Y123290D01*
X186913D01*
X186787Y123257D01*
X186674Y123230D01*
X186567Y123204D01*
X186474Y123184D01*
X186387Y123157D01*
X186314Y123137D01*
X186247Y123124D01*
X186194Y123104D01*
X186141Y123090D01*
X186101Y123077D01*
X186068Y123070D01*
X186041Y123057D01*
X186014Y123050D01*
X186001Y123044D01*
X185888Y122997D01*
X185794Y122944D01*
X185715Y122897D01*
X185648Y122851D01*
X185601Y122811D01*
X185568Y122777D01*
X185548Y122751D01*
X185541Y122744D01*
X185495Y122678D01*
X185455Y122604D01*
X185428Y122531D01*
X185415Y122464D01*
X185402Y122411D01*
X185395Y122364D01*
Y122338D01*
Y122325D01*
X185402Y122238D01*
X185415Y122158D01*
X185442Y122085D01*
X185468Y122018D01*
X185495Y121965D01*
X185521Y121918D01*
X185535Y121892D01*
X185541Y121885D01*
X185601Y121812D01*
X185675Y121752D01*
X185748Y121698D01*
X185821Y121652D01*
X185888Y121619D01*
X185941Y121592D01*
X185974Y121579D01*
X185981Y121572D01*
X185988D01*
X186101Y121532D01*
X186214Y121505D01*
X186334Y121485D01*
X186434Y121472D01*
X186527Y121465D01*
X186600Y121459D01*
X186667D01*
X186827Y121465D01*
X186973Y121479D01*
X187107Y121505D01*
X187220Y121532D01*
X187320Y121559D01*
X187360Y121572D01*
X187393Y121585D01*
X187420Y121592D01*
X187440Y121599D01*
X187446Y121605D01*
X187453D01*
X187573Y121665D01*
X187679Y121732D01*
X187766Y121798D01*
X187839Y121865D01*
X187892Y121918D01*
X187932Y121965D01*
X187959Y121992D01*
X187966Y122005D01*
X188019Y122105D01*
X188066Y122211D01*
X188105Y122318D01*
X188132Y122418D01*
X188152Y122511D01*
X188165Y122578D01*
Y122604D01*
X188172Y122624D01*
Y122637D01*
Y122644D01*
X188812Y122591D01*
X188798Y122404D01*
X188765Y122225D01*
X188718Y122071D01*
X188665Y121932D01*
X188638Y121872D01*
X188618Y121818D01*
X188592Y121778D01*
X188572Y121738D01*
X188558Y121705D01*
X188545Y121685D01*
X188532Y121672D01*
Y121665D01*
X188425Y121525D01*
X188305Y121399D01*
X188186Y121292D01*
X188066Y121206D01*
X187959Y121139D01*
X187912Y121112D01*
X187879Y121092D01*
X187846Y121072D01*
X187819Y121059D01*
X187806Y121052D01*
X187799D01*
X187613Y120986D01*
X187420Y120939D01*
X187220Y120899D01*
X187040Y120879D01*
X186953Y120873D01*
X186880Y120866D01*
X186807Y120859D01*
X186747D01*
X186700Y120853D01*
X186634D01*
X186434Y120859D01*
X186247Y120886D01*
X186081Y120919D01*
X185941Y120952D01*
X185874Y120973D01*
X185821Y120993D01*
X185775Y121006D01*
X185728Y121019D01*
X185701Y121033D01*
X185675Y121046D01*
X185661Y121052D01*
X185655D01*
X185502Y121132D01*
X185362Y121226D01*
X185248Y121319D01*
X185155Y121405D01*
X185082Y121485D01*
X185022Y121552D01*
X185009Y121579D01*
X184995Y121599D01*
X184982Y121605D01*
Y121612D01*
X184902Y121745D01*
X184842Y121885D01*
X184802Y122011D01*
X184769Y122131D01*
X184756Y122231D01*
X184749Y122271D01*
Y122311D01*
X184742Y122338D01*
Y122358D01*
Y122371D01*
Y122378D01*
X184749Y122531D01*
X184775Y122664D01*
X184809Y122791D01*
X184849Y122897D01*
X184895Y122984D01*
X184929Y123050D01*
X184942Y123070D01*
X184955Y123090D01*
X184962Y123097D01*
Y123104D01*
X185049Y123217D01*
X185155Y123324D01*
X185262Y123410D01*
X185368Y123490D01*
X185468Y123550D01*
X185548Y123590D01*
X185581Y123610D01*
X185601Y123623D01*
X185615Y123630D01*
X185621D01*
X185681Y123656D01*
X185755Y123683D01*
X185841Y123710D01*
X185928Y123743D01*
X186114Y123796D01*
X186301Y123843D01*
X186394Y123870D01*
X186474Y123890D01*
X186554Y123910D01*
X186620Y123923D01*
X186674Y123936D01*
X186720Y123950D01*
X186747Y123956D01*
X186754D01*
X186900Y123989D01*
X187033Y124023D01*
X187153Y124056D01*
X187260Y124089D01*
X187353Y124123D01*
X187433Y124149D01*
X187506Y124183D01*
X187573Y124209D01*
X187619Y124229D01*
X187666Y124249D01*
X187699Y124269D01*
X187726Y124289D01*
X187746Y124296D01*
X187759Y124309D01*
X187773Y124316D01*
X187839Y124389D01*
X187886Y124462D01*
X187919Y124536D01*
X187939Y124609D01*
X187952Y124676D01*
X187966Y124722D01*
Y124755D01*
Y124769D01*
X187952Y124882D01*
X187919Y124988D01*
X187879Y125082D01*
X187826Y125162D01*
X187773Y125228D01*
X187733Y125275D01*
X187699Y125302D01*
X187686Y125315D01*
X187633Y125355D01*
X187566Y125388D01*
X187426Y125448D01*
X187280Y125488D01*
X187133Y125515D01*
X187000Y125528D01*
X186947Y125535D01*
X186893Y125541D01*
X186687D01*
X186587Y125528D01*
X186494Y125521D01*
X186407Y125501D01*
X186327Y125481D01*
X186254Y125461D01*
X186188Y125441D01*
X186127Y125421D01*
X186081Y125395D01*
X186034Y125375D01*
X185994Y125355D01*
X185961Y125335D01*
X185941Y125315D01*
X185921Y125308D01*
X185908Y125295D01*
X185801Y125195D01*
X185721Y125075D01*
X185661Y124955D01*
X185615Y124842D01*
X185581Y124735D01*
X185568Y124689D01*
X185561Y124649D01*
X185555Y124616D01*
X185548Y124589D01*
Y124576D01*
Y124569D01*
X184895Y124616D01*
X184909Y124775D01*
X184942Y124929D01*
X184982Y125062D01*
X185029Y125182D01*
X185075Y125282D01*
X185095Y125321D01*
X185108Y125355D01*
X185128Y125381D01*
X185135Y125401D01*
X185149Y125408D01*
Y125415D01*
X185242Y125541D01*
X185355Y125654D01*
X185461Y125748D01*
X185575Y125821D01*
X185668Y125881D01*
X185748Y125928D01*
X185781Y125941D01*
X185801Y125954D01*
X185814Y125961D01*
X185821D01*
X185988Y126021D01*
X186161Y126067D01*
X186327Y126101D01*
X186480Y126127D01*
X186554Y126134D01*
X186620Y126141D01*
X186674D01*
X186727Y126147D01*
X186820D01*
X187007Y126141D01*
D02*
G37*
G36*
X203091Y105939D02*
X201246D01*
X201079Y105946D01*
X200919Y105953D01*
X200780Y105966D01*
X200660Y105986D01*
X200560Y105999D01*
X200520Y106006D01*
X200486Y106012D01*
X200460Y106019D01*
X200440D01*
X200433Y106026D01*
X200427D01*
X200300Y106059D01*
X200180Y106099D01*
X200074Y106146D01*
X199987Y106186D01*
X199914Y106219D01*
X199860Y106252D01*
X199827Y106272D01*
X199814Y106279D01*
X199721Y106352D01*
X199627Y106425D01*
X199547Y106505D01*
X199481Y106579D01*
X199421Y106645D01*
X199381Y106699D01*
X199348Y106732D01*
X199341Y106745D01*
X199268Y106858D01*
X199195Y106985D01*
X199135Y107111D01*
X199088Y107231D01*
X199048Y107331D01*
X199035Y107378D01*
X199021Y107418D01*
X199008Y107444D01*
X199001Y107471D01*
X198995Y107484D01*
Y107491D01*
X198948Y107664D01*
X198915Y107844D01*
X198888Y108017D01*
X198875Y108177D01*
X198868Y108250D01*
X198861Y108317D01*
Y108377D01*
X198855Y108423D01*
Y108470D01*
Y108497D01*
Y108517D01*
Y108523D01*
X198861Y108770D01*
X198888Y109003D01*
X198901Y109109D01*
X198921Y109209D01*
X198941Y109302D01*
X198955Y109389D01*
X198975Y109469D01*
X198995Y109536D01*
X199015Y109596D01*
X199028Y109649D01*
X199041Y109689D01*
X199055Y109715D01*
X199061Y109735D01*
Y109742D01*
X199141Y109935D01*
X199241Y110102D01*
X199341Y110255D01*
X199441Y110381D01*
X199487Y110435D01*
X199527Y110481D01*
X199567Y110521D01*
X199601Y110555D01*
X199627Y110581D01*
X199647Y110601D01*
X199661Y110608D01*
X199667Y110615D01*
X199787Y110708D01*
X199914Y110788D01*
X200040Y110848D01*
X200160Y110901D01*
X200260Y110934D01*
X200307Y110948D01*
X200347Y110961D01*
X200373Y110968D01*
X200400Y110974D01*
X200413Y110981D01*
X200420D01*
X200546Y111007D01*
X200693Y111028D01*
X200846Y111041D01*
X200993Y111054D01*
X201119D01*
X201179Y111061D01*
X203091D01*
Y105939D01*
D02*
G37*
G36*
X198482D02*
X197769D01*
X197210Y107491D01*
X195065D01*
X194473Y105939D01*
X193707D01*
X195791Y111061D01*
X196530D01*
X198482Y105939D01*
D02*
G37*
G36*
X193540Y110455D02*
X191855D01*
Y105939D01*
X191176D01*
Y110455D01*
X189491D01*
Y111061D01*
X193540D01*
Y110455D01*
D02*
G37*
G36*
X189344Y105939D02*
X188632D01*
X188072Y107491D01*
X185928D01*
X185335Y105939D01*
X184569D01*
X186654Y111061D01*
X187393D01*
X189344Y105939D01*
D02*
G37*
G36*
X203091Y165939D02*
X201246D01*
X201079Y165946D01*
X200919Y165953D01*
X200780Y165966D01*
X200660Y165986D01*
X200560Y165999D01*
X200520Y166006D01*
X200486Y166013D01*
X200460Y166019D01*
X200440D01*
X200433Y166026D01*
X200427D01*
X200300Y166059D01*
X200180Y166099D01*
X200074Y166146D01*
X199987Y166186D01*
X199914Y166219D01*
X199860Y166252D01*
X199827Y166272D01*
X199814Y166279D01*
X199721Y166352D01*
X199627Y166425D01*
X199547Y166505D01*
X199481Y166579D01*
X199421Y166645D01*
X199381Y166699D01*
X199348Y166732D01*
X199341Y166745D01*
X199268Y166858D01*
X199195Y166985D01*
X199135Y167111D01*
X199088Y167231D01*
X199048Y167331D01*
X199035Y167378D01*
X199021Y167418D01*
X199008Y167444D01*
X199001Y167471D01*
X198995Y167484D01*
Y167491D01*
X198948Y167664D01*
X198915Y167844D01*
X198888Y168017D01*
X198875Y168177D01*
X198868Y168250D01*
X198861Y168317D01*
Y168377D01*
X198855Y168423D01*
Y168470D01*
Y168497D01*
Y168517D01*
Y168523D01*
X198861Y168770D01*
X198888Y169003D01*
X198901Y169109D01*
X198921Y169209D01*
X198941Y169302D01*
X198955Y169389D01*
X198975Y169469D01*
X198995Y169536D01*
X199015Y169596D01*
X199028Y169649D01*
X199041Y169689D01*
X199055Y169715D01*
X199061Y169735D01*
Y169742D01*
X199141Y169935D01*
X199241Y170102D01*
X199341Y170255D01*
X199441Y170381D01*
X199487Y170435D01*
X199527Y170481D01*
X199567Y170521D01*
X199601Y170555D01*
X199627Y170581D01*
X199647Y170601D01*
X199661Y170608D01*
X199667Y170615D01*
X199787Y170708D01*
X199914Y170788D01*
X200040Y170848D01*
X200160Y170901D01*
X200260Y170934D01*
X200307Y170948D01*
X200347Y170961D01*
X200373Y170967D01*
X200400Y170974D01*
X200413Y170981D01*
X200420D01*
X200546Y171008D01*
X200693Y171028D01*
X200846Y171041D01*
X200993Y171054D01*
X201119D01*
X201179Y171061D01*
X203091D01*
Y165939D01*
D02*
G37*
G36*
X198482D02*
X197769D01*
X197210Y167491D01*
X195065D01*
X194473Y165939D01*
X193707D01*
X195791Y171061D01*
X196530D01*
X198482Y165939D01*
D02*
G37*
G36*
X193540Y170455D02*
X191855D01*
Y165939D01*
X191176D01*
Y170455D01*
X189491D01*
Y171061D01*
X193540D01*
Y170455D01*
D02*
G37*
G36*
X189344Y165939D02*
X188632D01*
X188072Y167491D01*
X185928D01*
X185335Y165939D01*
X184569D01*
X186654Y171061D01*
X187393D01*
X189344Y165939D01*
D02*
G37*
G36*
X197123Y95987D02*
X197210Y95868D01*
X197303Y95748D01*
X197390Y95648D01*
X197476Y95555D01*
X197543Y95488D01*
X197569Y95461D01*
X197589Y95441D01*
X197603Y95435D01*
X197609Y95428D01*
X197763Y95302D01*
X197916Y95188D01*
X198076Y95082D01*
X198215Y94995D01*
X198342Y94929D01*
X198395Y94895D01*
X198442Y94875D01*
X198475Y94855D01*
X198502Y94842D01*
X198522Y94829D01*
X198528D01*
Y94216D01*
X198415Y94263D01*
X198302Y94316D01*
X198189Y94369D01*
X198089Y94422D01*
X198002Y94469D01*
X197929Y94509D01*
X197902Y94522D01*
X197882Y94536D01*
X197876Y94542D01*
X197869D01*
X197736Y94622D01*
X197623Y94702D01*
X197516Y94775D01*
X197430Y94842D01*
X197363Y94895D01*
X197310Y94942D01*
X197283Y94968D01*
X197270Y94975D01*
Y90973D01*
X196644D01*
Y96114D01*
X197050D01*
X197123Y95987D01*
D02*
G37*
G36*
X194919Y93397D02*
X194326Y93310D01*
X194273Y93390D01*
X194213Y93457D01*
X194146Y93523D01*
X194086Y93570D01*
X194033Y93616D01*
X193993Y93643D01*
X193966Y93663D01*
X193953Y93670D01*
X193860Y93716D01*
X193760Y93756D01*
X193667Y93783D01*
X193587Y93796D01*
X193507Y93810D01*
X193454Y93816D01*
X193307D01*
X193227Y93803D01*
X193067Y93770D01*
X192934Y93716D01*
X192821Y93663D01*
X192728Y93603D01*
X192661Y93550D01*
X192641Y93530D01*
X192621Y93517D01*
X192608Y93510D01*
Y93503D01*
X192554Y93443D01*
X192508Y93377D01*
X192435Y93237D01*
X192381Y93097D01*
X192348Y92957D01*
X192321Y92837D01*
X192315Y92784D01*
Y92737D01*
X192308Y92704D01*
Y92677D01*
Y92658D01*
Y92651D01*
Y92544D01*
X192321Y92451D01*
X192355Y92271D01*
X192408Y92118D01*
X192461Y91985D01*
X192494Y91932D01*
X192521Y91885D01*
X192548Y91838D01*
X192574Y91805D01*
X192594Y91778D01*
X192608Y91758D01*
X192614Y91752D01*
X192621Y91745D01*
X192681Y91685D01*
X192741Y91632D01*
X192807Y91585D01*
X192874Y91552D01*
X193001Y91485D01*
X193127Y91445D01*
X193234Y91425D01*
X193280Y91419D01*
X193314Y91412D01*
X193347Y91405D01*
X193394D01*
X193533Y91419D01*
X193653Y91445D01*
X193767Y91479D01*
X193860Y91525D01*
X193933Y91565D01*
X193993Y91605D01*
X194026Y91632D01*
X194040Y91638D01*
X194126Y91738D01*
X194200Y91852D01*
X194259Y91971D01*
X194306Y92091D01*
X194333Y92191D01*
X194346Y92238D01*
X194359Y92278D01*
X194366Y92311D01*
Y92338D01*
X194373Y92351D01*
Y92358D01*
X195032Y92311D01*
X195019Y92191D01*
X194992Y92078D01*
X194965Y91978D01*
X194925Y91878D01*
X194892Y91785D01*
X194845Y91698D01*
X194806Y91619D01*
X194759Y91552D01*
X194719Y91485D01*
X194672Y91432D01*
X194639Y91386D01*
X194599Y91346D01*
X194572Y91312D01*
X194552Y91292D01*
X194539Y91279D01*
X194532Y91272D01*
X194446Y91206D01*
X194359Y91146D01*
X194266Y91092D01*
X194166Y91052D01*
X194073Y91013D01*
X193980Y90979D01*
X193800Y90933D01*
X193713Y90919D01*
X193640Y90906D01*
X193567Y90899D01*
X193507Y90893D01*
X193460Y90886D01*
X193394D01*
X193240Y90893D01*
X193094Y90913D01*
X192954Y90946D01*
X192821Y90986D01*
X192701Y91032D01*
X192594Y91079D01*
X192494Y91139D01*
X192401Y91199D01*
X192321Y91252D01*
X192248Y91312D01*
X192188Y91359D01*
X192141Y91412D01*
X192102Y91445D01*
X192068Y91479D01*
X192055Y91499D01*
X192048Y91505D01*
X191975Y91605D01*
X191915Y91705D01*
X191862Y91805D01*
X191815Y91905D01*
X191775Y92005D01*
X191742Y92105D01*
X191695Y92298D01*
X191675Y92378D01*
X191662Y92458D01*
X191655Y92531D01*
X191649Y92591D01*
X191642Y92637D01*
Y92671D01*
Y92698D01*
Y92704D01*
X191649Y92837D01*
X191662Y92964D01*
X191682Y93084D01*
X191715Y93204D01*
X191749Y93310D01*
X191788Y93403D01*
X191829Y93497D01*
X191875Y93577D01*
X191915Y93650D01*
X191962Y93716D01*
X192002Y93770D01*
X192035Y93816D01*
X192068Y93856D01*
X192088Y93883D01*
X192102Y93896D01*
X192108Y93903D01*
X192195Y93983D01*
X192288Y94056D01*
X192381Y94116D01*
X192474Y94176D01*
X192574Y94216D01*
X192668Y94256D01*
X192754Y94289D01*
X192841Y94309D01*
X192927Y94329D01*
X193001Y94342D01*
X193067Y94356D01*
X193121Y94362D01*
X193167Y94369D01*
X193234D01*
X193327Y94362D01*
X193420Y94356D01*
X193600Y94316D01*
X193760Y94269D01*
X193906Y94209D01*
X193973Y94176D01*
X194026Y94149D01*
X194080Y94116D01*
X194120Y94096D01*
X194153Y94076D01*
X194179Y94056D01*
X194193Y94050D01*
X194200Y94043D01*
X193926Y95428D01*
X191882D01*
Y96027D01*
X194426D01*
X194919Y93397D01*
D02*
G37*
G36*
X201699Y93790D02*
X203091D01*
Y93204D01*
X201699D01*
Y91798D01*
X201106D01*
Y93204D01*
X199714D01*
Y93790D01*
X201106D01*
Y95182D01*
X201699D01*
Y93790D01*
D02*
G37*
G36*
X189344Y90973D02*
X188638D01*
X186640Y96094D01*
X187326D01*
X188712Y92371D01*
X188772Y92218D01*
X188825Y92065D01*
X188872Y91918D01*
X188911Y91792D01*
X188945Y91685D01*
X188958Y91645D01*
X188971Y91605D01*
X188978Y91572D01*
X188985Y91552D01*
X188991Y91539D01*
Y91532D01*
X189031Y91679D01*
X189078Y91832D01*
X189125Y91971D01*
X189164Y92098D01*
X189204Y92211D01*
X189218Y92258D01*
X189231Y92298D01*
X189244Y92325D01*
X189251Y92351D01*
X189258Y92365D01*
Y92371D01*
X190590Y96094D01*
X191329D01*
X189344Y90973D01*
D02*
G37*
G36*
X198895Y78407D02*
X198302Y78320D01*
X198249Y78400D01*
X198189Y78467D01*
X198122Y78533D01*
X198062Y78580D01*
X198009Y78627D01*
X197969Y78653D01*
X197942Y78673D01*
X197929Y78680D01*
X197836Y78726D01*
X197736Y78766D01*
X197643Y78793D01*
X197563Y78806D01*
X197483Y78820D01*
X197430Y78826D01*
X197283D01*
X197203Y78813D01*
X197043Y78780D01*
X196910Y78726D01*
X196797Y78673D01*
X196704Y78613D01*
X196637Y78560D01*
X196617Y78540D01*
X196597Y78527D01*
X196584Y78520D01*
Y78513D01*
X196530Y78453D01*
X196484Y78387D01*
X196411Y78247D01*
X196357Y78107D01*
X196324Y77967D01*
X196297Y77847D01*
X196291Y77794D01*
Y77747D01*
X196284Y77714D01*
Y77688D01*
Y77667D01*
Y77661D01*
Y77554D01*
X196297Y77461D01*
X196331Y77281D01*
X196384Y77128D01*
X196437Y76995D01*
X196470Y76942D01*
X196497Y76895D01*
X196524Y76848D01*
X196550Y76815D01*
X196570Y76788D01*
X196584Y76768D01*
X196590Y76762D01*
X196597Y76755D01*
X196657Y76695D01*
X196717Y76642D01*
X196783Y76595D01*
X196850Y76562D01*
X196977Y76495D01*
X197103Y76455D01*
X197210Y76435D01*
X197256Y76429D01*
X197290Y76422D01*
X197323Y76415D01*
X197370D01*
X197510Y76429D01*
X197629Y76455D01*
X197743Y76489D01*
X197836Y76535D01*
X197909Y76575D01*
X197969Y76615D01*
X198002Y76642D01*
X198016Y76648D01*
X198102Y76748D01*
X198176Y76862D01*
X198235Y76982D01*
X198282Y77101D01*
X198309Y77201D01*
X198322Y77248D01*
X198335Y77288D01*
X198342Y77321D01*
Y77348D01*
X198349Y77361D01*
Y77368D01*
X199008Y77321D01*
X198995Y77201D01*
X198968Y77088D01*
X198941Y76988D01*
X198901Y76888D01*
X198868Y76795D01*
X198821Y76709D01*
X198782Y76629D01*
X198735Y76562D01*
X198695Y76495D01*
X198648Y76442D01*
X198615Y76395D01*
X198575Y76355D01*
X198548Y76322D01*
X198528Y76302D01*
X198515Y76289D01*
X198509Y76282D01*
X198422Y76216D01*
X198335Y76156D01*
X198242Y76102D01*
X198142Y76062D01*
X198049Y76022D01*
X197956Y75989D01*
X197776Y75943D01*
X197689Y75929D01*
X197616Y75916D01*
X197543Y75909D01*
X197483Y75903D01*
X197436Y75896D01*
X197370D01*
X197216Y75903D01*
X197070Y75923D01*
X196930Y75956D01*
X196797Y75996D01*
X196677Y76042D01*
X196570Y76089D01*
X196470Y76149D01*
X196377Y76209D01*
X196297Y76262D01*
X196224Y76322D01*
X196164Y76369D01*
X196117Y76422D01*
X196078Y76455D01*
X196044Y76489D01*
X196031Y76509D01*
X196024Y76515D01*
X195951Y76615D01*
X195891Y76715D01*
X195838Y76815D01*
X195791Y76915D01*
X195751Y77015D01*
X195718Y77115D01*
X195671Y77308D01*
X195651Y77388D01*
X195638Y77468D01*
X195631Y77541D01*
X195625Y77601D01*
X195618Y77648D01*
Y77681D01*
Y77707D01*
Y77714D01*
X195625Y77847D01*
X195638Y77974D01*
X195658Y78094D01*
X195691Y78214D01*
X195725Y78320D01*
X195765Y78413D01*
X195805Y78507D01*
X195851Y78587D01*
X195891Y78660D01*
X195938Y78726D01*
X195978Y78780D01*
X196011Y78826D01*
X196044Y78866D01*
X196064Y78893D01*
X196078Y78906D01*
X196084Y78913D01*
X196171Y78993D01*
X196264Y79066D01*
X196357Y79126D01*
X196450Y79186D01*
X196550Y79226D01*
X196644Y79266D01*
X196730Y79299D01*
X196817Y79319D01*
X196903Y79339D01*
X196977Y79352D01*
X197043Y79366D01*
X197097Y79373D01*
X197143Y79379D01*
X197210D01*
X197303Y79373D01*
X197396Y79366D01*
X197576Y79326D01*
X197736Y79279D01*
X197882Y79219D01*
X197949Y79186D01*
X198002Y79159D01*
X198056Y79126D01*
X198096Y79106D01*
X198129Y79086D01*
X198155Y79066D01*
X198169Y79059D01*
X198176Y79053D01*
X197902Y80438D01*
X195858D01*
Y81037D01*
X198402D01*
X198895Y78407D01*
D02*
G37*
G36*
X201699Y78800D02*
X203091D01*
Y78214D01*
X201699D01*
Y76808D01*
X201106D01*
Y78214D01*
X199714D01*
Y78800D01*
X201106D01*
Y80192D01*
X201699D01*
Y78800D01*
D02*
G37*
G36*
X193320Y75982D02*
X192614D01*
X190616Y81104D01*
X191302D01*
X192688Y77381D01*
X192748Y77228D01*
X192801Y77075D01*
X192848Y76928D01*
X192887Y76802D01*
X192921Y76695D01*
X192934Y76655D01*
X192947Y76615D01*
X192954Y76582D01*
X192961Y76562D01*
X192967Y76549D01*
Y76542D01*
X193007Y76688D01*
X193054Y76842D01*
X193101Y76982D01*
X193140Y77108D01*
X193181Y77221D01*
X193194Y77268D01*
X193207Y77308D01*
X193220Y77334D01*
X193227Y77361D01*
X193234Y77375D01*
Y77381D01*
X194566Y81104D01*
X195305D01*
X193320Y75982D01*
D02*
G37*
G36*
X125396Y181531D02*
X124283D01*
X123011Y186346D01*
X122764Y185277D01*
X121763Y181531D01*
X120671D01*
X118702Y187797D01*
X119738D01*
X120817Y184175D01*
X121177Y182960D01*
X121481Y184152D01*
X122426Y187797D01*
X123518D01*
X124507Y184119D01*
X124564Y183905D01*
X124609Y183725D01*
X124654Y183556D01*
X124688Y183410D01*
X124721Y183286D01*
X124744Y183185D01*
X124766Y183095D01*
X124789Y183028D01*
X124800Y182971D01*
X124811Y182915D01*
X124822Y182859D01*
X124834Y182836D01*
Y182825D01*
X125194Y184175D01*
X126195Y187797D01*
X127297D01*
X125396Y181531D01*
D02*
G37*
G36*
X73039D02*
X73084Y181419D01*
X73118Y181340D01*
X73129Y181284D01*
X73140Y181272D01*
X73185Y181160D01*
X73219Y181059D01*
X73286Y180879D01*
X73343Y180744D01*
X73387Y180631D01*
X73421Y180552D01*
X73444Y180508D01*
X73466Y180485D01*
Y180474D01*
X73579Y180327D01*
X73691Y180226D01*
X73736Y180192D01*
X73781Y180170D01*
X73804Y180148D01*
X73815D01*
X73894Y180103D01*
X73984Y180080D01*
X74175Y180035D01*
X74254D01*
X74321Y180024D01*
X74378D01*
X74580Y180035D01*
X74681Y180058D01*
X74771Y180080D01*
X74850Y180091D01*
X74918Y180114D01*
X74963Y180125D01*
X74974D01*
X74861Y179135D01*
X74726Y179090D01*
X74603Y179056D01*
X74479Y179034D01*
X74378Y179023D01*
X74299Y179011D01*
X74231Y179000D01*
X74175D01*
X73995Y179011D01*
X73826Y179034D01*
X73680Y179079D01*
X73556Y179124D01*
X73444Y179169D01*
X73376Y179214D01*
X73320Y179236D01*
X73309Y179247D01*
X73174Y179349D01*
X73050Y179472D01*
X72938Y179596D01*
X72847Y179720D01*
X72769Y179832D01*
X72701Y179934D01*
X72667Y179990D01*
X72656Y180013D01*
X72611Y180091D01*
X72566Y180181D01*
X72476Y180395D01*
X72375Y180631D01*
X72274Y180868D01*
X72195Y181081D01*
X72150Y181183D01*
X72127Y181261D01*
X72094Y181329D01*
X72071Y181385D01*
X72060Y181419D01*
Y181430D01*
X69686Y187797D01*
X70744D01*
X72083Y184141D01*
X72172Y183882D01*
X72263Y183624D01*
X72341Y183387D01*
X72409Y183174D01*
X72454Y182994D01*
X72476Y182915D01*
X72499Y182847D01*
X72510Y182791D01*
X72521Y182757D01*
X72532Y182735D01*
Y182724D01*
X72611Y183005D01*
X72690Y183275D01*
X72769Y183522D01*
X72836Y183736D01*
X72892Y183916D01*
X72915Y183995D01*
X72938Y184051D01*
X72960Y184107D01*
X72971Y184141D01*
X72983Y184164D01*
Y184175D01*
X74299Y187797D01*
X75424D01*
X73039Y181531D01*
D02*
G37*
G36*
X168000Y185176D02*
Y184929D01*
X167989Y184693D01*
X167966Y184467D01*
X167944Y184254D01*
X167921Y184063D01*
X167899Y183882D01*
X167865Y183725D01*
X167831Y183579D01*
X167809Y183444D01*
X167775Y183331D01*
X167753Y183230D01*
X167719Y183151D01*
X167708Y183084D01*
X167685Y183039D01*
X167674Y183016D01*
Y183005D01*
X167527Y182724D01*
X167359Y182487D01*
X167179Y182274D01*
X166999Y182105D01*
X166830Y181970D01*
X166695Y181880D01*
X166650Y181846D01*
X166605Y181824D01*
X166583Y181801D01*
X166571D01*
X166268Y181666D01*
X165930Y181565D01*
X165604Y181486D01*
X165289Y181441D01*
X165143Y181419D01*
X165007Y181407D01*
X164884Y181396D01*
X164783D01*
X164692Y181385D01*
X164580D01*
X164355Y181396D01*
X164130Y181407D01*
X163927Y181430D01*
X163736Y181464D01*
X163556Y181498D01*
X163399Y181531D01*
X163241Y181576D01*
X163106Y181621D01*
X162982Y181666D01*
X162870Y181711D01*
X162780Y181745D01*
X162701Y181779D01*
X162645Y181813D01*
X162600Y181835D01*
X162577Y181858D01*
X162566D01*
X162431Y181948D01*
X162296Y182049D01*
X162071Y182263D01*
X161891Y182465D01*
X161745Y182668D01*
X161633Y182836D01*
X161588Y182915D01*
X161554Y182983D01*
X161531Y183028D01*
X161509Y183072D01*
X161497Y183095D01*
Y183106D01*
X161441Y183253D01*
X161396Y183410D01*
X161318Y183747D01*
X161273Y184096D01*
X161228Y184434D01*
X161216Y184580D01*
X161205Y184726D01*
Y184850D01*
X161194Y184962D01*
Y185053D01*
Y185120D01*
Y185165D01*
Y185176D01*
Y190182D01*
X162341D01*
Y185187D01*
X162353Y184895D01*
X162364Y184625D01*
X162386Y184378D01*
X162420Y184152D01*
X162465Y183950D01*
X162510Y183770D01*
X162555Y183613D01*
X162611Y183477D01*
X162656Y183354D01*
X162713Y183253D01*
X162758Y183162D01*
X162791Y183095D01*
X162836Y183050D01*
X162859Y183016D01*
X162870Y182994D01*
X162881Y182983D01*
X162994Y182881D01*
X163118Y182802D01*
X163252Y182724D01*
X163388Y182656D01*
X163691Y182555D01*
X163984Y182487D01*
X164119Y182465D01*
X164254Y182454D01*
X164377Y182442D01*
X164479Y182431D01*
X164558Y182420D01*
X164681D01*
X164951Y182431D01*
X165188Y182465D01*
X165401Y182510D01*
X165581Y182566D01*
X165727Y182611D01*
X165840Y182656D01*
X165908Y182690D01*
X165919Y182701D01*
X165930D01*
X166110Y182825D01*
X166256Y182949D01*
X166380Y183095D01*
X166481Y183219D01*
X166560Y183343D01*
X166605Y183432D01*
X166639Y183500D01*
X166650Y183511D01*
Y183522D01*
X166684Y183635D01*
X166718Y183747D01*
X166762Y184006D01*
X166807Y184288D01*
X166830Y184557D01*
Y184681D01*
X166841Y184805D01*
Y184906D01*
X166852Y185008D01*
Y185075D01*
Y185143D01*
Y185176D01*
Y185187D01*
Y190182D01*
X168000D01*
Y185176D01*
D02*
G37*
G36*
X97676Y183916D02*
Y183680D01*
X97665Y183477D01*
X97654Y183309D01*
X97642Y183174D01*
Y183061D01*
X97631Y182983D01*
X97620Y182938D01*
Y182926D01*
X97575Y182757D01*
X97530Y182600D01*
X97474Y182465D01*
X97417Y182352D01*
X97373Y182251D01*
X97328Y182184D01*
X97305Y182139D01*
X97294Y182127D01*
X97193Y182015D01*
X97080Y181914D01*
X96956Y181824D01*
X96844Y181745D01*
X96742Y181689D01*
X96653Y181632D01*
X96596Y181610D01*
X96574Y181599D01*
X96394Y181531D01*
X96202Y181486D01*
X96034Y181441D01*
X95876Y181419D01*
X95741Y181407D01*
X95629Y181396D01*
X95539D01*
X95314Y181407D01*
X95089Y181441D01*
X94886Y181498D01*
X94695Y181565D01*
X94526Y181644D01*
X94358Y181734D01*
X94211Y181824D01*
X94076Y181925D01*
X93953Y182026D01*
X93851Y182116D01*
X93761Y182206D01*
X93682Y182285D01*
X93626Y182352D01*
X93581Y182409D01*
X93559Y182442D01*
X93547Y182454D01*
Y181531D01*
X92602D01*
Y187797D01*
X93660D01*
Y184434D01*
X93671Y184152D01*
X93682Y183905D01*
X93716Y183691D01*
X93750Y183522D01*
X93784Y183387D01*
X93806Y183286D01*
X93829Y183230D01*
X93840Y183207D01*
X93919Y183061D01*
X94009Y182926D01*
X94099Y182814D01*
X94200Y182724D01*
X94290Y182645D01*
X94369Y182589D01*
X94414Y182555D01*
X94436Y182544D01*
X94594Y182465D01*
X94751Y182409D01*
X94909Y182364D01*
X95044Y182341D01*
X95156Y182319D01*
X95258Y182308D01*
X95336D01*
X95505Y182319D01*
X95662Y182341D01*
X95797Y182386D01*
X95910Y182431D01*
X96011Y182465D01*
X96079Y182510D01*
X96124Y182533D01*
X96135Y182544D01*
X96248Y182645D01*
X96337Y182746D01*
X96416Y182859D01*
X96473Y182960D01*
X96517Y183050D01*
X96540Y183129D01*
X96562Y183174D01*
Y183196D01*
X96574Y183253D01*
X96585Y183331D01*
X96596Y183500D01*
X96608Y183680D01*
Y183871D01*
X96619Y184040D01*
Y184119D01*
Y184186D01*
Y184242D01*
Y184288D01*
Y184310D01*
Y184321D01*
Y187797D01*
X97676D01*
Y183916D01*
D02*
G37*
G36*
X115474Y187921D02*
X115699Y187899D01*
X115912Y187854D01*
X116115Y187797D01*
X116295Y187730D01*
X116475Y187651D01*
X116632Y187573D01*
X116779Y187494D01*
X116902Y187415D01*
X117015Y187336D01*
X117116Y187258D01*
X117195Y187190D01*
X117262Y187134D01*
X117307Y187089D01*
X117330Y187066D01*
X117341Y187055D01*
X117488Y186886D01*
X117611Y186706D01*
X117712Y186504D01*
X117814Y186301D01*
X117893Y186099D01*
X117949Y185896D01*
X118005Y185694D01*
X118050Y185503D01*
X118084Y185322D01*
X118106Y185154D01*
X118129Y184996D01*
X118140Y184861D01*
Y184760D01*
X118151Y184670D01*
Y184625D01*
Y184602D01*
X118140Y184321D01*
X118117Y184063D01*
X118072Y183826D01*
X118027Y183590D01*
X117971Y183387D01*
X117904Y183185D01*
X117825Y183016D01*
X117746Y182847D01*
X117679Y182712D01*
X117600Y182589D01*
X117533Y182487D01*
X117476Y182397D01*
X117431Y182330D01*
X117386Y182285D01*
X117364Y182251D01*
X117352Y182240D01*
X117195Y182094D01*
X117026Y181959D01*
X116846Y181846D01*
X116666Y181756D01*
X116486Y181666D01*
X116306Y181599D01*
X116126Y181543D01*
X115957Y181498D01*
X115800Y181464D01*
X115642Y181441D01*
X115507Y181419D01*
X115395Y181407D01*
X115305D01*
X115226Y181396D01*
X115170D01*
X114968Y181407D01*
X114776Y181419D01*
X114427Y181475D01*
X114270Y181520D01*
X114124Y181565D01*
X113989Y181610D01*
X113865Y181666D01*
X113752Y181711D01*
X113663Y181756D01*
X113573Y181801D01*
X113505Y181846D01*
X113449Y181880D01*
X113415Y181903D01*
X113392Y181925D01*
X113381D01*
X113145Y182139D01*
X112943Y182386D01*
X112774Y182634D01*
X112639Y182870D01*
X112549Y183084D01*
X112504Y183185D01*
X112481Y183264D01*
X112448Y183331D01*
X112436Y183376D01*
X112425Y183410D01*
Y183421D01*
X113528Y183568D01*
X113618Y183331D01*
X113730Y183129D01*
X113842Y182949D01*
X113944Y182814D01*
X114034Y182712D01*
X114112Y182634D01*
X114157Y182589D01*
X114180Y182578D01*
X114338Y182476D01*
X114506Y182397D01*
X114675Y182352D01*
X114821Y182308D01*
X114968Y182285D01*
X115069Y182274D01*
X115170D01*
X115316Y182285D01*
X115451Y182296D01*
X115710Y182364D01*
X115935Y182442D01*
X116126Y182544D01*
X116272Y182645D01*
X116396Y182735D01*
X116430Y182769D01*
X116464Y182791D01*
X116475Y182802D01*
X116486Y182814D01*
X116576Y182926D01*
X116655Y183039D01*
X116790Y183286D01*
X116891Y183545D01*
X116970Y183804D01*
X117015Y184029D01*
X117026Y184130D01*
X117037Y184220D01*
X117049Y184288D01*
X117060Y184344D01*
Y184378D01*
Y184389D01*
X112391D01*
X112380Y184512D01*
Y184602D01*
Y184648D01*
Y184670D01*
X112391Y184951D01*
X112414Y185221D01*
X112459Y185469D01*
X112504Y185705D01*
X112560Y185919D01*
X112627Y186110D01*
X112706Y186290D01*
X112774Y186459D01*
X112853Y186605D01*
X112931Y186729D01*
X112999Y186830D01*
X113055Y186920D01*
X113100Y186987D01*
X113145Y187032D01*
X113168Y187066D01*
X113179Y187077D01*
X113336Y187224D01*
X113494Y187359D01*
X113663Y187471D01*
X113842Y187573D01*
X114011Y187651D01*
X114180Y187719D01*
X114349Y187786D01*
X114506Y187831D01*
X114653Y187865D01*
X114799Y187888D01*
X114922Y187910D01*
X115024Y187921D01*
X115114Y187933D01*
X115237D01*
X115474Y187921D01*
D02*
G37*
G36*
X151271Y181531D02*
X147986D01*
X147682Y181543D01*
X147413Y181554D01*
X147176Y181576D01*
X146974Y181599D01*
X146816Y181621D01*
X146749Y181632D01*
X146693Y181644D01*
X146648Y181655D01*
X146614Y181666D01*
X146591D01*
X146389Y181722D01*
X146197Y181790D01*
X146040Y181869D01*
X145905Y181936D01*
X145792Y181992D01*
X145714Y182049D01*
X145658Y182082D01*
X145646Y182094D01*
X145511Y182218D01*
X145387Y182341D01*
X145275Y182476D01*
X145185Y182611D01*
X145106Y182724D01*
X145050Y182814D01*
X145016Y182881D01*
X145005Y182904D01*
X144915Y183106D01*
X144859Y183298D01*
X144814Y183489D01*
X144780Y183658D01*
X144757Y183815D01*
X144746Y183928D01*
Y183973D01*
Y184006D01*
Y184018D01*
Y184029D01*
X144769Y184299D01*
X144814Y184546D01*
X144881Y184771D01*
X144960Y184962D01*
X145039Y185120D01*
X145106Y185232D01*
X145129Y185277D01*
X145151Y185311D01*
X145174Y185322D01*
Y185334D01*
X145343Y185525D01*
X145534Y185694D01*
X145736Y185829D01*
X145928Y185941D01*
X146107Y186031D01*
X146186Y186065D01*
X146242Y186088D01*
X146299Y186110D01*
X146344Y186121D01*
X146366Y186133D01*
X146378D01*
X146164Y186245D01*
X145984Y186380D01*
X145826Y186504D01*
X145691Y186627D01*
X145590Y186740D01*
X145522Y186830D01*
X145477Y186886D01*
X145466Y186909D01*
X145365Y187100D01*
X145286Y187280D01*
X145241Y187460D01*
X145196Y187629D01*
X145174Y187764D01*
X145162Y187876D01*
Y187910D01*
Y187944D01*
Y187955D01*
Y187966D01*
X145174Y188191D01*
X145219Y188394D01*
X145275Y188585D01*
X145331Y188754D01*
X145399Y188900D01*
X145455Y189013D01*
X145500Y189080D01*
X145511Y189091D01*
Y189102D01*
X145646Y189294D01*
X145804Y189462D01*
X145950Y189597D01*
X146107Y189710D01*
X146242Y189800D01*
X146344Y189867D01*
X146389Y189890D01*
X146423Y189901D01*
X146434Y189912D01*
X146445D01*
X146681Y190003D01*
X146940Y190070D01*
X147210Y190115D01*
X147458Y190149D01*
X147682Y190171D01*
X147784D01*
X147863Y190182D01*
X151271D01*
Y181531D01*
D02*
G37*
G36*
X108915Y187921D02*
X109039Y187899D01*
X109162Y187865D01*
X109264Y187831D01*
X109343Y187786D01*
X109410Y187752D01*
X109455Y187730D01*
X109466Y187719D01*
X109579Y187618D01*
X109703Y187494D01*
X109815Y187347D01*
X109916Y187190D01*
X109995Y187055D01*
X110074Y186943D01*
X110096Y186898D01*
X110119Y186864D01*
X110130Y186841D01*
Y187797D01*
X111086D01*
Y181531D01*
X110029D01*
Y184794D01*
X110018Y185041D01*
X110006Y185277D01*
X109973Y185480D01*
X109939Y185671D01*
X109916Y185818D01*
X109882Y185930D01*
X109871Y185975D01*
Y186009D01*
X109860Y186020D01*
Y186031D01*
X109804Y186166D01*
X109748Y186279D01*
X109680Y186380D01*
X109613Y186459D01*
X109556Y186526D01*
X109511Y186583D01*
X109477Y186605D01*
X109466Y186616D01*
X109354Y186684D01*
X109253Y186740D01*
X109140Y186774D01*
X109050Y186808D01*
X108960Y186819D01*
X108893Y186830D01*
X108836D01*
X108690Y186819D01*
X108544Y186796D01*
X108409Y186762D01*
X108296Y186717D01*
X108195Y186672D01*
X108116Y186639D01*
X108071Y186616D01*
X108049Y186605D01*
X107677Y187584D01*
X107891Y187696D01*
X108082Y187786D01*
X108274Y187843D01*
X108442Y187888D01*
X108578Y187910D01*
X108690Y187933D01*
X108780D01*
X108915Y187921D01*
D02*
G37*
G36*
X77527Y181531D02*
X76470D01*
Y190182D01*
X77527D01*
Y181531D01*
D02*
G37*
G36*
X130920Y187921D02*
X131123Y187899D01*
X131314Y187865D01*
X131505Y187820D01*
X131674Y187775D01*
X131843Y187707D01*
X131989Y187651D01*
X132124Y187584D01*
X132247Y187516D01*
X132360Y187460D01*
X132450Y187392D01*
X132529Y187347D01*
X132596Y187302D01*
X132641Y187269D01*
X132664Y187246D01*
X132675Y187235D01*
X132844Y187066D01*
X132990Y186886D01*
X133114Y186684D01*
X133226Y186481D01*
X133316Y186267D01*
X133395Y186054D01*
X133463Y185840D01*
X133508Y185626D01*
X133553Y185435D01*
X133575Y185255D01*
X133598Y185086D01*
X133620Y184940D01*
Y184827D01*
X133631Y184738D01*
Y184681D01*
Y184659D01*
X133620Y184366D01*
X133598Y184096D01*
X133553Y183849D01*
X133508Y183613D01*
X133440Y183387D01*
X133372Y183196D01*
X133305Y183016D01*
X133226Y182847D01*
X133148Y182701D01*
X133080Y182578D01*
X133012Y182476D01*
X132945Y182386D01*
X132900Y182319D01*
X132855Y182274D01*
X132833Y182240D01*
X132821Y182229D01*
X132664Y182082D01*
X132495Y181959D01*
X132326Y181846D01*
X132146Y181745D01*
X131966Y181666D01*
X131798Y181599D01*
X131629Y181543D01*
X131460Y181498D01*
X131302Y181464D01*
X131156Y181441D01*
X131033Y181419D01*
X130920Y181407D01*
X130830D01*
X130763Y181396D01*
X130706D01*
X130403Y181407D01*
X130121Y181453D01*
X129862Y181520D01*
X129649Y181588D01*
X129457Y181655D01*
X129379Y181689D01*
X129323Y181722D01*
X129266Y181745D01*
X129233Y181767D01*
X129210Y181779D01*
X129199D01*
X128951Y181936D01*
X128737Y182105D01*
X128558Y182285D01*
X128411Y182454D01*
X128287Y182611D01*
X128209Y182735D01*
X128175Y182780D01*
X128153Y182814D01*
X128141Y182836D01*
Y182847D01*
X128074Y182983D01*
X128017Y183129D01*
X127927Y183444D01*
X127860Y183759D01*
X127815Y184063D01*
X127804Y184197D01*
X127793Y184333D01*
X127781Y184445D01*
X127770Y184546D01*
Y184636D01*
Y184693D01*
Y184738D01*
Y184749D01*
X127781Y185019D01*
X127804Y185277D01*
X127849Y185514D01*
X127894Y185739D01*
X127961Y185952D01*
X128029Y186144D01*
X128108Y186312D01*
X128175Y186470D01*
X128254Y186605D01*
X128332Y186729D01*
X128400Y186841D01*
X128468Y186920D01*
X128513Y186987D01*
X128558Y187044D01*
X128580Y187066D01*
X128591Y187077D01*
X128749Y187224D01*
X128918Y187359D01*
X129086Y187471D01*
X129266Y187573D01*
X129446Y187651D01*
X129626Y187719D01*
X129795Y187786D01*
X129953Y187831D01*
X130110Y187865D01*
X130256Y187888D01*
X130380Y187910D01*
X130492Y187921D01*
X130582Y187933D01*
X130706D01*
X130920Y187921D01*
D02*
G37*
G36*
X101985Y187910D02*
X102143Y187888D01*
X102278Y187865D01*
X102401Y187843D01*
X102480Y187820D01*
X102536Y187809D01*
X102559Y187797D01*
X102705Y187752D01*
X102840Y187696D01*
X102964Y187651D01*
X103054Y187595D01*
X103132Y187561D01*
X103189Y187528D01*
X103223Y187505D01*
X103234Y187494D01*
X103346Y187404D01*
X103447Y187302D01*
X103537Y187201D01*
X103616Y187111D01*
X103673Y187021D01*
X103718Y186954D01*
X103740Y186909D01*
X103751Y186898D01*
X103819Y186762D01*
X103864Y186627D01*
X103898Y186493D01*
X103920Y186380D01*
X103931Y186267D01*
X103943Y186189D01*
Y186144D01*
Y186121D01*
X103931Y185952D01*
X103909Y185795D01*
X103875Y185649D01*
X103830Y185525D01*
X103785Y185424D01*
X103751Y185345D01*
X103729Y185300D01*
X103718Y185277D01*
X103616Y185143D01*
X103515Y185030D01*
X103391Y184929D01*
X103290Y184850D01*
X103189Y184783D01*
X103110Y184738D01*
X103054Y184704D01*
X103031Y184693D01*
X102941Y184648D01*
X102829Y184614D01*
X102716Y184569D01*
X102593Y184524D01*
X102322Y184434D01*
X102052Y184355D01*
X101805Y184288D01*
X101692Y184254D01*
X101602Y184231D01*
X101524Y184209D01*
X101468Y184186D01*
X101423Y184175D01*
X101411D01*
X101254Y184141D01*
X101119Y184096D01*
X100984Y184063D01*
X100871Y184029D01*
X100770Y183995D01*
X100680Y183973D01*
X100612Y183950D01*
X100545Y183916D01*
X100433Y183882D01*
X100365Y183849D01*
X100331Y183837D01*
X100320Y183826D01*
X100219Y183736D01*
X100140Y183646D01*
X100084Y183556D01*
X100039Y183466D01*
X100016Y183387D01*
X100005Y183320D01*
Y183275D01*
Y183264D01*
X100016Y183117D01*
X100061Y182983D01*
X100118Y182870D01*
X100185Y182769D01*
X100252Y182679D01*
X100309Y182623D01*
X100354Y182578D01*
X100365Y182566D01*
X100511Y182465D01*
X100691Y182397D01*
X100871Y182341D01*
X101040Y182308D01*
X101209Y182285D01*
X101332Y182274D01*
X101456D01*
X101715Y182285D01*
X101940Y182330D01*
X102131Y182375D01*
X102300Y182442D01*
X102424Y182499D01*
X102514Y182555D01*
X102570Y182589D01*
X102593Y182600D01*
X102727Y182735D01*
X102840Y182893D01*
X102919Y183050D01*
X102986Y183207D01*
X103031Y183354D01*
X103054Y183466D01*
X103065Y183511D01*
X103076Y183545D01*
Y183556D01*
Y183568D01*
X104122Y183399D01*
X104089Y183219D01*
X104044Y183050D01*
X103988Y182893D01*
X103920Y182746D01*
X103864Y182611D01*
X103796Y182487D01*
X103718Y182375D01*
X103650Y182274D01*
X103583Y182184D01*
X103526Y182105D01*
X103470Y182037D01*
X103414Y181981D01*
X103369Y181948D01*
X103335Y181914D01*
X103324Y181903D01*
X103313Y181891D01*
X103189Y181801D01*
X103042Y181734D01*
X102750Y181610D01*
X102435Y181520D01*
X102143Y181464D01*
X101996Y181441D01*
X101861Y181419D01*
X101749Y181407D01*
X101647D01*
X101558Y181396D01*
X101445D01*
X101175Y181407D01*
X100927Y181430D01*
X100703Y181475D01*
X100511Y181520D01*
X100354Y181565D01*
X100230Y181610D01*
X100185Y181621D01*
X100151Y181632D01*
X100140Y181644D01*
X100129D01*
X99926Y181745D01*
X99746Y181869D01*
X99589Y181981D01*
X99454Y182105D01*
X99364Y182206D01*
X99285Y182285D01*
X99240Y182341D01*
X99229Y182364D01*
X99128Y182544D01*
X99049Y182724D01*
X98993Y182893D01*
X98948Y183050D01*
X98925Y183185D01*
X98914Y183286D01*
Y183354D01*
Y183365D01*
Y183376D01*
X98925Y183568D01*
X98959Y183747D01*
X98993Y183894D01*
X99037Y184029D01*
X99094Y184130D01*
X99128Y184209D01*
X99161Y184265D01*
X99173Y184276D01*
X99274Y184411D01*
X99397Y184524D01*
X99510Y184614D01*
X99622Y184693D01*
X99724Y184760D01*
X99803Y184805D01*
X99859Y184827D01*
X99881Y184839D01*
X99971Y184872D01*
X100073Y184917D01*
X100309Y184996D01*
X100567Y185075D01*
X100826Y185154D01*
X101063Y185221D01*
X101175Y185244D01*
X101265Y185277D01*
X101332Y185300D01*
X101400Y185311D01*
X101434Y185322D01*
X101445D01*
X101580Y185356D01*
X101704Y185401D01*
X101816Y185424D01*
X101918Y185458D01*
X102007Y185480D01*
X102086Y185503D01*
X102210Y185536D01*
X102300Y185559D01*
X102356Y185581D01*
X102379Y185592D01*
X102390D01*
X102480Y185637D01*
X102570Y185682D01*
X102638Y185728D01*
X102694Y185773D01*
X102739Y185818D01*
X102772Y185851D01*
X102784Y185863D01*
X102795Y185874D01*
X102840Y185941D01*
X102863Y186009D01*
X102908Y186121D01*
Y186178D01*
X102919Y186211D01*
Y186234D01*
Y186245D01*
X102908Y186369D01*
X102874Y186470D01*
X102817Y186571D01*
X102761Y186650D01*
X102716Y186717D01*
X102660Y186762D01*
X102626Y186796D01*
X102615Y186808D01*
X102480Y186886D01*
X102322Y186954D01*
X102143Y186999D01*
X101974Y187021D01*
X101816Y187044D01*
X101692Y187055D01*
X101569D01*
X101344Y187044D01*
X101153Y187010D01*
X100984Y186965D01*
X100849Y186920D01*
X100736Y186864D01*
X100669Y186819D01*
X100612Y186785D01*
X100601Y186774D01*
X100489Y186661D01*
X100399Y186549D01*
X100320Y186425D01*
X100264Y186301D01*
X100230Y186200D01*
X100207Y186110D01*
X100185Y186054D01*
Y186031D01*
X99150Y186178D01*
X99195Y186391D01*
X99251Y186583D01*
X99308Y186740D01*
X99375Y186875D01*
X99431Y186987D01*
X99476Y187066D01*
X99510Y187122D01*
X99521Y187134D01*
X99634Y187269D01*
X99769Y187381D01*
X99904Y187483D01*
X100039Y187561D01*
X100162Y187629D01*
X100264Y187685D01*
X100331Y187707D01*
X100343Y187719D01*
X100354D01*
X100567Y187786D01*
X100781Y187843D01*
X101006Y187876D01*
X101198Y187910D01*
X101377Y187921D01*
X101445D01*
X101513Y187933D01*
X101816D01*
X101985Y187910D01*
D02*
G37*
G36*
X156615Y190317D02*
X156919Y190284D01*
X157189Y190227D01*
X157425Y190182D01*
X157526Y190149D01*
X157616Y190126D01*
X157695Y190093D01*
X157763Y190070D01*
X157819Y190059D01*
X157852Y190036D01*
X157875Y190025D01*
X157886D01*
X158134Y189901D01*
X158359Y189766D01*
X158539Y189620D01*
X158696Y189485D01*
X158809Y189361D01*
X158899Y189249D01*
X158944Y189181D01*
X158966Y189170D01*
Y189159D01*
X159090Y188945D01*
X159180Y188731D01*
X159248Y188529D01*
X159292Y188338D01*
X159315Y188169D01*
X159326Y188045D01*
X159337Y188000D01*
Y187966D01*
Y187944D01*
Y187933D01*
X159326Y187719D01*
X159292Y187516D01*
X159248Y187325D01*
X159191Y187168D01*
X159135Y187032D01*
X159090Y186943D01*
X159056Y186875D01*
X159045Y186864D01*
Y186853D01*
X158921Y186684D01*
X158775Y186526D01*
X158617Y186391D01*
X158471Y186279D01*
X158336Y186178D01*
X158224Y186110D01*
X158179Y186088D01*
X158145Y186065D01*
X158134Y186054D01*
X158123D01*
X158021Y186009D01*
X157909Y185952D01*
X157661Y185863D01*
X157380Y185761D01*
X157110Y185682D01*
X156851Y185604D01*
X156750Y185581D01*
X156649Y185547D01*
X156570Y185536D01*
X156514Y185514D01*
X156469Y185503D01*
X156457D01*
X156244Y185446D01*
X156052Y185401D01*
X155872Y185356D01*
X155715Y185322D01*
X155569Y185277D01*
X155445Y185244D01*
X155333Y185221D01*
X155243Y185187D01*
X155152Y185165D01*
X155085Y185143D01*
X155029Y185131D01*
X154984Y185109D01*
X154939Y185098D01*
X154916Y185086D01*
X154725Y185008D01*
X154568Y184917D01*
X154432Y184839D01*
X154320Y184760D01*
X154241Y184693D01*
X154185Y184636D01*
X154151Y184591D01*
X154140Y184580D01*
X154061Y184467D01*
X153994Y184344D01*
X153949Y184220D01*
X153926Y184107D01*
X153904Y184018D01*
X153893Y183939D01*
Y183894D01*
Y183871D01*
X153904Y183725D01*
X153926Y183590D01*
X153971Y183466D01*
X154016Y183354D01*
X154061Y183264D01*
X154106Y183185D01*
X154129Y183140D01*
X154140Y183129D01*
X154241Y183005D01*
X154365Y182904D01*
X154489Y182814D01*
X154613Y182735D01*
X154725Y182679D01*
X154815Y182634D01*
X154871Y182611D01*
X154883Y182600D01*
X154894D01*
X155085Y182533D01*
X155276Y182487D01*
X155479Y182454D01*
X155648Y182431D01*
X155805Y182420D01*
X155929Y182409D01*
X156041D01*
X156311Y182420D01*
X156559Y182442D01*
X156784Y182487D01*
X156975Y182533D01*
X157144Y182578D01*
X157211Y182600D01*
X157267Y182623D01*
X157313Y182634D01*
X157346Y182645D01*
X157358Y182656D01*
X157369D01*
X157571Y182757D01*
X157751Y182870D01*
X157897Y182983D01*
X158021Y183095D01*
X158111Y183185D01*
X158179Y183264D01*
X158224Y183309D01*
X158235Y183331D01*
X158325Y183500D01*
X158404Y183680D01*
X158471Y183860D01*
X158516Y184029D01*
X158550Y184186D01*
X158572Y184299D01*
Y184344D01*
X158584Y184378D01*
Y184400D01*
Y184411D01*
X159664Y184321D01*
X159641Y184006D01*
X159585Y183703D01*
X159506Y183444D01*
X159416Y183207D01*
X159371Y183106D01*
X159337Y183016D01*
X159292Y182949D01*
X159259Y182881D01*
X159236Y182825D01*
X159214Y182791D01*
X159191Y182769D01*
Y182757D01*
X159011Y182521D01*
X158809Y182308D01*
X158606Y182127D01*
X158404Y181981D01*
X158224Y181869D01*
X158145Y181824D01*
X158089Y181790D01*
X158033Y181756D01*
X157987Y181734D01*
X157965Y181722D01*
X157954D01*
X157639Y181610D01*
X157313Y181531D01*
X156975Y181464D01*
X156671Y181430D01*
X156525Y181419D01*
X156401Y181407D01*
X156278Y181396D01*
X156176D01*
X156097Y181385D01*
X155985D01*
X155648Y181396D01*
X155333Y181441D01*
X155051Y181498D01*
X154815Y181554D01*
X154702Y181588D01*
X154613Y181621D01*
X154534Y181644D01*
X154455Y181666D01*
X154410Y181689D01*
X154365Y181711D01*
X154342Y181722D01*
X154331D01*
X154072Y181858D01*
X153836Y182015D01*
X153645Y182173D01*
X153488Y182319D01*
X153364Y182454D01*
X153262Y182566D01*
X153240Y182611D01*
X153217Y182645D01*
X153195Y182656D01*
Y182668D01*
X153060Y182893D01*
X152959Y183129D01*
X152891Y183343D01*
X152835Y183545D01*
X152813Y183714D01*
X152801Y183781D01*
Y183849D01*
X152790Y183894D01*
Y183928D01*
Y183950D01*
Y183961D01*
X152801Y184220D01*
X152846Y184445D01*
X152902Y184659D01*
X152970Y184839D01*
X153049Y184985D01*
X153105Y185098D01*
X153128Y185131D01*
X153150Y185165D01*
X153161Y185176D01*
Y185187D01*
X153307Y185379D01*
X153488Y185559D01*
X153667Y185705D01*
X153848Y185840D01*
X154016Y185941D01*
X154151Y186009D01*
X154208Y186042D01*
X154241Y186065D01*
X154264Y186076D01*
X154275D01*
X154376Y186121D01*
X154500Y186166D01*
X154646Y186211D01*
X154792Y186267D01*
X155107Y186357D01*
X155422Y186436D01*
X155580Y186481D01*
X155715Y186515D01*
X155850Y186549D01*
X155963Y186571D01*
X156052Y186594D01*
X156131Y186616D01*
X156176Y186627D01*
X156187D01*
X156435Y186684D01*
X156660Y186740D01*
X156862Y186796D01*
X157043Y186853D01*
X157200Y186909D01*
X157335Y186954D01*
X157459Y187010D01*
X157571Y187055D01*
X157650Y187089D01*
X157729Y187122D01*
X157785Y187156D01*
X157830Y187190D01*
X157864Y187201D01*
X157886Y187224D01*
X157909Y187235D01*
X158021Y187359D01*
X158100Y187483D01*
X158156Y187606D01*
X158190Y187730D01*
X158212Y187843D01*
X158235Y187921D01*
Y187978D01*
Y188000D01*
X158212Y188191D01*
X158156Y188371D01*
X158089Y188529D01*
X157999Y188664D01*
X157909Y188776D01*
X157841Y188855D01*
X157785Y188900D01*
X157763Y188923D01*
X157673Y188990D01*
X157560Y189046D01*
X157324Y189147D01*
X157076Y189215D01*
X156829Y189260D01*
X156604Y189283D01*
X156514Y189294D01*
X156424Y189305D01*
X156075D01*
X155906Y189283D01*
X155749Y189271D01*
X155603Y189237D01*
X155467Y189204D01*
X155344Y189170D01*
X155231Y189136D01*
X155130Y189102D01*
X155051Y189058D01*
X154973Y189024D01*
X154905Y188990D01*
X154849Y188956D01*
X154815Y188923D01*
X154781Y188911D01*
X154759Y188889D01*
X154579Y188720D01*
X154444Y188517D01*
X154342Y188315D01*
X154264Y188124D01*
X154208Y187944D01*
X154185Y187865D01*
X154174Y187797D01*
X154163Y187741D01*
X154151Y187696D01*
Y187674D01*
Y187662D01*
X153049Y187741D01*
X153071Y188011D01*
X153128Y188270D01*
X153195Y188495D01*
X153274Y188698D01*
X153352Y188866D01*
X153386Y188934D01*
X153409Y188990D01*
X153443Y189035D01*
X153454Y189069D01*
X153476Y189080D01*
Y189091D01*
X153634Y189305D01*
X153825Y189496D01*
X154005Y189654D01*
X154196Y189778D01*
X154354Y189879D01*
X154489Y189957D01*
X154545Y189980D01*
X154579Y190003D01*
X154601Y190014D01*
X154613D01*
X154894Y190115D01*
X155186Y190194D01*
X155467Y190250D01*
X155726Y190295D01*
X155850Y190306D01*
X155963Y190317D01*
X156052D01*
X156142Y190329D01*
X156300D01*
X156615Y190317D01*
D02*
G37*
G36*
X137389Y187921D02*
X137591Y187899D01*
X137771Y187854D01*
X137929Y187809D01*
X138052Y187764D01*
X138143Y187719D01*
X138199Y187696D01*
X138221Y187685D01*
X138379Y187584D01*
X138525Y187471D01*
X138649Y187359D01*
X138761Y187246D01*
X138851Y187134D01*
X138930Y187055D01*
X138975Y186999D01*
X138986Y186976D01*
Y187797D01*
X139954D01*
Y179135D01*
X138896D01*
Y182184D01*
X138784Y182060D01*
X138671Y181959D01*
X138559Y181858D01*
X138446Y181779D01*
X138356Y181711D01*
X138277Y181666D01*
X138233Y181632D01*
X138210Y181621D01*
X138041Y181543D01*
X137884Y181486D01*
X137715Y181453D01*
X137569Y181430D01*
X137445Y181407D01*
X137344Y181396D01*
X137254D01*
X136984Y181419D01*
X136725Y181464D01*
X136489Y181520D01*
X136286Y181599D01*
X136117Y181677D01*
X136039Y181711D01*
X135983Y181734D01*
X135938Y181767D01*
X135904Y181779D01*
X135881Y181801D01*
X135870D01*
X135634Y181970D01*
X135431Y182150D01*
X135263Y182352D01*
X135116Y182544D01*
X135004Y182712D01*
X134959Y182780D01*
X134925Y182847D01*
X134891Y182904D01*
X134869Y182938D01*
X134857Y182960D01*
Y182971D01*
X134745Y183264D01*
X134655Y183568D01*
X134599Y183860D01*
X134554Y184130D01*
X134543Y184254D01*
X134531Y184355D01*
X134520Y184456D01*
X134509Y184546D01*
Y184614D01*
Y184659D01*
Y184693D01*
Y184704D01*
X134520Y185030D01*
X134554Y185345D01*
X134610Y185615D01*
X134666Y185863D01*
X134700Y185964D01*
X134722Y186065D01*
X134745Y186144D01*
X134779Y186211D01*
X134790Y186267D01*
X134812Y186312D01*
X134824Y186335D01*
Y186346D01*
X134959Y186616D01*
X135105Y186853D01*
X135263Y187044D01*
X135409Y187213D01*
X135544Y187347D01*
X135656Y187437D01*
X135701Y187471D01*
X135735Y187494D01*
X135746Y187516D01*
X135758D01*
X135994Y187651D01*
X136230Y187752D01*
X136477Y187831D01*
X136691Y187876D01*
X136882Y187910D01*
X136972Y187921D01*
X137040D01*
X137096Y187933D01*
X137175D01*
X137389Y187921D01*
D02*
G37*
G36*
X88372D02*
X88575Y187899D01*
X88755Y187854D01*
X88912Y187809D01*
X89036Y187764D01*
X89126Y187719D01*
X89183Y187696D01*
X89205Y187685D01*
X89363Y187584D01*
X89509Y187471D01*
X89632Y187359D01*
X89745Y187246D01*
X89835Y187134D01*
X89914Y187055D01*
X89959Y186999D01*
X89970Y186976D01*
Y187797D01*
X90938D01*
Y179135D01*
X89880D01*
Y182184D01*
X89767Y182060D01*
X89655Y181959D01*
X89543Y181858D01*
X89430Y181779D01*
X89340Y181711D01*
X89261Y181666D01*
X89216Y181632D01*
X89194Y181621D01*
X89025Y181543D01*
X88867Y181486D01*
X88699Y181453D01*
X88552Y181430D01*
X88429Y181407D01*
X88327Y181396D01*
X88238D01*
X87967Y181419D01*
X87709Y181464D01*
X87472Y181520D01*
X87270Y181599D01*
X87101Y181677D01*
X87023Y181711D01*
X86966Y181734D01*
X86921Y181767D01*
X86888Y181779D01*
X86865Y181801D01*
X86854D01*
X86617Y181970D01*
X86415Y182150D01*
X86246Y182352D01*
X86100Y182544D01*
X85988Y182712D01*
X85943Y182780D01*
X85909Y182847D01*
X85875Y182904D01*
X85852Y182938D01*
X85841Y182960D01*
Y182971D01*
X85729Y183264D01*
X85639Y183568D01*
X85583Y183860D01*
X85537Y184130D01*
X85526Y184254D01*
X85515Y184355D01*
X85504Y184456D01*
X85492Y184546D01*
Y184614D01*
Y184659D01*
Y184693D01*
Y184704D01*
X85504Y185030D01*
X85537Y185345D01*
X85594Y185615D01*
X85650Y185863D01*
X85684Y185964D01*
X85706Y186065D01*
X85729Y186144D01*
X85763Y186211D01*
X85774Y186267D01*
X85796Y186312D01*
X85808Y186335D01*
Y186346D01*
X85943Y186616D01*
X86089Y186853D01*
X86246Y187044D01*
X86392Y187213D01*
X86528Y187347D01*
X86640Y187437D01*
X86685Y187471D01*
X86719Y187494D01*
X86730Y187516D01*
X86741D01*
X86977Y187651D01*
X87214Y187752D01*
X87461Y187831D01*
X87675Y187876D01*
X87866Y187910D01*
X87956Y187921D01*
X88024D01*
X88080Y187933D01*
X88159D01*
X88372Y187921D01*
D02*
G37*
G36*
X81656D02*
X81859Y187899D01*
X82039Y187854D01*
X82196Y187809D01*
X82320Y187764D01*
X82410Y187719D01*
X82466Y187696D01*
X82489Y187685D01*
X82646Y187584D01*
X82793Y187471D01*
X82916Y187359D01*
X83029Y187246D01*
X83119Y187134D01*
X83197Y187055D01*
X83242Y186999D01*
X83254Y186976D01*
Y187797D01*
X84221D01*
Y179135D01*
X83164D01*
Y182184D01*
X83051Y182060D01*
X82939Y181959D01*
X82826Y181858D01*
X82714Y181779D01*
X82624Y181711D01*
X82545Y181666D01*
X82500Y181632D01*
X82477Y181621D01*
X82309Y181543D01*
X82151Y181486D01*
X81982Y181453D01*
X81836Y181430D01*
X81713Y181407D01*
X81611Y181396D01*
X81521D01*
X81251Y181419D01*
X80993Y181464D01*
X80756Y181520D01*
X80554Y181599D01*
X80385Y181677D01*
X80306Y181711D01*
X80250Y181734D01*
X80205Y181767D01*
X80171Y181779D01*
X80149Y181801D01*
X80137D01*
X79901Y181970D01*
X79699Y182150D01*
X79530Y182352D01*
X79384Y182544D01*
X79271Y182712D01*
X79226Y182780D01*
X79193Y182847D01*
X79159Y182904D01*
X79136Y182938D01*
X79125Y182960D01*
Y182971D01*
X79013Y183264D01*
X78922Y183568D01*
X78866Y183860D01*
X78821Y184130D01*
X78810Y184254D01*
X78799Y184355D01*
X78787Y184456D01*
X78776Y184546D01*
Y184614D01*
Y184659D01*
Y184693D01*
Y184704D01*
X78787Y185030D01*
X78821Y185345D01*
X78878Y185615D01*
X78934Y185863D01*
X78967Y185964D01*
X78990Y186065D01*
X79013Y186144D01*
X79046Y186211D01*
X79058Y186267D01*
X79080Y186312D01*
X79091Y186335D01*
Y186346D01*
X79226Y186616D01*
X79373Y186853D01*
X79530Y187044D01*
X79676Y187213D01*
X79811Y187347D01*
X79924Y187437D01*
X79969Y187471D01*
X80002Y187494D01*
X80014Y187516D01*
X80025D01*
X80261Y187651D01*
X80497Y187752D01*
X80745Y187831D01*
X80959Y187876D01*
X81150Y187910D01*
X81240Y187921D01*
X81308D01*
X81364Y187933D01*
X81442D01*
X81656Y187921D01*
D02*
G37*
%LPC*%
G36*
X192185Y203405D02*
X188248D01*
Y199469D01*
X184311D01*
Y203405D01*
X180374D01*
Y199469D01*
X176437D01*
X176437Y195531D01*
X176437Y191595D01*
X184311D01*
Y195531D01*
X188248D01*
Y191595D01*
X196122D01*
Y199469D01*
X192185D01*
Y203405D01*
D02*
G37*
G36*
X196122Y187657D02*
X176437D01*
Y183721D01*
X196122D01*
Y187657D01*
D02*
G37*
G36*
X191509Y50455D02*
X190323D01*
X190223Y50448D01*
X190130D01*
X190044Y50441D01*
X189964Y50428D01*
X189890Y50421D01*
X189824Y50415D01*
X189771Y50401D01*
X189717Y50395D01*
X189677Y50381D01*
X189637Y50375D01*
X189611Y50368D01*
X189584Y50362D01*
X189571Y50355D01*
X189557Y50348D01*
X189491Y50315D01*
X189424Y50282D01*
X189298Y50195D01*
X189191Y50102D01*
X189098Y50002D01*
X189025Y49915D01*
X188965Y49842D01*
X188945Y49809D01*
X188931Y49789D01*
X188918Y49775D01*
Y49769D01*
X188872Y49682D01*
X188831Y49589D01*
X188765Y49396D01*
X188718Y49189D01*
X188685Y48989D01*
X188672Y48896D01*
X188665Y48810D01*
X188658Y48736D01*
Y48670D01*
X188652Y48617D01*
Y48570D01*
Y48543D01*
Y48537D01*
X188658Y48330D01*
X188672Y48137D01*
X188698Y47971D01*
X188712Y47897D01*
X188718Y47824D01*
X188732Y47764D01*
X188745Y47711D01*
X188758Y47664D01*
X188772Y47624D01*
X188778Y47591D01*
X188785Y47571D01*
X188792Y47558D01*
Y47551D01*
X188845Y47404D01*
X188905Y47278D01*
X188965Y47165D01*
X189025Y47071D01*
X189085Y46998D01*
X189125Y46945D01*
X189151Y46912D01*
X189164Y46898D01*
X189231Y46838D01*
X189311Y46785D01*
X189384Y46745D01*
X189457Y46705D01*
X189524Y46679D01*
X189577Y46659D01*
X189611Y46645D01*
X189617Y46639D01*
X189624D01*
X189737Y46605D01*
X189871Y46585D01*
X190004Y46565D01*
X190130Y46559D01*
X190243Y46552D01*
X190290Y46545D01*
X191509D01*
Y50455D01*
D02*
G37*
G36*
X191569Y65561D02*
X191502D01*
X191316Y65548D01*
X191142Y65521D01*
X190989Y65481D01*
X190856Y65435D01*
X190796Y65408D01*
X190743Y65381D01*
X190696Y65361D01*
X190663Y65342D01*
X190630Y65328D01*
X190610Y65315D01*
X190596Y65302D01*
X190590D01*
X190443Y65195D01*
X190323Y65082D01*
X190217Y64962D01*
X190130Y64849D01*
X190057Y64742D01*
X190030Y64696D01*
X190010Y64662D01*
X189990Y64629D01*
X189977Y64602D01*
X189970Y64589D01*
Y64582D01*
X189897Y64402D01*
X189844Y64216D01*
X189811Y64030D01*
X189784Y63863D01*
X189777Y63783D01*
X189771Y63710D01*
X189764Y63650D01*
X189757Y63597D01*
Y63550D01*
Y63517D01*
Y63497D01*
Y63490D01*
X189764Y63310D01*
X189777Y63144D01*
X189804Y62984D01*
X189837Y62837D01*
X189871Y62697D01*
X189917Y62578D01*
X189957Y62458D01*
X190004Y62358D01*
X190050Y62265D01*
X190097Y62185D01*
X190144Y62118D01*
X190177Y62065D01*
X190210Y62018D01*
X190237Y61992D01*
X190250Y61971D01*
X190257Y61965D01*
X190350Y61872D01*
X190450Y61792D01*
X190556Y61718D01*
X190663Y61659D01*
X190770Y61605D01*
X190869Y61565D01*
X190976Y61525D01*
X191069Y61499D01*
X191163Y61479D01*
X191249Y61459D01*
X191322Y61445D01*
X191389Y61439D01*
X191442D01*
X191482Y61432D01*
X191516D01*
X191655Y61439D01*
X191782Y61452D01*
X191908Y61479D01*
X192022Y61512D01*
X192135Y61552D01*
X192235Y61599D01*
X192335Y61645D01*
X192415Y61699D01*
X192494Y61745D01*
X192561Y61792D01*
X192621Y61838D01*
X192668Y61878D01*
X192708Y61912D01*
X192741Y61938D01*
X192754Y61952D01*
X192761Y61958D01*
X192848Y62065D01*
X192921Y62171D01*
X192987Y62291D01*
X193047Y62411D01*
X193094Y62531D01*
X193134Y62651D01*
X193167Y62771D01*
X193194Y62891D01*
X193214Y62997D01*
X193227Y63097D01*
X193240Y63184D01*
X193247Y63264D01*
Y63330D01*
X193254Y63377D01*
Y63403D01*
Y63417D01*
X193247Y63623D01*
X193234Y63816D01*
X193207Y63996D01*
X193174Y64163D01*
X193134Y64309D01*
X193094Y64442D01*
X193047Y64562D01*
X192994Y64669D01*
X192947Y64762D01*
X192901Y64842D01*
X192861Y64915D01*
X192821Y64969D01*
X192788Y65008D01*
X192761Y65042D01*
X192748Y65055D01*
X192741Y65062D01*
X192641Y65148D01*
X192541Y65228D01*
X192435Y65295D01*
X192328Y65348D01*
X192221Y65401D01*
X192122Y65441D01*
X192022Y65475D01*
X191928Y65501D01*
X191835Y65521D01*
X191755Y65535D01*
X191682Y65548D01*
X191622Y65555D01*
X191569Y65561D01*
D02*
G37*
G36*
X200706Y125561D02*
X200640D01*
X200453Y125548D01*
X200280Y125521D01*
X200127Y125481D01*
X199994Y125435D01*
X199934Y125408D01*
X199880Y125381D01*
X199834Y125362D01*
X199801Y125341D01*
X199767Y125328D01*
X199747Y125315D01*
X199734Y125302D01*
X199727D01*
X199581Y125195D01*
X199461Y125082D01*
X199354Y124962D01*
X199268Y124849D01*
X199195Y124742D01*
X199168Y124696D01*
X199148Y124662D01*
X199128Y124629D01*
X199115Y124602D01*
X199108Y124589D01*
Y124582D01*
X199035Y124402D01*
X198981Y124216D01*
X198948Y124030D01*
X198921Y123863D01*
X198915Y123783D01*
X198908Y123710D01*
X198901Y123650D01*
X198895Y123597D01*
Y123550D01*
Y123517D01*
Y123497D01*
Y123490D01*
X198901Y123310D01*
X198915Y123144D01*
X198941Y122984D01*
X198975Y122837D01*
X199008Y122697D01*
X199055Y122578D01*
X199095Y122458D01*
X199141Y122358D01*
X199188Y122265D01*
X199234Y122185D01*
X199281Y122118D01*
X199314Y122065D01*
X199348Y122018D01*
X199374Y121992D01*
X199388Y121971D01*
X199394Y121965D01*
X199487Y121872D01*
X199587Y121792D01*
X199694Y121719D01*
X199801Y121659D01*
X199907Y121605D01*
X200007Y121565D01*
X200114Y121525D01*
X200207Y121499D01*
X200300Y121479D01*
X200387Y121459D01*
X200460Y121445D01*
X200526Y121439D01*
X200580D01*
X200620Y121432D01*
X200653D01*
X200793Y121439D01*
X200919Y121452D01*
X201046Y121479D01*
X201159Y121512D01*
X201272Y121552D01*
X201372Y121599D01*
X201472Y121645D01*
X201552Y121698D01*
X201632Y121745D01*
X201699Y121792D01*
X201759Y121838D01*
X201805Y121878D01*
X201845Y121912D01*
X201878Y121938D01*
X201892Y121951D01*
X201898Y121958D01*
X201985Y122065D01*
X202058Y122171D01*
X202125Y122291D01*
X202185Y122411D01*
X202231Y122531D01*
X202271Y122651D01*
X202305Y122771D01*
X202331Y122891D01*
X202351Y122997D01*
X202365Y123097D01*
X202378Y123184D01*
X202385Y123264D01*
Y123330D01*
X202391Y123377D01*
Y123403D01*
Y123417D01*
X202385Y123623D01*
X202371Y123816D01*
X202345Y123996D01*
X202311Y124163D01*
X202271Y124309D01*
X202231Y124442D01*
X202185Y124562D01*
X202132Y124669D01*
X202085Y124762D01*
X202038Y124842D01*
X201998Y124915D01*
X201958Y124969D01*
X201925Y125008D01*
X201898Y125042D01*
X201885Y125055D01*
X201878Y125062D01*
X201779Y125148D01*
X201679Y125228D01*
X201572Y125295D01*
X201466Y125348D01*
X201359Y125401D01*
X201259Y125441D01*
X201159Y125475D01*
X201066Y125501D01*
X200973Y125521D01*
X200893Y125535D01*
X200819Y125548D01*
X200760Y125555D01*
X200706Y125561D01*
D02*
G37*
G36*
X202411Y110455D02*
X201226D01*
X201126Y110448D01*
X201033D01*
X200946Y110441D01*
X200866Y110428D01*
X200793Y110421D01*
X200726Y110415D01*
X200673Y110401D01*
X200620Y110395D01*
X200580Y110381D01*
X200540Y110375D01*
X200513Y110368D01*
X200486Y110362D01*
X200473Y110355D01*
X200460Y110348D01*
X200393Y110315D01*
X200327Y110282D01*
X200200Y110195D01*
X200094Y110102D01*
X200000Y110002D01*
X199927Y109915D01*
X199867Y109842D01*
X199847Y109809D01*
X199834Y109789D01*
X199820Y109775D01*
Y109769D01*
X199774Y109682D01*
X199734Y109589D01*
X199667Y109396D01*
X199621Y109189D01*
X199587Y108990D01*
X199574Y108896D01*
X199567Y108810D01*
X199561Y108736D01*
Y108670D01*
X199554Y108617D01*
Y108570D01*
Y108543D01*
Y108537D01*
X199561Y108330D01*
X199574Y108137D01*
X199601Y107970D01*
X199614Y107897D01*
X199621Y107824D01*
X199634Y107764D01*
X199647Y107711D01*
X199661Y107664D01*
X199674Y107624D01*
X199681Y107591D01*
X199687Y107571D01*
X199694Y107558D01*
Y107551D01*
X199747Y107404D01*
X199807Y107278D01*
X199867Y107165D01*
X199927Y107071D01*
X199987Y106998D01*
X200027Y106945D01*
X200054Y106912D01*
X200067Y106898D01*
X200133Y106838D01*
X200213Y106785D01*
X200287Y106745D01*
X200360Y106705D01*
X200427Y106678D01*
X200480Y106658D01*
X200513Y106645D01*
X200520Y106639D01*
X200526D01*
X200640Y106605D01*
X200773Y106585D01*
X200906Y106565D01*
X201033Y106559D01*
X201146Y106552D01*
X201192Y106545D01*
X202411D01*
Y110455D01*
D02*
G37*
G36*
X196177Y110528D02*
X196124Y110362D01*
X196071Y110182D01*
X196011Y110002D01*
X195951Y109835D01*
X195924Y109755D01*
X195898Y109682D01*
X195871Y109616D01*
X195851Y109562D01*
X195838Y109516D01*
X195825Y109482D01*
X195811Y109462D01*
Y109456D01*
X195278Y108044D01*
X197017D01*
X196457Y109542D01*
X196391Y109722D01*
X196337Y109902D01*
X196291Y110068D01*
X196251Y110215D01*
X196231Y110282D01*
X196217Y110342D01*
X196204Y110395D01*
X196197Y110441D01*
X196191Y110481D01*
X196184Y110508D01*
X196177Y110521D01*
Y110528D01*
D02*
G37*
G36*
X187040D02*
X186987Y110362D01*
X186933Y110182D01*
X186873Y110002D01*
X186813Y109835D01*
X186787Y109755D01*
X186760Y109682D01*
X186734Y109616D01*
X186714Y109562D01*
X186700Y109516D01*
X186687Y109482D01*
X186674Y109462D01*
Y109456D01*
X186141Y108044D01*
X187879D01*
X187320Y109542D01*
X187253Y109722D01*
X187200Y109902D01*
X187153Y110068D01*
X187113Y110215D01*
X187093Y110282D01*
X187080Y110342D01*
X187067Y110395D01*
X187060Y110441D01*
X187053Y110481D01*
X187047Y110508D01*
X187040Y110521D01*
Y110528D01*
D02*
G37*
G36*
X202411Y170455D02*
X201226D01*
X201126Y170448D01*
X201033D01*
X200946Y170441D01*
X200866Y170428D01*
X200793Y170421D01*
X200726Y170415D01*
X200673Y170401D01*
X200620Y170395D01*
X200580Y170381D01*
X200540Y170375D01*
X200513Y170368D01*
X200486Y170361D01*
X200473Y170355D01*
X200460Y170348D01*
X200393Y170315D01*
X200327Y170282D01*
X200200Y170195D01*
X200094Y170102D01*
X200000Y170002D01*
X199927Y169915D01*
X199867Y169842D01*
X199847Y169809D01*
X199834Y169789D01*
X199820Y169775D01*
Y169769D01*
X199774Y169682D01*
X199734Y169589D01*
X199667Y169396D01*
X199621Y169189D01*
X199587Y168990D01*
X199574Y168896D01*
X199567Y168810D01*
X199561Y168736D01*
Y168670D01*
X199554Y168617D01*
Y168570D01*
Y168543D01*
Y168537D01*
X199561Y168330D01*
X199574Y168137D01*
X199601Y167971D01*
X199614Y167897D01*
X199621Y167824D01*
X199634Y167764D01*
X199647Y167711D01*
X199661Y167664D01*
X199674Y167624D01*
X199681Y167591D01*
X199687Y167571D01*
X199694Y167558D01*
Y167551D01*
X199747Y167404D01*
X199807Y167278D01*
X199867Y167165D01*
X199927Y167071D01*
X199987Y166998D01*
X200027Y166945D01*
X200054Y166912D01*
X200067Y166898D01*
X200133Y166838D01*
X200213Y166785D01*
X200287Y166745D01*
X200360Y166705D01*
X200427Y166679D01*
X200480Y166658D01*
X200513Y166645D01*
X200520Y166639D01*
X200526D01*
X200640Y166605D01*
X200773Y166585D01*
X200906Y166565D01*
X201033Y166559D01*
X201146Y166552D01*
X201192Y166545D01*
X202411D01*
Y170455D01*
D02*
G37*
G36*
X196177Y170528D02*
X196124Y170361D01*
X196071Y170182D01*
X196011Y170002D01*
X195951Y169835D01*
X195924Y169755D01*
X195898Y169682D01*
X195871Y169616D01*
X195851Y169562D01*
X195838Y169516D01*
X195825Y169482D01*
X195811Y169462D01*
Y169456D01*
X195278Y168044D01*
X197017D01*
X196457Y169542D01*
X196391Y169722D01*
X196337Y169902D01*
X196291Y170068D01*
X196251Y170215D01*
X196231Y170282D01*
X196217Y170342D01*
X196204Y170395D01*
X196197Y170441D01*
X196191Y170481D01*
X196184Y170508D01*
X196177Y170521D01*
Y170528D01*
D02*
G37*
G36*
X187040D02*
X186987Y170361D01*
X186933Y170182D01*
X186873Y170002D01*
X186813Y169835D01*
X186787Y169755D01*
X186760Y169682D01*
X186734Y169616D01*
X186714Y169562D01*
X186700Y169516D01*
X186687Y169482D01*
X186674Y169462D01*
Y169456D01*
X186141Y168044D01*
X187879D01*
X187320Y169542D01*
X187253Y169722D01*
X187200Y169902D01*
X187153Y170068D01*
X187113Y170215D01*
X187093Y170282D01*
X187080Y170342D01*
X187067Y170395D01*
X187060Y170441D01*
X187053Y170481D01*
X187047Y170508D01*
X187040Y170521D01*
Y170528D01*
D02*
G37*
G36*
X115294Y187055D02*
X115226D01*
X115080Y187044D01*
X114934Y187032D01*
X114675Y186954D01*
X114450Y186864D01*
X114259Y186751D01*
X114112Y186627D01*
X114000Y186538D01*
X113966Y186493D01*
X113933Y186459D01*
X113910Y186448D01*
Y186436D01*
X113797Y186279D01*
X113707Y186088D01*
X113640Y185896D01*
X113584Y185705D01*
X113550Y185536D01*
X113528Y185458D01*
Y185390D01*
X113516Y185345D01*
X113505Y185300D01*
Y185277D01*
Y185266D01*
X117004D01*
X116970Y185559D01*
X116902Y185806D01*
X116813Y186031D01*
X116711Y186223D01*
X116621Y186369D01*
X116542Y186470D01*
X116486Y186538D01*
X116464Y186560D01*
X116363Y186650D01*
X116261Y186729D01*
X116059Y186841D01*
X115845Y186931D01*
X115654Y186999D01*
X115485Y187032D01*
X115406Y187044D01*
X115350D01*
X115294Y187055D01*
D02*
G37*
G36*
X150124Y189159D02*
X148076D01*
X147930Y189147D01*
X147806Y189136D01*
X147682Y189125D01*
X147570D01*
X147480Y189114D01*
X147390Y189102D01*
X147255Y189080D01*
X147165Y189058D01*
X147109Y189046D01*
X147086Y189035D01*
X146951Y188979D01*
X146827Y188911D01*
X146738Y188844D01*
X146648Y188765D01*
X146580Y188698D01*
X146535Y188641D01*
X146512Y188596D01*
X146501Y188585D01*
X146434Y188461D01*
X146378Y188326D01*
X146344Y188203D01*
X146310Y188090D01*
X146299Y187989D01*
X146288Y187899D01*
Y187854D01*
Y187831D01*
X146299Y187662D01*
X146321Y187516D01*
X146355Y187381D01*
X146400Y187280D01*
X146445Y187190D01*
X146479Y187122D01*
X146501Y187077D01*
X146512Y187066D01*
X146602Y186965D01*
X146715Y186875D01*
X146816Y186808D01*
X146929Y186740D01*
X147030Y186695D01*
X147109Y186661D01*
X147154Y186650D01*
X147176Y186639D01*
X147311Y186605D01*
X147480Y186583D01*
X147660Y186571D01*
X147840Y186560D01*
X147997Y186549D01*
X150124D01*
Y189159D01*
D02*
G37*
G36*
Y185525D02*
X148133D01*
X147840Y185514D01*
X147592Y185503D01*
X147368Y185480D01*
X147199Y185458D01*
X147053Y185424D01*
X146951Y185401D01*
X146895Y185390D01*
X146872Y185379D01*
X146715Y185311D01*
X146580Y185244D01*
X146467Y185154D01*
X146366Y185075D01*
X146288Y184996D01*
X146231Y184929D01*
X146197Y184884D01*
X146186Y184872D01*
X146096Y184738D01*
X146040Y184591D01*
X145995Y184456D01*
X145961Y184321D01*
X145939Y184209D01*
X145928Y184119D01*
Y184063D01*
Y184040D01*
X145939Y183894D01*
X145950Y183747D01*
X145984Y183624D01*
X146018Y183522D01*
X146051Y183432D01*
X146074Y183365D01*
X146096Y183320D01*
X146107Y183309D01*
X146175Y183196D01*
X146242Y183106D01*
X146321Y183016D01*
X146389Y182949D01*
X146456Y182893D01*
X146501Y182859D01*
X146535Y182836D01*
X146546Y182825D01*
X146648Y182769D01*
X146760Y182712D01*
X146861Y182679D01*
X146974Y182645D01*
X147064Y182623D01*
X147131Y182600D01*
X147176Y182589D01*
X147199D01*
X147300Y182578D01*
X147413Y182566D01*
X147671Y182555D01*
X150124D01*
Y185525D01*
D02*
G37*
G36*
X130785Y187055D02*
X130706D01*
X130560Y187044D01*
X130425Y187032D01*
X130166Y186965D01*
X129941Y186864D01*
X129750Y186751D01*
X129604Y186639D01*
X129480Y186538D01*
X129446Y186504D01*
X129412Y186470D01*
X129401Y186459D01*
X129390Y186448D01*
X129300Y186335D01*
X129210Y186200D01*
X129086Y185919D01*
X128985Y185626D01*
X128929Y185345D01*
X128906Y185210D01*
X128884Y185086D01*
X128873Y184985D01*
Y184884D01*
X128861Y184805D01*
Y184749D01*
Y184704D01*
Y184693D01*
Y184467D01*
X128884Y184265D01*
X128906Y184074D01*
X128940Y183894D01*
X128985Y183725D01*
X129030Y183579D01*
X129075Y183444D01*
X129120Y183320D01*
X129176Y183219D01*
X129221Y183129D01*
X129266Y183050D01*
X129311Y182983D01*
X129345Y182938D01*
X129367Y182904D01*
X129379Y182881D01*
X129390Y182870D01*
X129491Y182769D01*
X129593Y182679D01*
X129705Y182589D01*
X129817Y182521D01*
X130043Y182420D01*
X130245Y182352D01*
X130425Y182308D01*
X130504Y182296D01*
X130571Y182285D01*
X130628Y182274D01*
X130706D01*
X130852Y182285D01*
X130988Y182296D01*
X131246Y182364D01*
X131471Y182465D01*
X131662Y182578D01*
X131809Y182679D01*
X131932Y182780D01*
X131966Y182814D01*
X132000Y182847D01*
X132011Y182859D01*
X132023Y182870D01*
X132113Y182994D01*
X132191Y183117D01*
X132326Y183399D01*
X132416Y183703D01*
X132473Y183984D01*
X132495Y184119D01*
X132518Y184254D01*
X132529Y184366D01*
Y184467D01*
X132540Y184546D01*
Y184602D01*
Y184648D01*
Y184659D01*
X132529Y184872D01*
X132518Y185086D01*
X132495Y185277D01*
X132461Y185446D01*
X132416Y185615D01*
X132371Y185761D01*
X132326Y185896D01*
X132281Y186009D01*
X132236Y186121D01*
X132191Y186211D01*
X132146Y186279D01*
X132101Y186346D01*
X132068Y186391D01*
X132045Y186436D01*
X132023Y186448D01*
Y186459D01*
X131921Y186560D01*
X131809Y186661D01*
X131708Y186740D01*
X131595Y186808D01*
X131370Y186909D01*
X131167Y186976D01*
X130988Y187021D01*
X130909Y187032D01*
X130841Y187044D01*
X130785Y187055D01*
D02*
G37*
G36*
X137344Y187100D02*
X137276D01*
X137153Y187089D01*
X137029Y187077D01*
X136804Y187010D01*
X136601Y186909D01*
X136433Y186808D01*
X136286Y186695D01*
X136185Y186594D01*
X136117Y186526D01*
X136095Y186515D01*
Y186504D01*
X136005Y186391D01*
X135926Y186256D01*
X135814Y185975D01*
X135724Y185671D01*
X135656Y185390D01*
X135645Y185255D01*
X135623Y185120D01*
X135611Y185008D01*
Y184906D01*
X135600Y184827D01*
Y184771D01*
Y184726D01*
Y184715D01*
Y184490D01*
X135623Y184276D01*
X135645Y184085D01*
X135679Y183905D01*
X135713Y183736D01*
X135758Y183579D01*
X135802Y183444D01*
X135847Y183320D01*
X135904Y183219D01*
X135949Y183129D01*
X135994Y183050D01*
X136028Y182983D01*
X136061Y182938D01*
X136084Y182904D01*
X136095Y182881D01*
X136106Y182870D01*
X136207Y182769D01*
X136309Y182679D01*
X136410Y182589D01*
X136511Y182521D01*
X136714Y182420D01*
X136905Y182352D01*
X137074Y182308D01*
X137141Y182296D01*
X137197Y182285D01*
X137254Y182274D01*
X137321D01*
X137445Y182285D01*
X137569Y182296D01*
X137805Y182364D01*
X138007Y182454D01*
X138176Y182566D01*
X138322Y182668D01*
X138424Y182757D01*
X138491Y182825D01*
X138503Y182836D01*
X138514Y182847D01*
X138604Y182960D01*
X138671Y183084D01*
X138795Y183365D01*
X138874Y183658D01*
X138941Y183950D01*
X138953Y184085D01*
X138975Y184209D01*
X138986Y184333D01*
Y184434D01*
X138997Y184512D01*
Y184569D01*
Y184614D01*
Y184625D01*
X138986Y184839D01*
X138975Y185053D01*
X138953Y185244D01*
X138919Y185424D01*
X138874Y185581D01*
X138829Y185739D01*
X138784Y185874D01*
X138739Y185997D01*
X138694Y186099D01*
X138649Y186200D01*
X138604Y186279D01*
X138559Y186346D01*
X138525Y186391D01*
X138503Y186425D01*
X138480Y186448D01*
Y186459D01*
X138379Y186571D01*
X138277Y186672D01*
X138176Y186751D01*
X138075Y186830D01*
X137974Y186898D01*
X137873Y186943D01*
X137681Y187021D01*
X137524Y187066D01*
X137389Y187089D01*
X137344Y187100D01*
D02*
G37*
G36*
X88327D02*
X88260D01*
X88136Y187089D01*
X88012Y187077D01*
X87787Y187010D01*
X87585Y186909D01*
X87416Y186808D01*
X87270Y186695D01*
X87169Y186594D01*
X87101Y186526D01*
X87079Y186515D01*
Y186504D01*
X86989Y186391D01*
X86910Y186256D01*
X86797Y185975D01*
X86708Y185671D01*
X86640Y185390D01*
X86629Y185255D01*
X86606Y185120D01*
X86595Y185008D01*
Y184906D01*
X86584Y184827D01*
Y184771D01*
Y184726D01*
Y184715D01*
Y184490D01*
X86606Y184276D01*
X86629Y184085D01*
X86663Y183905D01*
X86696Y183736D01*
X86741Y183579D01*
X86786Y183444D01*
X86831Y183320D01*
X86888Y183219D01*
X86932Y183129D01*
X86977Y183050D01*
X87011Y182983D01*
X87045Y182938D01*
X87068Y182904D01*
X87079Y182881D01*
X87090Y182870D01*
X87191Y182769D01*
X87292Y182679D01*
X87394Y182589D01*
X87495Y182521D01*
X87697Y182420D01*
X87889Y182352D01*
X88058Y182308D01*
X88125Y182296D01*
X88181Y182285D01*
X88238Y182274D01*
X88305D01*
X88429Y182285D01*
X88552Y182296D01*
X88789Y182364D01*
X88991Y182454D01*
X89160Y182566D01*
X89306Y182668D01*
X89407Y182757D01*
X89475Y182825D01*
X89486Y182836D01*
X89498Y182847D01*
X89587Y182960D01*
X89655Y183084D01*
X89779Y183365D01*
X89858Y183658D01*
X89925Y183950D01*
X89936Y184085D01*
X89959Y184209D01*
X89970Y184333D01*
Y184434D01*
X89981Y184512D01*
Y184569D01*
Y184614D01*
Y184625D01*
X89970Y184839D01*
X89959Y185053D01*
X89936Y185244D01*
X89903Y185424D01*
X89858Y185581D01*
X89812Y185739D01*
X89767Y185874D01*
X89723Y185997D01*
X89678Y186099D01*
X89632Y186200D01*
X89587Y186279D01*
X89543Y186346D01*
X89509Y186391D01*
X89486Y186425D01*
X89464Y186448D01*
Y186459D01*
X89363Y186571D01*
X89261Y186672D01*
X89160Y186751D01*
X89059Y186830D01*
X88958Y186898D01*
X88856Y186943D01*
X88665Y187021D01*
X88507Y187066D01*
X88372Y187089D01*
X88327Y187100D01*
D02*
G37*
G36*
X81611D02*
X81544D01*
X81420Y187089D01*
X81296Y187077D01*
X81071Y187010D01*
X80869Y186909D01*
X80700Y186808D01*
X80554Y186695D01*
X80453Y186594D01*
X80385Y186526D01*
X80362Y186515D01*
Y186504D01*
X80273Y186391D01*
X80194Y186256D01*
X80081Y185975D01*
X79991Y185671D01*
X79924Y185390D01*
X79913Y185255D01*
X79890Y185120D01*
X79879Y185008D01*
Y184906D01*
X79868Y184827D01*
Y184771D01*
Y184726D01*
Y184715D01*
Y184490D01*
X79890Y184276D01*
X79913Y184085D01*
X79946Y183905D01*
X79980Y183736D01*
X80025Y183579D01*
X80070Y183444D01*
X80115Y183320D01*
X80171Y183219D01*
X80216Y183129D01*
X80261Y183050D01*
X80295Y182983D01*
X80329Y182938D01*
X80351Y182904D01*
X80362Y182881D01*
X80374Y182870D01*
X80475Y182769D01*
X80576Y182679D01*
X80677Y182589D01*
X80779Y182521D01*
X80981Y182420D01*
X81173Y182352D01*
X81341Y182308D01*
X81409Y182296D01*
X81465Y182285D01*
X81521Y182274D01*
X81589D01*
X81713Y182285D01*
X81836Y182296D01*
X82073Y182364D01*
X82275Y182454D01*
X82444Y182566D01*
X82590Y182668D01*
X82691Y182757D01*
X82759Y182825D01*
X82770Y182836D01*
X82781Y182847D01*
X82871Y182960D01*
X82939Y183084D01*
X83062Y183365D01*
X83141Y183658D01*
X83209Y183950D01*
X83220Y184085D01*
X83242Y184209D01*
X83254Y184333D01*
Y184434D01*
X83265Y184512D01*
Y184569D01*
Y184614D01*
Y184625D01*
X83254Y184839D01*
X83242Y185053D01*
X83220Y185244D01*
X83186Y185424D01*
X83141Y185581D01*
X83096Y185739D01*
X83051Y185874D01*
X83006Y185997D01*
X82961Y186099D01*
X82916Y186200D01*
X82871Y186279D01*
X82826Y186346D01*
X82793Y186391D01*
X82770Y186425D01*
X82748Y186448D01*
Y186459D01*
X82646Y186571D01*
X82545Y186672D01*
X82444Y186751D01*
X82342Y186830D01*
X82241Y186898D01*
X82140Y186943D01*
X81949Y187021D01*
X81791Y187066D01*
X81656Y187089D01*
X81611Y187100D01*
D02*
G37*
%LPD*%
D13*
X51011Y165689D02*
X51122D01*
D14*
X158528Y72409D02*
X176441D01*
X131559D02*
X142543D01*
X131559Y23591D02*
X142543D01*
X158528D02*
X176441D01*
X131559D02*
Y72409D01*
X176441Y23591D02*
Y72409D01*
X205130Y41000D02*
X233870D01*
Y176000D01*
X205130D02*
X233870D01*
X205130Y41000D02*
Y176000D01*
D55*
X43307Y168898D02*
X43204Y169880D01*
X42899Y170819D01*
X42405Y171675D01*
X41744Y172408D01*
X40945Y172989D01*
X40043Y173391D01*
X39077Y173596D01*
X38089D01*
X37123Y173391D01*
X36220Y172989D01*
X35421Y172408D01*
X34760Y171675D01*
X34267Y170819D01*
X33961Y169880D01*
X33858Y168898D01*
Y163779D02*
Y168898D01*
X43307Y164173D02*
Y168898D01*
D56*
X71562Y162912D02*
X70612Y163160D01*
X69659Y163396D01*
X68704Y163621D01*
X67745Y163833D01*
X66784Y164034D01*
X65821Y164222D01*
X64855Y164399D01*
X63887Y164563D01*
X62918Y164716D01*
X61946Y164856D01*
X60973Y164984D01*
X59998Y165100D01*
X59022Y165204D01*
X58044Y165295D01*
X57066Y165375D01*
X56086Y165442D01*
X55106Y165497D01*
X54125Y165540D01*
X53144Y165570D01*
X52163Y165589D01*
X51181Y165595D01*
X31496Y125866D02*
X30610Y125406D01*
X29734Y124925D01*
X28869Y124425D01*
X28016Y123906D01*
X27175Y123366D01*
X26347Y122808D01*
X25531Y122231D01*
X24730Y121636D01*
X23941Y121022D01*
X23167Y120391D01*
X22408Y119742D01*
X21664Y119075D01*
X20935Y118392D01*
X20222Y117693D01*
X19525Y116977D01*
X18845Y116246D01*
X18181Y115499D01*
X17535Y114737D01*
X16907Y113961D01*
X16296Y113171D01*
X15704Y112366D01*
X15130Y111549D01*
X14574Y110719D01*
X14039Y109876D01*
X13522Y109021D01*
X13025Y108154D01*
X12548Y107277D01*
X12091Y106388D01*
X11655Y105490D01*
X11239Y104581D01*
X10845Y103664D01*
X10471Y102738D01*
X10118Y101803D01*
X9787Y100861D01*
X9478Y99911D01*
X9190Y98954D01*
X8924Y97992D01*
X8681Y97023D01*
X8460Y96049D01*
X8260Y95070D01*
X8084Y94087D01*
X7930Y93100D01*
X7798Y92110D01*
X7689Y91117D01*
X7603Y90122D01*
X7540Y89125D01*
X7499Y88127D01*
X7481Y87128D01*
X7486Y86129D01*
X7514Y85131D01*
X7565Y84133D01*
X7638Y83137D01*
X7734Y82143D01*
X7853Y81151D01*
X7995Y80162D01*
X8159Y79177D01*
X8346Y78196D01*
X8555Y77219D01*
X8786Y76247D01*
X9039Y75281D01*
X9315Y74321D01*
X9612Y73367D01*
X9931Y72421D01*
X10272Y71482D01*
X10633Y70551D01*
X11017Y69628D01*
X11421Y68715D01*
X11846Y67811D01*
X12291Y66917D01*
X12757Y66033D01*
X13243Y65160D01*
X13748Y64299D01*
X14273Y63449D01*
X14818Y62612D01*
X15381Y61787D01*
X15964Y60975D01*
X16564Y60177D01*
X17183Y59393D01*
X17819Y58623D01*
X18473Y57868D01*
X19144Y57128D01*
X19832Y56404D01*
X20536Y55695D01*
X21256Y55003D01*
X21991Y54327D01*
X22742Y53668D01*
X23508Y53027D01*
X24288Y52403D01*
X25083Y51798D01*
X25891Y51211D01*
X26712Y50642D01*
X27546Y50092D01*
X28392Y49562D01*
X29250Y49050D01*
X30120Y48559D01*
X31001Y48088D01*
X31892Y47637D01*
X32793Y47206D01*
X33704Y46796D01*
X34624Y46407D01*
X35552Y46039D01*
X36489Y45693D01*
X37434Y45368D01*
X38385Y45064D01*
X39344Y44783D01*
X40308Y44523D01*
X41279Y44286D01*
X42254Y44070D01*
X43234Y43878D01*
X44218Y43707D01*
X45206Y43559D01*
X46197Y43434D01*
X47191Y43332D01*
X48186Y43252D01*
X49184Y43195D01*
X50182Y43160D01*
X51181Y43149D01*
X52179Y43160D01*
X53178Y43195D01*
X54175Y43252D01*
X55171Y43331D01*
X56164Y43434D01*
X57155Y43559D01*
X58143Y43707D01*
X59127Y43878D01*
X60107Y44070D01*
X61083Y44286D01*
X62053Y44523D01*
X63018Y44783D01*
X63976Y45064D01*
X64928Y45367D01*
X65872Y45692D01*
X66809Y46039D01*
X67738Y46407D01*
X68658Y46796D01*
X69569Y47206D01*
X70470Y47636D01*
X71361Y48087D01*
X72242Y48559D01*
X73111Y49050D01*
X73970Y49561D01*
X74816Y50092D01*
X75650Y50641D01*
X76471Y51210D01*
X77279Y51797D01*
X78073Y52403D01*
X78853Y53027D01*
X79619Y53668D01*
X80370Y54327D01*
X81106Y55002D01*
X81826Y55695D01*
X82530Y56403D01*
X83218Y57127D01*
X83889Y57867D01*
X84543Y58623D01*
X85179Y59392D01*
X85798Y60177D01*
X86398Y60975D01*
X86980Y61787D01*
X87544Y62611D01*
X88088Y63449D01*
X88614Y64298D01*
X89119Y65160D01*
X89605Y66032D01*
X90071Y66916D01*
X90516Y67810D01*
X90941Y68714D01*
X91345Y69628D01*
X91728Y70550D01*
X92090Y71481D01*
X92431Y72420D01*
X92750Y73367D01*
X93047Y74320D01*
X93323Y75280D01*
X93576Y76247D01*
X93807Y77218D01*
X94016Y78195D01*
X94203Y79176D01*
X94367Y80162D01*
X94509Y81150D01*
X94628Y82142D01*
X94724Y83136D01*
X94797Y84132D01*
X94848Y85130D01*
X94876Y86129D01*
X94881Y87127D01*
X94863Y88126D01*
X94823Y89124D01*
X94759Y90121D01*
X94673Y91116D01*
X94564Y92109D01*
X94433Y93099D01*
X94279Y94086D01*
X94102Y95069D01*
X93903Y96048D01*
X93682Y97022D01*
X93438Y97991D01*
X93172Y98954D01*
X92885Y99910D01*
X92575Y100860D01*
X92244Y101802D01*
X91892Y102737D01*
X91518Y103663D01*
X91123Y104581D01*
X90707Y105489D01*
X90271Y106388D01*
X89814Y107276D01*
X89337Y108154D01*
X88841Y109020D01*
X88324Y109875D01*
X87788Y110718D01*
X87233Y111548D01*
X86659Y112366D01*
X86067Y113170D01*
X85456Y113961D01*
X84827Y114737D01*
X84181Y115498D01*
X83518Y116245D01*
X82837Y116977D01*
X82141Y117692D01*
X81428Y118392D01*
X80699Y119075D01*
X79955Y119741D01*
X79195Y120390D01*
X78421Y121022D01*
X77633Y121635D01*
X76831Y122231D01*
X76016Y122808D01*
X75188Y123366D01*
X74347Y123905D01*
X73494Y124425D01*
X72629Y124925D01*
X71753Y125405D01*
X70867Y125865D01*
X70866Y125866D01*
Y148756D02*
X69911Y149052D01*
X68951Y149333D01*
X67987Y149599D01*
X67019Y149850D01*
X66048Y150086D01*
X65073Y150308D01*
X64094Y150514D01*
X63113Y150705D01*
X62128Y150881D01*
X61141Y151042D01*
X60152Y151188D01*
X59161Y151318D01*
X58167Y151434D01*
X57172Y151533D01*
X56176Y151618D01*
X55178Y151687D01*
X54180Y151741D01*
X53181Y151780D01*
X52181Y151803D01*
X51181Y151810D01*
X50181Y151803D01*
X49181Y151780D01*
X48182Y151741D01*
X47184Y151687D01*
X46186Y151618D01*
X45190Y151533D01*
X44195Y151434D01*
X43201Y151318D01*
X42210Y151188D01*
X41221Y151042D01*
X40234Y150881D01*
X39249Y150705D01*
X38268Y150514D01*
X37289Y150308D01*
X36314Y150086D01*
X35343Y149850D01*
X34375Y149599D01*
X33411Y149332D01*
X32451Y149052D01*
X31496Y148756D01*
X70866Y125866D02*
Y148756D01*
X51122Y165689D02*
X56102Y170669D01*
X51011Y165689D02*
X56381Y160319D01*
X31496Y125866D02*
Y148756D01*
D57*
X38583Y162598D02*
D03*
M02*
