G04*
G04 #@! TF.GenerationSoftware,Altium Limited,Altium Designer,20.0.13 (296)*
G04*
G04 Layer_Physical_Order=2*
G04 Layer_Color=16711680*
%FSLAX25Y25*%
%MOIN*%
G70*
G01*
G75*
%ADD16C,0.03937*%
%ADD42C,0.00945*%
%ADD43C,0.02500*%
%ADD45C,0.01500*%
%ADD47C,0.05591*%
%ADD48C,0.13583*%
%ADD49C,0.06496*%
G04:AMPARAMS|DCode=50|XSize=64.96mil|YSize=64.96mil|CornerRadius=16.24mil|HoleSize=0mil|Usage=FLASHONLY|Rotation=270.000|XOffset=0mil|YOffset=0mil|HoleType=Round|Shape=RoundedRectangle|*
%AMROUNDEDRECTD50*
21,1,0.06496,0.03248,0,0,270.0*
21,1,0.03248,0.06496,0,0,270.0*
1,1,0.03248,-0.01624,-0.01624*
1,1,0.03248,-0.01624,0.01624*
1,1,0.03248,0.01624,0.01624*
1,1,0.03248,0.01624,-0.01624*
%
%ADD50ROUNDEDRECTD50*%
%ADD51C,0.23622*%
%ADD52C,0.01968*%
%ADD53C,0.02362*%
G36*
X215739Y215016D02*
X216538Y215016D01*
Y215006D01*
X216539Y215006D01*
X217324Y214973D01*
X218911Y214869D01*
X221242Y214405D01*
X223493Y213641D01*
X225624Y212590D01*
X227601Y211269D01*
X229387Y209702D01*
X230955Y207916D01*
X232275Y205939D01*
X233326Y203808D01*
X234090Y201557D01*
X234554Y199226D01*
X234658Y197640D01*
X234691Y196853D01*
X234691Y196853D01*
X234701D01*
X234701Y196054D01*
Y20481D01*
X234701Y19713D01*
X234693Y19705D01*
X234691Y19695D01*
X234691Y19695D01*
Y19689D01*
X234669Y19169D01*
X234658Y18895D01*
X234554Y17309D01*
X234090Y14978D01*
X233326Y12728D01*
X232275Y10596D01*
X230955Y8620D01*
X229387Y6833D01*
X227601Y5266D01*
X225624Y3946D01*
X223493Y2894D01*
X221242Y2130D01*
X218911Y1667D01*
X217325Y1563D01*
X216539Y1529D01*
X216538Y1529D01*
Y1520D01*
X20471D01*
X19682Y1520D01*
Y1529D01*
X19672Y1528D01*
X18889Y1563D01*
X17309Y1667D01*
X14978Y2130D01*
X12728Y2894D01*
X10596Y3946D01*
X8620Y5266D01*
X6833Y6833D01*
X5266Y8620D01*
X3946Y10596D01*
X2894Y12728D01*
X2130Y14978D01*
X1667Y17309D01*
X1563Y18896D01*
X1529Y19682D01*
X1529Y19682D01*
X1520D01*
X1520Y196054D01*
X1520Y196853D01*
X1529D01*
X1529Y196853D01*
X1563Y197640D01*
X1667Y199226D01*
X2130Y201557D01*
X2894Y203808D01*
X3946Y205939D01*
X5266Y207916D01*
X6833Y209702D01*
X8620Y211269D01*
X10596Y212590D01*
X12728Y213641D01*
X14978Y214405D01*
X17309Y214869D01*
X18889Y214972D01*
X19672Y215008D01*
X19682Y215006D01*
Y215016D01*
X20471Y215016D01*
X215739D01*
D02*
G37*
%LPC*%
G36*
X168600Y206378D02*
X67801D01*
Y191900D01*
X168600D01*
Y206378D01*
D02*
G37*
G36*
X116000Y190386D02*
X108500D01*
X107778Y190243D01*
X107166Y189834D01*
X106757Y189222D01*
X106614Y188500D01*
X106757Y187778D01*
X107166Y187166D01*
X107778Y186757D01*
X108500Y186614D01*
X116000D01*
X116722Y186757D01*
X117334Y187166D01*
X117743Y187778D01*
X117886Y188500D01*
X117743Y189222D01*
X117334Y189834D01*
X116722Y190243D01*
X116000Y190386D01*
D02*
G37*
G36*
X68000Y190517D02*
X67278Y190374D01*
X66666Y189965D01*
X66257Y189353D01*
X66114Y188631D01*
Y188500D01*
X66257Y187778D01*
X66666Y187166D01*
X67278Y186757D01*
X68000Y186614D01*
X88000D01*
X88722Y186757D01*
X89334Y187166D01*
X89743Y187778D01*
X89886Y188500D01*
X89743Y189222D01*
X89334Y189834D01*
X88722Y190243D01*
X88000Y190386D01*
X68659D01*
X68000Y190517D01*
D02*
G37*
G36*
X63541Y194750D02*
X62846Y194611D01*
X62257Y194218D01*
X61863Y193629D01*
X61725Y192934D01*
X61863Y192239D01*
X62164Y191788D01*
Y169753D01*
X61364Y169244D01*
X61000Y169316D01*
X60305Y169178D01*
X59716Y168784D01*
X59322Y168195D01*
X59184Y167500D01*
X59322Y166805D01*
X59716Y166216D01*
X59907Y166088D01*
Y164000D01*
X59907Y164000D01*
X59990Y163582D01*
X60227Y163227D01*
X63229Y160225D01*
X63184Y160000D01*
X63252Y159657D01*
X62732Y158857D01*
X57054Y158857D01*
X56595Y158667D01*
X56405Y158208D01*
X56405Y141716D01*
X56595Y141257D01*
X57054Y141066D01*
X65695D01*
X66154Y141257D01*
X66344Y141716D01*
X66344Y158208D01*
X66167Y158637D01*
X66284Y158716D01*
X66678Y159305D01*
X66729Y159565D01*
X67012Y160036D01*
X67598Y160145D01*
X67827Y160100D01*
X68522Y160238D01*
X69111Y160632D01*
X69505Y161221D01*
X69643Y161916D01*
X69505Y162611D01*
X69111Y163200D01*
X68522Y163594D01*
X67990Y163699D01*
X64917Y166772D01*
Y191788D01*
X65219Y192239D01*
X65357Y192934D01*
X65219Y193629D01*
X64825Y194218D01*
X64236Y194611D01*
X63541Y194750D01*
D02*
G37*
G36*
X221715Y172392D02*
X218466D01*
X217599Y172219D01*
X216863Y171727D01*
X216372Y170992D01*
X216199Y170124D01*
Y166876D01*
X216372Y166008D01*
X216863Y165273D01*
X217599Y164781D01*
X218466Y164608D01*
X221715D01*
X222582Y164781D01*
X223318Y165273D01*
X223810Y166008D01*
X223982Y166876D01*
Y170124D01*
X223810Y170992D01*
X223318Y171727D01*
X222582Y172219D01*
X221715Y172392D01*
D02*
G37*
G36*
X39261Y188927D02*
X38566Y188789D01*
X37977Y188395D01*
X37584Y187806D01*
X37445Y187111D01*
X37584Y186416D01*
X37885Y185965D01*
Y161701D01*
X37085Y161458D01*
X37034Y161534D01*
X36445Y161928D01*
X35750Y162066D01*
X35108Y161938D01*
X32594Y164453D01*
Y165671D01*
X32660Y165716D01*
X33054Y166305D01*
X33192Y167000D01*
X33054Y167695D01*
X32660Y168284D01*
X32071Y168678D01*
X31376Y168816D01*
X30681Y168678D01*
X30092Y168284D01*
X29699Y167695D01*
X29560Y167000D01*
X29699Y166305D01*
X30092Y165716D01*
X30406Y165506D01*
Y164000D01*
X30406Y164000D01*
X30490Y163582D01*
X30727Y163227D01*
X33991Y159962D01*
X34052Y159657D01*
X33973Y159416D01*
X33576Y158857D01*
X27054Y158857D01*
X26595Y158667D01*
X26405Y158208D01*
X26405Y141716D01*
X26595Y141257D01*
X27054Y141066D01*
X35695D01*
X36154Y141257D01*
X36344Y141716D01*
X36344Y158208D01*
X36303Y158307D01*
X36445Y158572D01*
X37034Y158966D01*
X37428Y159555D01*
X37496Y159899D01*
X38081Y160087D01*
X38350Y160091D01*
X38677Y159765D01*
X39123Y159467D01*
X39650Y159362D01*
X39893D01*
X40344Y159061D01*
X41039Y158922D01*
X41734Y159061D01*
X42323Y159454D01*
X42717Y160043D01*
X42855Y160738D01*
X42717Y161433D01*
X42323Y162022D01*
X41734Y162416D01*
X41039Y162554D01*
X40638Y162883D01*
Y185965D01*
X40939Y186416D01*
X41077Y187111D01*
X40939Y187806D01*
X40545Y188395D01*
X39956Y188789D01*
X39261Y188927D01*
D02*
G37*
G36*
X220091Y157381D02*
X219086Y157249D01*
X218150Y156861D01*
X217346Y156244D01*
X216729Y155441D01*
X216342Y154505D01*
X216209Y153500D01*
X216342Y152496D01*
X216729Y151559D01*
X217346Y150756D01*
X218150Y150139D01*
X219086Y149751D01*
X220091Y149619D01*
X221095Y149751D01*
X222031Y150139D01*
X222835Y150756D01*
X223452Y151559D01*
X223839Y152496D01*
X223972Y153500D01*
X223839Y154505D01*
X223452Y155441D01*
X222835Y156244D01*
X222031Y156861D01*
X221095Y157249D01*
X220091Y157381D01*
D02*
G37*
G36*
Y142381D02*
X219086Y142249D01*
X218150Y141861D01*
X217346Y141244D01*
X216729Y140441D01*
X216342Y139505D01*
X216209Y138500D01*
X216342Y137496D01*
X216729Y136559D01*
X217346Y135756D01*
X218150Y135139D01*
X219086Y134751D01*
X220091Y134619D01*
X221095Y134751D01*
X222031Y135139D01*
X222835Y135756D01*
X223452Y136559D01*
X223839Y137496D01*
X223972Y138500D01*
X223839Y139505D01*
X223452Y140441D01*
X222835Y141244D01*
X222031Y141861D01*
X221095Y142249D01*
X220091Y142381D01*
D02*
G37*
G36*
X22500Y122816D02*
X21805Y122678D01*
X21354Y122376D01*
X18146D01*
X17695Y122678D01*
X17000Y122816D01*
X16305Y122678D01*
X15716Y122284D01*
X15322Y121695D01*
X15184Y121000D01*
X15322Y120305D01*
X15716Y119716D01*
X16305Y119322D01*
X17000Y119184D01*
X17695Y119322D01*
X18146Y119623D01*
X21354D01*
X21805Y119322D01*
X22500Y119184D01*
X23195Y119322D01*
X23784Y119716D01*
X24178Y120305D01*
X24316Y121000D01*
X24178Y121695D01*
X23784Y122284D01*
X23195Y122678D01*
X22500Y122816D01*
D02*
G37*
G36*
X220091Y127381D02*
X219086Y127249D01*
X218150Y126861D01*
X217346Y126244D01*
X216729Y125441D01*
X216342Y124504D01*
X216209Y123500D01*
X216342Y122495D01*
X216729Y121559D01*
X217346Y120756D01*
X218150Y120139D01*
X219086Y119751D01*
X220091Y119619D01*
X221095Y119751D01*
X222031Y120139D01*
X222835Y120756D01*
X223452Y121559D01*
X223839Y122495D01*
X223972Y123500D01*
X223839Y124504D01*
X223452Y125441D01*
X222835Y126244D01*
X222031Y126861D01*
X221095Y127249D01*
X220091Y127381D01*
D02*
G37*
G36*
X67917Y130377D02*
X67391Y130272D01*
X66944Y129973D01*
X66944Y129973D01*
X62112Y125141D01*
X61310Y125376D01*
X61289Y125374D01*
X61272Y125386D01*
X58967Y125914D01*
X58947Y125910D01*
X58929Y125921D01*
X57780Y126113D01*
X57763Y126116D01*
X57762Y126116D01*
X57762Y126116D01*
X57762Y126116D01*
X57762Y126116D01*
X57757Y126117D01*
X57757Y126117D01*
X57651Y126092D01*
X57625Y126103D01*
X57601Y126093D01*
X57504Y126109D01*
X57504Y126109D01*
X57494Y126106D01*
X57494Y126106D01*
X57485Y126100D01*
X57485Y126100D01*
X57389Y126031D01*
X57266Y126003D01*
X57263Y126002D01*
X57263Y126002D01*
X57255Y125996D01*
X57255Y125996D01*
X57249Y125987D01*
X57248Y125987D01*
X57214Y125933D01*
X57166Y125912D01*
X57142Y125855D01*
X57089Y125817D01*
X56298Y125895D01*
X56280Y125897D01*
X56270Y125921D01*
X56211Y126127D01*
X56177Y126146D01*
X56161Y126183D01*
X55964Y126265D01*
Y126265D01*
X55946Y126275D01*
X55777Y126369D01*
X53977Y126577D01*
X53947Y126568D01*
X53918Y126581D01*
X50295Y126665D01*
X50266Y126653D01*
X50235Y126663D01*
X46621Y126414D01*
X46592Y126400D01*
X46561Y126407D01*
X42985Y125827D01*
X42958Y125811D01*
X42926Y125815D01*
X39418Y124909D01*
X39393Y124890D01*
X39361Y124891D01*
X35951Y123667D01*
X35927Y123645D01*
X35896Y123644D01*
X32612Y122111D01*
X32591Y122088D01*
X32560Y122084D01*
X29431Y120256D01*
X29412Y120231D01*
X29381Y120224D01*
X26433Y118116D01*
X26416Y118089D01*
X26386Y118079D01*
X23645Y115710D01*
X23630Y115682D01*
X23601Y115669D01*
X21089Y113058D01*
X21077Y113029D01*
X21049Y113014D01*
X18788Y110183D01*
X18779Y110153D01*
X18752Y110135D01*
X16760Y107108D01*
X16754Y107077D01*
X16729Y107057D01*
X15023Y103861D01*
X15020Y103829D01*
X14997Y103807D01*
X13592Y100467D01*
X13592Y100435D01*
X13571Y100411D01*
X12479Y96956D01*
X12481Y96925D01*
X12463Y96899D01*
X11692Y93358D01*
X11698Y93327D01*
X11682Y93300D01*
X11240Y89703D01*
X11248Y89673D01*
X11235Y89644D01*
X11125Y86022D01*
X11136Y85992D01*
X11126Y85962D01*
X11349Y82346D01*
X11363Y82317D01*
X11355Y82286D01*
X11909Y78706D01*
X11925Y78679D01*
X11921Y78647D01*
X12801Y75132D01*
X12820Y75107D01*
X12818Y75075D01*
X14018Y71656D01*
X14039Y71632D01*
X14040Y71601D01*
X14272Y71095D01*
X4538Y61361D01*
X4430Y61289D01*
X4358Y61181D01*
X4141Y60964D01*
X3843Y60518D01*
X3738Y59991D01*
X3843Y59464D01*
X4141Y59018D01*
X4306Y58908D01*
X4430Y58721D01*
X5020Y58327D01*
X5714Y58189D01*
X6409Y58327D01*
X6999Y58721D01*
X7392Y59310D01*
X7530Y60005D01*
X7455Y60385D01*
X14898Y67828D01*
X15897Y67695D01*
X16478Y66682D01*
X16872Y66379D01*
X17196Y66421D01*
X17223Y66391D01*
X17602Y65768D01*
X17616Y65730D01*
X17430Y65462D01*
X17518Y64973D01*
X18151Y63988D01*
X18168Y63976D01*
X18173Y63956D01*
X18948Y62895D01*
X16837Y60784D01*
X16305Y60678D01*
X15716Y60284D01*
X15322Y59695D01*
X15184Y59000D01*
X15322Y58305D01*
X15716Y57716D01*
X16305Y57322D01*
X17000Y57184D01*
X17695Y57322D01*
X18284Y57716D01*
X18678Y58305D01*
X18784Y58837D01*
X20244Y60298D01*
X20793Y60272D01*
X21183Y60105D01*
X22687Y58489D01*
X22706Y58480D01*
X22715Y58461D01*
X23561Y57654D01*
X23695Y57602D01*
X23787Y57566D01*
X23787D01*
X24010Y57474D01*
X24017Y57477D01*
X24025Y57474D01*
X24325Y57603D01*
X24348Y57589D01*
X24846Y57149D01*
X24918Y57051D01*
X24820Y56753D01*
X24895Y56605D01*
X25043Y56309D01*
X25895Y55575D01*
X25973Y55467D01*
X26063Y55257D01*
X26104Y54652D01*
X26027Y54575D01*
X25728Y54128D01*
X25624Y53601D01*
X25728Y53075D01*
X26027Y52628D01*
X30864Y47790D01*
Y46405D01*
X30563Y45954D01*
X30425Y45259D01*
X30563Y44564D01*
X30957Y43975D01*
X31546Y43581D01*
X32241Y43443D01*
X32936Y43581D01*
X33525Y43975D01*
X33919Y44564D01*
X34057Y45259D01*
X33919Y45954D01*
X33617Y46405D01*
Y48360D01*
X33512Y48887D01*
X33214Y49334D01*
X33214Y49334D01*
X31948Y50600D01*
X32424Y51255D01*
X33066Y50930D01*
X33218Y50918D01*
X33360Y50859D01*
X33360Y50859D01*
X33457Y50899D01*
X33561Y50891D01*
X33677Y50991D01*
X33782Y51034D01*
X33782Y51034D01*
X34538Y50723D01*
X34538Y50723D01*
X34530Y50429D01*
X34872Y50069D01*
X35957Y49584D01*
X35978Y49584D01*
X35993Y49570D01*
X38218Y48734D01*
X38239Y48734D01*
X38255Y48721D01*
X39278Y48406D01*
Y42958D01*
X38976Y42507D01*
X38838Y41812D01*
X38976Y41117D01*
X39370Y40528D01*
X39959Y40134D01*
X40654Y39996D01*
X41349Y40134D01*
X41938Y40528D01*
X42332Y41117D01*
X42470Y41812D01*
X42332Y42507D01*
X42031Y42958D01*
Y47006D01*
X42660Y47500D01*
X42873Y47449D01*
X42893Y47452D01*
X42911Y47440D01*
X43917Y47259D01*
X44080Y47230D01*
X44081Y47230D01*
X44140Y47243D01*
X44196Y47219D01*
X44376Y47294D01*
X44566Y47335D01*
X44566Y47335D01*
X44599Y47386D01*
X44655Y47409D01*
X45433Y47512D01*
X45504Y47501D01*
X45542Y47486D01*
X45627Y47171D01*
X46058Y46924D01*
X47877Y46689D01*
X47908Y46698D01*
X47937Y46684D01*
X49296Y46636D01*
Y43725D01*
X48994Y43273D01*
X48856Y42579D01*
X48994Y41884D01*
X49388Y41295D01*
X49977Y40901D01*
X50672Y40763D01*
X51367Y40901D01*
X51956Y41295D01*
X52350Y41884D01*
X52488Y42579D01*
X52350Y43273D01*
X52049Y43725D01*
Y46578D01*
X55323Y46767D01*
X55352Y46781D01*
X55383Y46774D01*
X59009Y47325D01*
X59036Y47341D01*
X59068Y47337D01*
X62627Y48223D01*
X62653Y48242D01*
X62685Y48240D01*
X66146Y49453D01*
X66170Y49474D01*
X66202Y49475D01*
X69535Y51004D01*
X69557Y51028D01*
X69589Y51032D01*
X72765Y52864D01*
X72785Y52890D01*
X72816Y52897D01*
X75809Y55017D01*
X75826Y55044D01*
X75857Y55054D01*
X78639Y57443D01*
X78654Y57471D01*
X78683Y57484D01*
X81232Y60121D01*
X81243Y60151D01*
X81272Y60166D01*
X83564Y63029D01*
X83573Y63060D01*
X83600Y63078D01*
X85616Y66141D01*
X85622Y66172D01*
X85647Y66193D01*
X87370Y69430D01*
X87373Y69462D01*
X87396Y69485D01*
X88810Y72868D01*
X88810Y72900D01*
X88831Y72925D01*
X89925Y76425D01*
X89922Y76457D01*
X89941Y76484D01*
X90705Y80070D01*
X90699Y80102D01*
X90714Y80130D01*
X91142Y83772D01*
X91133Y83803D01*
X91146Y83833D01*
X91233Y87499D01*
X91221Y87529D01*
X91232Y87559D01*
X90977Y91217D01*
X90963Y91246D01*
X90970Y91277D01*
X90377Y94897D01*
X90360Y94924D01*
X90365Y94956D01*
X89438Y98504D01*
X89418Y98529D01*
X89420Y98562D01*
X88167Y102008D01*
X88145Y102032D01*
X88144Y102064D01*
X86576Y105379D01*
X86552Y105401D01*
X86548Y105433D01*
X85613Y107010D01*
Y107010D01*
X85546Y107061D01*
X85514Y107138D01*
X85354Y107205D01*
X85215Y107308D01*
X85132Y107296D01*
X85054Y107329D01*
X84895Y107262D01*
X84892Y107262D01*
X84878Y107277D01*
X84500Y107965D01*
X84540Y108062D01*
X84645Y108218D01*
X84632Y108284D01*
X84658Y108347D01*
X84587Y108521D01*
X84551Y108706D01*
X83894Y109698D01*
X83876Y109710D01*
X83871Y109730D01*
X82439Y111632D01*
X82785Y112338D01*
X83663Y113216D01*
X84195Y113322D01*
X84784Y113716D01*
X85178Y114305D01*
X85316Y115000D01*
X85178Y115695D01*
X84784Y116284D01*
X84195Y116678D01*
X83500Y116816D01*
X82805Y116678D01*
X82216Y116284D01*
X81822Y115695D01*
X81716Y115163D01*
X80862Y114309D01*
X80063Y114317D01*
X79194Y115220D01*
X79174Y115228D01*
X79166Y115247D01*
X78290Y116054D01*
X77823Y116225D01*
X77485Y116068D01*
X77363Y116140D01*
X77047Y116400D01*
X76876Y116601D01*
X76909Y116705D01*
X76978Y116928D01*
X76978Y116929D01*
X76978Y116929D01*
X76860Y117154D01*
X76747Y117368D01*
X76747Y117368D01*
X76747Y117369D01*
X75848Y118116D01*
X75828Y118122D01*
X75817Y118140D01*
X75089Y118675D01*
X75029Y119473D01*
X78756Y123200D01*
X79288Y123306D01*
X79739Y123608D01*
X79946D01*
X94555Y108998D01*
Y108989D01*
X94254Y108538D01*
X94116Y107843D01*
X94254Y107148D01*
X94648Y106559D01*
X95237Y106166D01*
X95932Y106027D01*
X96627Y106166D01*
X97216Y106559D01*
X97609Y107148D01*
X97748Y107843D01*
X97609Y108538D01*
X97308Y108989D01*
Y109568D01*
X97203Y110095D01*
X96905Y110542D01*
X81489Y125957D01*
X81043Y126256D01*
X80516Y126360D01*
X79739D01*
X79288Y126662D01*
X78593Y126800D01*
X77898Y126662D01*
X77309Y126268D01*
X76915Y125679D01*
X76809Y125147D01*
X72641Y120979D01*
X71905Y120839D01*
X69870Y121991D01*
X69849Y121994D01*
X69835Y122009D01*
X68785Y122524D01*
X68785Y122524D01*
X68785Y122524D01*
X68637Y122534D01*
X68499Y122591D01*
X68499Y122590D01*
X68398Y122549D01*
X68289Y122556D01*
X68289Y122555D01*
X68289Y122555D01*
X68177Y122457D01*
X68084Y122419D01*
X67457Y122723D01*
X67377Y122797D01*
X67374Y122800D01*
X67374Y122806D01*
X67328Y122915D01*
X67332Y123012D01*
X67325Y123019D01*
X67325Y123028D01*
X67325Y123028D01*
X67325Y123050D01*
X67321Y123060D01*
X67231Y123150D01*
X67183Y123268D01*
X67176Y123275D01*
Y123275D01*
X67058Y123325D01*
X66969Y123417D01*
X66965Y123419D01*
X66965Y123419D01*
X65878Y123885D01*
X65724Y124052D01*
X65576Y124712D01*
X68488Y127624D01*
X83930D01*
X95216Y116337D01*
X95322Y115805D01*
X95716Y115216D01*
X96305Y114822D01*
X97000Y114684D01*
X97695Y114822D01*
X98284Y115216D01*
X98678Y115805D01*
X98816Y116500D01*
X98678Y117195D01*
X98284Y117784D01*
X97695Y118178D01*
X97163Y118284D01*
X85473Y129973D01*
X85027Y130272D01*
X84500Y130376D01*
X67917D01*
X67917Y130377D01*
D02*
G37*
G36*
X220091Y112381D02*
X219086Y112249D01*
X218150Y111861D01*
X217346Y111244D01*
X216729Y110441D01*
X216342Y109504D01*
X216209Y108500D01*
X216342Y107495D01*
X216729Y106559D01*
X217346Y105756D01*
X218150Y105139D01*
X219086Y104751D01*
X220091Y104619D01*
X221095Y104751D01*
X222031Y105139D01*
X222835Y105756D01*
X223452Y106559D01*
X223839Y107495D01*
X223972Y108500D01*
X223839Y109504D01*
X223452Y110441D01*
X222835Y111244D01*
X222031Y111861D01*
X221095Y112249D01*
X220091Y112381D01*
D02*
G37*
G36*
Y97381D02*
X219086Y97249D01*
X218150Y96861D01*
X217346Y96244D01*
X216729Y95441D01*
X216342Y94504D01*
X216209Y93500D01*
X216342Y92496D01*
X216575Y91931D01*
X210431Y85787D01*
X210132Y85340D01*
X210028Y84813D01*
Y50374D01*
X209712Y50163D01*
X209318Y49574D01*
X209180Y48879D01*
X209318Y48184D01*
X209712Y47595D01*
X210301Y47201D01*
X210996Y47063D01*
X211691Y47201D01*
X212280Y47595D01*
X212674Y48184D01*
X212812Y48879D01*
X212767Y49104D01*
X212780Y49171D01*
Y84243D01*
X218522Y89985D01*
X219086Y89751D01*
X220091Y89619D01*
X221095Y89751D01*
X222031Y90139D01*
X222835Y90756D01*
X223452Y91559D01*
X223839Y92496D01*
X223972Y93500D01*
X223839Y94504D01*
X223452Y95441D01*
X222835Y96244D01*
X222031Y96861D01*
X221095Y97249D01*
X220091Y97381D01*
D02*
G37*
G36*
Y82381D02*
X219086Y82249D01*
X218150Y81861D01*
X217346Y81244D01*
X216729Y80441D01*
X216342Y79505D01*
X216209Y78500D01*
X216342Y77495D01*
X216729Y76559D01*
X217346Y75756D01*
X218150Y75139D01*
X219086Y74751D01*
X220091Y74619D01*
X221095Y74751D01*
X222031Y75139D01*
X222835Y75756D01*
X223452Y76559D01*
X223839Y77495D01*
X223972Y78500D01*
X223839Y79505D01*
X223452Y80441D01*
X222835Y81244D01*
X222031Y81861D01*
X221095Y82249D01*
X220091Y82381D01*
D02*
G37*
G36*
X151035Y79079D02*
Y72201D01*
X157913D01*
X157820Y73150D01*
X157397Y74543D01*
X156711Y75827D01*
X155787Y76952D01*
X154662Y77876D01*
X153378Y78562D01*
X151984Y78985D01*
X151035Y79079D01*
D02*
G37*
G36*
X150035Y79079D02*
X149086Y78985D01*
X147693Y78562D01*
X146409Y77876D01*
X145284Y76952D01*
X144360Y75827D01*
X143674Y74543D01*
X143251Y73150D01*
X143158Y72201D01*
X150035D01*
Y79079D01*
D02*
G37*
G36*
Y71201D02*
X143158D01*
X143251Y70252D01*
X143674Y68858D01*
X144360Y67574D01*
X145284Y66449D01*
X146409Y65525D01*
X147693Y64839D01*
X149086Y64416D01*
X150035Y64323D01*
Y71201D01*
D02*
G37*
G36*
X157913D02*
X151035D01*
Y64323D01*
X151984Y64416D01*
X153378Y64839D01*
X154662Y65525D01*
X155787Y66449D01*
X156711Y67574D01*
X157397Y68858D01*
X157820Y70252D01*
X157913Y71201D01*
D02*
G37*
G36*
X220091Y67381D02*
X219086Y67249D01*
X218150Y66861D01*
X217346Y66244D01*
X216729Y65441D01*
X216342Y64504D01*
X216209Y63500D01*
X216342Y62495D01*
X216729Y61559D01*
X217346Y60756D01*
X218150Y60139D01*
X219086Y59751D01*
X220091Y59619D01*
X221095Y59751D01*
X222031Y60139D01*
X222835Y60756D01*
X223452Y61559D01*
X223839Y62495D01*
X223972Y63500D01*
X223839Y64504D01*
X223452Y65441D01*
X222835Y66244D01*
X222031Y66861D01*
X221095Y67249D01*
X220091Y67381D01*
D02*
G37*
G36*
X161165Y56346D02*
X160279Y56229D01*
X159453Y55887D01*
X158744Y55343D01*
X158200Y54633D01*
X157858Y53807D01*
X157741Y52921D01*
X157858Y52035D01*
X158200Y51209D01*
X158744Y50500D01*
X159453Y49955D01*
X160279Y49613D01*
X161165Y49497D01*
X162052Y49613D01*
X162878Y49955D01*
X163587Y50500D01*
X164131Y51209D01*
X164473Y52035D01*
X164590Y52921D01*
X164473Y53807D01*
X164131Y54633D01*
X163587Y55343D01*
X162878Y55887D01*
X162052Y56229D01*
X161165Y56346D01*
D02*
G37*
G36*
X220590Y52315D02*
Y49000D01*
X223906D01*
X223839Y49505D01*
X223452Y50441D01*
X222835Y51244D01*
X222031Y51861D01*
X221095Y52249D01*
X220590Y52315D01*
D02*
G37*
G36*
X219590Y52315D02*
X219086Y52249D01*
X218150Y51861D01*
X217346Y51244D01*
X216729Y50441D01*
X216342Y49505D01*
X216275Y49000D01*
X219590D01*
Y52315D01*
D02*
G37*
G36*
Y48000D02*
X216275D01*
X216342Y47495D01*
X216729Y46559D01*
X217346Y45756D01*
X218150Y45139D01*
X219086Y44751D01*
X219590Y44685D01*
Y48000D01*
D02*
G37*
G36*
X223906D02*
X220590D01*
Y44685D01*
X221095Y44751D01*
X222031Y45139D01*
X222835Y45756D01*
X223452Y46559D01*
X223839Y47495D01*
X223906Y48000D01*
D02*
G37*
G36*
X161165Y46503D02*
X160279Y46387D01*
X159453Y46044D01*
X158744Y45500D01*
X158200Y44791D01*
X157858Y43965D01*
X157741Y43079D01*
X157858Y42192D01*
X158200Y41366D01*
X158744Y40657D01*
X159453Y40113D01*
X160279Y39771D01*
X161165Y39654D01*
X162052Y39771D01*
X162878Y40113D01*
X163587Y40657D01*
X164131Y41366D01*
X164473Y42192D01*
X164590Y43079D01*
X164473Y43965D01*
X164131Y44791D01*
X163587Y45500D01*
X162878Y46044D01*
X162052Y46387D01*
X161165Y46503D01*
D02*
G37*
G36*
X148567D02*
X147681Y46387D01*
X146855Y46044D01*
X146145Y45500D01*
X145601Y44791D01*
X145259Y43965D01*
X145142Y43079D01*
X145259Y42192D01*
X145601Y41366D01*
X146145Y40657D01*
X146855Y40113D01*
X147681Y39771D01*
X148567Y39654D01*
X149453Y39771D01*
X150279Y40113D01*
X150988Y40657D01*
X151533Y41366D01*
X151875Y42192D01*
X151991Y43079D01*
X151875Y43965D01*
X151533Y44791D01*
X150988Y45500D01*
X150279Y46044D01*
X149453Y46387D01*
X148567Y46503D01*
D02*
G37*
G36*
X195941Y54007D02*
X195246Y53869D01*
X194657Y53475D01*
X194263Y52886D01*
X194125Y52191D01*
X194263Y51496D01*
X194657Y50907D01*
X195246Y50513D01*
X195892Y50384D01*
X200634Y45642D01*
Y39765D01*
X200333Y39314D01*
X200195Y38619D01*
X200333Y37924D01*
X200727Y37335D01*
X201316Y36941D01*
X202011Y36803D01*
X202706Y36941D01*
X203295Y37335D01*
X203689Y37924D01*
X203827Y38619D01*
X203689Y39314D01*
X203387Y39765D01*
Y46212D01*
X203282Y46739D01*
X202984Y47186D01*
X197701Y52468D01*
X197618Y52886D01*
X197225Y53475D01*
X196635Y53869D01*
X195941Y54007D01*
D02*
G37*
G36*
X151035Y31677D02*
Y24799D01*
X157913D01*
X157820Y25748D01*
X157397Y27141D01*
X156711Y28425D01*
X155787Y29551D01*
X154662Y30474D01*
X153378Y31161D01*
X151984Y31583D01*
X151035Y31677D01*
D02*
G37*
G36*
X150035D02*
X149086Y31583D01*
X147693Y31161D01*
X146409Y30474D01*
X145284Y29551D01*
X144360Y28425D01*
X143674Y27141D01*
X143251Y25748D01*
X143158Y24799D01*
X150035D01*
Y31677D01*
D02*
G37*
G36*
X157913Y23799D02*
X151035D01*
Y16921D01*
X151984Y17015D01*
X153378Y17437D01*
X154662Y18124D01*
X155787Y19047D01*
X156711Y20173D01*
X157397Y21457D01*
X157820Y22850D01*
X157913Y23799D01*
D02*
G37*
G36*
X150035D02*
X143158D01*
X143251Y22850D01*
X143674Y21457D01*
X144360Y20173D01*
X145284Y19047D01*
X146409Y18124D01*
X147693Y17437D01*
X149086Y17015D01*
X150035Y16921D01*
Y23799D01*
D02*
G37*
G36*
X155000Y173520D02*
X120394D01*
X120003Y173442D01*
X119673Y173221D01*
X119452Y172890D01*
X119374Y172500D01*
X119452Y172110D01*
X119673Y171779D01*
X120003Y171558D01*
X120394Y171480D01*
X153980D01*
Y162500D01*
X153985Y162476D01*
X153982Y162452D01*
X154024Y162282D01*
X154058Y162110D01*
X154072Y162089D01*
X154078Y162065D01*
X154182Y161925D01*
X154279Y161779D01*
X154299Y161765D01*
X154314Y161746D01*
X181480Y137049D01*
Y16020D01*
X117922D01*
X115749Y18193D01*
X101020Y35377D01*
Y64759D01*
X108412Y79544D01*
X108422Y79579D01*
X108442Y79610D01*
X108474Y79770D01*
X108517Y79928D01*
X108512Y79964D01*
X108520Y80000D01*
Y125000D01*
X108442Y125390D01*
X108221Y125721D01*
X81020Y152922D01*
Y171480D01*
X117500D01*
X117890Y171558D01*
X118221Y171779D01*
X118442Y172110D01*
X118520Y172500D01*
X118442Y172890D01*
X118221Y173221D01*
X117890Y173442D01*
X117500Y173520D01*
X80000D01*
X79610Y173442D01*
X79279Y173221D01*
X79058Y172890D01*
X78980Y172500D01*
Y152500D01*
X79058Y152110D01*
X79279Y151779D01*
X106480Y124578D01*
Y80241D01*
X99088Y65456D01*
X99078Y65421D01*
X99058Y65390D01*
X99026Y65230D01*
X98983Y65072D01*
X98988Y65036D01*
X98980Y65000D01*
Y35000D01*
X99012Y34843D01*
X99031Y34683D01*
X99050Y34649D01*
X99058Y34610D01*
X99147Y34476D01*
X99226Y34337D01*
X114226Y16837D01*
X114257Y16812D01*
X114279Y16779D01*
X116779Y14279D01*
X117110Y14058D01*
X117500Y13980D01*
X182500D01*
X182890Y14058D01*
X183221Y14279D01*
X183442Y14610D01*
X183520Y15000D01*
Y137500D01*
X183515Y137524D01*
X183518Y137548D01*
X183476Y137718D01*
X183442Y137890D01*
X183428Y137911D01*
X183422Y137935D01*
X183318Y138075D01*
X183221Y138221D01*
X183201Y138235D01*
X183186Y138254D01*
X156020Y162951D01*
Y172500D01*
X155942Y172890D01*
X155721Y173221D01*
X155390Y173442D01*
X155000Y173520D01*
D02*
G37*
%LPD*%
G36*
X144226Y192733D02*
X141644D01*
Y196598D01*
X139545Y198748D01*
X136013Y192733D01*
X132664D01*
X137762Y200563D01*
X132914Y205545D01*
X136396D01*
X141644Y199847D01*
Y205545D01*
X144226D01*
Y192733D01*
D02*
G37*
G36*
X168000Y203379D02*
X164201D01*
Y192733D01*
X161619D01*
Y203379D01*
X157837D01*
Y205545D01*
X168000D01*
Y203379D01*
D02*
G37*
G36*
X156155Y192733D02*
X146425D01*
Y194899D01*
X153572D01*
Y198381D01*
X147158D01*
Y200547D01*
X153572D01*
Y203379D01*
X146675D01*
Y205545D01*
X156155D01*
Y192733D01*
D02*
G37*
G36*
X131298D02*
X128716D01*
Y197565D01*
X126716D01*
X126417Y197581D01*
X126133D01*
X125883Y197598D01*
X125634Y197615D01*
X125417Y197631D01*
X125217Y197648D01*
X125050Y197665D01*
X124884Y197681D01*
X124751Y197698D01*
X124634D01*
X124534Y197715D01*
X124467Y197731D01*
X124417Y197748D01*
X124367D01*
X124118Y197815D01*
X123868Y197898D01*
X123651Y197998D01*
X123451Y198098D01*
X123268Y198198D01*
X123151Y198281D01*
X123068Y198331D01*
X123035Y198348D01*
X122801Y198531D01*
X122585Y198748D01*
X122402Y198947D01*
X122235Y199164D01*
X122102Y199331D01*
X122018Y199480D01*
X121952Y199581D01*
X121935Y199597D01*
Y199614D01*
X121785Y199930D01*
X121685Y200264D01*
X121602Y200597D01*
X121552Y200913D01*
X121519Y201180D01*
Y201296D01*
X121502Y201396D01*
Y201480D01*
Y201546D01*
Y201580D01*
Y201596D01*
Y201880D01*
X121535Y202146D01*
X121619Y202629D01*
X121669Y202863D01*
X121735Y203062D01*
X121802Y203246D01*
X121869Y203429D01*
X121952Y203579D01*
X122018Y203712D01*
X122085Y203829D01*
X122135Y203929D01*
X122185Y203995D01*
X122218Y204045D01*
X122235Y204079D01*
X122252Y204095D01*
X122552Y204429D01*
X122851Y204695D01*
X123168Y204912D01*
X123451Y205078D01*
X123701Y205212D01*
X123818Y205245D01*
X123901Y205278D01*
X123984Y205311D01*
X124034Y205328D01*
X124068Y205345D01*
X124084D01*
X124234Y205378D01*
X124417Y205412D01*
X124634Y205445D01*
X124867Y205462D01*
X125367Y205495D01*
X125900Y205528D01*
X126383D01*
X126600Y205545D01*
X131298D01*
Y192733D01*
D02*
G37*
G36*
X119369D02*
X116787D01*
Y198081D01*
X115954D01*
X115688Y198064D01*
X115471Y198031D01*
X115288Y198014D01*
X115138Y197981D01*
X115055Y197948D01*
X114988Y197931D01*
X114971D01*
X114821Y197864D01*
X114671Y197781D01*
X114538Y197698D01*
X114421Y197615D01*
X114321Y197531D01*
X114255Y197465D01*
X114205Y197415D01*
X114188Y197398D01*
X114105Y197315D01*
X114022Y197215D01*
X113922Y197081D01*
X113822Y196948D01*
X113588Y196632D01*
X113372Y196315D01*
X113155Y196015D01*
X113072Y195882D01*
X112989Y195749D01*
X112922Y195649D01*
X112872Y195582D01*
X112839Y195532D01*
X112822Y195516D01*
X110956Y192733D01*
X107857D01*
X109423Y195232D01*
X109590Y195499D01*
X109757Y195749D01*
X109907Y195982D01*
X110040Y196182D01*
X110173Y196365D01*
X110306Y196532D01*
X110406Y196682D01*
X110506Y196815D01*
X110606Y196932D01*
X110690Y197031D01*
X110806Y197181D01*
X110873Y197265D01*
X110906Y197298D01*
X111123Y197515D01*
X111339Y197715D01*
X111573Y197898D01*
X111789Y198064D01*
X111989Y198198D01*
X112139Y198298D01*
X112256Y198364D01*
X112272Y198381D01*
X112289D01*
X111972Y198431D01*
X111689Y198498D01*
X111423Y198581D01*
X111173Y198664D01*
X110940Y198764D01*
X110740Y198864D01*
X110540Y198964D01*
X110373Y199064D01*
X110223Y199164D01*
X110090Y199264D01*
X109990Y199347D01*
X109907Y199414D01*
X109823Y199480D01*
X109773Y199530D01*
X109757Y199547D01*
X109740Y199564D01*
X109590Y199747D01*
X109457Y199930D01*
X109340Y200130D01*
X109240Y200330D01*
X109090Y200730D01*
X108990Y201113D01*
X108957Y201280D01*
X108940Y201446D01*
X108924Y201580D01*
X108907Y201713D01*
X108890Y201813D01*
Y201880D01*
Y201930D01*
Y201946D01*
X108907Y202363D01*
X108974Y202746D01*
X109074Y203079D01*
X109174Y203379D01*
X109274Y203629D01*
X109324Y203729D01*
X109373Y203812D01*
X109407Y203879D01*
X109440Y203929D01*
X109457Y203945D01*
Y203962D01*
X109690Y204262D01*
X109923Y204528D01*
X110173Y204745D01*
X110423Y204912D01*
X110623Y205045D01*
X110806Y205128D01*
X110873Y205162D01*
X110906Y205178D01*
X110940Y205195D01*
X110956D01*
X111139Y205262D01*
X111339Y205311D01*
X111573Y205362D01*
X111806Y205395D01*
X112306Y205462D01*
X112789Y205495D01*
X113022Y205511D01*
X113239Y205528D01*
X113438D01*
X113605Y205545D01*
X119369D01*
Y192733D01*
D02*
G37*
G36*
X92530D02*
X87732D01*
X87332Y192750D01*
X86649D01*
X86366Y192767D01*
X85883D01*
X85700Y192783D01*
X85533D01*
X85400Y192800D01*
X85200D01*
X85133Y192816D01*
X85066D01*
X84700Y192883D01*
X84367Y192966D01*
X84067Y193050D01*
X83817Y193166D01*
X83617Y193250D01*
X83451Y193333D01*
X83367Y193400D01*
X83334Y193416D01*
X83084Y193616D01*
X82851Y193833D01*
X82667Y194049D01*
X82501Y194266D01*
X82384Y194449D01*
X82284Y194599D01*
X82234Y194699D01*
X82218Y194716D01*
Y194732D01*
X82084Y195049D01*
X81984Y195349D01*
X81901Y195632D01*
X81851Y195899D01*
X81818Y196115D01*
X81801Y196282D01*
Y196349D01*
Y196398D01*
Y196415D01*
Y196432D01*
X81835Y196832D01*
X81901Y197198D01*
X82001Y197531D01*
X82118Y197815D01*
X82234Y198048D01*
X82334Y198214D01*
X82368Y198281D01*
X82401Y198331D01*
X82434Y198348D01*
Y198364D01*
X82701Y198647D01*
X82984Y198897D01*
X83284Y199097D01*
X83567Y199247D01*
X83834Y199381D01*
X83950Y199431D01*
X84034Y199464D01*
X84117Y199497D01*
X84184Y199514D01*
X84217Y199530D01*
X84233D01*
X83934Y199697D01*
X83684Y199864D01*
X83451Y200064D01*
X83267Y200247D01*
X83117Y200413D01*
X83001Y200547D01*
X82934Y200630D01*
X82917Y200663D01*
X82751Y200947D01*
X82634Y201230D01*
X82551Y201513D01*
X82501Y201763D01*
X82451Y201996D01*
X82434Y202163D01*
Y202229D01*
Y202279D01*
Y202296D01*
Y202313D01*
X82451Y202613D01*
X82501Y202896D01*
X82568Y203146D01*
X82634Y203379D01*
X82701Y203562D01*
X82767Y203696D01*
X82817Y203779D01*
X82834Y203812D01*
X82984Y204045D01*
X83151Y204262D01*
X83317Y204445D01*
X83467Y204595D01*
X83617Y204712D01*
X83717Y204812D01*
X83784Y204862D01*
X83817Y204878D01*
X84034Y205012D01*
X84267Y205128D01*
X84500Y205228D01*
X84700Y205295D01*
X84883Y205345D01*
X85017Y205378D01*
X85116Y205412D01*
X85150D01*
X85300Y205428D01*
X85466Y205462D01*
X85816Y205495D01*
X86199Y205511D01*
X86566Y205528D01*
X86899Y205545D01*
X92530D01*
Y192733D01*
D02*
G37*
G36*
X79602D02*
X69873D01*
Y194899D01*
X77020D01*
Y198381D01*
X70606D01*
Y200547D01*
X77020D01*
Y203379D01*
X70122D01*
Y205545D01*
X79602D01*
Y192733D01*
D02*
G37*
G36*
X101360Y205761D02*
X101893Y205695D01*
X102360Y205611D01*
X102576Y205561D01*
X102759Y205528D01*
X102943Y205478D01*
X103093Y205428D01*
X103226Y205378D01*
X103342Y205345D01*
X103443Y205311D01*
X103509Y205278D01*
X103542Y205262D01*
X103559D01*
X103892Y205095D01*
X104192Y204912D01*
X104475Y204728D01*
X104725Y204528D01*
X104925Y204362D01*
X105075Y204229D01*
X105175Y204129D01*
X105192Y204112D01*
X105209Y204095D01*
X105475Y203796D01*
X105708Y203496D01*
X105908Y203212D01*
X106075Y202929D01*
X106208Y202696D01*
X106308Y202513D01*
X106341Y202446D01*
X106375Y202396D01*
X106391Y202363D01*
Y202346D01*
X106591Y201830D01*
X106725Y201263D01*
X106825Y200713D01*
X106908Y200197D01*
X106924Y199964D01*
X106941Y199747D01*
X106958Y199547D01*
Y199381D01*
X106974Y199231D01*
Y199131D01*
Y199064D01*
Y199047D01*
X106958Y198481D01*
X106908Y197965D01*
X106825Y197465D01*
X106708Y196998D01*
X106591Y196565D01*
X106441Y196182D01*
X106291Y195815D01*
X106125Y195499D01*
X105975Y195199D01*
X105825Y194949D01*
X105675Y194732D01*
X105558Y194549D01*
X105442Y194416D01*
X105358Y194316D01*
X105308Y194249D01*
X105292Y194233D01*
X104959Y193933D01*
X104609Y193666D01*
X104242Y193433D01*
X103876Y193233D01*
X103492Y193066D01*
X103126Y192917D01*
X102743Y192816D01*
X102393Y192717D01*
X102060Y192650D01*
X101743Y192600D01*
X101477Y192550D01*
X101227Y192533D01*
X101027Y192517D01*
X100893Y192500D01*
X100760D01*
X100244Y192517D01*
X99761Y192583D01*
X99294Y192667D01*
X98861Y192767D01*
X98461Y192900D01*
X98095Y193050D01*
X97761Y193216D01*
X97462Y193383D01*
X97178Y193533D01*
X96945Y193700D01*
X96745Y193850D01*
X96562Y193983D01*
X96429Y194083D01*
X96345Y194183D01*
X96279Y194233D01*
X96262Y194249D01*
X95962Y194599D01*
X95696Y194966D01*
X95479Y195349D01*
X95279Y195749D01*
X95113Y196149D01*
X94979Y196565D01*
X94863Y196948D01*
X94779Y197331D01*
X94713Y197698D01*
X94646Y198031D01*
X94613Y198331D01*
X94596Y198598D01*
X94579Y198814D01*
X94563Y198981D01*
Y199081D01*
Y199097D01*
Y199114D01*
X94579Y199680D01*
X94629Y200230D01*
X94713Y200730D01*
X94829Y201197D01*
X94963Y201646D01*
X95096Y202046D01*
X95246Y202413D01*
X95412Y202746D01*
X95562Y203029D01*
X95729Y203296D01*
X95862Y203512D01*
X95995Y203696D01*
X96112Y203829D01*
X96195Y203929D01*
X96245Y203995D01*
X96262Y204012D01*
X96595Y204329D01*
X96945Y204595D01*
X97312Y204828D01*
X97678Y205028D01*
X98061Y205212D01*
X98444Y205345D01*
X98811Y205462D01*
X99161Y205561D01*
X99494Y205628D01*
X99811Y205678D01*
X100077Y205728D01*
X100327Y205745D01*
X100527Y205761D01*
X100660Y205778D01*
X100794D01*
X101360Y205761D01*
D02*
G37*
%LPC*%
G36*
X128716Y203379D02*
X127000D01*
X126783Y203362D01*
X126433D01*
X126283Y203346D01*
X126150D01*
X126017Y203329D01*
X125833Y203312D01*
X125717Y203296D01*
X125634Y203279D01*
X125617D01*
X125400Y203229D01*
X125200Y203146D01*
X125017Y203046D01*
X124867Y202946D01*
X124751Y202863D01*
X124651Y202779D01*
X124601Y202729D01*
X124584Y202713D01*
X124451Y202529D01*
X124351Y202346D01*
X124267Y202146D01*
X124217Y201963D01*
X124184Y201813D01*
X124168Y201680D01*
Y201596D01*
Y201563D01*
X124184Y201346D01*
X124217Y201163D01*
X124267Y200980D01*
X124318Y200830D01*
X124367Y200713D01*
X124417Y200630D01*
X124451Y200563D01*
X124467Y200547D01*
X124584Y200397D01*
X124717Y200280D01*
X124851Y200164D01*
X124984Y200080D01*
X125101Y200014D01*
X125200Y199964D01*
X125267Y199947D01*
X125284Y199930D01*
X125384Y199897D01*
X125517Y199864D01*
X125650Y199830D01*
X125817Y199814D01*
X126150Y199780D01*
X126483Y199764D01*
X126800Y199747D01*
X126950Y199730D01*
X128716D01*
Y203379D01*
D02*
G37*
G36*
X116787D02*
X113822D01*
X113638Y203362D01*
X113239D01*
X113155Y203346D01*
X112955D01*
X112905Y203329D01*
X112889D01*
X112672Y203279D01*
X112472Y203212D01*
X112306Y203129D01*
X112156Y203046D01*
X112056Y202962D01*
X111972Y202896D01*
X111922Y202846D01*
X111906Y202829D01*
X111789Y202663D01*
X111706Y202496D01*
X111639Y202329D01*
X111606Y202163D01*
X111573Y202013D01*
X111556Y201896D01*
Y201813D01*
Y201780D01*
X111573Y201580D01*
X111589Y201396D01*
X111639Y201230D01*
X111689Y201080D01*
X111739Y200963D01*
X111773Y200880D01*
X111806Y200830D01*
X111822Y200813D01*
X111922Y200680D01*
X112056Y200563D01*
X112172Y200480D01*
X112289Y200397D01*
X112389Y200347D01*
X112472Y200313D01*
X112539Y200280D01*
X112556D01*
X112655Y200247D01*
X112789Y200230D01*
X112939Y200214D01*
X113105Y200197D01*
X113488Y200164D01*
X113888Y200147D01*
X114255D01*
X114421Y200130D01*
X116787D01*
Y203379D01*
D02*
G37*
G36*
X89948Y203412D02*
X87349D01*
X87149Y203396D01*
X86682D01*
X86566Y203379D01*
X86349D01*
X86283Y203362D01*
X86266D01*
X86033Y203312D01*
X85833Y203262D01*
X85666Y203179D01*
X85533Y203112D01*
X85416Y203029D01*
X85350Y202979D01*
X85300Y202929D01*
X85283Y202912D01*
X85167Y202763D01*
X85083Y202613D01*
X85033Y202446D01*
X84983Y202296D01*
X84967Y202163D01*
X84950Y202046D01*
Y201979D01*
Y201946D01*
X84967Y201730D01*
X85017Y201530D01*
X85066Y201363D01*
X85133Y201213D01*
X85216Y201097D01*
X85266Y201013D01*
X85316Y200963D01*
X85333Y200947D01*
X85483Y200813D01*
X85666Y200713D01*
X85833Y200630D01*
X86000Y200563D01*
X86149Y200530D01*
X86266Y200497D01*
X86349Y200480D01*
X86466D01*
X86566Y200464D01*
X87132D01*
X87466Y200447D01*
X89948D01*
Y203412D01*
D02*
G37*
G36*
Y198314D02*
X87266D01*
X86999Y198298D01*
X86766Y198281D01*
X86549Y198264D01*
X86366D01*
X86199Y198248D01*
X86049Y198231D01*
X85933Y198214D01*
X85833Y198198D01*
X85750Y198181D01*
X85683Y198164D01*
X85600Y198148D01*
X85566Y198131D01*
X85383Y198048D01*
X85216Y197965D01*
X85066Y197864D01*
X84950Y197765D01*
X84867Y197681D01*
X84800Y197598D01*
X84767Y197548D01*
X84750Y197531D01*
X84650Y197381D01*
X84583Y197215D01*
X84533Y197048D01*
X84500Y196898D01*
X84483Y196765D01*
X84467Y196665D01*
Y196598D01*
Y196565D01*
X84483Y196315D01*
X84517Y196099D01*
X84583Y195915D01*
X84650Y195765D01*
X84717Y195632D01*
X84783Y195549D01*
X84817Y195482D01*
X84833Y195466D01*
X84983Y195332D01*
X85133Y195216D01*
X85300Y195132D01*
X85450Y195066D01*
X85583Y195016D01*
X85683Y194982D01*
X85750Y194966D01*
X85783D01*
X85866Y194949D01*
X85966D01*
X86083Y194932D01*
X86216D01*
X86499Y194916D01*
X86799D01*
X87082Y194899D01*
X89948D01*
Y198314D01*
D02*
G37*
G36*
X100910Y203562D02*
X100760D01*
X100460Y203546D01*
X100194Y203512D01*
X99927Y203462D01*
X99677Y203396D01*
X99461Y203312D01*
X99244Y203212D01*
X99044Y203112D01*
X98878Y203012D01*
X98728Y202912D01*
X98578Y202813D01*
X98461Y202713D01*
X98378Y202629D01*
X98295Y202563D01*
X98245Y202513D01*
X98211Y202479D01*
X98195Y202463D01*
X98028Y202246D01*
X97878Y202013D01*
X97745Y201763D01*
X97628Y201496D01*
X97545Y201230D01*
X97462Y200947D01*
X97345Y200413D01*
X97312Y200164D01*
X97278Y199930D01*
X97262Y199730D01*
X97245Y199547D01*
X97228Y199397D01*
Y199281D01*
Y199214D01*
Y199181D01*
X97245Y198781D01*
X97278Y198398D01*
X97328Y198048D01*
X97378Y197715D01*
X97462Y197415D01*
X97545Y197148D01*
X97628Y196898D01*
X97728Y196665D01*
X97828Y196482D01*
X97911Y196299D01*
X97995Y196165D01*
X98078Y196049D01*
X98128Y195949D01*
X98178Y195882D01*
X98211Y195849D01*
X98228Y195832D01*
X98411Y195632D01*
X98611Y195466D01*
X98828Y195316D01*
X99044Y195182D01*
X99244Y195082D01*
X99461Y194982D01*
X99861Y194849D01*
X100044Y194816D01*
X100210Y194782D01*
X100377Y194749D01*
X100510Y194732D01*
X100610Y194716D01*
X100760D01*
X101043Y194732D01*
X101310Y194766D01*
X101577Y194816D01*
X101810Y194899D01*
X102043Y194982D01*
X102243Y195066D01*
X102443Y195166D01*
X102610Y195282D01*
X102776Y195382D01*
X102909Y195482D01*
X103026Y195565D01*
X103126Y195665D01*
X103209Y195732D01*
X103259Y195782D01*
X103293Y195815D01*
X103309Y195832D01*
X103492Y196049D01*
X103642Y196299D01*
X103776Y196565D01*
X103892Y196832D01*
X103976Y197098D01*
X104059Y197381D01*
X104175Y197915D01*
X104226Y198164D01*
X104259Y198398D01*
X104276Y198614D01*
X104292Y198798D01*
X104309Y198931D01*
Y199047D01*
Y199131D01*
Y199147D01*
X104292Y199547D01*
X104259Y199930D01*
X104226Y200280D01*
X104159Y200597D01*
X104092Y200897D01*
X104009Y201163D01*
X103909Y201413D01*
X103826Y201630D01*
X103742Y201830D01*
X103642Y201996D01*
X103559Y202146D01*
X103492Y202263D01*
X103426Y202346D01*
X103376Y202413D01*
X103359Y202446D01*
X103342Y202463D01*
X103159Y202663D01*
X102943Y202829D01*
X102743Y202979D01*
X102526Y203096D01*
X102310Y203212D01*
X102093Y203296D01*
X101676Y203429D01*
X101493Y203479D01*
X101310Y203512D01*
X101160Y203529D01*
X101027Y203546D01*
X100910Y203562D01*
D02*
G37*
%LPD*%
G36*
X65695Y141716D02*
X57054D01*
X57054Y158208D01*
X64880Y158208D01*
X65000Y158184D01*
X65120Y158208D01*
X65695D01*
X65695Y141716D01*
D02*
G37*
G36*
X35695D02*
X27054D01*
X27054Y158208D01*
X35695Y158208D01*
X35695Y141716D01*
D02*
G37*
G36*
X55702Y125724D02*
D01*
Y125724D01*
Y125724D01*
D02*
G37*
G36*
X57656Y125475D02*
X58822Y125281D01*
X61127Y124753D01*
X63397Y124088D01*
X65622Y123288D01*
X66709Y122822D01*
X66713Y122820D01*
X66721Y122812D01*
X66725Y122803D01*
X66725Y122792D01*
X66723Y122787D01*
X66723Y122787D01*
X66723Y122787D01*
X66722Y122787D01*
X66722Y122786D01*
X66722Y122786D01*
X61447Y110485D01*
X61447Y110485D01*
X61445Y110480D01*
X61437Y110473D01*
X61427Y110468D01*
X61417Y110469D01*
X61412Y110471D01*
Y110471D01*
X60692Y110767D01*
X59226Y111294D01*
X57731Y111732D01*
X56213Y112079D01*
X55447Y112219D01*
X55443Y112220D01*
X55434Y112224D01*
X55428Y112232D01*
X55425Y112240D01*
Y112245D01*
Y112246D01*
X55425Y112247D01*
X55425Y112248D01*
X55425Y112249D01*
X55425Y112250D01*
X57625Y125453D01*
Y125453D01*
X57626Y125459D01*
X57632Y125467D01*
X57640Y125473D01*
X57651Y125476D01*
X57656Y125475D01*
D02*
G37*
G36*
X53903Y125932D02*
X55702Y125724D01*
X54165Y112426D01*
X52737Y112552D01*
X49871Y112565D01*
X47021Y112263D01*
X44221Y111649D01*
X41506Y110730D01*
X38909Y109518D01*
X36461Y108027D01*
X34192Y106275D01*
X32130Y104284D01*
X30300Y102079D01*
X28723Y99685D01*
X27421Y97132D01*
X26407Y94451D01*
X25694Y91675D01*
X25292Y88837D01*
X25205Y85972D01*
X25434Y83115D01*
X25976Y80300D01*
X26824Y77562D01*
X27970Y74935D01*
X28649Y73673D01*
X17041Y67006D01*
X16139Y68577D01*
X14631Y71871D01*
X13431Y75290D01*
X12551Y78805D01*
X11997Y82386D01*
X11774Y86002D01*
X11884Y89624D01*
X12327Y93220D01*
X13098Y96761D01*
X14191Y100215D01*
X15596Y103555D01*
X17302Y106751D01*
X19295Y109778D01*
X21557Y112608D01*
X24069Y115219D01*
X26811Y117588D01*
X29759Y119695D01*
X32887Y121523D01*
X36170Y123055D01*
X39581Y124280D01*
X43089Y125186D01*
X46665Y125766D01*
X50280Y126016D01*
X53903Y125932D01*
D02*
G37*
G36*
X84009Y108347D02*
Y108347D01*
D01*
Y108347D01*
D02*
G37*
G36*
X68499Y121941D02*
X69550Y121426D01*
X71585Y120274D01*
X73548Y119002D01*
X75432Y117617D01*
X76332Y116869D01*
X67802Y106622D01*
X67802D01*
X67202Y107106D01*
X65960Y108019D01*
X64666Y108856D01*
X63325Y109616D01*
X62639Y109966D01*
X68499Y121941D01*
Y121941D01*
D02*
G37*
G36*
X78726Y114769D02*
X80376Y113054D01*
X81920Y111242D01*
X83352Y109340D01*
X84009Y108347D01*
X72848Y100958D01*
X72404Y101606D01*
X71460Y102861D01*
X70441Y104057D01*
X69352Y105188D01*
X68783Y105729D01*
Y105729D01*
X77850Y115576D01*
X78726Y114769D01*
D02*
G37*
G36*
X52707Y111902D02*
X54108Y111780D01*
X54323Y111804D01*
X54750Y111831D01*
X55122Y111655D01*
X55122Y111655D01*
X55130Y111654D01*
X55155Y111643D01*
X55155Y111643D01*
X55209Y111640D01*
X55310Y111594D01*
X55331Y111580D01*
X56082Y111443D01*
X57568Y111103D01*
X59025Y110676D01*
X60458Y110161D01*
X61160Y109872D01*
X61161Y109872D01*
X61161Y109872D01*
X61165Y109870D01*
X61227Y109870D01*
X61318Y109858D01*
X61409Y109819D01*
X61688Y109743D01*
X61935Y109666D01*
X62024Y109621D01*
X62334Y109398D01*
X62344Y109387D01*
X63018Y109044D01*
X64329Y108301D01*
X65591Y107484D01*
X66805Y106591D01*
X67394Y106116D01*
X67424Y106108D01*
X67712Y105954D01*
X67788Y105908D01*
X67903Y105818D01*
X68012Y105708D01*
X68194Y105481D01*
X68309Y105304D01*
X68323Y105270D01*
X68332Y105266D01*
X68335Y105258D01*
X68894Y104727D01*
X69959Y103620D01*
X70953Y102455D01*
X71877Y101227D01*
X72312Y100591D01*
X72325Y100582D01*
X72536Y100386D01*
X72625Y100299D01*
X72741Y100129D01*
X72843Y99952D01*
X72845Y99946D01*
X72968Y99553D01*
X72970Y99542D01*
X73661Y98297D01*
X74826Y95710D01*
X75692Y93018D01*
X76253Y90246D01*
X76502Y87428D01*
X76435Y84601D01*
X76053Y81798D01*
X75361Y79056D01*
X74368Y76408D01*
X73086Y73887D01*
X71531Y71525D01*
X69722Y69350D01*
X67682Y67391D01*
X65437Y65672D01*
X63014Y64214D01*
X60443Y63034D01*
X57757Y62149D01*
X54989Y61568D01*
X52173Y61300D01*
X49336Y61347D01*
X48127Y61469D01*
X47920Y61490D01*
X47920Y61490D01*
X47909Y61487D01*
X47884Y61481D01*
X47855Y61493D01*
X47855Y61493D01*
X47437Y61448D01*
X47198Y61486D01*
X47088Y61508D01*
X46929Y61572D01*
X46727Y61660D01*
X46714Y61667D01*
X46696Y61680D01*
X45941Y61827D01*
X44451Y62190D01*
X42990Y62640D01*
X41554Y63180D01*
X40847Y63483D01*
X40828Y63483D01*
X40428Y63561D01*
X40427Y63561D01*
X40233Y63644D01*
X40047Y63742D01*
X39734Y64004D01*
X39722Y64019D01*
X39039Y64379D01*
X37713Y65156D01*
X36441Y66009D01*
X35218Y66941D01*
X34627Y67436D01*
X34609Y67441D01*
X34262Y67624D01*
X34138Y67723D01*
X33987Y67868D01*
X33865Y68021D01*
X33711Y68256D01*
X33703Y68274D01*
X33163Y68805D01*
X32133Y69910D01*
X31175Y71071D01*
X30284Y72291D01*
X29865Y72922D01*
X29851Y72931D01*
X29801Y72979D01*
X29783Y73022D01*
X29469Y73347D01*
X29340Y73573D01*
X29335Y73591D01*
X29223Y73963D01*
X29222Y73970D01*
X29221Y73980D01*
X28554Y75219D01*
X27434Y77789D01*
X26607Y80458D01*
X26078Y83202D01*
X25855Y85988D01*
X25940Y88781D01*
X26332Y91548D01*
X27027Y94255D01*
X28015Y96868D01*
X29286Y99358D01*
X30822Y101691D01*
X32607Y103842D01*
X34617Y105783D01*
X36829Y107491D01*
X39216Y108944D01*
X41748Y110126D01*
X44395Y111022D01*
X47125Y111621D01*
X49904Y111916D01*
X52707Y111902D01*
D02*
G37*
G36*
X85054Y106679D02*
X85989Y105102D01*
X87556Y101786D01*
X88809Y98340D01*
X89736Y94792D01*
X90329Y91172D01*
X90584Y87514D01*
X90497Y83848D01*
X90069Y80206D01*
X89305Y76619D01*
X88211Y73119D01*
X86797Y69735D01*
X85074Y66498D01*
X83057Y63435D01*
X80765Y60572D01*
X78216Y57935D01*
X75433Y55547D01*
X72441Y53427D01*
X69264Y51595D01*
X65931Y50065D01*
X62470Y48853D01*
X58911Y47967D01*
X55286Y47416D01*
X51625Y47204D01*
X47960Y47333D01*
X46141Y47568D01*
X47855Y60844D01*
X47855D01*
X47855Y60844D01*
Y60844D01*
X49298Y60698D01*
X52199Y60650D01*
X55087Y60925D01*
X57926Y61520D01*
X60681Y62429D01*
X63317Y63638D01*
X65803Y65134D01*
X68106Y66898D01*
X70198Y68907D01*
X72053Y71137D01*
X73648Y73560D01*
X74963Y76146D01*
X75982Y78862D01*
X76692Y81675D01*
X77083Y84549D01*
X77152Y87449D01*
X76897Y90339D01*
X76322Y93182D01*
X75433Y95943D01*
X74242Y98589D01*
X73537Y99857D01*
X85054Y106679D01*
Y106679D01*
D02*
G37*
G36*
X29324Y72562D02*
X29751Y71919D01*
X30662Y70672D01*
X31645Y69482D01*
X32697Y68352D01*
X33248Y67810D01*
X24010Y58124D01*
X24010Y58124D01*
X23163Y58931D01*
X21568Y60644D01*
X20078Y62449D01*
X18697Y64339D01*
X18064Y65324D01*
X29324Y72562D01*
X29324D01*
X29324Y72562D01*
D02*
G37*
G36*
X34210Y66938D02*
X34813Y66433D01*
X36063Y65481D01*
X37368Y64606D01*
X38724Y63811D01*
X39419Y63445D01*
X33360Y51509D01*
Y51509D01*
X32298Y52048D01*
X30242Y53253D01*
X28264Y54579D01*
X26370Y56023D01*
X25468Y56801D01*
X34210Y66938D01*
Y66938D01*
D02*
G37*
G36*
X41312Y62577D02*
X42780Y62025D01*
X44278Y61564D01*
X45801Y61193D01*
X46571Y61042D01*
X44196Y47869D01*
X44196Y47869D01*
X43026Y48080D01*
X40717Y48641D01*
X38446Y49342D01*
X36222Y50178D01*
X35137Y50662D01*
X40592Y62886D01*
X41312Y62577D01*
D02*
G37*
%LPC*%
G36*
X41410Y104089D02*
X40824Y103972D01*
X40618Y103851D01*
X40618Y103851D01*
X38857Y102675D01*
X36866Y100929D01*
X35120Y98938D01*
X33649Y96736D01*
X32478Y94361D01*
X31627Y91854D01*
X31110Y89257D01*
X30937Y86614D01*
X31110Y83972D01*
X31627Y81375D01*
X32478Y78867D01*
X33649Y76492D01*
X35120Y74290D01*
X36866Y72299D01*
X38857Y70553D01*
X40618Y69377D01*
X40618Y69377D01*
X40824Y69256D01*
X41410Y69140D01*
Y69150D01*
X60953D01*
Y69140D01*
X61538Y69256D01*
X61744Y69377D01*
X61744Y69377D01*
X63505Y70553D01*
X65496Y72299D01*
X67242Y74290D01*
X68713Y76492D01*
X69884Y78867D01*
X70736Y81375D01*
X71252Y83972D01*
X71425Y86614D01*
X71252Y89257D01*
X70736Y91854D01*
X69884Y94361D01*
X68713Y96736D01*
X67242Y98938D01*
X65496Y100929D01*
X63505Y102675D01*
X61744Y103851D01*
X61744Y103851D01*
X61538Y103972D01*
X60953Y104089D01*
Y104079D01*
X41410D01*
Y104089D01*
D02*
G37*
%LPD*%
D16*
X60261Y117594D02*
D03*
X68729Y113712D02*
D03*
X75754Y107552D02*
D03*
X80867Y99301D02*
D03*
X41670Y55764D02*
D03*
X33200Y59802D02*
D03*
X26287Y66059D02*
D03*
X21305Y74382D02*
D03*
D42*
X35500Y160000D02*
X35750Y160250D01*
X31500Y164000D02*
X35500Y160000D01*
X61000Y164000D02*
Y167500D01*
Y164000D02*
X65000Y160000D01*
X31376Y167000D02*
X31500D01*
Y164000D02*
Y167000D01*
D43*
X68000Y188500D02*
Y188631D01*
Y188500D02*
X88000D01*
X108500D02*
X116000D01*
D45*
X128250Y176750D02*
X128250D01*
X19505Y74382D02*
X21305D01*
X5700Y59991D02*
X5714Y60005D01*
X5114Y59991D02*
X19505Y74382D01*
X5114Y59991D02*
X5700D01*
X97000Y116500D02*
X97000D01*
X84500Y129000D02*
X97000Y116500D01*
X95932Y107843D02*
Y109568D01*
X67917Y129000D02*
X84500D01*
X78593Y124984D02*
X80516D01*
X95932Y109568D01*
X22500Y121000D02*
X22500Y121000D01*
X17000Y121000D02*
X17000Y121000D01*
X22500D01*
X210996Y48879D02*
Y48879D01*
X211287Y49171D01*
X195941Y52191D02*
X196032D01*
X202011Y46212D01*
X40654Y41812D02*
Y54684D01*
X40622Y54716D02*
X40654Y54684D01*
X202011Y38619D02*
Y46212D01*
X211404Y84813D02*
X220091Y93500D01*
X211404Y49171D02*
Y84813D01*
X211287Y49171D02*
X211404D01*
X39592Y160796D02*
X39650Y160738D01*
X39261Y161127D02*
X39283Y161105D01*
X39592Y160796D01*
X39261Y161127D02*
Y187111D01*
X39650Y160738D02*
X41039D01*
X63541Y166202D02*
Y192934D01*
Y166202D02*
X67827Y161916D01*
X40622Y54716D02*
X41670Y55764D01*
X32241Y45259D02*
Y48360D01*
X50672Y42579D02*
Y53024D01*
X50696Y53048D01*
X51618Y53970D01*
X27000Y53601D02*
X32241Y48360D01*
X68729Y113712D02*
Y115120D01*
X78593Y124984D01*
X60261Y117594D02*
Y121344D01*
X67917Y129000D01*
X27000Y53601D02*
X33200Y59802D01*
X75754Y107552D02*
X76052D01*
X83500Y115000D01*
X17000Y59000D02*
X24059Y66059D01*
X26287D01*
D47*
X161165Y52921D02*
D03*
Y43079D02*
D03*
X148567D02*
D03*
Y52921D02*
D03*
D48*
X150535Y24299D02*
D03*
X150535Y71701D02*
D03*
D49*
X220091Y48500D02*
D03*
Y63500D02*
D03*
Y78500D02*
D03*
Y93500D02*
D03*
Y153500D02*
D03*
Y138500D02*
D03*
Y123500D02*
D03*
Y108500D02*
D03*
D50*
Y168500D02*
D03*
D51*
X216535Y196850D02*
D03*
Y19685D02*
D03*
X19685D02*
D03*
Y196850D02*
D03*
D52*
X59063Y152532D02*
D03*
X61032Y154500D02*
D03*
X59063Y156468D02*
D03*
X54732D02*
D03*
Y152532D02*
D03*
X50913Y156500D02*
D03*
Y152500D02*
D03*
X29063Y152532D02*
D03*
X31032Y154500D02*
D03*
X29063Y156468D02*
D03*
X24732D02*
D03*
Y152532D02*
D03*
X20913Y156500D02*
D03*
Y152500D02*
D03*
X127500Y45531D02*
D03*
Y49468D02*
D03*
X129862Y45531D02*
D03*
X125138D02*
D03*
Y49468D02*
D03*
X129862D02*
D03*
D53*
X68000Y188631D02*
D03*
X5714Y60005D02*
D03*
X171242Y36919D02*
D03*
X171161Y27839D02*
D03*
X120500Y27000D02*
D03*
X97000Y116500D02*
D03*
X179000Y67000D02*
D03*
Y58000D02*
D03*
X139000Y23000D02*
D03*
X95932Y107843D02*
D03*
X110500Y36500D02*
D03*
X131000Y63281D02*
D03*
Y72000D02*
D03*
X151000Y133271D02*
D03*
X40654Y41812D02*
D03*
X119500Y133000D02*
D03*
X122000Y158000D02*
D03*
X112500D02*
D03*
X151500Y182500D02*
D03*
X134000D02*
D03*
X100000D02*
D03*
X83000D02*
D03*
X61000Y133000D02*
D03*
X51000D02*
D03*
X17000Y121000D02*
D03*
X22500Y121000D02*
D03*
X36000Y129000D02*
D03*
X16000Y129500D02*
D03*
X60589Y176447D02*
D03*
X16063Y179883D02*
D03*
X31060Y177776D02*
D03*
X46053Y179407D02*
D03*
X42881Y107687D02*
D03*
X37010Y104172D02*
D03*
X32596Y99296D02*
D03*
X29748Y93321D02*
D03*
X59826Y65539D02*
D03*
X65697Y69054D02*
D03*
X70111Y73931D02*
D03*
X72959Y79905D02*
D03*
X72122Y95563D02*
D03*
X68515Y101384D02*
D03*
X63559Y105729D02*
D03*
X57586Y108467D02*
D03*
X44472Y64852D02*
D03*
X38497Y67701D02*
D03*
X33621Y72114D02*
D03*
X30106Y77986D02*
D03*
X28408Y86602D02*
D03*
X51210Y63841D02*
D03*
X73954Y86614D02*
D03*
X51497Y109385D02*
D03*
X21378Y55894D02*
D03*
X202011Y38619D02*
D03*
X210996Y48879D02*
D03*
X195941Y52191D02*
D03*
X41039Y160738D02*
D03*
X39261Y187111D02*
D03*
X35750Y160250D02*
D03*
X63541Y192934D02*
D03*
X67827Y161916D02*
D03*
X32241Y45259D02*
D03*
X50672Y42579D02*
D03*
X78593Y124984D02*
D03*
X83500Y115000D02*
D03*
X17000Y59000D02*
D03*
X88000Y188500D02*
D03*
X108500D02*
D03*
X116000D02*
D03*
X61000Y167500D02*
D03*
X65000Y160000D02*
D03*
X31376Y167000D02*
D03*
M02*
